M48
; DRILL file {KiCad 5.1.10-88a1d61d58~90~ubuntu20.04.1} date Tue Sep 14 19:28:10 2021
; FORMAT={-:-/ absolute / metric / decimal}
; #@! TF.CreationDate,2021-09-14T19:28:10-05:00
; #@! TF.GenerationSoftware,Kicad,Pcbnew,5.1.10-88a1d61d58~90~ubuntu20.04.1
; #@! TF.FileFunction,Plated,1,2,PTH
FMAT,2
METRIC
T1C0.400
T2C0.762
T3C1.000
T4C1.100
%
G90
G05
T1
X107.4Y-53.8
X117.1Y-116.3
X118.7Y-118.1
X119.0Y-127.6
X119.834Y-108.566
X120.783Y-109.514
X123.5Y-128.4
X124.0Y-120.3
X126.0Y-126.6
X127.3Y-132.5
X127.324Y-114.426
X129.4Y-132.5
X132.1Y-120.1
X132.2Y-129.9
X133.8Y-123.5
X134.6Y-125.6
X134.6Y-134.1
X135.3Y-114.4
X138.6Y-118.3
X141.7Y-96.6
X142.0Y-123.3
X142.6Y-116.7
X143.9Y-93.6
X143.9Y-133.8
X145.0Y-88.3
X146.1Y-98.8
X146.5Y-130.1
X146.7Y-89.8
X146.8Y-125.7
X149.1Y-126.5
X149.1Y-134.5
X150.6Y-95.2
X150.8Y-120.4
X151.1Y-115.9
X152.143Y-101.756
X152.6Y-108.0
X152.8Y-100.8
X152.8Y-125.7
X156.2Y-102.8
X156.4Y-111.5
X156.5Y-99.7
X157.1Y-118.6
X157.5Y-108.5
X157.6Y-110.5
X157.9Y-95.9
X157.9Y-97.4
X158.1Y-101.0
X158.2Y-99.8
X159.2Y-126.4
X159.4Y-133.5
X160.4Y-103.7
X161.6Y-129.6
X161.7Y-101.5
X161.75Y-124.65
X162.7Y-130.0
X165.3Y-116.0
X165.4Y-134.1
X167.1Y-132.3
X167.6Y-97.675
X167.6Y-126.0
X168.7Y-120.0
X169.816Y-117.184
X170.6Y-125.1
X173.3Y-118.2
X173.6Y-134.0
X178.9Y-133.7
X179.5Y-77.3
X179.5Y-123.6
X179.8Y-132.2
X181.3Y-133.8
X183.9Y-126.0
X188.7Y-121.1
T2
X185.4Y-84.0
X185.4Y-86.54
X185.4Y-89.08
X185.4Y-91.62
X187.94Y-84.0
X187.94Y-86.54
X187.94Y-89.08
X187.94Y-91.62
T3
X128.8Y-69.7
X128.8Y-72.24
X128.8Y-74.78
X128.8Y-77.32
X128.8Y-79.86
X128.8Y-82.4
X128.8Y-84.94
X128.8Y-87.48
X128.8Y-93.28
X128.8Y-95.82
X128.8Y-98.36
X128.8Y-100.9
X128.8Y-103.44
X128.8Y-105.98
X177.06Y-61.29
X177.06Y-63.83
X177.06Y-66.37
X177.06Y-68.91
X177.06Y-71.45
X177.06Y-73.99
X177.06Y-76.53
X177.06Y-79.07
X177.06Y-81.61
X177.06Y-84.15
X177.06Y-88.2
X177.06Y-90.74
X177.06Y-93.28
X177.06Y-95.82
X177.06Y-98.36
X177.06Y-100.9
X177.06Y-103.44
X177.06Y-105.98
T4
X127.3Y-139.0
X129.84Y-139.0
X132.38Y-139.0
X134.92Y-139.0
X137.46Y-139.0
X140.0Y-139.0
X142.54Y-139.0
X145.08Y-139.0
X147.62Y-139.0
X150.16Y-139.0
X156.8Y-138.9
X159.34Y-138.9
X161.88Y-138.9
X164.42Y-138.9
X166.96Y-138.9
X169.5Y-138.9
X172.04Y-138.9
X174.58Y-138.9
X177.12Y-138.9
X179.66Y-138.9
T0
M30
