G04 #@! TF.GenerationSoftware,KiCad,Pcbnew,5.1.7-a382d34a8~88~ubuntu18.04.1*
G04 #@! TF.CreationDate,2021-09-17T12:32:22-05:00*
G04 #@! TF.ProjectId,serial_logger_uart_expander,73657269-616c-45f6-9c6f-676765725f75,rev?*
G04 #@! TF.SameCoordinates,Original*
G04 #@! TF.FileFunction,Paste,Top*
G04 #@! TF.FilePolarity,Positive*
%FSLAX46Y46*%
G04 Gerber Fmt 4.6, Leading zero omitted, Abs format (unit mm)*
G04 Created by KiCad (PCBNEW 5.1.7-a382d34a8~88~ubuntu18.04.1) date 2021-09-17 12:32:22*
%MOMM*%
%LPD*%
G01*
G04 APERTURE LIST*
%ADD10R,0.900000X0.800000*%
%ADD11R,0.800000X0.900000*%
%ADD12R,0.600000X1.200000*%
G04 APERTURE END LIST*
G36*
G01*
X174163400Y-119436600D02*
X173613400Y-119436600D01*
G75*
G02*
X173413400Y-119236600I0J200000D01*
G01*
X173413400Y-118836600D01*
G75*
G02*
X173613400Y-118636600I200000J0D01*
G01*
X174163400Y-118636600D01*
G75*
G02*
X174363400Y-118836600I0J-200000D01*
G01*
X174363400Y-119236600D01*
G75*
G02*
X174163400Y-119436600I-200000J0D01*
G01*
G37*
G36*
G01*
X174163400Y-117786600D02*
X173613400Y-117786600D01*
G75*
G02*
X173413400Y-117586600I0J200000D01*
G01*
X173413400Y-117186600D01*
G75*
G02*
X173613400Y-116986600I200000J0D01*
G01*
X174163400Y-116986600D01*
G75*
G02*
X174363400Y-117186600I0J-200000D01*
G01*
X174363400Y-117586600D01*
G75*
G02*
X174163400Y-117786600I-200000J0D01*
G01*
G37*
D10*
X161306000Y-125730000D03*
X163306000Y-124780000D03*
X163306000Y-126680000D03*
X149622000Y-125730000D03*
X151622000Y-124780000D03*
X151622000Y-126680000D03*
X134432800Y-125831600D03*
X136432800Y-124881600D03*
X136432800Y-126781600D03*
X177358800Y-125730000D03*
X179358800Y-124780000D03*
X179358800Y-126680000D03*
D11*
X171196000Y-125510800D03*
X170246000Y-123510800D03*
X172146000Y-123510800D03*
X155092400Y-125510800D03*
X154142400Y-123510800D03*
X156042400Y-123510800D03*
X143002000Y-125510800D03*
X142052000Y-123510800D03*
X143952000Y-123510800D03*
X127660400Y-125510800D03*
X126710400Y-123510800D03*
X128610400Y-123510800D03*
D10*
X181626000Y-125730000D03*
X183626000Y-124780000D03*
X183626000Y-126680000D03*
X165522400Y-125730000D03*
X167522400Y-124780000D03*
X167522400Y-126680000D03*
X145608800Y-125730000D03*
X147608800Y-124780000D03*
X147608800Y-126680000D03*
D11*
X174802800Y-125510800D03*
X173852800Y-123510800D03*
X175752800Y-123510800D03*
X158699200Y-125510800D03*
X157749200Y-123510800D03*
X159649200Y-123510800D03*
X139293600Y-125510800D03*
X138343600Y-123510800D03*
X140243600Y-123510800D03*
X125003600Y-123510800D03*
X123103600Y-123510800D03*
X124053600Y-125510800D03*
G36*
G01*
X112575000Y-54012500D02*
X112575000Y-53587500D01*
G75*
G02*
X112787500Y-53375000I212500J0D01*
G01*
X113587500Y-53375000D01*
G75*
G02*
X113800000Y-53587500I0J-212500D01*
G01*
X113800000Y-54012500D01*
G75*
G02*
X113587500Y-54225000I-212500J0D01*
G01*
X112787500Y-54225000D01*
G75*
G02*
X112575000Y-54012500I0J212500D01*
G01*
G37*
G36*
G01*
X114200000Y-54012500D02*
X114200000Y-53587500D01*
G75*
G02*
X114412500Y-53375000I212500J0D01*
G01*
X115212500Y-53375000D01*
G75*
G02*
X115425000Y-53587500I0J-212500D01*
G01*
X115425000Y-54012500D01*
G75*
G02*
X115212500Y-54225000I-212500J0D01*
G01*
X114412500Y-54225000D01*
G75*
G02*
X114200000Y-54012500I0J212500D01*
G01*
G37*
G36*
G01*
X136673000Y-119436600D02*
X136123000Y-119436600D01*
G75*
G02*
X135923000Y-119236600I0J200000D01*
G01*
X135923000Y-118836600D01*
G75*
G02*
X136123000Y-118636600I200000J0D01*
G01*
X136673000Y-118636600D01*
G75*
G02*
X136873000Y-118836600I0J-200000D01*
G01*
X136873000Y-119236600D01*
G75*
G02*
X136673000Y-119436600I-200000J0D01*
G01*
G37*
G36*
G01*
X136673000Y-117786600D02*
X136123000Y-117786600D01*
G75*
G02*
X135923000Y-117586600I0J200000D01*
G01*
X135923000Y-117186600D01*
G75*
G02*
X136123000Y-116986600I200000J0D01*
G01*
X136673000Y-116986600D01*
G75*
G02*
X136873000Y-117186600I0J-200000D01*
G01*
X136873000Y-117586600D01*
G75*
G02*
X136673000Y-117786600I-200000J0D01*
G01*
G37*
G36*
G01*
X151913000Y-117837400D02*
X151363000Y-117837400D01*
G75*
G02*
X151163000Y-117637400I0J200000D01*
G01*
X151163000Y-117237400D01*
G75*
G02*
X151363000Y-117037400I200000J0D01*
G01*
X151913000Y-117037400D01*
G75*
G02*
X152113000Y-117237400I0J-200000D01*
G01*
X152113000Y-117637400D01*
G75*
G02*
X151913000Y-117837400I-200000J0D01*
G01*
G37*
G36*
G01*
X151913000Y-119487400D02*
X151363000Y-119487400D01*
G75*
G02*
X151163000Y-119287400I0J200000D01*
G01*
X151163000Y-118887400D01*
G75*
G02*
X151363000Y-118687400I200000J0D01*
G01*
X151913000Y-118687400D01*
G75*
G02*
X152113000Y-118887400I0J-200000D01*
G01*
X152113000Y-119287400D01*
G75*
G02*
X151913000Y-119487400I-200000J0D01*
G01*
G37*
G36*
G01*
X163546200Y-117786600D02*
X162996200Y-117786600D01*
G75*
G02*
X162796200Y-117586600I0J200000D01*
G01*
X162796200Y-117186600D01*
G75*
G02*
X162996200Y-116986600I200000J0D01*
G01*
X163546200Y-116986600D01*
G75*
G02*
X163746200Y-117186600I0J-200000D01*
G01*
X163746200Y-117586600D01*
G75*
G02*
X163546200Y-117786600I-200000J0D01*
G01*
G37*
G36*
G01*
X163546200Y-119436600D02*
X162996200Y-119436600D01*
G75*
G02*
X162796200Y-119236600I0J200000D01*
G01*
X162796200Y-118836600D01*
G75*
G02*
X162996200Y-118636600I200000J0D01*
G01*
X163546200Y-118636600D01*
G75*
G02*
X163746200Y-118836600I0J-200000D01*
G01*
X163746200Y-119236600D01*
G75*
G02*
X163546200Y-119436600I-200000J0D01*
G01*
G37*
G36*
G01*
X179649800Y-117735800D02*
X179099800Y-117735800D01*
G75*
G02*
X178899800Y-117535800I0J200000D01*
G01*
X178899800Y-117135800D01*
G75*
G02*
X179099800Y-116935800I200000J0D01*
G01*
X179649800Y-116935800D01*
G75*
G02*
X179849800Y-117135800I0J-200000D01*
G01*
X179849800Y-117535800D01*
G75*
G02*
X179649800Y-117735800I-200000J0D01*
G01*
G37*
G36*
G01*
X179649800Y-119385800D02*
X179099800Y-119385800D01*
G75*
G02*
X178899800Y-119185800I0J200000D01*
G01*
X178899800Y-118785800D01*
G75*
G02*
X179099800Y-118585800I200000J0D01*
G01*
X179649800Y-118585800D01*
G75*
G02*
X179849800Y-118785800I0J-200000D01*
G01*
X179849800Y-119185800D01*
G75*
G02*
X179649800Y-119385800I-200000J0D01*
G01*
G37*
G36*
G01*
X132558200Y-117786600D02*
X132008200Y-117786600D01*
G75*
G02*
X131808200Y-117586600I0J200000D01*
G01*
X131808200Y-117186600D01*
G75*
G02*
X132008200Y-116986600I200000J0D01*
G01*
X132558200Y-116986600D01*
G75*
G02*
X132758200Y-117186600I0J-200000D01*
G01*
X132758200Y-117586600D01*
G75*
G02*
X132558200Y-117786600I-200000J0D01*
G01*
G37*
G36*
G01*
X132558200Y-119436600D02*
X132008200Y-119436600D01*
G75*
G02*
X131808200Y-119236600I0J200000D01*
G01*
X131808200Y-118836600D01*
G75*
G02*
X132008200Y-118636600I200000J0D01*
G01*
X132558200Y-118636600D01*
G75*
G02*
X132758200Y-118836600I0J-200000D01*
G01*
X132758200Y-119236600D01*
G75*
G02*
X132558200Y-119436600I-200000J0D01*
G01*
G37*
G36*
G01*
X147849000Y-119487400D02*
X147299000Y-119487400D01*
G75*
G02*
X147099000Y-119287400I0J200000D01*
G01*
X147099000Y-118887400D01*
G75*
G02*
X147299000Y-118687400I200000J0D01*
G01*
X147849000Y-118687400D01*
G75*
G02*
X148049000Y-118887400I0J-200000D01*
G01*
X148049000Y-119287400D01*
G75*
G02*
X147849000Y-119487400I-200000J0D01*
G01*
G37*
G36*
G01*
X147849000Y-117837400D02*
X147299000Y-117837400D01*
G75*
G02*
X147099000Y-117637400I0J200000D01*
G01*
X147099000Y-117237400D01*
G75*
G02*
X147299000Y-117037400I200000J0D01*
G01*
X147849000Y-117037400D01*
G75*
G02*
X148049000Y-117237400I0J-200000D01*
G01*
X148049000Y-117637400D01*
G75*
G02*
X147849000Y-117837400I-200000J0D01*
G01*
G37*
G36*
G01*
X167813400Y-117786600D02*
X167263400Y-117786600D01*
G75*
G02*
X167063400Y-117586600I0J200000D01*
G01*
X167063400Y-117186600D01*
G75*
G02*
X167263400Y-116986600I200000J0D01*
G01*
X167813400Y-116986600D01*
G75*
G02*
X168013400Y-117186600I0J-200000D01*
G01*
X168013400Y-117586600D01*
G75*
G02*
X167813400Y-117786600I-200000J0D01*
G01*
G37*
G36*
G01*
X167813400Y-119436600D02*
X167263400Y-119436600D01*
G75*
G02*
X167063400Y-119236600I0J200000D01*
G01*
X167063400Y-118836600D01*
G75*
G02*
X167263400Y-118636600I200000J0D01*
G01*
X167813400Y-118636600D01*
G75*
G02*
X168013400Y-118836600I0J-200000D01*
G01*
X168013400Y-119236600D01*
G75*
G02*
X167813400Y-119436600I-200000J0D01*
G01*
G37*
G36*
G01*
X183917000Y-117735800D02*
X183367000Y-117735800D01*
G75*
G02*
X183167000Y-117535800I0J200000D01*
G01*
X183167000Y-117135800D01*
G75*
G02*
X183367000Y-116935800I200000J0D01*
G01*
X183917000Y-116935800D01*
G75*
G02*
X184117000Y-117135800I0J-200000D01*
G01*
X184117000Y-117535800D01*
G75*
G02*
X183917000Y-117735800I-200000J0D01*
G01*
G37*
G36*
G01*
X183917000Y-119385800D02*
X183367000Y-119385800D01*
G75*
G02*
X183167000Y-119185800I0J200000D01*
G01*
X183167000Y-118785800D01*
G75*
G02*
X183367000Y-118585800I200000J0D01*
G01*
X183917000Y-118585800D01*
G75*
G02*
X184117000Y-118785800I0J-200000D01*
G01*
X184117000Y-119185800D01*
G75*
G02*
X183917000Y-119385800I-200000J0D01*
G01*
G37*
G36*
G01*
X127021000Y-117786600D02*
X126471000Y-117786600D01*
G75*
G02*
X126271000Y-117586600I0J200000D01*
G01*
X126271000Y-117186600D01*
G75*
G02*
X126471000Y-116986600I200000J0D01*
G01*
X127021000Y-116986600D01*
G75*
G02*
X127221000Y-117186600I0J-200000D01*
G01*
X127221000Y-117586600D01*
G75*
G02*
X127021000Y-117786600I-200000J0D01*
G01*
G37*
G36*
G01*
X127021000Y-119436600D02*
X126471000Y-119436600D01*
G75*
G02*
X126271000Y-119236600I0J200000D01*
G01*
X126271000Y-118836600D01*
G75*
G02*
X126471000Y-118636600I200000J0D01*
G01*
X127021000Y-118636600D01*
G75*
G02*
X127221000Y-118836600I0J-200000D01*
G01*
X127221000Y-119236600D01*
G75*
G02*
X127021000Y-119436600I-200000J0D01*
G01*
G37*
G36*
G01*
X142362600Y-119436600D02*
X141812600Y-119436600D01*
G75*
G02*
X141612600Y-119236600I0J200000D01*
G01*
X141612600Y-118836600D01*
G75*
G02*
X141812600Y-118636600I200000J0D01*
G01*
X142362600Y-118636600D01*
G75*
G02*
X142562600Y-118836600I0J-200000D01*
G01*
X142562600Y-119236600D01*
G75*
G02*
X142362600Y-119436600I-200000J0D01*
G01*
G37*
G36*
G01*
X142362600Y-117786600D02*
X141812600Y-117786600D01*
G75*
G02*
X141612600Y-117586600I0J200000D01*
G01*
X141612600Y-117186600D01*
G75*
G02*
X141812600Y-116986600I200000J0D01*
G01*
X142362600Y-116986600D01*
G75*
G02*
X142562600Y-117186600I0J-200000D01*
G01*
X142562600Y-117586600D01*
G75*
G02*
X142362600Y-117786600I-200000J0D01*
G01*
G37*
G36*
G01*
X154402200Y-119487400D02*
X153852200Y-119487400D01*
G75*
G02*
X153652200Y-119287400I0J200000D01*
G01*
X153652200Y-118887400D01*
G75*
G02*
X153852200Y-118687400I200000J0D01*
G01*
X154402200Y-118687400D01*
G75*
G02*
X154602200Y-118887400I0J-200000D01*
G01*
X154602200Y-119287400D01*
G75*
G02*
X154402200Y-119487400I-200000J0D01*
G01*
G37*
G36*
G01*
X154402200Y-117837400D02*
X153852200Y-117837400D01*
G75*
G02*
X153652200Y-117637400I0J200000D01*
G01*
X153652200Y-117237400D01*
G75*
G02*
X153852200Y-117037400I200000J0D01*
G01*
X154402200Y-117037400D01*
G75*
G02*
X154602200Y-117237400I0J-200000D01*
G01*
X154602200Y-117637400D01*
G75*
G02*
X154402200Y-117837400I-200000J0D01*
G01*
G37*
G36*
G01*
X170556600Y-119436600D02*
X170006600Y-119436600D01*
G75*
G02*
X169806600Y-119236600I0J200000D01*
G01*
X169806600Y-118836600D01*
G75*
G02*
X170006600Y-118636600I200000J0D01*
G01*
X170556600Y-118636600D01*
G75*
G02*
X170756600Y-118836600I0J-200000D01*
G01*
X170756600Y-119236600D01*
G75*
G02*
X170556600Y-119436600I-200000J0D01*
G01*
G37*
G36*
G01*
X170556600Y-117786600D02*
X170006600Y-117786600D01*
G75*
G02*
X169806600Y-117586600I0J200000D01*
G01*
X169806600Y-117186600D01*
G75*
G02*
X170006600Y-116986600I200000J0D01*
G01*
X170556600Y-116986600D01*
G75*
G02*
X170756600Y-117186600I0J-200000D01*
G01*
X170756600Y-117586600D01*
G75*
G02*
X170556600Y-117786600I-200000J0D01*
G01*
G37*
G36*
G01*
X123414200Y-119436600D02*
X122864200Y-119436600D01*
G75*
G02*
X122664200Y-119236600I0J200000D01*
G01*
X122664200Y-118836600D01*
G75*
G02*
X122864200Y-118636600I200000J0D01*
G01*
X123414200Y-118636600D01*
G75*
G02*
X123614200Y-118836600I0J-200000D01*
G01*
X123614200Y-119236600D01*
G75*
G02*
X123414200Y-119436600I-200000J0D01*
G01*
G37*
G36*
G01*
X123414200Y-117786600D02*
X122864200Y-117786600D01*
G75*
G02*
X122664200Y-117586600I0J200000D01*
G01*
X122664200Y-117186600D01*
G75*
G02*
X122864200Y-116986600I200000J0D01*
G01*
X123414200Y-116986600D01*
G75*
G02*
X123614200Y-117186600I0J-200000D01*
G01*
X123614200Y-117586600D01*
G75*
G02*
X123414200Y-117786600I-200000J0D01*
G01*
G37*
G36*
G01*
X138654200Y-119436600D02*
X138104200Y-119436600D01*
G75*
G02*
X137904200Y-119236600I0J200000D01*
G01*
X137904200Y-118836600D01*
G75*
G02*
X138104200Y-118636600I200000J0D01*
G01*
X138654200Y-118636600D01*
G75*
G02*
X138854200Y-118836600I0J-200000D01*
G01*
X138854200Y-119236600D01*
G75*
G02*
X138654200Y-119436600I-200000J0D01*
G01*
G37*
G36*
G01*
X138654200Y-117786600D02*
X138104200Y-117786600D01*
G75*
G02*
X137904200Y-117586600I0J200000D01*
G01*
X137904200Y-117186600D01*
G75*
G02*
X138104200Y-116986600I200000J0D01*
G01*
X138654200Y-116986600D01*
G75*
G02*
X138854200Y-117186600I0J-200000D01*
G01*
X138854200Y-117586600D01*
G75*
G02*
X138654200Y-117786600I-200000J0D01*
G01*
G37*
G36*
G01*
X158009000Y-119436600D02*
X157459000Y-119436600D01*
G75*
G02*
X157259000Y-119236600I0J200000D01*
G01*
X157259000Y-118836600D01*
G75*
G02*
X157459000Y-118636600I200000J0D01*
G01*
X158009000Y-118636600D01*
G75*
G02*
X158209000Y-118836600I0J-200000D01*
G01*
X158209000Y-119236600D01*
G75*
G02*
X158009000Y-119436600I-200000J0D01*
G01*
G37*
G36*
G01*
X158009000Y-117786600D02*
X157459000Y-117786600D01*
G75*
G02*
X157259000Y-117586600I0J200000D01*
G01*
X157259000Y-117186600D01*
G75*
G02*
X157459000Y-116986600I200000J0D01*
G01*
X158009000Y-116986600D01*
G75*
G02*
X158209000Y-117186600I0J-200000D01*
G01*
X158209000Y-117586600D01*
G75*
G02*
X158009000Y-117786600I-200000J0D01*
G01*
G37*
G36*
G01*
X126029000Y-130069000D02*
X126029000Y-129519000D01*
G75*
G02*
X126229000Y-129319000I200000J0D01*
G01*
X126629000Y-129319000D01*
G75*
G02*
X126829000Y-129519000I0J-200000D01*
G01*
X126829000Y-130069000D01*
G75*
G02*
X126629000Y-130269000I-200000J0D01*
G01*
X126229000Y-130269000D01*
G75*
G02*
X126029000Y-130069000I0J200000D01*
G01*
G37*
G36*
G01*
X127679000Y-130069000D02*
X127679000Y-129519000D01*
G75*
G02*
X127879000Y-129319000I200000J0D01*
G01*
X128279000Y-129319000D01*
G75*
G02*
X128479000Y-129519000I0J-200000D01*
G01*
X128479000Y-130069000D01*
G75*
G02*
X128279000Y-130269000I-200000J0D01*
G01*
X127879000Y-130269000D01*
G75*
G02*
X127679000Y-130069000I0J200000D01*
G01*
G37*
G36*
G01*
X141522000Y-129942000D02*
X141522000Y-129392000D01*
G75*
G02*
X141722000Y-129192000I200000J0D01*
G01*
X142122000Y-129192000D01*
G75*
G02*
X142322000Y-129392000I0J-200000D01*
G01*
X142322000Y-129942000D01*
G75*
G02*
X142122000Y-130142000I-200000J0D01*
G01*
X141722000Y-130142000D01*
G75*
G02*
X141522000Y-129942000I0J200000D01*
G01*
G37*
G36*
G01*
X139872000Y-129942000D02*
X139872000Y-129392000D01*
G75*
G02*
X140072000Y-129192000I200000J0D01*
G01*
X140472000Y-129192000D01*
G75*
G02*
X140672000Y-129392000I0J-200000D01*
G01*
X140672000Y-129942000D01*
G75*
G02*
X140472000Y-130142000I-200000J0D01*
G01*
X140072000Y-130142000D01*
G75*
G02*
X139872000Y-129942000I0J200000D01*
G01*
G37*
G36*
G01*
X157016000Y-129942000D02*
X157016000Y-129392000D01*
G75*
G02*
X157216000Y-129192000I200000J0D01*
G01*
X157616000Y-129192000D01*
G75*
G02*
X157816000Y-129392000I0J-200000D01*
G01*
X157816000Y-129942000D01*
G75*
G02*
X157616000Y-130142000I-200000J0D01*
G01*
X157216000Y-130142000D01*
G75*
G02*
X157016000Y-129942000I0J200000D01*
G01*
G37*
G36*
G01*
X155366000Y-129942000D02*
X155366000Y-129392000D01*
G75*
G02*
X155566000Y-129192000I200000J0D01*
G01*
X155966000Y-129192000D01*
G75*
G02*
X156166000Y-129392000I0J-200000D01*
G01*
X156166000Y-129942000D01*
G75*
G02*
X155966000Y-130142000I-200000J0D01*
G01*
X155566000Y-130142000D01*
G75*
G02*
X155366000Y-129942000I0J200000D01*
G01*
G37*
G36*
G01*
X170478000Y-129942000D02*
X170478000Y-129392000D01*
G75*
G02*
X170678000Y-129192000I200000J0D01*
G01*
X171078000Y-129192000D01*
G75*
G02*
X171278000Y-129392000I0J-200000D01*
G01*
X171278000Y-129942000D01*
G75*
G02*
X171078000Y-130142000I-200000J0D01*
G01*
X170678000Y-130142000D01*
G75*
G02*
X170478000Y-129942000I0J200000D01*
G01*
G37*
G36*
G01*
X168828000Y-129942000D02*
X168828000Y-129392000D01*
G75*
G02*
X169028000Y-129192000I200000J0D01*
G01*
X169428000Y-129192000D01*
G75*
G02*
X169628000Y-129392000I0J-200000D01*
G01*
X169628000Y-129942000D01*
G75*
G02*
X169428000Y-130142000I-200000J0D01*
G01*
X169028000Y-130142000D01*
G75*
G02*
X168828000Y-129942000I0J200000D01*
G01*
G37*
G36*
G01*
X127679000Y-132355000D02*
X127679000Y-131805000D01*
G75*
G02*
X127879000Y-131605000I200000J0D01*
G01*
X128279000Y-131605000D01*
G75*
G02*
X128479000Y-131805000I0J-200000D01*
G01*
X128479000Y-132355000D01*
G75*
G02*
X128279000Y-132555000I-200000J0D01*
G01*
X127879000Y-132555000D01*
G75*
G02*
X127679000Y-132355000I0J200000D01*
G01*
G37*
G36*
G01*
X126029000Y-132355000D02*
X126029000Y-131805000D01*
G75*
G02*
X126229000Y-131605000I200000J0D01*
G01*
X126629000Y-131605000D01*
G75*
G02*
X126829000Y-131805000I0J-200000D01*
G01*
X126829000Y-132355000D01*
G75*
G02*
X126629000Y-132555000I-200000J0D01*
G01*
X126229000Y-132555000D01*
G75*
G02*
X126029000Y-132355000I0J200000D01*
G01*
G37*
G36*
G01*
X141522000Y-132228000D02*
X141522000Y-131678000D01*
G75*
G02*
X141722000Y-131478000I200000J0D01*
G01*
X142122000Y-131478000D01*
G75*
G02*
X142322000Y-131678000I0J-200000D01*
G01*
X142322000Y-132228000D01*
G75*
G02*
X142122000Y-132428000I-200000J0D01*
G01*
X141722000Y-132428000D01*
G75*
G02*
X141522000Y-132228000I0J200000D01*
G01*
G37*
G36*
G01*
X139872000Y-132228000D02*
X139872000Y-131678000D01*
G75*
G02*
X140072000Y-131478000I200000J0D01*
G01*
X140472000Y-131478000D01*
G75*
G02*
X140672000Y-131678000I0J-200000D01*
G01*
X140672000Y-132228000D01*
G75*
G02*
X140472000Y-132428000I-200000J0D01*
G01*
X140072000Y-132428000D01*
G75*
G02*
X139872000Y-132228000I0J200000D01*
G01*
G37*
G36*
G01*
X157016000Y-132228000D02*
X157016000Y-131678000D01*
G75*
G02*
X157216000Y-131478000I200000J0D01*
G01*
X157616000Y-131478000D01*
G75*
G02*
X157816000Y-131678000I0J-200000D01*
G01*
X157816000Y-132228000D01*
G75*
G02*
X157616000Y-132428000I-200000J0D01*
G01*
X157216000Y-132428000D01*
G75*
G02*
X157016000Y-132228000I0J200000D01*
G01*
G37*
G36*
G01*
X155366000Y-132228000D02*
X155366000Y-131678000D01*
G75*
G02*
X155566000Y-131478000I200000J0D01*
G01*
X155966000Y-131478000D01*
G75*
G02*
X156166000Y-131678000I0J-200000D01*
G01*
X156166000Y-132228000D01*
G75*
G02*
X155966000Y-132428000I-200000J0D01*
G01*
X155566000Y-132428000D01*
G75*
G02*
X155366000Y-132228000I0J200000D01*
G01*
G37*
G36*
G01*
X170478000Y-132228000D02*
X170478000Y-131678000D01*
G75*
G02*
X170678000Y-131478000I200000J0D01*
G01*
X171078000Y-131478000D01*
G75*
G02*
X171278000Y-131678000I0J-200000D01*
G01*
X171278000Y-132228000D01*
G75*
G02*
X171078000Y-132428000I-200000J0D01*
G01*
X170678000Y-132428000D01*
G75*
G02*
X170478000Y-132228000I0J200000D01*
G01*
G37*
G36*
G01*
X168828000Y-132228000D02*
X168828000Y-131678000D01*
G75*
G02*
X169028000Y-131478000I200000J0D01*
G01*
X169428000Y-131478000D01*
G75*
G02*
X169628000Y-131678000I0J-200000D01*
G01*
X169628000Y-132228000D01*
G75*
G02*
X169428000Y-132428000I-200000J0D01*
G01*
X169028000Y-132428000D01*
G75*
G02*
X168828000Y-132228000I0J200000D01*
G01*
G37*
G36*
G01*
X133941000Y-129519000D02*
X133941000Y-130069000D01*
G75*
G02*
X133741000Y-130269000I-200000J0D01*
G01*
X133341000Y-130269000D01*
G75*
G02*
X133141000Y-130069000I0J200000D01*
G01*
X133141000Y-129519000D01*
G75*
G02*
X133341000Y-129319000I200000J0D01*
G01*
X133741000Y-129319000D01*
G75*
G02*
X133941000Y-129519000I0J-200000D01*
G01*
G37*
G36*
G01*
X135591000Y-129519000D02*
X135591000Y-130069000D01*
G75*
G02*
X135391000Y-130269000I-200000J0D01*
G01*
X134991000Y-130269000D01*
G75*
G02*
X134791000Y-130069000I0J200000D01*
G01*
X134791000Y-129519000D01*
G75*
G02*
X134991000Y-129319000I200000J0D01*
G01*
X135391000Y-129319000D01*
G75*
G02*
X135591000Y-129519000I0J-200000D01*
G01*
G37*
G36*
G01*
X149561000Y-129392000D02*
X149561000Y-129942000D01*
G75*
G02*
X149361000Y-130142000I-200000J0D01*
G01*
X148961000Y-130142000D01*
G75*
G02*
X148761000Y-129942000I0J200000D01*
G01*
X148761000Y-129392000D01*
G75*
G02*
X148961000Y-129192000I200000J0D01*
G01*
X149361000Y-129192000D01*
G75*
G02*
X149561000Y-129392000I0J-200000D01*
G01*
G37*
G36*
G01*
X147911000Y-129392000D02*
X147911000Y-129942000D01*
G75*
G02*
X147711000Y-130142000I-200000J0D01*
G01*
X147311000Y-130142000D01*
G75*
G02*
X147111000Y-129942000I0J200000D01*
G01*
X147111000Y-129392000D01*
G75*
G02*
X147311000Y-129192000I200000J0D01*
G01*
X147711000Y-129192000D01*
G75*
G02*
X147911000Y-129392000I0J-200000D01*
G01*
G37*
G36*
G01*
X165182000Y-129392000D02*
X165182000Y-129942000D01*
G75*
G02*
X164982000Y-130142000I-200000J0D01*
G01*
X164582000Y-130142000D01*
G75*
G02*
X164382000Y-129942000I0J200000D01*
G01*
X164382000Y-129392000D01*
G75*
G02*
X164582000Y-129192000I200000J0D01*
G01*
X164982000Y-129192000D01*
G75*
G02*
X165182000Y-129392000I0J-200000D01*
G01*
G37*
G36*
G01*
X163532000Y-129392000D02*
X163532000Y-129942000D01*
G75*
G02*
X163332000Y-130142000I-200000J0D01*
G01*
X162932000Y-130142000D01*
G75*
G02*
X162732000Y-129942000I0J200000D01*
G01*
X162732000Y-129392000D01*
G75*
G02*
X162932000Y-129192000I200000J0D01*
G01*
X163332000Y-129192000D01*
G75*
G02*
X163532000Y-129392000I0J-200000D01*
G01*
G37*
G36*
G01*
X178644000Y-129392000D02*
X178644000Y-129942000D01*
G75*
G02*
X178444000Y-130142000I-200000J0D01*
G01*
X178044000Y-130142000D01*
G75*
G02*
X177844000Y-129942000I0J200000D01*
G01*
X177844000Y-129392000D01*
G75*
G02*
X178044000Y-129192000I200000J0D01*
G01*
X178444000Y-129192000D01*
G75*
G02*
X178644000Y-129392000I0J-200000D01*
G01*
G37*
G36*
G01*
X176994000Y-129392000D02*
X176994000Y-129942000D01*
G75*
G02*
X176794000Y-130142000I-200000J0D01*
G01*
X176394000Y-130142000D01*
G75*
G02*
X176194000Y-129942000I0J200000D01*
G01*
X176194000Y-129392000D01*
G75*
G02*
X176394000Y-129192000I200000J0D01*
G01*
X176794000Y-129192000D01*
G75*
G02*
X176994000Y-129392000I0J-200000D01*
G01*
G37*
G36*
G01*
X133941000Y-131805000D02*
X133941000Y-132355000D01*
G75*
G02*
X133741000Y-132555000I-200000J0D01*
G01*
X133341000Y-132555000D01*
G75*
G02*
X133141000Y-132355000I0J200000D01*
G01*
X133141000Y-131805000D01*
G75*
G02*
X133341000Y-131605000I200000J0D01*
G01*
X133741000Y-131605000D01*
G75*
G02*
X133941000Y-131805000I0J-200000D01*
G01*
G37*
G36*
G01*
X135591000Y-131805000D02*
X135591000Y-132355000D01*
G75*
G02*
X135391000Y-132555000I-200000J0D01*
G01*
X134991000Y-132555000D01*
G75*
G02*
X134791000Y-132355000I0J200000D01*
G01*
X134791000Y-131805000D01*
G75*
G02*
X134991000Y-131605000I200000J0D01*
G01*
X135391000Y-131605000D01*
G75*
G02*
X135591000Y-131805000I0J-200000D01*
G01*
G37*
G36*
G01*
X149561000Y-131678000D02*
X149561000Y-132228000D01*
G75*
G02*
X149361000Y-132428000I-200000J0D01*
G01*
X148961000Y-132428000D01*
G75*
G02*
X148761000Y-132228000I0J200000D01*
G01*
X148761000Y-131678000D01*
G75*
G02*
X148961000Y-131478000I200000J0D01*
G01*
X149361000Y-131478000D01*
G75*
G02*
X149561000Y-131678000I0J-200000D01*
G01*
G37*
G36*
G01*
X147911000Y-131678000D02*
X147911000Y-132228000D01*
G75*
G02*
X147711000Y-132428000I-200000J0D01*
G01*
X147311000Y-132428000D01*
G75*
G02*
X147111000Y-132228000I0J200000D01*
G01*
X147111000Y-131678000D01*
G75*
G02*
X147311000Y-131478000I200000J0D01*
G01*
X147711000Y-131478000D01*
G75*
G02*
X147911000Y-131678000I0J-200000D01*
G01*
G37*
G36*
G01*
X165182000Y-131678000D02*
X165182000Y-132228000D01*
G75*
G02*
X164982000Y-132428000I-200000J0D01*
G01*
X164582000Y-132428000D01*
G75*
G02*
X164382000Y-132228000I0J200000D01*
G01*
X164382000Y-131678000D01*
G75*
G02*
X164582000Y-131478000I200000J0D01*
G01*
X164982000Y-131478000D01*
G75*
G02*
X165182000Y-131678000I0J-200000D01*
G01*
G37*
G36*
G01*
X163532000Y-131678000D02*
X163532000Y-132228000D01*
G75*
G02*
X163332000Y-132428000I-200000J0D01*
G01*
X162932000Y-132428000D01*
G75*
G02*
X162732000Y-132228000I0J200000D01*
G01*
X162732000Y-131678000D01*
G75*
G02*
X162932000Y-131478000I200000J0D01*
G01*
X163332000Y-131478000D01*
G75*
G02*
X163532000Y-131678000I0J-200000D01*
G01*
G37*
G36*
G01*
X178644000Y-131805000D02*
X178644000Y-132355000D01*
G75*
G02*
X178444000Y-132555000I-200000J0D01*
G01*
X178044000Y-132555000D01*
G75*
G02*
X177844000Y-132355000I0J200000D01*
G01*
X177844000Y-131805000D01*
G75*
G02*
X178044000Y-131605000I200000J0D01*
G01*
X178444000Y-131605000D01*
G75*
G02*
X178644000Y-131805000I0J-200000D01*
G01*
G37*
G36*
G01*
X176994000Y-131805000D02*
X176994000Y-132355000D01*
G75*
G02*
X176794000Y-132555000I-200000J0D01*
G01*
X176394000Y-132555000D01*
G75*
G02*
X176194000Y-132355000I0J200000D01*
G01*
X176194000Y-131805000D01*
G75*
G02*
X176394000Y-131605000I200000J0D01*
G01*
X176794000Y-131605000D01*
G75*
G02*
X176994000Y-131805000I0J-200000D01*
G01*
G37*
G36*
G01*
X108275000Y-54075000D02*
X108275000Y-53525000D01*
G75*
G02*
X108475000Y-53325000I200000J0D01*
G01*
X108875000Y-53325000D01*
G75*
G02*
X109075000Y-53525000I0J-200000D01*
G01*
X109075000Y-54075000D01*
G75*
G02*
X108875000Y-54275000I-200000J0D01*
G01*
X108475000Y-54275000D01*
G75*
G02*
X108275000Y-54075000I0J200000D01*
G01*
G37*
G36*
G01*
X109925000Y-54075000D02*
X109925000Y-53525000D01*
G75*
G02*
X110125000Y-53325000I200000J0D01*
G01*
X110525000Y-53325000D01*
G75*
G02*
X110725000Y-53525000I0J-200000D01*
G01*
X110725000Y-54075000D01*
G75*
G02*
X110525000Y-54275000I-200000J0D01*
G01*
X110125000Y-54275000D01*
G75*
G02*
X109925000Y-54075000I0J200000D01*
G01*
G37*
G36*
G01*
X148341400Y-100545400D02*
X148541400Y-100545400D01*
G75*
G02*
X148641400Y-100645400I0J-100000D01*
G01*
X148641400Y-101920400D01*
G75*
G02*
X148541400Y-102020400I-100000J0D01*
G01*
X148341400Y-102020400D01*
G75*
G02*
X148241400Y-101920400I0J100000D01*
G01*
X148241400Y-100645400D01*
G75*
G02*
X148341400Y-100545400I100000J0D01*
G01*
G37*
G36*
G01*
X147691400Y-100545400D02*
X147891400Y-100545400D01*
G75*
G02*
X147991400Y-100645400I0J-100000D01*
G01*
X147991400Y-101920400D01*
G75*
G02*
X147891400Y-102020400I-100000J0D01*
G01*
X147691400Y-102020400D01*
G75*
G02*
X147591400Y-101920400I0J100000D01*
G01*
X147591400Y-100645400D01*
G75*
G02*
X147691400Y-100545400I100000J0D01*
G01*
G37*
G36*
G01*
X147041400Y-100545400D02*
X147241400Y-100545400D01*
G75*
G02*
X147341400Y-100645400I0J-100000D01*
G01*
X147341400Y-101920400D01*
G75*
G02*
X147241400Y-102020400I-100000J0D01*
G01*
X147041400Y-102020400D01*
G75*
G02*
X146941400Y-101920400I0J100000D01*
G01*
X146941400Y-100645400D01*
G75*
G02*
X147041400Y-100545400I100000J0D01*
G01*
G37*
G36*
G01*
X146391400Y-100545400D02*
X146591400Y-100545400D01*
G75*
G02*
X146691400Y-100645400I0J-100000D01*
G01*
X146691400Y-101920400D01*
G75*
G02*
X146591400Y-102020400I-100000J0D01*
G01*
X146391400Y-102020400D01*
G75*
G02*
X146291400Y-101920400I0J100000D01*
G01*
X146291400Y-100645400D01*
G75*
G02*
X146391400Y-100545400I100000J0D01*
G01*
G37*
G36*
G01*
X145741400Y-100545400D02*
X145941400Y-100545400D01*
G75*
G02*
X146041400Y-100645400I0J-100000D01*
G01*
X146041400Y-101920400D01*
G75*
G02*
X145941400Y-102020400I-100000J0D01*
G01*
X145741400Y-102020400D01*
G75*
G02*
X145641400Y-101920400I0J100000D01*
G01*
X145641400Y-100645400D01*
G75*
G02*
X145741400Y-100545400I100000J0D01*
G01*
G37*
G36*
G01*
X145091400Y-100545400D02*
X145291400Y-100545400D01*
G75*
G02*
X145391400Y-100645400I0J-100000D01*
G01*
X145391400Y-101920400D01*
G75*
G02*
X145291400Y-102020400I-100000J0D01*
G01*
X145091400Y-102020400D01*
G75*
G02*
X144991400Y-101920400I0J100000D01*
G01*
X144991400Y-100645400D01*
G75*
G02*
X145091400Y-100545400I100000J0D01*
G01*
G37*
G36*
G01*
X144441400Y-100545400D02*
X144641400Y-100545400D01*
G75*
G02*
X144741400Y-100645400I0J-100000D01*
G01*
X144741400Y-101920400D01*
G75*
G02*
X144641400Y-102020400I-100000J0D01*
G01*
X144441400Y-102020400D01*
G75*
G02*
X144341400Y-101920400I0J100000D01*
G01*
X144341400Y-100645400D01*
G75*
G02*
X144441400Y-100545400I100000J0D01*
G01*
G37*
G36*
G01*
X143791400Y-100545400D02*
X143991400Y-100545400D01*
G75*
G02*
X144091400Y-100645400I0J-100000D01*
G01*
X144091400Y-101920400D01*
G75*
G02*
X143991400Y-102020400I-100000J0D01*
G01*
X143791400Y-102020400D01*
G75*
G02*
X143691400Y-101920400I0J100000D01*
G01*
X143691400Y-100645400D01*
G75*
G02*
X143791400Y-100545400I100000J0D01*
G01*
G37*
G36*
G01*
X143791400Y-94820400D02*
X143991400Y-94820400D01*
G75*
G02*
X144091400Y-94920400I0J-100000D01*
G01*
X144091400Y-96195400D01*
G75*
G02*
X143991400Y-96295400I-100000J0D01*
G01*
X143791400Y-96295400D01*
G75*
G02*
X143691400Y-96195400I0J100000D01*
G01*
X143691400Y-94920400D01*
G75*
G02*
X143791400Y-94820400I100000J0D01*
G01*
G37*
G36*
G01*
X144441400Y-94820400D02*
X144641400Y-94820400D01*
G75*
G02*
X144741400Y-94920400I0J-100000D01*
G01*
X144741400Y-96195400D01*
G75*
G02*
X144641400Y-96295400I-100000J0D01*
G01*
X144441400Y-96295400D01*
G75*
G02*
X144341400Y-96195400I0J100000D01*
G01*
X144341400Y-94920400D01*
G75*
G02*
X144441400Y-94820400I100000J0D01*
G01*
G37*
G36*
G01*
X145091400Y-94820400D02*
X145291400Y-94820400D01*
G75*
G02*
X145391400Y-94920400I0J-100000D01*
G01*
X145391400Y-96195400D01*
G75*
G02*
X145291400Y-96295400I-100000J0D01*
G01*
X145091400Y-96295400D01*
G75*
G02*
X144991400Y-96195400I0J100000D01*
G01*
X144991400Y-94920400D01*
G75*
G02*
X145091400Y-94820400I100000J0D01*
G01*
G37*
G36*
G01*
X145741400Y-94820400D02*
X145941400Y-94820400D01*
G75*
G02*
X146041400Y-94920400I0J-100000D01*
G01*
X146041400Y-96195400D01*
G75*
G02*
X145941400Y-96295400I-100000J0D01*
G01*
X145741400Y-96295400D01*
G75*
G02*
X145641400Y-96195400I0J100000D01*
G01*
X145641400Y-94920400D01*
G75*
G02*
X145741400Y-94820400I100000J0D01*
G01*
G37*
G36*
G01*
X146391400Y-94820400D02*
X146591400Y-94820400D01*
G75*
G02*
X146691400Y-94920400I0J-100000D01*
G01*
X146691400Y-96195400D01*
G75*
G02*
X146591400Y-96295400I-100000J0D01*
G01*
X146391400Y-96295400D01*
G75*
G02*
X146291400Y-96195400I0J100000D01*
G01*
X146291400Y-94920400D01*
G75*
G02*
X146391400Y-94820400I100000J0D01*
G01*
G37*
G36*
G01*
X147041400Y-94820400D02*
X147241400Y-94820400D01*
G75*
G02*
X147341400Y-94920400I0J-100000D01*
G01*
X147341400Y-96195400D01*
G75*
G02*
X147241400Y-96295400I-100000J0D01*
G01*
X147041400Y-96295400D01*
G75*
G02*
X146941400Y-96195400I0J100000D01*
G01*
X146941400Y-94920400D01*
G75*
G02*
X147041400Y-94820400I100000J0D01*
G01*
G37*
G36*
G01*
X147691400Y-94820400D02*
X147891400Y-94820400D01*
G75*
G02*
X147991400Y-94920400I0J-100000D01*
G01*
X147991400Y-96195400D01*
G75*
G02*
X147891400Y-96295400I-100000J0D01*
G01*
X147691400Y-96295400D01*
G75*
G02*
X147591400Y-96195400I0J100000D01*
G01*
X147591400Y-94920400D01*
G75*
G02*
X147691400Y-94820400I100000J0D01*
G01*
G37*
G36*
G01*
X148341400Y-94820400D02*
X148541400Y-94820400D01*
G75*
G02*
X148641400Y-94920400I0J-100000D01*
G01*
X148641400Y-96195400D01*
G75*
G02*
X148541400Y-96295400I-100000J0D01*
G01*
X148341400Y-96295400D01*
G75*
G02*
X148241400Y-96195400I0J100000D01*
G01*
X148241400Y-94920400D01*
G75*
G02*
X148341400Y-94820400I100000J0D01*
G01*
G37*
G36*
G01*
X159673800Y-102050400D02*
X159473800Y-102050400D01*
G75*
G02*
X159373800Y-101950400I0J100000D01*
G01*
X159373800Y-100675400D01*
G75*
G02*
X159473800Y-100575400I100000J0D01*
G01*
X159673800Y-100575400D01*
G75*
G02*
X159773800Y-100675400I0J-100000D01*
G01*
X159773800Y-101950400D01*
G75*
G02*
X159673800Y-102050400I-100000J0D01*
G01*
G37*
G36*
G01*
X160323800Y-102050400D02*
X160123800Y-102050400D01*
G75*
G02*
X160023800Y-101950400I0J100000D01*
G01*
X160023800Y-100675400D01*
G75*
G02*
X160123800Y-100575400I100000J0D01*
G01*
X160323800Y-100575400D01*
G75*
G02*
X160423800Y-100675400I0J-100000D01*
G01*
X160423800Y-101950400D01*
G75*
G02*
X160323800Y-102050400I-100000J0D01*
G01*
G37*
G36*
G01*
X160973800Y-102050400D02*
X160773800Y-102050400D01*
G75*
G02*
X160673800Y-101950400I0J100000D01*
G01*
X160673800Y-100675400D01*
G75*
G02*
X160773800Y-100575400I100000J0D01*
G01*
X160973800Y-100575400D01*
G75*
G02*
X161073800Y-100675400I0J-100000D01*
G01*
X161073800Y-101950400D01*
G75*
G02*
X160973800Y-102050400I-100000J0D01*
G01*
G37*
G36*
G01*
X161623800Y-102050400D02*
X161423800Y-102050400D01*
G75*
G02*
X161323800Y-101950400I0J100000D01*
G01*
X161323800Y-100675400D01*
G75*
G02*
X161423800Y-100575400I100000J0D01*
G01*
X161623800Y-100575400D01*
G75*
G02*
X161723800Y-100675400I0J-100000D01*
G01*
X161723800Y-101950400D01*
G75*
G02*
X161623800Y-102050400I-100000J0D01*
G01*
G37*
G36*
G01*
X162273800Y-102050400D02*
X162073800Y-102050400D01*
G75*
G02*
X161973800Y-101950400I0J100000D01*
G01*
X161973800Y-100675400D01*
G75*
G02*
X162073800Y-100575400I100000J0D01*
G01*
X162273800Y-100575400D01*
G75*
G02*
X162373800Y-100675400I0J-100000D01*
G01*
X162373800Y-101950400D01*
G75*
G02*
X162273800Y-102050400I-100000J0D01*
G01*
G37*
G36*
G01*
X162923800Y-102050400D02*
X162723800Y-102050400D01*
G75*
G02*
X162623800Y-101950400I0J100000D01*
G01*
X162623800Y-100675400D01*
G75*
G02*
X162723800Y-100575400I100000J0D01*
G01*
X162923800Y-100575400D01*
G75*
G02*
X163023800Y-100675400I0J-100000D01*
G01*
X163023800Y-101950400D01*
G75*
G02*
X162923800Y-102050400I-100000J0D01*
G01*
G37*
G36*
G01*
X163573800Y-102050400D02*
X163373800Y-102050400D01*
G75*
G02*
X163273800Y-101950400I0J100000D01*
G01*
X163273800Y-100675400D01*
G75*
G02*
X163373800Y-100575400I100000J0D01*
G01*
X163573800Y-100575400D01*
G75*
G02*
X163673800Y-100675400I0J-100000D01*
G01*
X163673800Y-101950400D01*
G75*
G02*
X163573800Y-102050400I-100000J0D01*
G01*
G37*
G36*
G01*
X164223800Y-102050400D02*
X164023800Y-102050400D01*
G75*
G02*
X163923800Y-101950400I0J100000D01*
G01*
X163923800Y-100675400D01*
G75*
G02*
X164023800Y-100575400I100000J0D01*
G01*
X164223800Y-100575400D01*
G75*
G02*
X164323800Y-100675400I0J-100000D01*
G01*
X164323800Y-101950400D01*
G75*
G02*
X164223800Y-102050400I-100000J0D01*
G01*
G37*
G36*
G01*
X164223800Y-96325400D02*
X164023800Y-96325400D01*
G75*
G02*
X163923800Y-96225400I0J100000D01*
G01*
X163923800Y-94950400D01*
G75*
G02*
X164023800Y-94850400I100000J0D01*
G01*
X164223800Y-94850400D01*
G75*
G02*
X164323800Y-94950400I0J-100000D01*
G01*
X164323800Y-96225400D01*
G75*
G02*
X164223800Y-96325400I-100000J0D01*
G01*
G37*
G36*
G01*
X163573800Y-96325400D02*
X163373800Y-96325400D01*
G75*
G02*
X163273800Y-96225400I0J100000D01*
G01*
X163273800Y-94950400D01*
G75*
G02*
X163373800Y-94850400I100000J0D01*
G01*
X163573800Y-94850400D01*
G75*
G02*
X163673800Y-94950400I0J-100000D01*
G01*
X163673800Y-96225400D01*
G75*
G02*
X163573800Y-96325400I-100000J0D01*
G01*
G37*
G36*
G01*
X162923800Y-96325400D02*
X162723800Y-96325400D01*
G75*
G02*
X162623800Y-96225400I0J100000D01*
G01*
X162623800Y-94950400D01*
G75*
G02*
X162723800Y-94850400I100000J0D01*
G01*
X162923800Y-94850400D01*
G75*
G02*
X163023800Y-94950400I0J-100000D01*
G01*
X163023800Y-96225400D01*
G75*
G02*
X162923800Y-96325400I-100000J0D01*
G01*
G37*
G36*
G01*
X162273800Y-96325400D02*
X162073800Y-96325400D01*
G75*
G02*
X161973800Y-96225400I0J100000D01*
G01*
X161973800Y-94950400D01*
G75*
G02*
X162073800Y-94850400I100000J0D01*
G01*
X162273800Y-94850400D01*
G75*
G02*
X162373800Y-94950400I0J-100000D01*
G01*
X162373800Y-96225400D01*
G75*
G02*
X162273800Y-96325400I-100000J0D01*
G01*
G37*
G36*
G01*
X161623800Y-96325400D02*
X161423800Y-96325400D01*
G75*
G02*
X161323800Y-96225400I0J100000D01*
G01*
X161323800Y-94950400D01*
G75*
G02*
X161423800Y-94850400I100000J0D01*
G01*
X161623800Y-94850400D01*
G75*
G02*
X161723800Y-94950400I0J-100000D01*
G01*
X161723800Y-96225400D01*
G75*
G02*
X161623800Y-96325400I-100000J0D01*
G01*
G37*
G36*
G01*
X160973800Y-96325400D02*
X160773800Y-96325400D01*
G75*
G02*
X160673800Y-96225400I0J100000D01*
G01*
X160673800Y-94950400D01*
G75*
G02*
X160773800Y-94850400I100000J0D01*
G01*
X160973800Y-94850400D01*
G75*
G02*
X161073800Y-94950400I0J-100000D01*
G01*
X161073800Y-96225400D01*
G75*
G02*
X160973800Y-96325400I-100000J0D01*
G01*
G37*
G36*
G01*
X160323800Y-96325400D02*
X160123800Y-96325400D01*
G75*
G02*
X160023800Y-96225400I0J100000D01*
G01*
X160023800Y-94950400D01*
G75*
G02*
X160123800Y-94850400I100000J0D01*
G01*
X160323800Y-94850400D01*
G75*
G02*
X160423800Y-94950400I0J-100000D01*
G01*
X160423800Y-96225400D01*
G75*
G02*
X160323800Y-96325400I-100000J0D01*
G01*
G37*
G36*
G01*
X159673800Y-96325400D02*
X159473800Y-96325400D01*
G75*
G02*
X159373800Y-96225400I0J100000D01*
G01*
X159373800Y-94950400D01*
G75*
G02*
X159473800Y-94850400I100000J0D01*
G01*
X159673800Y-94850400D01*
G75*
G02*
X159773800Y-94950400I0J-100000D01*
G01*
X159773800Y-96225400D01*
G75*
G02*
X159673800Y-96325400I-100000J0D01*
G01*
G37*
D12*
X130823000Y-132099000D03*
X131773000Y-132099000D03*
X129873000Y-132099000D03*
X129873000Y-129799000D03*
X130823000Y-129799000D03*
X131773000Y-129799000D03*
X145681000Y-129672000D03*
X144731000Y-129672000D03*
X143781000Y-129672000D03*
X143781000Y-131972000D03*
X145681000Y-131972000D03*
X144731000Y-131972000D03*
X160267000Y-131972000D03*
X161217000Y-131972000D03*
X159317000Y-131972000D03*
X159317000Y-129672000D03*
X160267000Y-129672000D03*
X161217000Y-129672000D03*
X174628000Y-129672000D03*
X173678000Y-129672000D03*
X172728000Y-129672000D03*
X172728000Y-131972000D03*
X174628000Y-131972000D03*
X173678000Y-131972000D03*
G36*
G01*
X188050000Y-79925000D02*
X188050000Y-80875000D01*
G75*
G02*
X187800000Y-81125000I-250000J0D01*
G01*
X187300000Y-81125000D01*
G75*
G02*
X187050000Y-80875000I0J250000D01*
G01*
X187050000Y-79925000D01*
G75*
G02*
X187300000Y-79675000I250000J0D01*
G01*
X187800000Y-79675000D01*
G75*
G02*
X188050000Y-79925000I0J-250000D01*
G01*
G37*
G36*
G01*
X186150000Y-79925000D02*
X186150000Y-80875000D01*
G75*
G02*
X185900000Y-81125000I-250000J0D01*
G01*
X185400000Y-81125000D01*
G75*
G02*
X185150000Y-80875000I0J250000D01*
G01*
X185150000Y-79925000D01*
G75*
G02*
X185400000Y-79675000I250000J0D01*
G01*
X185900000Y-79675000D01*
G75*
G02*
X186150000Y-79925000I0J-250000D01*
G01*
G37*
D10*
X132216400Y-126781600D03*
X132216400Y-124881600D03*
X130216400Y-125831600D03*
M02*
