G04 #@! TF.GenerationSoftware,KiCad,Pcbnew,5.1.7-a382d34a8~88~ubuntu18.04.1*
G04 #@! TF.CreationDate,2021-09-17T12:32:22-05:00*
G04 #@! TF.ProjectId,serial_logger_uart_expander,73657269-616c-45f6-9c6f-676765725f75,rev?*
G04 #@! TF.SameCoordinates,Original*
G04 #@! TF.FileFunction,Copper,L2,Bot*
G04 #@! TF.FilePolarity,Positive*
%FSLAX46Y46*%
G04 Gerber Fmt 4.6, Leading zero omitted, Abs format (unit mm)*
G04 Created by KiCad (PCBNEW 5.1.7-a382d34a8~88~ubuntu18.04.1) date 2021-09-17 12:32:22*
%MOMM*%
%LPD*%
G01*
G04 APERTURE LIST*
G04 #@! TA.AperFunction,ComponentPad*
%ADD10R,1.700000X1.700000*%
G04 #@! TD*
G04 #@! TA.AperFunction,ComponentPad*
%ADD11O,1.700000X1.700000*%
G04 #@! TD*
G04 #@! TA.AperFunction,ComponentPad*
%ADD12C,2.100000*%
G04 #@! TD*
G04 #@! TA.AperFunction,ComponentPad*
%ADD13R,2.100000X2.100000*%
G04 #@! TD*
G04 #@! TA.AperFunction,ComponentPad*
%ADD14R,1.524000X1.524000*%
G04 #@! TD*
G04 #@! TA.AperFunction,ComponentPad*
%ADD15C,1.524000*%
G04 #@! TD*
G04 #@! TA.AperFunction,ViaPad*
%ADD16C,0.800000*%
G04 #@! TD*
G04 #@! TA.AperFunction,Conductor*
%ADD17C,0.400000*%
G04 #@! TD*
G04 #@! TA.AperFunction,Conductor*
%ADD18C,0.254000*%
G04 #@! TD*
G04 #@! TA.AperFunction,Conductor*
%ADD19C,0.100000*%
G04 #@! TD*
G04 APERTURE END LIST*
D10*
X128800000Y-69700000D03*
D11*
X128800000Y-72240000D03*
X128800000Y-74780000D03*
X128800000Y-77320000D03*
X128800000Y-79860000D03*
X128800000Y-82400000D03*
X128800000Y-84940000D03*
X128800000Y-87480000D03*
D10*
X128800000Y-93280000D03*
D11*
X128800000Y-95820000D03*
X128800000Y-98360000D03*
X128800000Y-100900000D03*
X128800000Y-103440000D03*
X128800000Y-105980000D03*
D10*
X177060000Y-61290000D03*
D11*
X177060000Y-63830000D03*
X177060000Y-66370000D03*
X177060000Y-68910000D03*
X177060000Y-71450000D03*
X177060000Y-73990000D03*
X177060000Y-76530000D03*
X177060000Y-79070000D03*
X177060000Y-81610000D03*
X177060000Y-84150000D03*
X177060000Y-105980000D03*
X177060000Y-103440000D03*
X177060000Y-100900000D03*
X177060000Y-98360000D03*
X177060000Y-95820000D03*
X177060000Y-93280000D03*
X177060000Y-90740000D03*
D10*
X177060000Y-88200000D03*
D12*
X149307000Y-138773000D03*
X146767000Y-138773000D03*
X144227000Y-138773000D03*
X141687000Y-138773000D03*
X139147000Y-138773000D03*
X136607000Y-138773000D03*
X134067000Y-138773000D03*
X131527000Y-138773000D03*
X128987000Y-138773000D03*
D13*
X126447000Y-138773000D03*
X155367000Y-138746000D03*
D12*
X157907000Y-138746000D03*
X160447000Y-138746000D03*
X162987000Y-138746000D03*
X165527000Y-138746000D03*
X168067000Y-138746000D03*
X170607000Y-138746000D03*
X173147000Y-138746000D03*
X175687000Y-138746000D03*
X178227000Y-138746000D03*
D14*
X185400000Y-84000000D03*
D15*
X187940000Y-84000000D03*
X185400000Y-86540000D03*
X187940000Y-86540000D03*
X185400000Y-89080000D03*
X187940000Y-89080000D03*
X185400000Y-91620000D03*
X187940000Y-91620000D03*
D16*
X151180800Y-101346000D03*
X153822400Y-101346000D03*
X107400000Y-53800000D03*
X173678000Y-128322000D03*
X130823000Y-128349000D03*
X160274000Y-128270000D03*
X144653000Y-128270000D03*
X142798800Y-95554800D03*
X165201600Y-101295200D03*
X144475200Y-94068810D03*
X144932400Y-103174800D03*
X163017200Y-105105200D03*
X172821600Y-86156800D03*
X174447200Y-85902800D03*
X147421600Y-93573600D03*
X146354800Y-134315200D03*
X145034000Y-127152400D03*
X142443200Y-134670800D03*
X139293600Y-126949200D03*
X132334000Y-133959600D03*
X129133600Y-127203200D03*
X131013200Y-134721600D03*
X128930400Y-134061200D03*
X124002800Y-127152400D03*
X127304800Y-134721600D03*
X156615990Y-134670390D03*
X158191200Y-134518400D03*
X158699200Y-126898398D03*
X160324800Y-134670800D03*
X161899600Y-134366000D03*
X171805600Y-134315200D03*
X172415200Y-126949200D03*
X147624800Y-97332800D03*
X137273008Y-111568206D03*
X148640800Y-110032800D03*
X161899600Y-119126000D03*
X179358800Y-121548400D03*
X148640800Y-114300000D03*
X134467600Y-114046000D03*
X157124400Y-108051600D03*
X156159200Y-109169200D03*
X150164800Y-107137200D03*
X168249600Y-110693200D03*
X165404800Y-99199610D03*
X167487600Y-97180400D03*
X174650400Y-108610400D03*
X141376400Y-94894400D03*
X137160000Y-107848400D03*
X140563600Y-97129600D03*
X140563600Y-107543602D03*
X153352410Y-113030000D03*
X146558000Y-112318798D03*
X148215886Y-111118114D03*
X170246000Y-120634800D03*
X158750000Y-105867200D03*
X128016000Y-112217200D03*
X158140400Y-107035600D03*
X140208000Y-111709200D03*
X158292800Y-102006400D03*
X165404800Y-96990000D03*
X171297600Y-110693200D03*
X166268400Y-98590010D03*
D17*
X151180800Y-101346000D02*
X153822400Y-101346000D01*
X135631190Y-94068810D02*
X144475200Y-94068810D01*
X128800000Y-100900000D02*
X135631190Y-94068810D01*
X144932400Y-103174800D02*
X161086800Y-103174800D01*
X161086800Y-103174800D02*
X163017200Y-105105200D01*
X172821600Y-78228400D02*
X172821600Y-86156800D01*
X177060000Y-73990000D02*
X172821600Y-78228400D01*
X174447200Y-79142800D02*
X174447200Y-85902800D01*
X177060000Y-76530000D02*
X174447200Y-79142800D01*
X177060000Y-85352081D02*
X177060000Y-84150000D01*
X168838481Y-93573600D02*
X177060000Y-85352081D01*
X147421600Y-93573600D02*
X168838481Y-93573600D01*
X146354800Y-128473200D02*
X145034000Y-127152400D01*
X146354800Y-134315200D02*
X146354800Y-128473200D01*
X139293600Y-131521200D02*
X139293600Y-126949200D01*
X142443200Y-134670800D02*
X139293600Y-131521200D01*
X129133600Y-130759200D02*
X129133600Y-127203200D01*
X132334000Y-133959600D02*
X129133600Y-130759200D01*
X132334000Y-134500000D02*
X132334000Y-133959600D01*
X136607000Y-138773000D02*
X132334000Y-134500000D01*
X134067000Y-137775400D02*
X131013200Y-134721600D01*
X134067000Y-138773000D02*
X134067000Y-137775400D01*
X124002800Y-129133600D02*
X124002800Y-127152400D01*
X128930400Y-134061200D02*
X124002800Y-129133600D01*
X131527000Y-136657800D02*
X128930400Y-134061200D01*
X131527000Y-138773000D02*
X131527000Y-136657800D01*
X128987000Y-136403800D02*
X127304800Y-134721600D01*
X128987000Y-138773000D02*
X128987000Y-136403800D01*
X157907000Y-135961400D02*
X156615990Y-134670390D01*
X157907000Y-138746000D02*
X157907000Y-135961400D01*
X158191200Y-134518400D02*
X158699200Y-134010400D01*
X158699200Y-134010400D02*
X158699200Y-126898398D01*
X160447000Y-136774200D02*
X158191200Y-134518400D01*
X160447000Y-138746000D02*
X160447000Y-136774200D01*
X162987000Y-137333000D02*
X160324800Y-134670800D01*
X162987000Y-138746000D02*
X162987000Y-137333000D01*
X161899600Y-135118600D02*
X161899600Y-134366000D01*
X165527000Y-138746000D02*
X161899600Y-135118600D01*
X172415200Y-133705600D02*
X172415200Y-126949200D01*
X171805600Y-134315200D02*
X172415200Y-133705600D01*
X137838693Y-111568206D02*
X137273008Y-111568206D01*
X147624800Y-97332800D02*
X141363602Y-103593998D01*
X141363602Y-103593998D02*
X141363602Y-108043297D01*
X141363602Y-108043297D02*
X137838693Y-111568206D01*
X161499601Y-118726001D02*
X161899600Y-119126000D01*
X153206399Y-110432799D02*
X161499601Y-118726001D01*
X149040799Y-110432799D02*
X153206399Y-110432799D01*
X148640800Y-110032800D02*
X149040799Y-110432799D01*
X155889200Y-121548400D02*
X148640800Y-114300000D01*
X179358800Y-121548400D02*
X155889200Y-121548400D01*
X154889200Y-105816400D02*
X157124400Y-108051600D01*
X147777200Y-105816400D02*
X154889200Y-105816400D01*
X139547600Y-114046000D02*
X147777200Y-105816400D01*
X134467600Y-114046000D02*
X139547600Y-114046000D01*
X152196800Y-109169200D02*
X150164800Y-107137200D01*
X156159200Y-109169200D02*
X152196800Y-109169200D01*
X168249600Y-110693200D02*
X168249600Y-102044410D01*
X168249600Y-102044410D02*
X165404800Y-99199610D01*
X167487600Y-97180400D02*
X174650400Y-104343200D01*
X174650400Y-104343200D02*
X174650400Y-108610400D01*
X137160000Y-99110800D02*
X137160000Y-107848400D01*
X141376400Y-94894400D02*
X137160000Y-99110800D01*
X140563600Y-97129600D02*
X140563600Y-107543602D01*
X153352410Y-113030000D02*
X147269202Y-113030000D01*
X147269202Y-113030000D02*
X146558000Y-112318798D01*
X148215886Y-111118114D02*
X152621714Y-111118114D01*
X162138400Y-120634800D02*
X170246000Y-120634800D01*
X152621714Y-111118114D02*
X162138400Y-120634800D01*
X128415999Y-112617199D02*
X128016000Y-112217200D01*
X137979201Y-112617199D02*
X128415999Y-112617199D01*
X146507200Y-104089200D02*
X137979201Y-112617199D01*
X156972000Y-104089200D02*
X146507200Y-104089200D01*
X158750000Y-105867200D02*
X156972000Y-104089200D01*
X140258800Y-111709200D02*
X140208000Y-111709200D01*
X147015200Y-104952800D02*
X140258800Y-111709200D01*
X156057600Y-104952800D02*
X147015200Y-104952800D01*
X158140400Y-107035600D02*
X156057600Y-104952800D01*
X160388400Y-102006400D02*
X165404800Y-96990000D01*
X158292800Y-102006400D02*
X160388400Y-102006400D01*
X171297600Y-110693200D02*
X169113200Y-108508800D01*
X169113200Y-108508800D02*
X169113200Y-101434810D01*
X169113200Y-101434810D02*
X166268400Y-98590010D01*
D18*
X199340001Y-78973000D02*
X190800000Y-78973000D01*
X190775224Y-78975440D01*
X190751399Y-78982667D01*
X190729443Y-78994403D01*
X190710197Y-79010197D01*
X190694403Y-79029443D01*
X190682667Y-79051399D01*
X190675440Y-79075224D01*
X190673000Y-79100000D01*
X190673000Y-99600000D01*
X190675440Y-99624776D01*
X190682667Y-99648601D01*
X190694403Y-99670557D01*
X190710197Y-99689803D01*
X190729443Y-99705597D01*
X190751399Y-99717333D01*
X190775224Y-99724560D01*
X190800000Y-99727000D01*
X199340001Y-99727000D01*
X199340000Y-149340000D01*
X105660000Y-149340000D01*
X105660000Y-144876890D01*
X108750048Y-144876890D01*
X108750048Y-145123110D01*
X108798083Y-145364598D01*
X108892307Y-145592074D01*
X109029099Y-145796798D01*
X109203202Y-145970901D01*
X109407926Y-146107693D01*
X109635402Y-146201917D01*
X109876890Y-146249952D01*
X110123110Y-146249952D01*
X110364598Y-146201917D01*
X110592074Y-146107693D01*
X110796798Y-145970901D01*
X110970901Y-145796798D01*
X111107693Y-145592074D01*
X111201917Y-145364598D01*
X111249952Y-145123110D01*
X111249952Y-144876890D01*
X193750048Y-144876890D01*
X193750048Y-145123110D01*
X193798083Y-145364598D01*
X193892307Y-145592074D01*
X194029099Y-145796798D01*
X194203202Y-145970901D01*
X194407926Y-146107693D01*
X194635402Y-146201917D01*
X194876890Y-146249952D01*
X195123110Y-146249952D01*
X195364598Y-146201917D01*
X195592074Y-146107693D01*
X195796798Y-145970901D01*
X195970901Y-145796798D01*
X196107693Y-145592074D01*
X196201917Y-145364598D01*
X196249952Y-145123110D01*
X196249952Y-144876890D01*
X196201917Y-144635402D01*
X196107693Y-144407926D01*
X195970901Y-144203202D01*
X195796798Y-144029099D01*
X195592074Y-143892307D01*
X195364598Y-143798083D01*
X195123110Y-143750048D01*
X194876890Y-143750048D01*
X194635402Y-143798083D01*
X194407926Y-143892307D01*
X194203202Y-144029099D01*
X194029099Y-144203202D01*
X193892307Y-144407926D01*
X193798083Y-144635402D01*
X193750048Y-144876890D01*
X111249952Y-144876890D01*
X111201917Y-144635402D01*
X111107693Y-144407926D01*
X110970901Y-144203202D01*
X110796798Y-144029099D01*
X110592074Y-143892307D01*
X110364598Y-143798083D01*
X110123110Y-143750048D01*
X109876890Y-143750048D01*
X109635402Y-143798083D01*
X109407926Y-143892307D01*
X109203202Y-144029099D01*
X109029099Y-144203202D01*
X108892307Y-144407926D01*
X108798083Y-144635402D01*
X108750048Y-144876890D01*
X105660000Y-144876890D01*
X105660000Y-127050461D01*
X122967800Y-127050461D01*
X122967800Y-127254339D01*
X123007574Y-127454298D01*
X123085595Y-127642656D01*
X123167801Y-127765686D01*
X123167800Y-129092581D01*
X123163760Y-129133600D01*
X123167800Y-129174618D01*
X123179882Y-129297288D01*
X123227628Y-129454686D01*
X123305164Y-129599745D01*
X123409509Y-129726891D01*
X123441379Y-129753046D01*
X127374931Y-133686600D01*
X127202861Y-133686600D01*
X127002902Y-133726374D01*
X126814544Y-133804395D01*
X126645026Y-133917663D01*
X126500863Y-134061826D01*
X126387595Y-134231344D01*
X126309574Y-134419702D01*
X126269800Y-134619661D01*
X126269800Y-134823539D01*
X126309574Y-135023498D01*
X126387595Y-135211856D01*
X126500863Y-135381374D01*
X126645026Y-135525537D01*
X126814544Y-135638805D01*
X127002902Y-135716826D01*
X127148025Y-135745693D01*
X128152001Y-136749669D01*
X128152001Y-137304396D01*
X128035042Y-137382546D01*
X128027537Y-137368506D01*
X127948185Y-137271815D01*
X127851494Y-137192463D01*
X127741180Y-137133498D01*
X127621482Y-137097188D01*
X127497000Y-137084928D01*
X125397000Y-137084928D01*
X125272518Y-137097188D01*
X125152820Y-137133498D01*
X125042506Y-137192463D01*
X124945815Y-137271815D01*
X124866463Y-137368506D01*
X124807498Y-137478820D01*
X124771188Y-137598518D01*
X124758928Y-137723000D01*
X124758928Y-139823000D01*
X124771188Y-139947482D01*
X124807498Y-140067180D01*
X124866463Y-140177494D01*
X124945815Y-140274185D01*
X125042506Y-140353537D01*
X125152820Y-140412502D01*
X125272518Y-140448812D01*
X125397000Y-140461072D01*
X127497000Y-140461072D01*
X127621482Y-140448812D01*
X127741180Y-140412502D01*
X127851494Y-140353537D01*
X127948185Y-140274185D01*
X128027537Y-140177494D01*
X128035042Y-140163454D01*
X128188853Y-140266228D01*
X128495504Y-140393246D01*
X128821042Y-140458000D01*
X129152958Y-140458000D01*
X129478496Y-140393246D01*
X129785147Y-140266228D01*
X130061125Y-140081825D01*
X130257000Y-139885950D01*
X130452875Y-140081825D01*
X130728853Y-140266228D01*
X131035504Y-140393246D01*
X131361042Y-140458000D01*
X131692958Y-140458000D01*
X132018496Y-140393246D01*
X132325147Y-140266228D01*
X132601125Y-140081825D01*
X132797000Y-139885950D01*
X132992875Y-140081825D01*
X133268853Y-140266228D01*
X133575504Y-140393246D01*
X133901042Y-140458000D01*
X134232958Y-140458000D01*
X134558496Y-140393246D01*
X134865147Y-140266228D01*
X135141125Y-140081825D01*
X135337000Y-139885950D01*
X135532875Y-140081825D01*
X135808853Y-140266228D01*
X136115504Y-140393246D01*
X136441042Y-140458000D01*
X136772958Y-140458000D01*
X137098496Y-140393246D01*
X137405147Y-140266228D01*
X137681125Y-140081825D01*
X137877000Y-139885950D01*
X138072875Y-140081825D01*
X138348853Y-140266228D01*
X138655504Y-140393246D01*
X138981042Y-140458000D01*
X139312958Y-140458000D01*
X139638496Y-140393246D01*
X139945147Y-140266228D01*
X140221125Y-140081825D01*
X140417000Y-139885950D01*
X140612875Y-140081825D01*
X140888853Y-140266228D01*
X141195504Y-140393246D01*
X141521042Y-140458000D01*
X141852958Y-140458000D01*
X142178496Y-140393246D01*
X142485147Y-140266228D01*
X142761125Y-140081825D01*
X142957000Y-139885950D01*
X143152875Y-140081825D01*
X143428853Y-140266228D01*
X143735504Y-140393246D01*
X144061042Y-140458000D01*
X144392958Y-140458000D01*
X144718496Y-140393246D01*
X145025147Y-140266228D01*
X145301125Y-140081825D01*
X145497000Y-139885950D01*
X145692875Y-140081825D01*
X145968853Y-140266228D01*
X146275504Y-140393246D01*
X146601042Y-140458000D01*
X146932958Y-140458000D01*
X147258496Y-140393246D01*
X147565147Y-140266228D01*
X147841125Y-140081825D01*
X147978884Y-139944066D01*
X148315539Y-139944066D01*
X148417339Y-140213579D01*
X148715477Y-140359463D01*
X149036346Y-140444380D01*
X149367617Y-140465066D01*
X149696557Y-140420728D01*
X150010527Y-140313069D01*
X150196661Y-140213579D01*
X150298461Y-139944066D01*
X149307000Y-138952605D01*
X148315539Y-139944066D01*
X147978884Y-139944066D01*
X148075825Y-139847125D01*
X148132042Y-139762991D01*
X148135934Y-139764461D01*
X149127395Y-138773000D01*
X149486605Y-138773000D01*
X150478066Y-139764461D01*
X150747579Y-139662661D01*
X150893463Y-139364523D01*
X150978380Y-139043654D01*
X150999066Y-138712383D01*
X150954728Y-138383443D01*
X150847069Y-138069473D01*
X150747579Y-137883339D01*
X150478066Y-137781539D01*
X149486605Y-138773000D01*
X149127395Y-138773000D01*
X148135934Y-137781539D01*
X148132042Y-137783009D01*
X148075825Y-137698875D01*
X147978884Y-137601934D01*
X148315539Y-137601934D01*
X149307000Y-138593395D01*
X150204395Y-137696000D01*
X153678928Y-137696000D01*
X153678928Y-139796000D01*
X153691188Y-139920482D01*
X153727498Y-140040180D01*
X153786463Y-140150494D01*
X153865815Y-140247185D01*
X153962506Y-140326537D01*
X154072820Y-140385502D01*
X154192518Y-140421812D01*
X154317000Y-140434072D01*
X156417000Y-140434072D01*
X156541482Y-140421812D01*
X156661180Y-140385502D01*
X156771494Y-140326537D01*
X156868185Y-140247185D01*
X156947537Y-140150494D01*
X156955042Y-140136454D01*
X157108853Y-140239228D01*
X157415504Y-140366246D01*
X157741042Y-140431000D01*
X158072958Y-140431000D01*
X158398496Y-140366246D01*
X158705147Y-140239228D01*
X158981125Y-140054825D01*
X159177000Y-139858950D01*
X159372875Y-140054825D01*
X159648853Y-140239228D01*
X159955504Y-140366246D01*
X160281042Y-140431000D01*
X160612958Y-140431000D01*
X160938496Y-140366246D01*
X161245147Y-140239228D01*
X161521125Y-140054825D01*
X161717000Y-139858950D01*
X161912875Y-140054825D01*
X162188853Y-140239228D01*
X162495504Y-140366246D01*
X162821042Y-140431000D01*
X163152958Y-140431000D01*
X163478496Y-140366246D01*
X163785147Y-140239228D01*
X164061125Y-140054825D01*
X164257000Y-139858950D01*
X164452875Y-140054825D01*
X164728853Y-140239228D01*
X165035504Y-140366246D01*
X165361042Y-140431000D01*
X165692958Y-140431000D01*
X166018496Y-140366246D01*
X166325147Y-140239228D01*
X166601125Y-140054825D01*
X166797000Y-139858950D01*
X166992875Y-140054825D01*
X167268853Y-140239228D01*
X167575504Y-140366246D01*
X167901042Y-140431000D01*
X168232958Y-140431000D01*
X168558496Y-140366246D01*
X168865147Y-140239228D01*
X169141125Y-140054825D01*
X169337000Y-139858950D01*
X169532875Y-140054825D01*
X169808853Y-140239228D01*
X170115504Y-140366246D01*
X170441042Y-140431000D01*
X170772958Y-140431000D01*
X171098496Y-140366246D01*
X171405147Y-140239228D01*
X171681125Y-140054825D01*
X171877000Y-139858950D01*
X172072875Y-140054825D01*
X172348853Y-140239228D01*
X172655504Y-140366246D01*
X172981042Y-140431000D01*
X173312958Y-140431000D01*
X173638496Y-140366246D01*
X173945147Y-140239228D01*
X174221125Y-140054825D01*
X174417000Y-139858950D01*
X174612875Y-140054825D01*
X174888853Y-140239228D01*
X175195504Y-140366246D01*
X175521042Y-140431000D01*
X175852958Y-140431000D01*
X176178496Y-140366246D01*
X176485147Y-140239228D01*
X176761125Y-140054825D01*
X176898884Y-139917066D01*
X177235539Y-139917066D01*
X177337339Y-140186579D01*
X177635477Y-140332463D01*
X177956346Y-140417380D01*
X178287617Y-140438066D01*
X178616557Y-140393728D01*
X178930527Y-140286069D01*
X179116661Y-140186579D01*
X179218461Y-139917066D01*
X178227000Y-138925605D01*
X177235539Y-139917066D01*
X176898884Y-139917066D01*
X176995825Y-139820125D01*
X177052042Y-139735991D01*
X177055934Y-139737461D01*
X178047395Y-138746000D01*
X178406605Y-138746000D01*
X179398066Y-139737461D01*
X179667579Y-139635661D01*
X179813463Y-139337523D01*
X179898380Y-139016654D01*
X179919066Y-138685383D01*
X179874728Y-138356443D01*
X179767069Y-138042473D01*
X179667579Y-137856339D01*
X179398066Y-137754539D01*
X178406605Y-138746000D01*
X178047395Y-138746000D01*
X177055934Y-137754539D01*
X177052042Y-137756009D01*
X176995825Y-137671875D01*
X176898884Y-137574934D01*
X177235539Y-137574934D01*
X178227000Y-138566395D01*
X179218461Y-137574934D01*
X179116661Y-137305421D01*
X178818523Y-137159537D01*
X178497654Y-137074620D01*
X178166383Y-137053934D01*
X177837443Y-137098272D01*
X177523473Y-137205931D01*
X177337339Y-137305421D01*
X177235539Y-137574934D01*
X176898884Y-137574934D01*
X176761125Y-137437175D01*
X176485147Y-137252772D01*
X176178496Y-137125754D01*
X175852958Y-137061000D01*
X175521042Y-137061000D01*
X175195504Y-137125754D01*
X174888853Y-137252772D01*
X174612875Y-137437175D01*
X174417000Y-137633050D01*
X174221125Y-137437175D01*
X173945147Y-137252772D01*
X173638496Y-137125754D01*
X173312958Y-137061000D01*
X172981042Y-137061000D01*
X172655504Y-137125754D01*
X172348853Y-137252772D01*
X172072875Y-137437175D01*
X171877000Y-137633050D01*
X171681125Y-137437175D01*
X171405147Y-137252772D01*
X171098496Y-137125754D01*
X170772958Y-137061000D01*
X170441042Y-137061000D01*
X170115504Y-137125754D01*
X169808853Y-137252772D01*
X169532875Y-137437175D01*
X169337000Y-137633050D01*
X169141125Y-137437175D01*
X168865147Y-137252772D01*
X168558496Y-137125754D01*
X168232958Y-137061000D01*
X167901042Y-137061000D01*
X167575504Y-137125754D01*
X167268853Y-137252772D01*
X166992875Y-137437175D01*
X166797000Y-137633050D01*
X166601125Y-137437175D01*
X166325147Y-137252772D01*
X166018496Y-137125754D01*
X165692958Y-137061000D01*
X165361042Y-137061000D01*
X165078975Y-137117107D01*
X162817191Y-134855324D01*
X162894826Y-134667898D01*
X162934600Y-134467939D01*
X162934600Y-134264061D01*
X162924496Y-134213261D01*
X170770600Y-134213261D01*
X170770600Y-134417139D01*
X170810374Y-134617098D01*
X170888395Y-134805456D01*
X171001663Y-134974974D01*
X171145826Y-135119137D01*
X171315344Y-135232405D01*
X171503702Y-135310426D01*
X171703661Y-135350200D01*
X171907539Y-135350200D01*
X172107498Y-135310426D01*
X172295856Y-135232405D01*
X172465374Y-135119137D01*
X172609537Y-134974974D01*
X172722805Y-134805456D01*
X172800826Y-134617098D01*
X172829692Y-134471976D01*
X172976632Y-134325036D01*
X173008491Y-134298891D01*
X173037076Y-134264061D01*
X173112836Y-134171746D01*
X173190372Y-134026687D01*
X173223444Y-133917663D01*
X173238118Y-133869289D01*
X173250200Y-133746619D01*
X173250200Y-133746618D01*
X173254240Y-133705600D01*
X173250200Y-133664582D01*
X173250200Y-127562485D01*
X173332405Y-127439456D01*
X173410426Y-127251098D01*
X173450200Y-127051139D01*
X173450200Y-126847261D01*
X173410426Y-126647302D01*
X173332405Y-126458944D01*
X173219137Y-126289426D01*
X173074974Y-126145263D01*
X172905456Y-126031995D01*
X172717098Y-125953974D01*
X172517139Y-125914200D01*
X172313261Y-125914200D01*
X172113302Y-125953974D01*
X171924944Y-126031995D01*
X171755426Y-126145263D01*
X171611263Y-126289426D01*
X171497995Y-126458944D01*
X171419974Y-126647302D01*
X171380200Y-126847261D01*
X171380200Y-127051139D01*
X171419974Y-127251098D01*
X171497995Y-127439456D01*
X171580201Y-127562486D01*
X171580200Y-133304758D01*
X171503702Y-133319974D01*
X171315344Y-133397995D01*
X171145826Y-133511263D01*
X171001663Y-133655426D01*
X170888395Y-133824944D01*
X170810374Y-134013302D01*
X170770600Y-134213261D01*
X162924496Y-134213261D01*
X162894826Y-134064102D01*
X162816805Y-133875744D01*
X162703537Y-133706226D01*
X162559374Y-133562063D01*
X162389856Y-133448795D01*
X162201498Y-133370774D01*
X162001539Y-133331000D01*
X161797661Y-133331000D01*
X161597702Y-133370774D01*
X161409344Y-133448795D01*
X161239826Y-133562063D01*
X161095663Y-133706226D01*
X160986825Y-133869114D01*
X160984574Y-133866863D01*
X160815056Y-133753595D01*
X160626698Y-133675574D01*
X160426739Y-133635800D01*
X160222861Y-133635800D01*
X160022902Y-133675574D01*
X159834544Y-133753595D01*
X159665026Y-133866863D01*
X159536737Y-133995152D01*
X159534200Y-133969393D01*
X159534200Y-127511683D01*
X159616405Y-127388654D01*
X159694426Y-127200296D01*
X159734200Y-127000337D01*
X159734200Y-126796459D01*
X159694426Y-126596500D01*
X159616405Y-126408142D01*
X159503137Y-126238624D01*
X159358974Y-126094461D01*
X159189456Y-125981193D01*
X159001098Y-125903172D01*
X158801139Y-125863398D01*
X158597261Y-125863398D01*
X158397302Y-125903172D01*
X158208944Y-125981193D01*
X158039426Y-126094461D01*
X157895263Y-126238624D01*
X157781995Y-126408142D01*
X157703974Y-126596500D01*
X157664200Y-126796459D01*
X157664200Y-127000337D01*
X157703974Y-127200296D01*
X157781995Y-127388654D01*
X157864201Y-127511684D01*
X157864200Y-133533572D01*
X157700944Y-133601195D01*
X157531426Y-133714463D01*
X157387263Y-133858626D01*
X157339468Y-133930157D01*
X157275764Y-133866453D01*
X157106246Y-133753185D01*
X156917888Y-133675164D01*
X156717929Y-133635390D01*
X156514051Y-133635390D01*
X156314092Y-133675164D01*
X156125734Y-133753185D01*
X155956216Y-133866453D01*
X155812053Y-134010616D01*
X155698785Y-134180134D01*
X155620764Y-134368492D01*
X155580990Y-134568451D01*
X155580990Y-134772329D01*
X155620764Y-134972288D01*
X155698785Y-135160646D01*
X155812053Y-135330164D01*
X155956216Y-135474327D01*
X156125734Y-135587595D01*
X156314092Y-135665616D01*
X156459215Y-135694482D01*
X157072001Y-136307269D01*
X157072001Y-137277396D01*
X156955042Y-137355546D01*
X156947537Y-137341506D01*
X156868185Y-137244815D01*
X156771494Y-137165463D01*
X156661180Y-137106498D01*
X156541482Y-137070188D01*
X156417000Y-137057928D01*
X154317000Y-137057928D01*
X154192518Y-137070188D01*
X154072820Y-137106498D01*
X153962506Y-137165463D01*
X153865815Y-137244815D01*
X153786463Y-137341506D01*
X153727498Y-137451820D01*
X153691188Y-137571518D01*
X153678928Y-137696000D01*
X150204395Y-137696000D01*
X150298461Y-137601934D01*
X150196661Y-137332421D01*
X149898523Y-137186537D01*
X149577654Y-137101620D01*
X149246383Y-137080934D01*
X148917443Y-137125272D01*
X148603473Y-137232931D01*
X148417339Y-137332421D01*
X148315539Y-137601934D01*
X147978884Y-137601934D01*
X147841125Y-137464175D01*
X147565147Y-137279772D01*
X147258496Y-137152754D01*
X146932958Y-137088000D01*
X146601042Y-137088000D01*
X146275504Y-137152754D01*
X145968853Y-137279772D01*
X145692875Y-137464175D01*
X145497000Y-137660050D01*
X145301125Y-137464175D01*
X145025147Y-137279772D01*
X144718496Y-137152754D01*
X144392958Y-137088000D01*
X144061042Y-137088000D01*
X143735504Y-137152754D01*
X143428853Y-137279772D01*
X143152875Y-137464175D01*
X142957000Y-137660050D01*
X142761125Y-137464175D01*
X142485147Y-137279772D01*
X142178496Y-137152754D01*
X141852958Y-137088000D01*
X141521042Y-137088000D01*
X141195504Y-137152754D01*
X140888853Y-137279772D01*
X140612875Y-137464175D01*
X140417000Y-137660050D01*
X140221125Y-137464175D01*
X139945147Y-137279772D01*
X139638496Y-137152754D01*
X139312958Y-137088000D01*
X138981042Y-137088000D01*
X138655504Y-137152754D01*
X138348853Y-137279772D01*
X138072875Y-137464175D01*
X137877000Y-137660050D01*
X137681125Y-137464175D01*
X137405147Y-137279772D01*
X137098496Y-137152754D01*
X136772958Y-137088000D01*
X136441042Y-137088000D01*
X136158975Y-137144107D01*
X133313743Y-134298876D01*
X133329226Y-134261498D01*
X133369000Y-134061539D01*
X133369000Y-133857661D01*
X133329226Y-133657702D01*
X133251205Y-133469344D01*
X133137937Y-133299826D01*
X132993774Y-133155663D01*
X132824256Y-133042395D01*
X132635898Y-132964374D01*
X132490775Y-132935508D01*
X129968600Y-130413333D01*
X129968600Y-127816485D01*
X130050805Y-127693456D01*
X130128826Y-127505098D01*
X130168600Y-127305139D01*
X130168600Y-127101261D01*
X130128826Y-126901302D01*
X130106442Y-126847261D01*
X138258600Y-126847261D01*
X138258600Y-127051139D01*
X138298374Y-127251098D01*
X138376395Y-127439456D01*
X138458601Y-127562486D01*
X138458600Y-131480181D01*
X138454560Y-131521200D01*
X138458600Y-131562218D01*
X138470682Y-131684888D01*
X138518428Y-131842286D01*
X138595964Y-131987345D01*
X138700309Y-132114491D01*
X138732179Y-132140646D01*
X141419108Y-134827575D01*
X141447974Y-134972698D01*
X141525995Y-135161056D01*
X141639263Y-135330574D01*
X141783426Y-135474737D01*
X141952944Y-135588005D01*
X142141302Y-135666026D01*
X142341261Y-135705800D01*
X142545139Y-135705800D01*
X142745098Y-135666026D01*
X142933456Y-135588005D01*
X143102974Y-135474737D01*
X143247137Y-135330574D01*
X143360405Y-135161056D01*
X143438426Y-134972698D01*
X143478200Y-134772739D01*
X143478200Y-134568861D01*
X143438426Y-134368902D01*
X143360405Y-134180544D01*
X143247137Y-134011026D01*
X143102974Y-133866863D01*
X142933456Y-133753595D01*
X142745098Y-133675574D01*
X142599975Y-133646708D01*
X140128600Y-131175333D01*
X140128600Y-127562485D01*
X140210805Y-127439456D01*
X140288826Y-127251098D01*
X140328600Y-127051139D01*
X140328600Y-127050461D01*
X143999000Y-127050461D01*
X143999000Y-127254339D01*
X144038774Y-127454298D01*
X144116795Y-127642656D01*
X144230063Y-127812174D01*
X144374226Y-127956337D01*
X144543744Y-128069605D01*
X144732102Y-128147626D01*
X144877225Y-128176493D01*
X145519801Y-128819069D01*
X145519800Y-133701915D01*
X145437595Y-133824944D01*
X145359574Y-134013302D01*
X145319800Y-134213261D01*
X145319800Y-134417139D01*
X145359574Y-134617098D01*
X145437595Y-134805456D01*
X145550863Y-134974974D01*
X145695026Y-135119137D01*
X145864544Y-135232405D01*
X146052902Y-135310426D01*
X146252861Y-135350200D01*
X146456739Y-135350200D01*
X146656698Y-135310426D01*
X146845056Y-135232405D01*
X147014574Y-135119137D01*
X147158737Y-134974974D01*
X147272005Y-134805456D01*
X147350026Y-134617098D01*
X147389800Y-134417139D01*
X147389800Y-134213261D01*
X147350026Y-134013302D01*
X147272005Y-133824944D01*
X147189800Y-133701915D01*
X147189800Y-128514207D01*
X147193839Y-128473199D01*
X147189800Y-128432191D01*
X147189800Y-128432181D01*
X147177718Y-128309511D01*
X147129972Y-128152113D01*
X147052436Y-128007054D01*
X146948091Y-127879909D01*
X146916226Y-127853758D01*
X146058093Y-126995625D01*
X146029226Y-126850502D01*
X145951205Y-126662144D01*
X145837937Y-126492626D01*
X145693774Y-126348463D01*
X145524256Y-126235195D01*
X145335898Y-126157174D01*
X145135939Y-126117400D01*
X144932061Y-126117400D01*
X144732102Y-126157174D01*
X144543744Y-126235195D01*
X144374226Y-126348463D01*
X144230063Y-126492626D01*
X144116795Y-126662144D01*
X144038774Y-126850502D01*
X143999000Y-127050461D01*
X140328600Y-127050461D01*
X140328600Y-126847261D01*
X140288826Y-126647302D01*
X140210805Y-126458944D01*
X140097537Y-126289426D01*
X139953374Y-126145263D01*
X139783856Y-126031995D01*
X139595498Y-125953974D01*
X139395539Y-125914200D01*
X139191661Y-125914200D01*
X138991702Y-125953974D01*
X138803344Y-126031995D01*
X138633826Y-126145263D01*
X138489663Y-126289426D01*
X138376395Y-126458944D01*
X138298374Y-126647302D01*
X138258600Y-126847261D01*
X130106442Y-126847261D01*
X130050805Y-126712944D01*
X129937537Y-126543426D01*
X129793374Y-126399263D01*
X129623856Y-126285995D01*
X129435498Y-126207974D01*
X129235539Y-126168200D01*
X129031661Y-126168200D01*
X128831702Y-126207974D01*
X128643344Y-126285995D01*
X128473826Y-126399263D01*
X128329663Y-126543426D01*
X128216395Y-126712944D01*
X128138374Y-126901302D01*
X128098600Y-127101261D01*
X128098600Y-127305139D01*
X128138374Y-127505098D01*
X128216395Y-127693456D01*
X128298601Y-127816486D01*
X128298600Y-130718181D01*
X128294560Y-130759200D01*
X128298600Y-130800218D01*
X128310682Y-130922888D01*
X128358428Y-131080286D01*
X128435964Y-131225345D01*
X128540309Y-131352491D01*
X128572179Y-131378646D01*
X130885297Y-133691765D01*
X130711302Y-133726374D01*
X130522944Y-133804395D01*
X130353426Y-133917663D01*
X130209263Y-134061826D01*
X130170262Y-134120195D01*
X129954493Y-133904425D01*
X129925626Y-133759302D01*
X129847605Y-133570944D01*
X129734337Y-133401426D01*
X129590174Y-133257263D01*
X129420656Y-133143995D01*
X129232298Y-133065974D01*
X129087177Y-133037108D01*
X124837800Y-128787733D01*
X124837800Y-127765685D01*
X124920005Y-127642656D01*
X124998026Y-127454298D01*
X125037800Y-127254339D01*
X125037800Y-127050461D01*
X124998026Y-126850502D01*
X124920005Y-126662144D01*
X124806737Y-126492626D01*
X124662574Y-126348463D01*
X124493056Y-126235195D01*
X124304698Y-126157174D01*
X124104739Y-126117400D01*
X123900861Y-126117400D01*
X123700902Y-126157174D01*
X123512544Y-126235195D01*
X123343026Y-126348463D01*
X123198863Y-126492626D01*
X123085595Y-126662144D01*
X123007574Y-126850502D01*
X122967800Y-127050461D01*
X105660000Y-127050461D01*
X105660000Y-112115261D01*
X126981000Y-112115261D01*
X126981000Y-112319139D01*
X127020774Y-112519098D01*
X127098795Y-112707456D01*
X127212063Y-112876974D01*
X127356226Y-113021137D01*
X127525744Y-113134405D01*
X127714102Y-113212426D01*
X127860566Y-113241559D01*
X127949853Y-113314835D01*
X128076997Y-113382795D01*
X128094912Y-113392371D01*
X128252310Y-113440117D01*
X128415998Y-113456239D01*
X128457017Y-113452199D01*
X133619581Y-113452199D01*
X133550395Y-113555744D01*
X133472374Y-113744102D01*
X133432600Y-113944061D01*
X133432600Y-114147939D01*
X133472374Y-114347898D01*
X133550395Y-114536256D01*
X133663663Y-114705774D01*
X133807826Y-114849937D01*
X133977344Y-114963205D01*
X134165702Y-115041226D01*
X134365661Y-115081000D01*
X134569539Y-115081000D01*
X134769498Y-115041226D01*
X134957856Y-114963205D01*
X135080885Y-114881000D01*
X139506582Y-114881000D01*
X139547600Y-114885040D01*
X139588618Y-114881000D01*
X139588619Y-114881000D01*
X139711289Y-114868918D01*
X139868687Y-114821172D01*
X140013746Y-114743636D01*
X140140891Y-114639291D01*
X140167046Y-114607421D01*
X148123069Y-106651400D01*
X149245749Y-106651400D01*
X149169574Y-106835302D01*
X149129800Y-107035261D01*
X149129800Y-107239139D01*
X149169574Y-107439098D01*
X149247595Y-107627456D01*
X149360863Y-107796974D01*
X149505026Y-107941137D01*
X149674544Y-108054405D01*
X149862902Y-108132426D01*
X150008025Y-108161293D01*
X151444530Y-109597799D01*
X149580893Y-109597799D01*
X149558005Y-109542544D01*
X149444737Y-109373026D01*
X149300574Y-109228863D01*
X149131056Y-109115595D01*
X148942698Y-109037574D01*
X148742739Y-108997800D01*
X148538861Y-108997800D01*
X148338902Y-109037574D01*
X148150544Y-109115595D01*
X147981026Y-109228863D01*
X147836863Y-109373026D01*
X147723595Y-109542544D01*
X147645574Y-109730902D01*
X147605800Y-109930861D01*
X147605800Y-110134739D01*
X147631476Y-110263821D01*
X147556112Y-110314177D01*
X147411949Y-110458340D01*
X147298681Y-110627858D01*
X147220660Y-110816216D01*
X147180886Y-111016175D01*
X147180886Y-111220053D01*
X147220660Y-111420012D01*
X147289770Y-111586857D01*
X147217774Y-111514861D01*
X147048256Y-111401593D01*
X146859898Y-111323572D01*
X146659939Y-111283798D01*
X146456061Y-111283798D01*
X146256102Y-111323572D01*
X146067744Y-111401593D01*
X145898226Y-111514861D01*
X145754063Y-111659024D01*
X145640795Y-111828542D01*
X145562774Y-112016900D01*
X145523000Y-112216859D01*
X145523000Y-112420737D01*
X145562774Y-112620696D01*
X145640795Y-112809054D01*
X145754063Y-112978572D01*
X145898226Y-113122735D01*
X146067744Y-113236003D01*
X146256102Y-113314024D01*
X146401224Y-113342890D01*
X146649765Y-113591431D01*
X146675911Y-113623291D01*
X146803056Y-113727636D01*
X146948115Y-113805172D01*
X147105513Y-113852918D01*
X147228183Y-113865000D01*
X147228184Y-113865000D01*
X147269202Y-113869040D01*
X147310220Y-113865000D01*
X147700707Y-113865000D01*
X147645574Y-113998102D01*
X147605800Y-114198061D01*
X147605800Y-114401939D01*
X147645574Y-114601898D01*
X147723595Y-114790256D01*
X147836863Y-114959774D01*
X147981026Y-115103937D01*
X148150544Y-115217205D01*
X148338902Y-115295226D01*
X148484026Y-115324093D01*
X155269763Y-122109832D01*
X155295909Y-122141691D01*
X155423054Y-122246036D01*
X155568113Y-122323572D01*
X155725511Y-122371318D01*
X155848181Y-122383400D01*
X155848182Y-122383400D01*
X155889200Y-122387440D01*
X155930218Y-122383400D01*
X178745515Y-122383400D01*
X178868544Y-122465605D01*
X179056902Y-122543626D01*
X179256861Y-122583400D01*
X179460739Y-122583400D01*
X179660698Y-122543626D01*
X179849056Y-122465605D01*
X180018574Y-122352337D01*
X180162737Y-122208174D01*
X180276005Y-122038656D01*
X180354026Y-121850298D01*
X180393800Y-121650339D01*
X180393800Y-121446461D01*
X180354026Y-121246502D01*
X180276005Y-121058144D01*
X180162737Y-120888626D01*
X180018574Y-120744463D01*
X179849056Y-120631195D01*
X179660698Y-120553174D01*
X179460739Y-120513400D01*
X179256861Y-120513400D01*
X179056902Y-120553174D01*
X178868544Y-120631195D01*
X178745515Y-120713400D01*
X171281000Y-120713400D01*
X171281000Y-120532861D01*
X171241226Y-120332902D01*
X171163205Y-120144544D01*
X171049937Y-119975026D01*
X170905774Y-119830863D01*
X170736256Y-119717595D01*
X170547898Y-119639574D01*
X170347939Y-119599800D01*
X170144061Y-119599800D01*
X169944102Y-119639574D01*
X169755744Y-119717595D01*
X169632715Y-119799800D01*
X162689511Y-119799800D01*
X162703537Y-119785774D01*
X162816805Y-119616256D01*
X162894826Y-119427898D01*
X162934600Y-119227939D01*
X162934600Y-119024061D01*
X162894826Y-118824102D01*
X162816805Y-118635744D01*
X162703537Y-118466226D01*
X162559374Y-118322063D01*
X162389856Y-118208795D01*
X162201498Y-118130774D01*
X162056377Y-118101908D01*
X153958667Y-110004200D01*
X155545915Y-110004200D01*
X155668944Y-110086405D01*
X155857302Y-110164426D01*
X156057261Y-110204200D01*
X156261139Y-110204200D01*
X156461098Y-110164426D01*
X156649456Y-110086405D01*
X156818974Y-109973137D01*
X156963137Y-109828974D01*
X157076405Y-109659456D01*
X157154426Y-109471098D01*
X157194200Y-109271139D01*
X157194200Y-109086600D01*
X157226339Y-109086600D01*
X157426298Y-109046826D01*
X157614656Y-108968805D01*
X157784174Y-108855537D01*
X157928337Y-108711374D01*
X158041605Y-108541856D01*
X158119626Y-108353498D01*
X158159400Y-108153539D01*
X158159400Y-108070600D01*
X158242339Y-108070600D01*
X158442298Y-108030826D01*
X158630656Y-107952805D01*
X158800174Y-107839537D01*
X158944337Y-107695374D01*
X159057605Y-107525856D01*
X159135626Y-107337498D01*
X159175400Y-107137539D01*
X159175400Y-106933661D01*
X159152908Y-106820586D01*
X159240256Y-106784405D01*
X159409774Y-106671137D01*
X159553937Y-106526974D01*
X159667205Y-106357456D01*
X159745226Y-106169098D01*
X159785000Y-105969139D01*
X159785000Y-105765261D01*
X159745226Y-105565302D01*
X159667205Y-105376944D01*
X159553937Y-105207426D01*
X159409774Y-105063263D01*
X159240256Y-104949995D01*
X159051898Y-104871974D01*
X158906776Y-104843108D01*
X158073468Y-104009800D01*
X160740933Y-104009800D01*
X161993108Y-105261976D01*
X162021974Y-105407098D01*
X162099995Y-105595456D01*
X162213263Y-105764974D01*
X162357426Y-105909137D01*
X162526944Y-106022405D01*
X162715302Y-106100426D01*
X162915261Y-106140200D01*
X163119139Y-106140200D01*
X163319098Y-106100426D01*
X163507456Y-106022405D01*
X163676974Y-105909137D01*
X163821137Y-105764974D01*
X163934405Y-105595456D01*
X164012426Y-105407098D01*
X164052200Y-105207139D01*
X164052200Y-105003261D01*
X164012426Y-104803302D01*
X163934405Y-104614944D01*
X163821137Y-104445426D01*
X163676974Y-104301263D01*
X163507456Y-104187995D01*
X163319098Y-104109974D01*
X163173976Y-104081108D01*
X161706246Y-102613379D01*
X161680091Y-102581509D01*
X161552946Y-102477164D01*
X161407887Y-102399628D01*
X161250489Y-102351882D01*
X161226179Y-102349488D01*
X164369800Y-99205868D01*
X164369800Y-99301549D01*
X164409574Y-99501508D01*
X164487595Y-99689866D01*
X164600863Y-99859384D01*
X164745026Y-100003547D01*
X164914544Y-100116815D01*
X165102902Y-100194836D01*
X165248025Y-100223703D01*
X167414601Y-102390280D01*
X167414600Y-110079915D01*
X167332395Y-110202944D01*
X167254374Y-110391302D01*
X167214600Y-110591261D01*
X167214600Y-110795139D01*
X167254374Y-110995098D01*
X167332395Y-111183456D01*
X167445663Y-111352974D01*
X167589826Y-111497137D01*
X167759344Y-111610405D01*
X167947702Y-111688426D01*
X168147661Y-111728200D01*
X168351539Y-111728200D01*
X168551498Y-111688426D01*
X168739856Y-111610405D01*
X168909374Y-111497137D01*
X169053537Y-111352974D01*
X169166805Y-111183456D01*
X169244826Y-110995098D01*
X169284600Y-110795139D01*
X169284600Y-110591261D01*
X169244826Y-110391302D01*
X169166805Y-110202944D01*
X169084600Y-110079915D01*
X169084600Y-109661067D01*
X170273508Y-110849975D01*
X170302374Y-110995098D01*
X170380395Y-111183456D01*
X170493663Y-111352974D01*
X170637826Y-111497137D01*
X170807344Y-111610405D01*
X170995702Y-111688426D01*
X171195661Y-111728200D01*
X171399539Y-111728200D01*
X171599498Y-111688426D01*
X171787856Y-111610405D01*
X171957374Y-111497137D01*
X172101537Y-111352974D01*
X172214805Y-111183456D01*
X172292826Y-110995098D01*
X172332600Y-110795139D01*
X172332600Y-110591261D01*
X172292826Y-110391302D01*
X172214805Y-110202944D01*
X172101537Y-110033426D01*
X171957374Y-109889263D01*
X171787856Y-109775995D01*
X171599498Y-109697974D01*
X171454375Y-109669108D01*
X169948200Y-108162933D01*
X169948200Y-101475828D01*
X169952240Y-101434810D01*
X169942228Y-101333158D01*
X169936118Y-101271121D01*
X169888372Y-101113723D01*
X169810836Y-100968664D01*
X169706491Y-100841519D01*
X169674632Y-100815373D01*
X167292493Y-98433235D01*
X167263626Y-98288112D01*
X167219846Y-98182418D01*
X167330825Y-98204493D01*
X173815400Y-104689069D01*
X173815401Y-107997114D01*
X173733195Y-108120144D01*
X173655174Y-108308502D01*
X173615400Y-108508461D01*
X173615400Y-108712339D01*
X173655174Y-108912298D01*
X173733195Y-109100656D01*
X173846463Y-109270174D01*
X173990626Y-109414337D01*
X174160144Y-109527605D01*
X174348502Y-109605626D01*
X174548461Y-109645400D01*
X174752339Y-109645400D01*
X174952298Y-109605626D01*
X175140656Y-109527605D01*
X175310174Y-109414337D01*
X175454337Y-109270174D01*
X175567605Y-109100656D01*
X175645626Y-108912298D01*
X175685400Y-108712339D01*
X175685400Y-108508461D01*
X175645626Y-108308502D01*
X175567605Y-108120144D01*
X175485400Y-107997115D01*
X175485400Y-104384218D01*
X175489440Y-104343200D01*
X175473318Y-104179511D01*
X175425572Y-104022113D01*
X175348036Y-103877054D01*
X175269839Y-103781770D01*
X175269837Y-103781768D01*
X175243691Y-103749909D01*
X175211833Y-103723764D01*
X168511693Y-97023625D01*
X168482826Y-96878502D01*
X168404805Y-96690144D01*
X168291537Y-96520626D01*
X168147374Y-96376463D01*
X167977856Y-96263195D01*
X167789498Y-96185174D01*
X167589539Y-96145400D01*
X167385661Y-96145400D01*
X167185702Y-96185174D01*
X166997344Y-96263195D01*
X166827826Y-96376463D01*
X166683663Y-96520626D01*
X166570395Y-96690144D01*
X166492374Y-96878502D01*
X166452600Y-97078461D01*
X166452600Y-97282339D01*
X166492374Y-97482298D01*
X166536154Y-97587992D01*
X166370339Y-97555010D01*
X166272056Y-97555010D01*
X166322005Y-97480256D01*
X166400026Y-97291898D01*
X166439800Y-97091939D01*
X166439800Y-96888061D01*
X166400026Y-96688102D01*
X166322005Y-96499744D01*
X166208737Y-96330226D01*
X166064574Y-96186063D01*
X165895056Y-96072795D01*
X165706698Y-95994774D01*
X165506739Y-95955000D01*
X165302861Y-95955000D01*
X165102902Y-95994774D01*
X164914544Y-96072795D01*
X164745026Y-96186063D01*
X164600863Y-96330226D01*
X164487595Y-96499744D01*
X164409574Y-96688102D01*
X164380708Y-96833223D01*
X160042533Y-101171400D01*
X158906085Y-101171400D01*
X158783056Y-101089195D01*
X158594698Y-101011174D01*
X158394739Y-100971400D01*
X158190861Y-100971400D01*
X157990902Y-101011174D01*
X157802544Y-101089195D01*
X157633026Y-101202463D01*
X157488863Y-101346626D01*
X157375595Y-101516144D01*
X157297574Y-101704502D01*
X157257800Y-101904461D01*
X157257800Y-102108339D01*
X157297574Y-102308298D01*
X157310623Y-102339800D01*
X154127741Y-102339800D01*
X154312656Y-102263205D01*
X154482174Y-102149937D01*
X154626337Y-102005774D01*
X154739605Y-101836256D01*
X154817626Y-101647898D01*
X154857400Y-101447939D01*
X154857400Y-101244061D01*
X154817626Y-101044102D01*
X154739605Y-100855744D01*
X154626337Y-100686226D01*
X154482174Y-100542063D01*
X154312656Y-100428795D01*
X154124298Y-100350774D01*
X153924339Y-100311000D01*
X153720461Y-100311000D01*
X153520502Y-100350774D01*
X153332144Y-100428795D01*
X153209115Y-100511000D01*
X151794085Y-100511000D01*
X151671056Y-100428795D01*
X151482698Y-100350774D01*
X151282739Y-100311000D01*
X151078861Y-100311000D01*
X150878902Y-100350774D01*
X150690544Y-100428795D01*
X150521026Y-100542063D01*
X150376863Y-100686226D01*
X150263595Y-100855744D01*
X150185574Y-101044102D01*
X150145800Y-101244061D01*
X150145800Y-101447939D01*
X150185574Y-101647898D01*
X150263595Y-101836256D01*
X150376863Y-102005774D01*
X150521026Y-102149937D01*
X150690544Y-102263205D01*
X150875459Y-102339800D01*
X145545685Y-102339800D01*
X145422656Y-102257595D01*
X145234298Y-102179574D01*
X145034339Y-102139800D01*
X144830461Y-102139800D01*
X144630502Y-102179574D01*
X144442144Y-102257595D01*
X144272626Y-102370863D01*
X144128463Y-102515026D01*
X144015195Y-102684544D01*
X143937174Y-102872902D01*
X143897400Y-103072861D01*
X143897400Y-103276739D01*
X143937174Y-103476698D01*
X144015195Y-103665056D01*
X144128463Y-103834574D01*
X144272626Y-103978737D01*
X144442144Y-104092005D01*
X144630502Y-104170026D01*
X144830461Y-104209800D01*
X145034339Y-104209800D01*
X145234298Y-104170026D01*
X145253430Y-104162101D01*
X142198602Y-107216930D01*
X142198602Y-103939865D01*
X147781575Y-98356892D01*
X147926698Y-98328026D01*
X148115056Y-98250005D01*
X148284574Y-98136737D01*
X148428737Y-97992574D01*
X148542005Y-97823056D01*
X148620026Y-97634698D01*
X148659800Y-97434739D01*
X148659800Y-97230861D01*
X148620026Y-97030902D01*
X148542005Y-96842544D01*
X148428737Y-96673026D01*
X148284574Y-96528863D01*
X148115056Y-96415595D01*
X147926698Y-96337574D01*
X147726739Y-96297800D01*
X147522861Y-96297800D01*
X147322902Y-96337574D01*
X147134544Y-96415595D01*
X146965026Y-96528863D01*
X146820863Y-96673026D01*
X146707595Y-96842544D01*
X146629574Y-97030902D01*
X146600708Y-97176025D01*
X141398600Y-102378133D01*
X141398600Y-97742885D01*
X141480805Y-97619856D01*
X141558826Y-97431498D01*
X141598600Y-97231539D01*
X141598600Y-97027661D01*
X141558826Y-96827702D01*
X141480805Y-96639344D01*
X141367537Y-96469826D01*
X141223374Y-96325663D01*
X141165005Y-96286662D01*
X141533175Y-95918492D01*
X141678298Y-95889626D01*
X141866656Y-95811605D01*
X142036174Y-95698337D01*
X142180337Y-95554174D01*
X142293605Y-95384656D01*
X142371626Y-95196298D01*
X142411400Y-94996339D01*
X142411400Y-94903810D01*
X143861915Y-94903810D01*
X143984944Y-94986015D01*
X144173302Y-95064036D01*
X144373261Y-95103810D01*
X144577139Y-95103810D01*
X144777098Y-95064036D01*
X144965456Y-94986015D01*
X145134974Y-94872747D01*
X145279137Y-94728584D01*
X145392405Y-94559066D01*
X145470426Y-94370708D01*
X145510200Y-94170749D01*
X145510200Y-93966871D01*
X145470426Y-93766912D01*
X145392405Y-93578554D01*
X145320982Y-93471661D01*
X146386600Y-93471661D01*
X146386600Y-93675539D01*
X146426374Y-93875498D01*
X146504395Y-94063856D01*
X146617663Y-94233374D01*
X146761826Y-94377537D01*
X146931344Y-94490805D01*
X147119702Y-94568826D01*
X147319661Y-94608600D01*
X147523539Y-94608600D01*
X147723498Y-94568826D01*
X147911856Y-94490805D01*
X148034885Y-94408600D01*
X168797463Y-94408600D01*
X168838481Y-94412640D01*
X168879499Y-94408600D01*
X168879500Y-94408600D01*
X169002170Y-94396518D01*
X169159568Y-94348772D01*
X169304627Y-94271236D01*
X169431772Y-94166891D01*
X169457927Y-94135021D01*
X175571928Y-88021021D01*
X175571928Y-89050000D01*
X175584188Y-89174482D01*
X175620498Y-89294180D01*
X175679463Y-89404494D01*
X175758815Y-89501185D01*
X175855506Y-89580537D01*
X175965820Y-89639502D01*
X176038380Y-89661513D01*
X175906525Y-89793368D01*
X175744010Y-90036589D01*
X175632068Y-90306842D01*
X175575000Y-90593740D01*
X175575000Y-90886260D01*
X175632068Y-91173158D01*
X175744010Y-91443411D01*
X175906525Y-91686632D01*
X176113368Y-91893475D01*
X176287760Y-92010000D01*
X176113368Y-92126525D01*
X175906525Y-92333368D01*
X175744010Y-92576589D01*
X175632068Y-92846842D01*
X175575000Y-93133740D01*
X175575000Y-93426260D01*
X175632068Y-93713158D01*
X175744010Y-93983411D01*
X175906525Y-94226632D01*
X176113368Y-94433475D01*
X176287760Y-94550000D01*
X176113368Y-94666525D01*
X175906525Y-94873368D01*
X175744010Y-95116589D01*
X175632068Y-95386842D01*
X175575000Y-95673740D01*
X175575000Y-95966260D01*
X175632068Y-96253158D01*
X175744010Y-96523411D01*
X175906525Y-96766632D01*
X176113368Y-96973475D01*
X176287760Y-97090000D01*
X176113368Y-97206525D01*
X175906525Y-97413368D01*
X175744010Y-97656589D01*
X175632068Y-97926842D01*
X175575000Y-98213740D01*
X175575000Y-98506260D01*
X175632068Y-98793158D01*
X175744010Y-99063411D01*
X175906525Y-99306632D01*
X176113368Y-99513475D01*
X176287760Y-99630000D01*
X176113368Y-99746525D01*
X175906525Y-99953368D01*
X175744010Y-100196589D01*
X175632068Y-100466842D01*
X175575000Y-100753740D01*
X175575000Y-101046260D01*
X175632068Y-101333158D01*
X175744010Y-101603411D01*
X175906525Y-101846632D01*
X176113368Y-102053475D01*
X176287760Y-102170000D01*
X176113368Y-102286525D01*
X175906525Y-102493368D01*
X175744010Y-102736589D01*
X175632068Y-103006842D01*
X175575000Y-103293740D01*
X175575000Y-103586260D01*
X175632068Y-103873158D01*
X175744010Y-104143411D01*
X175906525Y-104386632D01*
X176113368Y-104593475D01*
X176287760Y-104710000D01*
X176113368Y-104826525D01*
X175906525Y-105033368D01*
X175744010Y-105276589D01*
X175632068Y-105546842D01*
X175575000Y-105833740D01*
X175575000Y-106126260D01*
X175632068Y-106413158D01*
X175744010Y-106683411D01*
X175906525Y-106926632D01*
X176113368Y-107133475D01*
X176356589Y-107295990D01*
X176626842Y-107407932D01*
X176913740Y-107465000D01*
X177206260Y-107465000D01*
X177493158Y-107407932D01*
X177763411Y-107295990D01*
X178006632Y-107133475D01*
X178213475Y-106926632D01*
X178375990Y-106683411D01*
X178487932Y-106413158D01*
X178545000Y-106126260D01*
X178545000Y-105833740D01*
X178487932Y-105546842D01*
X178375990Y-105276589D01*
X178213475Y-105033368D01*
X178006632Y-104826525D01*
X177832240Y-104710000D01*
X178006632Y-104593475D01*
X178213475Y-104386632D01*
X178375990Y-104143411D01*
X178487932Y-103873158D01*
X178545000Y-103586260D01*
X178545000Y-103293740D01*
X178487932Y-103006842D01*
X178375990Y-102736589D01*
X178213475Y-102493368D01*
X178006632Y-102286525D01*
X177832240Y-102170000D01*
X178006632Y-102053475D01*
X178213475Y-101846632D01*
X178375990Y-101603411D01*
X178487932Y-101333158D01*
X178545000Y-101046260D01*
X178545000Y-100753740D01*
X178487932Y-100466842D01*
X178375990Y-100196589D01*
X178213475Y-99953368D01*
X178006632Y-99746525D01*
X177832240Y-99630000D01*
X178006632Y-99513475D01*
X178213475Y-99306632D01*
X178375990Y-99063411D01*
X178487932Y-98793158D01*
X178545000Y-98506260D01*
X178545000Y-98213740D01*
X178487932Y-97926842D01*
X178375990Y-97656589D01*
X178213475Y-97413368D01*
X178006632Y-97206525D01*
X177832240Y-97090000D01*
X178006632Y-96973475D01*
X178213475Y-96766632D01*
X178375990Y-96523411D01*
X178487932Y-96253158D01*
X178545000Y-95966260D01*
X178545000Y-95673740D01*
X178487932Y-95386842D01*
X178375990Y-95116589D01*
X178213475Y-94873368D01*
X178006632Y-94666525D01*
X177832240Y-94550000D01*
X178006632Y-94433475D01*
X178213475Y-94226632D01*
X178375990Y-93983411D01*
X178487932Y-93713158D01*
X178545000Y-93426260D01*
X178545000Y-93133740D01*
X178487932Y-92846842D01*
X178375990Y-92576589D01*
X178213475Y-92333368D01*
X178006632Y-92126525D01*
X177832240Y-92010000D01*
X178006632Y-91893475D01*
X178213475Y-91686632D01*
X178375990Y-91443411D01*
X178487932Y-91173158D01*
X178545000Y-90886260D01*
X178545000Y-90593740D01*
X178487932Y-90306842D01*
X178375990Y-90036589D01*
X178213475Y-89793368D01*
X178081620Y-89661513D01*
X178154180Y-89639502D01*
X178264494Y-89580537D01*
X178361185Y-89501185D01*
X178440537Y-89404494D01*
X178499502Y-89294180D01*
X178535812Y-89174482D01*
X178548072Y-89050000D01*
X178548072Y-87350000D01*
X178535812Y-87225518D01*
X178499502Y-87105820D01*
X178440537Y-86995506D01*
X178361185Y-86898815D01*
X178264494Y-86819463D01*
X178154180Y-86760498D01*
X178034482Y-86724188D01*
X177910000Y-86711928D01*
X176881022Y-86711928D01*
X177621433Y-85971517D01*
X177653291Y-85945372D01*
X177757636Y-85818227D01*
X177835172Y-85673168D01*
X177882918Y-85515770D01*
X177895000Y-85393100D01*
X177895000Y-85393099D01*
X177896585Y-85377006D01*
X178006632Y-85303475D01*
X178213475Y-85096632D01*
X178375990Y-84853411D01*
X178413853Y-84762000D01*
X183999928Y-84762000D01*
X184012188Y-84886482D01*
X184048498Y-85006180D01*
X184107463Y-85116494D01*
X184186815Y-85213185D01*
X184283506Y-85292537D01*
X184393820Y-85351502D01*
X184513518Y-85387812D01*
X184597465Y-85396080D01*
X184509465Y-85454880D01*
X184314880Y-85649465D01*
X184161995Y-85878273D01*
X184056686Y-86132510D01*
X184003000Y-86402408D01*
X184003000Y-86677592D01*
X184056686Y-86947490D01*
X184161995Y-87201727D01*
X184314880Y-87430535D01*
X184509465Y-87625120D01*
X184738273Y-87778005D01*
X184815515Y-87810000D01*
X184738273Y-87841995D01*
X184509465Y-87994880D01*
X184314880Y-88189465D01*
X184161995Y-88418273D01*
X184056686Y-88672510D01*
X184003000Y-88942408D01*
X184003000Y-89217592D01*
X184056686Y-89487490D01*
X184161995Y-89741727D01*
X184314880Y-89970535D01*
X184509465Y-90165120D01*
X184738273Y-90318005D01*
X184815515Y-90350000D01*
X184738273Y-90381995D01*
X184509465Y-90534880D01*
X184314880Y-90729465D01*
X184161995Y-90958273D01*
X184056686Y-91212510D01*
X184003000Y-91482408D01*
X184003000Y-91757592D01*
X184056686Y-92027490D01*
X184161995Y-92281727D01*
X184314880Y-92510535D01*
X184509465Y-92705120D01*
X184738273Y-92858005D01*
X184992510Y-92963314D01*
X185262408Y-93017000D01*
X185537592Y-93017000D01*
X185807490Y-92963314D01*
X186061727Y-92858005D01*
X186290535Y-92705120D01*
X186485120Y-92510535D01*
X186638005Y-92281727D01*
X186670000Y-92204485D01*
X186701995Y-92281727D01*
X186854880Y-92510535D01*
X187049465Y-92705120D01*
X187278273Y-92858005D01*
X187532510Y-92963314D01*
X187802408Y-93017000D01*
X188077592Y-93017000D01*
X188347490Y-92963314D01*
X188601727Y-92858005D01*
X188830535Y-92705120D01*
X189025120Y-92510535D01*
X189178005Y-92281727D01*
X189283314Y-92027490D01*
X189337000Y-91757592D01*
X189337000Y-91482408D01*
X189283314Y-91212510D01*
X189178005Y-90958273D01*
X189025120Y-90729465D01*
X188830535Y-90534880D01*
X188601727Y-90381995D01*
X188524485Y-90350000D01*
X188601727Y-90318005D01*
X188830535Y-90165120D01*
X189025120Y-89970535D01*
X189178005Y-89741727D01*
X189283314Y-89487490D01*
X189337000Y-89217592D01*
X189337000Y-88942408D01*
X189283314Y-88672510D01*
X189178005Y-88418273D01*
X189025120Y-88189465D01*
X188830535Y-87994880D01*
X188601727Y-87841995D01*
X188524485Y-87810000D01*
X188601727Y-87778005D01*
X188830535Y-87625120D01*
X189025120Y-87430535D01*
X189178005Y-87201727D01*
X189283314Y-86947490D01*
X189337000Y-86677592D01*
X189337000Y-86402408D01*
X189283314Y-86132510D01*
X189178005Y-85878273D01*
X189025120Y-85649465D01*
X188830535Y-85454880D01*
X188601727Y-85301995D01*
X188524485Y-85270000D01*
X188601727Y-85238005D01*
X188830535Y-85085120D01*
X189025120Y-84890535D01*
X189178005Y-84661727D01*
X189283314Y-84407490D01*
X189337000Y-84137592D01*
X189337000Y-83862408D01*
X189283314Y-83592510D01*
X189178005Y-83338273D01*
X189025120Y-83109465D01*
X188830535Y-82914880D01*
X188601727Y-82761995D01*
X188347490Y-82656686D01*
X188077592Y-82603000D01*
X187802408Y-82603000D01*
X187532510Y-82656686D01*
X187278273Y-82761995D01*
X187049465Y-82914880D01*
X186854880Y-83109465D01*
X186796080Y-83197465D01*
X186787812Y-83113518D01*
X186751502Y-82993820D01*
X186692537Y-82883506D01*
X186613185Y-82786815D01*
X186516494Y-82707463D01*
X186406180Y-82648498D01*
X186286482Y-82612188D01*
X186162000Y-82599928D01*
X185685750Y-82603000D01*
X185527000Y-82761750D01*
X185527000Y-83873000D01*
X185547000Y-83873000D01*
X185547000Y-84127000D01*
X185527000Y-84127000D01*
X185527000Y-84147000D01*
X185273000Y-84147000D01*
X185273000Y-84127000D01*
X184161750Y-84127000D01*
X184003000Y-84285750D01*
X183999928Y-84762000D01*
X178413853Y-84762000D01*
X178487932Y-84583158D01*
X178545000Y-84296260D01*
X178545000Y-84003740D01*
X178487932Y-83716842D01*
X178375990Y-83446589D01*
X178236616Y-83238000D01*
X183999928Y-83238000D01*
X184003000Y-83714250D01*
X184161750Y-83873000D01*
X185273000Y-83873000D01*
X185273000Y-82761750D01*
X185114250Y-82603000D01*
X184638000Y-82599928D01*
X184513518Y-82612188D01*
X184393820Y-82648498D01*
X184283506Y-82707463D01*
X184186815Y-82786815D01*
X184107463Y-82883506D01*
X184048498Y-82993820D01*
X184012188Y-83113518D01*
X183999928Y-83238000D01*
X178236616Y-83238000D01*
X178213475Y-83203368D01*
X178006632Y-82996525D01*
X177832240Y-82880000D01*
X178006632Y-82763475D01*
X178213475Y-82556632D01*
X178375990Y-82313411D01*
X178487932Y-82043158D01*
X178545000Y-81756260D01*
X178545000Y-81463740D01*
X178487932Y-81176842D01*
X178375990Y-80906589D01*
X178213475Y-80663368D01*
X178006632Y-80456525D01*
X177832240Y-80340000D01*
X178006632Y-80223475D01*
X178213475Y-80016632D01*
X178375990Y-79773411D01*
X178487932Y-79503158D01*
X178545000Y-79216260D01*
X178545000Y-78923740D01*
X178487932Y-78636842D01*
X178375990Y-78366589D01*
X178213475Y-78123368D01*
X178006632Y-77916525D01*
X177832240Y-77800000D01*
X178006632Y-77683475D01*
X178213475Y-77476632D01*
X178375990Y-77233411D01*
X178487932Y-76963158D01*
X178545000Y-76676260D01*
X178545000Y-76383740D01*
X178487932Y-76096842D01*
X178375990Y-75826589D01*
X178213475Y-75583368D01*
X178006632Y-75376525D01*
X177832240Y-75260000D01*
X178006632Y-75143475D01*
X178213475Y-74936632D01*
X178375990Y-74693411D01*
X178487932Y-74423158D01*
X178545000Y-74136260D01*
X178545000Y-73843740D01*
X178487932Y-73556842D01*
X178375990Y-73286589D01*
X178213475Y-73043368D01*
X178006632Y-72836525D01*
X177832240Y-72720000D01*
X178006632Y-72603475D01*
X178213475Y-72396632D01*
X178375990Y-72153411D01*
X178487932Y-71883158D01*
X178545000Y-71596260D01*
X178545000Y-71303740D01*
X178487932Y-71016842D01*
X178375990Y-70746589D01*
X178213475Y-70503368D01*
X178006632Y-70296525D01*
X177824466Y-70174805D01*
X177941355Y-70105178D01*
X178157588Y-69910269D01*
X178331641Y-69676920D01*
X178456825Y-69414099D01*
X178501476Y-69266890D01*
X178380155Y-69037000D01*
X177187000Y-69037000D01*
X177187000Y-69057000D01*
X176933000Y-69057000D01*
X176933000Y-69037000D01*
X175739845Y-69037000D01*
X175618524Y-69266890D01*
X175663175Y-69414099D01*
X175788359Y-69676920D01*
X175962412Y-69910269D01*
X176178645Y-70105178D01*
X176295534Y-70174805D01*
X176113368Y-70296525D01*
X175906525Y-70503368D01*
X175744010Y-70746589D01*
X175632068Y-71016842D01*
X175575000Y-71303740D01*
X175575000Y-71596260D01*
X175632068Y-71883158D01*
X175744010Y-72153411D01*
X175906525Y-72396632D01*
X176113368Y-72603475D01*
X176287760Y-72720000D01*
X176113368Y-72836525D01*
X175906525Y-73043368D01*
X175744010Y-73286589D01*
X175632068Y-73556842D01*
X175575000Y-73843740D01*
X175575000Y-74136260D01*
X175601193Y-74267939D01*
X172260179Y-77608954D01*
X172228309Y-77635109D01*
X172123965Y-77762254D01*
X172123964Y-77762255D01*
X172046428Y-77907314D01*
X171998682Y-78064712D01*
X171982560Y-78228400D01*
X171986600Y-78269419D01*
X171986601Y-85543514D01*
X171904395Y-85666544D01*
X171826374Y-85854902D01*
X171786600Y-86054861D01*
X171786600Y-86258739D01*
X171826374Y-86458698D01*
X171904395Y-86647056D01*
X172017663Y-86816574D01*
X172161826Y-86960737D01*
X172331344Y-87074005D01*
X172519702Y-87152026D01*
X172719661Y-87191800D01*
X172923539Y-87191800D01*
X173123498Y-87152026D01*
X173311856Y-87074005D01*
X173481374Y-86960737D01*
X173625537Y-86816574D01*
X173734375Y-86653686D01*
X173787426Y-86706737D01*
X173956944Y-86820005D01*
X174145302Y-86898026D01*
X174302015Y-86929198D01*
X168492614Y-92738600D01*
X148034885Y-92738600D01*
X147911856Y-92656395D01*
X147723498Y-92578374D01*
X147523539Y-92538600D01*
X147319661Y-92538600D01*
X147119702Y-92578374D01*
X146931344Y-92656395D01*
X146761826Y-92769663D01*
X146617663Y-92913826D01*
X146504395Y-93083344D01*
X146426374Y-93271702D01*
X146386600Y-93471661D01*
X145320982Y-93471661D01*
X145279137Y-93409036D01*
X145134974Y-93264873D01*
X144965456Y-93151605D01*
X144777098Y-93073584D01*
X144577139Y-93033810D01*
X144373261Y-93033810D01*
X144173302Y-93073584D01*
X143984944Y-93151605D01*
X143861915Y-93233810D01*
X135672208Y-93233810D01*
X135631190Y-93229770D01*
X135590172Y-93233810D01*
X135590171Y-93233810D01*
X135467501Y-93245892D01*
X135310103Y-93293638D01*
X135165044Y-93371174D01*
X135037899Y-93475519D01*
X135011753Y-93507378D01*
X130285000Y-98234132D01*
X130285000Y-98213740D01*
X130227932Y-97926842D01*
X130115990Y-97656589D01*
X129953475Y-97413368D01*
X129746632Y-97206525D01*
X129572240Y-97090000D01*
X129746632Y-96973475D01*
X129953475Y-96766632D01*
X130115990Y-96523411D01*
X130227932Y-96253158D01*
X130285000Y-95966260D01*
X130285000Y-95673740D01*
X130227932Y-95386842D01*
X130115990Y-95116589D01*
X129953475Y-94873368D01*
X129821620Y-94741513D01*
X129894180Y-94719502D01*
X130004494Y-94660537D01*
X130101185Y-94581185D01*
X130180537Y-94484494D01*
X130239502Y-94374180D01*
X130275812Y-94254482D01*
X130288072Y-94130000D01*
X130288072Y-92430000D01*
X130275812Y-92305518D01*
X130239502Y-92185820D01*
X130180537Y-92075506D01*
X130101185Y-91978815D01*
X130004494Y-91899463D01*
X129894180Y-91840498D01*
X129774482Y-91804188D01*
X129650000Y-91791928D01*
X127950000Y-91791928D01*
X127825518Y-91804188D01*
X127705820Y-91840498D01*
X127595506Y-91899463D01*
X127498815Y-91978815D01*
X127419463Y-92075506D01*
X127360498Y-92185820D01*
X127324188Y-92305518D01*
X127311928Y-92430000D01*
X127311928Y-94130000D01*
X127324188Y-94254482D01*
X127360498Y-94374180D01*
X127419463Y-94484494D01*
X127498815Y-94581185D01*
X127595506Y-94660537D01*
X127705820Y-94719502D01*
X127778380Y-94741513D01*
X127646525Y-94873368D01*
X127484010Y-95116589D01*
X127372068Y-95386842D01*
X127315000Y-95673740D01*
X127315000Y-95966260D01*
X127372068Y-96253158D01*
X127484010Y-96523411D01*
X127646525Y-96766632D01*
X127853368Y-96973475D01*
X128027760Y-97090000D01*
X127853368Y-97206525D01*
X127646525Y-97413368D01*
X127484010Y-97656589D01*
X127372068Y-97926842D01*
X127315000Y-98213740D01*
X127315000Y-98506260D01*
X127372068Y-98793158D01*
X127484010Y-99063411D01*
X127646525Y-99306632D01*
X127853368Y-99513475D01*
X128027760Y-99630000D01*
X127853368Y-99746525D01*
X127646525Y-99953368D01*
X127484010Y-100196589D01*
X127372068Y-100466842D01*
X127315000Y-100753740D01*
X127315000Y-101046260D01*
X127372068Y-101333158D01*
X127484010Y-101603411D01*
X127646525Y-101846632D01*
X127853368Y-102053475D01*
X128027760Y-102170000D01*
X127853368Y-102286525D01*
X127646525Y-102493368D01*
X127484010Y-102736589D01*
X127372068Y-103006842D01*
X127315000Y-103293740D01*
X127315000Y-103586260D01*
X127372068Y-103873158D01*
X127484010Y-104143411D01*
X127646525Y-104386632D01*
X127853368Y-104593475D01*
X128027760Y-104710000D01*
X127853368Y-104826525D01*
X127646525Y-105033368D01*
X127484010Y-105276589D01*
X127372068Y-105546842D01*
X127315000Y-105833740D01*
X127315000Y-106126260D01*
X127372068Y-106413158D01*
X127484010Y-106683411D01*
X127646525Y-106926632D01*
X127853368Y-107133475D01*
X128096589Y-107295990D01*
X128366842Y-107407932D01*
X128653740Y-107465000D01*
X128946260Y-107465000D01*
X129233158Y-107407932D01*
X129503411Y-107295990D01*
X129746632Y-107133475D01*
X129953475Y-106926632D01*
X130115990Y-106683411D01*
X130227932Y-106413158D01*
X130285000Y-106126260D01*
X130285000Y-105833740D01*
X130227932Y-105546842D01*
X130115990Y-105276589D01*
X129953475Y-105033368D01*
X129746632Y-104826525D01*
X129572240Y-104710000D01*
X129746632Y-104593475D01*
X129953475Y-104386632D01*
X130115990Y-104143411D01*
X130227932Y-103873158D01*
X130285000Y-103586260D01*
X130285000Y-103293740D01*
X130227932Y-103006842D01*
X130115990Y-102736589D01*
X129953475Y-102493368D01*
X129746632Y-102286525D01*
X129572240Y-102170000D01*
X129746632Y-102053475D01*
X129953475Y-101846632D01*
X130115990Y-101603411D01*
X130227932Y-101333158D01*
X130285000Y-101046260D01*
X130285000Y-100753740D01*
X130258807Y-100622060D01*
X135977059Y-94903810D01*
X140186122Y-94903810D01*
X136598579Y-98491354D01*
X136566709Y-98517509D01*
X136462365Y-98644654D01*
X136462364Y-98644655D01*
X136384828Y-98789714D01*
X136337082Y-98947112D01*
X136320960Y-99110800D01*
X136325000Y-99151819D01*
X136325001Y-107235114D01*
X136242795Y-107358144D01*
X136164774Y-107546502D01*
X136125000Y-107746461D01*
X136125000Y-107950339D01*
X136164774Y-108150298D01*
X136242795Y-108338656D01*
X136356063Y-108508174D01*
X136500226Y-108652337D01*
X136669744Y-108765605D01*
X136858102Y-108843626D01*
X137058061Y-108883400D01*
X137261939Y-108883400D01*
X137461898Y-108843626D01*
X137650256Y-108765605D01*
X137819774Y-108652337D01*
X137963937Y-108508174D01*
X138077205Y-108338656D01*
X138155226Y-108150298D01*
X138195000Y-107950339D01*
X138195000Y-107746461D01*
X138155226Y-107546502D01*
X138077205Y-107358144D01*
X137995000Y-107235115D01*
X137995000Y-99456667D01*
X139720662Y-97731005D01*
X139728600Y-97742885D01*
X139728601Y-106930316D01*
X139646395Y-107053346D01*
X139568374Y-107241704D01*
X139528600Y-107441663D01*
X139528600Y-107645541D01*
X139568374Y-107845500D01*
X139646395Y-108033858D01*
X139759663Y-108203376D01*
X139891159Y-108334872D01*
X137630163Y-110595869D01*
X137574906Y-110572980D01*
X137374947Y-110533206D01*
X137171069Y-110533206D01*
X136971110Y-110572980D01*
X136782752Y-110651001D01*
X136613234Y-110764269D01*
X136469071Y-110908432D01*
X136355803Y-111077950D01*
X136277782Y-111266308D01*
X136238008Y-111466267D01*
X136238008Y-111670145D01*
X136260297Y-111782199D01*
X128956093Y-111782199D01*
X128933205Y-111726944D01*
X128819937Y-111557426D01*
X128675774Y-111413263D01*
X128506256Y-111299995D01*
X128317898Y-111221974D01*
X128117939Y-111182200D01*
X127914061Y-111182200D01*
X127714102Y-111221974D01*
X127525744Y-111299995D01*
X127356226Y-111413263D01*
X127212063Y-111557426D01*
X127098795Y-111726944D01*
X127020774Y-111915302D01*
X126981000Y-112115261D01*
X105660000Y-112115261D01*
X105660000Y-87333740D01*
X127315000Y-87333740D01*
X127315000Y-87626260D01*
X127372068Y-87913158D01*
X127484010Y-88183411D01*
X127646525Y-88426632D01*
X127853368Y-88633475D01*
X128096589Y-88795990D01*
X128366842Y-88907932D01*
X128653740Y-88965000D01*
X128946260Y-88965000D01*
X129233158Y-88907932D01*
X129503411Y-88795990D01*
X129746632Y-88633475D01*
X129953475Y-88426632D01*
X130115990Y-88183411D01*
X130227932Y-87913158D01*
X130285000Y-87626260D01*
X130285000Y-87333740D01*
X130227932Y-87046842D01*
X130115990Y-86776589D01*
X129953475Y-86533368D01*
X129746632Y-86326525D01*
X129564466Y-86204805D01*
X129681355Y-86135178D01*
X129897588Y-85940269D01*
X130071641Y-85706920D01*
X130196825Y-85444099D01*
X130241476Y-85296890D01*
X130120155Y-85067000D01*
X128927000Y-85067000D01*
X128927000Y-85087000D01*
X128673000Y-85087000D01*
X128673000Y-85067000D01*
X127479845Y-85067000D01*
X127358524Y-85296890D01*
X127403175Y-85444099D01*
X127528359Y-85706920D01*
X127702412Y-85940269D01*
X127918645Y-86135178D01*
X128035534Y-86204805D01*
X127853368Y-86326525D01*
X127646525Y-86533368D01*
X127484010Y-86776589D01*
X127372068Y-87046842D01*
X127315000Y-87333740D01*
X105660000Y-87333740D01*
X105660000Y-82756890D01*
X127358524Y-82756890D01*
X127403175Y-82904099D01*
X127528359Y-83166920D01*
X127702412Y-83400269D01*
X127918645Y-83595178D01*
X128044255Y-83670000D01*
X127918645Y-83744822D01*
X127702412Y-83939731D01*
X127528359Y-84173080D01*
X127403175Y-84435901D01*
X127358524Y-84583110D01*
X127479845Y-84813000D01*
X128673000Y-84813000D01*
X128673000Y-82527000D01*
X128927000Y-82527000D01*
X128927000Y-84813000D01*
X130120155Y-84813000D01*
X130241476Y-84583110D01*
X130196825Y-84435901D01*
X130071641Y-84173080D01*
X129897588Y-83939731D01*
X129681355Y-83744822D01*
X129555745Y-83670000D01*
X129681355Y-83595178D01*
X129897588Y-83400269D01*
X130071641Y-83166920D01*
X130196825Y-82904099D01*
X130241476Y-82756890D01*
X130120155Y-82527000D01*
X128927000Y-82527000D01*
X128673000Y-82527000D01*
X127479845Y-82527000D01*
X127358524Y-82756890D01*
X105660000Y-82756890D01*
X105660000Y-68850000D01*
X127311928Y-68850000D01*
X127311928Y-70550000D01*
X127324188Y-70674482D01*
X127360498Y-70794180D01*
X127419463Y-70904494D01*
X127498815Y-71001185D01*
X127595506Y-71080537D01*
X127705820Y-71139502D01*
X127778380Y-71161513D01*
X127646525Y-71293368D01*
X127484010Y-71536589D01*
X127372068Y-71806842D01*
X127315000Y-72093740D01*
X127315000Y-72386260D01*
X127372068Y-72673158D01*
X127484010Y-72943411D01*
X127646525Y-73186632D01*
X127853368Y-73393475D01*
X128027760Y-73510000D01*
X127853368Y-73626525D01*
X127646525Y-73833368D01*
X127484010Y-74076589D01*
X127372068Y-74346842D01*
X127315000Y-74633740D01*
X127315000Y-74926260D01*
X127372068Y-75213158D01*
X127484010Y-75483411D01*
X127646525Y-75726632D01*
X127853368Y-75933475D01*
X128027760Y-76050000D01*
X127853368Y-76166525D01*
X127646525Y-76373368D01*
X127484010Y-76616589D01*
X127372068Y-76886842D01*
X127315000Y-77173740D01*
X127315000Y-77466260D01*
X127372068Y-77753158D01*
X127484010Y-78023411D01*
X127646525Y-78266632D01*
X127853368Y-78473475D01*
X128027760Y-78590000D01*
X127853368Y-78706525D01*
X127646525Y-78913368D01*
X127484010Y-79156589D01*
X127372068Y-79426842D01*
X127315000Y-79713740D01*
X127315000Y-80006260D01*
X127372068Y-80293158D01*
X127484010Y-80563411D01*
X127646525Y-80806632D01*
X127853368Y-81013475D01*
X128035534Y-81135195D01*
X127918645Y-81204822D01*
X127702412Y-81399731D01*
X127528359Y-81633080D01*
X127403175Y-81895901D01*
X127358524Y-82043110D01*
X127479845Y-82273000D01*
X128673000Y-82273000D01*
X128673000Y-82253000D01*
X128927000Y-82253000D01*
X128927000Y-82273000D01*
X130120155Y-82273000D01*
X130241476Y-82043110D01*
X130196825Y-81895901D01*
X130071641Y-81633080D01*
X129897588Y-81399731D01*
X129681355Y-81204822D01*
X129564466Y-81135195D01*
X129746632Y-81013475D01*
X129953475Y-80806632D01*
X130115990Y-80563411D01*
X130227932Y-80293158D01*
X130285000Y-80006260D01*
X130285000Y-79713740D01*
X130227932Y-79426842D01*
X130115990Y-79156589D01*
X129953475Y-78913368D01*
X129746632Y-78706525D01*
X129572240Y-78590000D01*
X129746632Y-78473475D01*
X129953475Y-78266632D01*
X130115990Y-78023411D01*
X130227932Y-77753158D01*
X130285000Y-77466260D01*
X130285000Y-77173740D01*
X130227932Y-76886842D01*
X130115990Y-76616589D01*
X129953475Y-76373368D01*
X129746632Y-76166525D01*
X129572240Y-76050000D01*
X129746632Y-75933475D01*
X129953475Y-75726632D01*
X130115990Y-75483411D01*
X130227932Y-75213158D01*
X130285000Y-74926260D01*
X130285000Y-74633740D01*
X130227932Y-74346842D01*
X130115990Y-74076589D01*
X129953475Y-73833368D01*
X129746632Y-73626525D01*
X129572240Y-73510000D01*
X129746632Y-73393475D01*
X129953475Y-73186632D01*
X130115990Y-72943411D01*
X130227932Y-72673158D01*
X130285000Y-72386260D01*
X130285000Y-72093740D01*
X130227932Y-71806842D01*
X130115990Y-71536589D01*
X129953475Y-71293368D01*
X129821620Y-71161513D01*
X129894180Y-71139502D01*
X130004494Y-71080537D01*
X130101185Y-71001185D01*
X130180537Y-70904494D01*
X130239502Y-70794180D01*
X130275812Y-70674482D01*
X130288072Y-70550000D01*
X130288072Y-68850000D01*
X130275812Y-68725518D01*
X130239502Y-68605820D01*
X130180537Y-68495506D01*
X130101185Y-68398815D01*
X130004494Y-68319463D01*
X129894180Y-68260498D01*
X129774482Y-68224188D01*
X129650000Y-68211928D01*
X127950000Y-68211928D01*
X127825518Y-68224188D01*
X127705820Y-68260498D01*
X127595506Y-68319463D01*
X127498815Y-68398815D01*
X127419463Y-68495506D01*
X127360498Y-68605820D01*
X127324188Y-68725518D01*
X127311928Y-68850000D01*
X105660000Y-68850000D01*
X105660000Y-59876890D01*
X108750048Y-59876890D01*
X108750048Y-60123110D01*
X108798083Y-60364598D01*
X108892307Y-60592074D01*
X109029099Y-60796798D01*
X109203202Y-60970901D01*
X109407926Y-61107693D01*
X109635402Y-61201917D01*
X109876890Y-61249952D01*
X110123110Y-61249952D01*
X110364598Y-61201917D01*
X110592074Y-61107693D01*
X110796798Y-60970901D01*
X110970901Y-60796798D01*
X111107693Y-60592074D01*
X111170684Y-60440000D01*
X175571928Y-60440000D01*
X175571928Y-62140000D01*
X175584188Y-62264482D01*
X175620498Y-62384180D01*
X175679463Y-62494494D01*
X175758815Y-62591185D01*
X175855506Y-62670537D01*
X175965820Y-62729502D01*
X176038380Y-62751513D01*
X175906525Y-62883368D01*
X175744010Y-63126589D01*
X175632068Y-63396842D01*
X175575000Y-63683740D01*
X175575000Y-63976260D01*
X175632068Y-64263158D01*
X175744010Y-64533411D01*
X175906525Y-64776632D01*
X176113368Y-64983475D01*
X176287760Y-65100000D01*
X176113368Y-65216525D01*
X175906525Y-65423368D01*
X175744010Y-65666589D01*
X175632068Y-65936842D01*
X175575000Y-66223740D01*
X175575000Y-66516260D01*
X175632068Y-66803158D01*
X175744010Y-67073411D01*
X175906525Y-67316632D01*
X176113368Y-67523475D01*
X176295534Y-67645195D01*
X176178645Y-67714822D01*
X175962412Y-67909731D01*
X175788359Y-68143080D01*
X175663175Y-68405901D01*
X175618524Y-68553110D01*
X175739845Y-68783000D01*
X176933000Y-68783000D01*
X176933000Y-68763000D01*
X177187000Y-68763000D01*
X177187000Y-68783000D01*
X178380155Y-68783000D01*
X178501476Y-68553110D01*
X178456825Y-68405901D01*
X178331641Y-68143080D01*
X178157588Y-67909731D01*
X177941355Y-67714822D01*
X177824466Y-67645195D01*
X178006632Y-67523475D01*
X178213475Y-67316632D01*
X178375990Y-67073411D01*
X178487932Y-66803158D01*
X178545000Y-66516260D01*
X178545000Y-66223740D01*
X178487932Y-65936842D01*
X178375990Y-65666589D01*
X178213475Y-65423368D01*
X178006632Y-65216525D01*
X177832240Y-65100000D01*
X178006632Y-64983475D01*
X178213475Y-64776632D01*
X178375990Y-64533411D01*
X178487932Y-64263158D01*
X178545000Y-63976260D01*
X178545000Y-63683740D01*
X178487932Y-63396842D01*
X178375990Y-63126589D01*
X178213475Y-62883368D01*
X178081620Y-62751513D01*
X178154180Y-62729502D01*
X178264494Y-62670537D01*
X178361185Y-62591185D01*
X178440537Y-62494494D01*
X178499502Y-62384180D01*
X178535812Y-62264482D01*
X178548072Y-62140000D01*
X178548072Y-60440000D01*
X178535812Y-60315518D01*
X178499502Y-60195820D01*
X178440537Y-60085506D01*
X178361185Y-59988815D01*
X178264494Y-59909463D01*
X178203556Y-59876890D01*
X193750048Y-59876890D01*
X193750048Y-60123110D01*
X193798083Y-60364598D01*
X193892307Y-60592074D01*
X194029099Y-60796798D01*
X194203202Y-60970901D01*
X194407926Y-61107693D01*
X194635402Y-61201917D01*
X194876890Y-61249952D01*
X195123110Y-61249952D01*
X195364598Y-61201917D01*
X195592074Y-61107693D01*
X195796798Y-60970901D01*
X195970901Y-60796798D01*
X196107693Y-60592074D01*
X196201917Y-60364598D01*
X196249952Y-60123110D01*
X196249952Y-59876890D01*
X196201917Y-59635402D01*
X196107693Y-59407926D01*
X195970901Y-59203202D01*
X195796798Y-59029099D01*
X195592074Y-58892307D01*
X195364598Y-58798083D01*
X195123110Y-58750048D01*
X194876890Y-58750048D01*
X194635402Y-58798083D01*
X194407926Y-58892307D01*
X194203202Y-59029099D01*
X194029099Y-59203202D01*
X193892307Y-59407926D01*
X193798083Y-59635402D01*
X193750048Y-59876890D01*
X178203556Y-59876890D01*
X178154180Y-59850498D01*
X178034482Y-59814188D01*
X177910000Y-59801928D01*
X176210000Y-59801928D01*
X176085518Y-59814188D01*
X175965820Y-59850498D01*
X175855506Y-59909463D01*
X175758815Y-59988815D01*
X175679463Y-60085506D01*
X175620498Y-60195820D01*
X175584188Y-60315518D01*
X175571928Y-60440000D01*
X111170684Y-60440000D01*
X111201917Y-60364598D01*
X111249952Y-60123110D01*
X111249952Y-59876890D01*
X111201917Y-59635402D01*
X111107693Y-59407926D01*
X110970901Y-59203202D01*
X110796798Y-59029099D01*
X110592074Y-58892307D01*
X110364598Y-58798083D01*
X110123110Y-58750048D01*
X109876890Y-58750048D01*
X109635402Y-58798083D01*
X109407926Y-58892307D01*
X109203202Y-59029099D01*
X109029099Y-59203202D01*
X108892307Y-59407926D01*
X108798083Y-59635402D01*
X108750048Y-59876890D01*
X105660000Y-59876890D01*
X105660000Y-50660000D01*
X199340001Y-50660000D01*
X199340001Y-78973000D01*
G04 #@! TA.AperFunction,Conductor*
D19*
G36*
X199340001Y-78973000D02*
G01*
X190800000Y-78973000D01*
X190775224Y-78975440D01*
X190751399Y-78982667D01*
X190729443Y-78994403D01*
X190710197Y-79010197D01*
X190694403Y-79029443D01*
X190682667Y-79051399D01*
X190675440Y-79075224D01*
X190673000Y-79100000D01*
X190673000Y-99600000D01*
X190675440Y-99624776D01*
X190682667Y-99648601D01*
X190694403Y-99670557D01*
X190710197Y-99689803D01*
X190729443Y-99705597D01*
X190751399Y-99717333D01*
X190775224Y-99724560D01*
X190800000Y-99727000D01*
X199340001Y-99727000D01*
X199340000Y-149340000D01*
X105660000Y-149340000D01*
X105660000Y-144876890D01*
X108750048Y-144876890D01*
X108750048Y-145123110D01*
X108798083Y-145364598D01*
X108892307Y-145592074D01*
X109029099Y-145796798D01*
X109203202Y-145970901D01*
X109407926Y-146107693D01*
X109635402Y-146201917D01*
X109876890Y-146249952D01*
X110123110Y-146249952D01*
X110364598Y-146201917D01*
X110592074Y-146107693D01*
X110796798Y-145970901D01*
X110970901Y-145796798D01*
X111107693Y-145592074D01*
X111201917Y-145364598D01*
X111249952Y-145123110D01*
X111249952Y-144876890D01*
X193750048Y-144876890D01*
X193750048Y-145123110D01*
X193798083Y-145364598D01*
X193892307Y-145592074D01*
X194029099Y-145796798D01*
X194203202Y-145970901D01*
X194407926Y-146107693D01*
X194635402Y-146201917D01*
X194876890Y-146249952D01*
X195123110Y-146249952D01*
X195364598Y-146201917D01*
X195592074Y-146107693D01*
X195796798Y-145970901D01*
X195970901Y-145796798D01*
X196107693Y-145592074D01*
X196201917Y-145364598D01*
X196249952Y-145123110D01*
X196249952Y-144876890D01*
X196201917Y-144635402D01*
X196107693Y-144407926D01*
X195970901Y-144203202D01*
X195796798Y-144029099D01*
X195592074Y-143892307D01*
X195364598Y-143798083D01*
X195123110Y-143750048D01*
X194876890Y-143750048D01*
X194635402Y-143798083D01*
X194407926Y-143892307D01*
X194203202Y-144029099D01*
X194029099Y-144203202D01*
X193892307Y-144407926D01*
X193798083Y-144635402D01*
X193750048Y-144876890D01*
X111249952Y-144876890D01*
X111201917Y-144635402D01*
X111107693Y-144407926D01*
X110970901Y-144203202D01*
X110796798Y-144029099D01*
X110592074Y-143892307D01*
X110364598Y-143798083D01*
X110123110Y-143750048D01*
X109876890Y-143750048D01*
X109635402Y-143798083D01*
X109407926Y-143892307D01*
X109203202Y-144029099D01*
X109029099Y-144203202D01*
X108892307Y-144407926D01*
X108798083Y-144635402D01*
X108750048Y-144876890D01*
X105660000Y-144876890D01*
X105660000Y-127050461D01*
X122967800Y-127050461D01*
X122967800Y-127254339D01*
X123007574Y-127454298D01*
X123085595Y-127642656D01*
X123167801Y-127765686D01*
X123167800Y-129092581D01*
X123163760Y-129133600D01*
X123167800Y-129174618D01*
X123179882Y-129297288D01*
X123227628Y-129454686D01*
X123305164Y-129599745D01*
X123409509Y-129726891D01*
X123441379Y-129753046D01*
X127374931Y-133686600D01*
X127202861Y-133686600D01*
X127002902Y-133726374D01*
X126814544Y-133804395D01*
X126645026Y-133917663D01*
X126500863Y-134061826D01*
X126387595Y-134231344D01*
X126309574Y-134419702D01*
X126269800Y-134619661D01*
X126269800Y-134823539D01*
X126309574Y-135023498D01*
X126387595Y-135211856D01*
X126500863Y-135381374D01*
X126645026Y-135525537D01*
X126814544Y-135638805D01*
X127002902Y-135716826D01*
X127148025Y-135745693D01*
X128152001Y-136749669D01*
X128152001Y-137304396D01*
X128035042Y-137382546D01*
X128027537Y-137368506D01*
X127948185Y-137271815D01*
X127851494Y-137192463D01*
X127741180Y-137133498D01*
X127621482Y-137097188D01*
X127497000Y-137084928D01*
X125397000Y-137084928D01*
X125272518Y-137097188D01*
X125152820Y-137133498D01*
X125042506Y-137192463D01*
X124945815Y-137271815D01*
X124866463Y-137368506D01*
X124807498Y-137478820D01*
X124771188Y-137598518D01*
X124758928Y-137723000D01*
X124758928Y-139823000D01*
X124771188Y-139947482D01*
X124807498Y-140067180D01*
X124866463Y-140177494D01*
X124945815Y-140274185D01*
X125042506Y-140353537D01*
X125152820Y-140412502D01*
X125272518Y-140448812D01*
X125397000Y-140461072D01*
X127497000Y-140461072D01*
X127621482Y-140448812D01*
X127741180Y-140412502D01*
X127851494Y-140353537D01*
X127948185Y-140274185D01*
X128027537Y-140177494D01*
X128035042Y-140163454D01*
X128188853Y-140266228D01*
X128495504Y-140393246D01*
X128821042Y-140458000D01*
X129152958Y-140458000D01*
X129478496Y-140393246D01*
X129785147Y-140266228D01*
X130061125Y-140081825D01*
X130257000Y-139885950D01*
X130452875Y-140081825D01*
X130728853Y-140266228D01*
X131035504Y-140393246D01*
X131361042Y-140458000D01*
X131692958Y-140458000D01*
X132018496Y-140393246D01*
X132325147Y-140266228D01*
X132601125Y-140081825D01*
X132797000Y-139885950D01*
X132992875Y-140081825D01*
X133268853Y-140266228D01*
X133575504Y-140393246D01*
X133901042Y-140458000D01*
X134232958Y-140458000D01*
X134558496Y-140393246D01*
X134865147Y-140266228D01*
X135141125Y-140081825D01*
X135337000Y-139885950D01*
X135532875Y-140081825D01*
X135808853Y-140266228D01*
X136115504Y-140393246D01*
X136441042Y-140458000D01*
X136772958Y-140458000D01*
X137098496Y-140393246D01*
X137405147Y-140266228D01*
X137681125Y-140081825D01*
X137877000Y-139885950D01*
X138072875Y-140081825D01*
X138348853Y-140266228D01*
X138655504Y-140393246D01*
X138981042Y-140458000D01*
X139312958Y-140458000D01*
X139638496Y-140393246D01*
X139945147Y-140266228D01*
X140221125Y-140081825D01*
X140417000Y-139885950D01*
X140612875Y-140081825D01*
X140888853Y-140266228D01*
X141195504Y-140393246D01*
X141521042Y-140458000D01*
X141852958Y-140458000D01*
X142178496Y-140393246D01*
X142485147Y-140266228D01*
X142761125Y-140081825D01*
X142957000Y-139885950D01*
X143152875Y-140081825D01*
X143428853Y-140266228D01*
X143735504Y-140393246D01*
X144061042Y-140458000D01*
X144392958Y-140458000D01*
X144718496Y-140393246D01*
X145025147Y-140266228D01*
X145301125Y-140081825D01*
X145497000Y-139885950D01*
X145692875Y-140081825D01*
X145968853Y-140266228D01*
X146275504Y-140393246D01*
X146601042Y-140458000D01*
X146932958Y-140458000D01*
X147258496Y-140393246D01*
X147565147Y-140266228D01*
X147841125Y-140081825D01*
X147978884Y-139944066D01*
X148315539Y-139944066D01*
X148417339Y-140213579D01*
X148715477Y-140359463D01*
X149036346Y-140444380D01*
X149367617Y-140465066D01*
X149696557Y-140420728D01*
X150010527Y-140313069D01*
X150196661Y-140213579D01*
X150298461Y-139944066D01*
X149307000Y-138952605D01*
X148315539Y-139944066D01*
X147978884Y-139944066D01*
X148075825Y-139847125D01*
X148132042Y-139762991D01*
X148135934Y-139764461D01*
X149127395Y-138773000D01*
X149486605Y-138773000D01*
X150478066Y-139764461D01*
X150747579Y-139662661D01*
X150893463Y-139364523D01*
X150978380Y-139043654D01*
X150999066Y-138712383D01*
X150954728Y-138383443D01*
X150847069Y-138069473D01*
X150747579Y-137883339D01*
X150478066Y-137781539D01*
X149486605Y-138773000D01*
X149127395Y-138773000D01*
X148135934Y-137781539D01*
X148132042Y-137783009D01*
X148075825Y-137698875D01*
X147978884Y-137601934D01*
X148315539Y-137601934D01*
X149307000Y-138593395D01*
X150204395Y-137696000D01*
X153678928Y-137696000D01*
X153678928Y-139796000D01*
X153691188Y-139920482D01*
X153727498Y-140040180D01*
X153786463Y-140150494D01*
X153865815Y-140247185D01*
X153962506Y-140326537D01*
X154072820Y-140385502D01*
X154192518Y-140421812D01*
X154317000Y-140434072D01*
X156417000Y-140434072D01*
X156541482Y-140421812D01*
X156661180Y-140385502D01*
X156771494Y-140326537D01*
X156868185Y-140247185D01*
X156947537Y-140150494D01*
X156955042Y-140136454D01*
X157108853Y-140239228D01*
X157415504Y-140366246D01*
X157741042Y-140431000D01*
X158072958Y-140431000D01*
X158398496Y-140366246D01*
X158705147Y-140239228D01*
X158981125Y-140054825D01*
X159177000Y-139858950D01*
X159372875Y-140054825D01*
X159648853Y-140239228D01*
X159955504Y-140366246D01*
X160281042Y-140431000D01*
X160612958Y-140431000D01*
X160938496Y-140366246D01*
X161245147Y-140239228D01*
X161521125Y-140054825D01*
X161717000Y-139858950D01*
X161912875Y-140054825D01*
X162188853Y-140239228D01*
X162495504Y-140366246D01*
X162821042Y-140431000D01*
X163152958Y-140431000D01*
X163478496Y-140366246D01*
X163785147Y-140239228D01*
X164061125Y-140054825D01*
X164257000Y-139858950D01*
X164452875Y-140054825D01*
X164728853Y-140239228D01*
X165035504Y-140366246D01*
X165361042Y-140431000D01*
X165692958Y-140431000D01*
X166018496Y-140366246D01*
X166325147Y-140239228D01*
X166601125Y-140054825D01*
X166797000Y-139858950D01*
X166992875Y-140054825D01*
X167268853Y-140239228D01*
X167575504Y-140366246D01*
X167901042Y-140431000D01*
X168232958Y-140431000D01*
X168558496Y-140366246D01*
X168865147Y-140239228D01*
X169141125Y-140054825D01*
X169337000Y-139858950D01*
X169532875Y-140054825D01*
X169808853Y-140239228D01*
X170115504Y-140366246D01*
X170441042Y-140431000D01*
X170772958Y-140431000D01*
X171098496Y-140366246D01*
X171405147Y-140239228D01*
X171681125Y-140054825D01*
X171877000Y-139858950D01*
X172072875Y-140054825D01*
X172348853Y-140239228D01*
X172655504Y-140366246D01*
X172981042Y-140431000D01*
X173312958Y-140431000D01*
X173638496Y-140366246D01*
X173945147Y-140239228D01*
X174221125Y-140054825D01*
X174417000Y-139858950D01*
X174612875Y-140054825D01*
X174888853Y-140239228D01*
X175195504Y-140366246D01*
X175521042Y-140431000D01*
X175852958Y-140431000D01*
X176178496Y-140366246D01*
X176485147Y-140239228D01*
X176761125Y-140054825D01*
X176898884Y-139917066D01*
X177235539Y-139917066D01*
X177337339Y-140186579D01*
X177635477Y-140332463D01*
X177956346Y-140417380D01*
X178287617Y-140438066D01*
X178616557Y-140393728D01*
X178930527Y-140286069D01*
X179116661Y-140186579D01*
X179218461Y-139917066D01*
X178227000Y-138925605D01*
X177235539Y-139917066D01*
X176898884Y-139917066D01*
X176995825Y-139820125D01*
X177052042Y-139735991D01*
X177055934Y-139737461D01*
X178047395Y-138746000D01*
X178406605Y-138746000D01*
X179398066Y-139737461D01*
X179667579Y-139635661D01*
X179813463Y-139337523D01*
X179898380Y-139016654D01*
X179919066Y-138685383D01*
X179874728Y-138356443D01*
X179767069Y-138042473D01*
X179667579Y-137856339D01*
X179398066Y-137754539D01*
X178406605Y-138746000D01*
X178047395Y-138746000D01*
X177055934Y-137754539D01*
X177052042Y-137756009D01*
X176995825Y-137671875D01*
X176898884Y-137574934D01*
X177235539Y-137574934D01*
X178227000Y-138566395D01*
X179218461Y-137574934D01*
X179116661Y-137305421D01*
X178818523Y-137159537D01*
X178497654Y-137074620D01*
X178166383Y-137053934D01*
X177837443Y-137098272D01*
X177523473Y-137205931D01*
X177337339Y-137305421D01*
X177235539Y-137574934D01*
X176898884Y-137574934D01*
X176761125Y-137437175D01*
X176485147Y-137252772D01*
X176178496Y-137125754D01*
X175852958Y-137061000D01*
X175521042Y-137061000D01*
X175195504Y-137125754D01*
X174888853Y-137252772D01*
X174612875Y-137437175D01*
X174417000Y-137633050D01*
X174221125Y-137437175D01*
X173945147Y-137252772D01*
X173638496Y-137125754D01*
X173312958Y-137061000D01*
X172981042Y-137061000D01*
X172655504Y-137125754D01*
X172348853Y-137252772D01*
X172072875Y-137437175D01*
X171877000Y-137633050D01*
X171681125Y-137437175D01*
X171405147Y-137252772D01*
X171098496Y-137125754D01*
X170772958Y-137061000D01*
X170441042Y-137061000D01*
X170115504Y-137125754D01*
X169808853Y-137252772D01*
X169532875Y-137437175D01*
X169337000Y-137633050D01*
X169141125Y-137437175D01*
X168865147Y-137252772D01*
X168558496Y-137125754D01*
X168232958Y-137061000D01*
X167901042Y-137061000D01*
X167575504Y-137125754D01*
X167268853Y-137252772D01*
X166992875Y-137437175D01*
X166797000Y-137633050D01*
X166601125Y-137437175D01*
X166325147Y-137252772D01*
X166018496Y-137125754D01*
X165692958Y-137061000D01*
X165361042Y-137061000D01*
X165078975Y-137117107D01*
X162817191Y-134855324D01*
X162894826Y-134667898D01*
X162934600Y-134467939D01*
X162934600Y-134264061D01*
X162924496Y-134213261D01*
X170770600Y-134213261D01*
X170770600Y-134417139D01*
X170810374Y-134617098D01*
X170888395Y-134805456D01*
X171001663Y-134974974D01*
X171145826Y-135119137D01*
X171315344Y-135232405D01*
X171503702Y-135310426D01*
X171703661Y-135350200D01*
X171907539Y-135350200D01*
X172107498Y-135310426D01*
X172295856Y-135232405D01*
X172465374Y-135119137D01*
X172609537Y-134974974D01*
X172722805Y-134805456D01*
X172800826Y-134617098D01*
X172829692Y-134471976D01*
X172976632Y-134325036D01*
X173008491Y-134298891D01*
X173037076Y-134264061D01*
X173112836Y-134171746D01*
X173190372Y-134026687D01*
X173223444Y-133917663D01*
X173238118Y-133869289D01*
X173250200Y-133746619D01*
X173250200Y-133746618D01*
X173254240Y-133705600D01*
X173250200Y-133664582D01*
X173250200Y-127562485D01*
X173332405Y-127439456D01*
X173410426Y-127251098D01*
X173450200Y-127051139D01*
X173450200Y-126847261D01*
X173410426Y-126647302D01*
X173332405Y-126458944D01*
X173219137Y-126289426D01*
X173074974Y-126145263D01*
X172905456Y-126031995D01*
X172717098Y-125953974D01*
X172517139Y-125914200D01*
X172313261Y-125914200D01*
X172113302Y-125953974D01*
X171924944Y-126031995D01*
X171755426Y-126145263D01*
X171611263Y-126289426D01*
X171497995Y-126458944D01*
X171419974Y-126647302D01*
X171380200Y-126847261D01*
X171380200Y-127051139D01*
X171419974Y-127251098D01*
X171497995Y-127439456D01*
X171580201Y-127562486D01*
X171580200Y-133304758D01*
X171503702Y-133319974D01*
X171315344Y-133397995D01*
X171145826Y-133511263D01*
X171001663Y-133655426D01*
X170888395Y-133824944D01*
X170810374Y-134013302D01*
X170770600Y-134213261D01*
X162924496Y-134213261D01*
X162894826Y-134064102D01*
X162816805Y-133875744D01*
X162703537Y-133706226D01*
X162559374Y-133562063D01*
X162389856Y-133448795D01*
X162201498Y-133370774D01*
X162001539Y-133331000D01*
X161797661Y-133331000D01*
X161597702Y-133370774D01*
X161409344Y-133448795D01*
X161239826Y-133562063D01*
X161095663Y-133706226D01*
X160986825Y-133869114D01*
X160984574Y-133866863D01*
X160815056Y-133753595D01*
X160626698Y-133675574D01*
X160426739Y-133635800D01*
X160222861Y-133635800D01*
X160022902Y-133675574D01*
X159834544Y-133753595D01*
X159665026Y-133866863D01*
X159536737Y-133995152D01*
X159534200Y-133969393D01*
X159534200Y-127511683D01*
X159616405Y-127388654D01*
X159694426Y-127200296D01*
X159734200Y-127000337D01*
X159734200Y-126796459D01*
X159694426Y-126596500D01*
X159616405Y-126408142D01*
X159503137Y-126238624D01*
X159358974Y-126094461D01*
X159189456Y-125981193D01*
X159001098Y-125903172D01*
X158801139Y-125863398D01*
X158597261Y-125863398D01*
X158397302Y-125903172D01*
X158208944Y-125981193D01*
X158039426Y-126094461D01*
X157895263Y-126238624D01*
X157781995Y-126408142D01*
X157703974Y-126596500D01*
X157664200Y-126796459D01*
X157664200Y-127000337D01*
X157703974Y-127200296D01*
X157781995Y-127388654D01*
X157864201Y-127511684D01*
X157864200Y-133533572D01*
X157700944Y-133601195D01*
X157531426Y-133714463D01*
X157387263Y-133858626D01*
X157339468Y-133930157D01*
X157275764Y-133866453D01*
X157106246Y-133753185D01*
X156917888Y-133675164D01*
X156717929Y-133635390D01*
X156514051Y-133635390D01*
X156314092Y-133675164D01*
X156125734Y-133753185D01*
X155956216Y-133866453D01*
X155812053Y-134010616D01*
X155698785Y-134180134D01*
X155620764Y-134368492D01*
X155580990Y-134568451D01*
X155580990Y-134772329D01*
X155620764Y-134972288D01*
X155698785Y-135160646D01*
X155812053Y-135330164D01*
X155956216Y-135474327D01*
X156125734Y-135587595D01*
X156314092Y-135665616D01*
X156459215Y-135694482D01*
X157072001Y-136307269D01*
X157072001Y-137277396D01*
X156955042Y-137355546D01*
X156947537Y-137341506D01*
X156868185Y-137244815D01*
X156771494Y-137165463D01*
X156661180Y-137106498D01*
X156541482Y-137070188D01*
X156417000Y-137057928D01*
X154317000Y-137057928D01*
X154192518Y-137070188D01*
X154072820Y-137106498D01*
X153962506Y-137165463D01*
X153865815Y-137244815D01*
X153786463Y-137341506D01*
X153727498Y-137451820D01*
X153691188Y-137571518D01*
X153678928Y-137696000D01*
X150204395Y-137696000D01*
X150298461Y-137601934D01*
X150196661Y-137332421D01*
X149898523Y-137186537D01*
X149577654Y-137101620D01*
X149246383Y-137080934D01*
X148917443Y-137125272D01*
X148603473Y-137232931D01*
X148417339Y-137332421D01*
X148315539Y-137601934D01*
X147978884Y-137601934D01*
X147841125Y-137464175D01*
X147565147Y-137279772D01*
X147258496Y-137152754D01*
X146932958Y-137088000D01*
X146601042Y-137088000D01*
X146275504Y-137152754D01*
X145968853Y-137279772D01*
X145692875Y-137464175D01*
X145497000Y-137660050D01*
X145301125Y-137464175D01*
X145025147Y-137279772D01*
X144718496Y-137152754D01*
X144392958Y-137088000D01*
X144061042Y-137088000D01*
X143735504Y-137152754D01*
X143428853Y-137279772D01*
X143152875Y-137464175D01*
X142957000Y-137660050D01*
X142761125Y-137464175D01*
X142485147Y-137279772D01*
X142178496Y-137152754D01*
X141852958Y-137088000D01*
X141521042Y-137088000D01*
X141195504Y-137152754D01*
X140888853Y-137279772D01*
X140612875Y-137464175D01*
X140417000Y-137660050D01*
X140221125Y-137464175D01*
X139945147Y-137279772D01*
X139638496Y-137152754D01*
X139312958Y-137088000D01*
X138981042Y-137088000D01*
X138655504Y-137152754D01*
X138348853Y-137279772D01*
X138072875Y-137464175D01*
X137877000Y-137660050D01*
X137681125Y-137464175D01*
X137405147Y-137279772D01*
X137098496Y-137152754D01*
X136772958Y-137088000D01*
X136441042Y-137088000D01*
X136158975Y-137144107D01*
X133313743Y-134298876D01*
X133329226Y-134261498D01*
X133369000Y-134061539D01*
X133369000Y-133857661D01*
X133329226Y-133657702D01*
X133251205Y-133469344D01*
X133137937Y-133299826D01*
X132993774Y-133155663D01*
X132824256Y-133042395D01*
X132635898Y-132964374D01*
X132490775Y-132935508D01*
X129968600Y-130413333D01*
X129968600Y-127816485D01*
X130050805Y-127693456D01*
X130128826Y-127505098D01*
X130168600Y-127305139D01*
X130168600Y-127101261D01*
X130128826Y-126901302D01*
X130106442Y-126847261D01*
X138258600Y-126847261D01*
X138258600Y-127051139D01*
X138298374Y-127251098D01*
X138376395Y-127439456D01*
X138458601Y-127562486D01*
X138458600Y-131480181D01*
X138454560Y-131521200D01*
X138458600Y-131562218D01*
X138470682Y-131684888D01*
X138518428Y-131842286D01*
X138595964Y-131987345D01*
X138700309Y-132114491D01*
X138732179Y-132140646D01*
X141419108Y-134827575D01*
X141447974Y-134972698D01*
X141525995Y-135161056D01*
X141639263Y-135330574D01*
X141783426Y-135474737D01*
X141952944Y-135588005D01*
X142141302Y-135666026D01*
X142341261Y-135705800D01*
X142545139Y-135705800D01*
X142745098Y-135666026D01*
X142933456Y-135588005D01*
X143102974Y-135474737D01*
X143247137Y-135330574D01*
X143360405Y-135161056D01*
X143438426Y-134972698D01*
X143478200Y-134772739D01*
X143478200Y-134568861D01*
X143438426Y-134368902D01*
X143360405Y-134180544D01*
X143247137Y-134011026D01*
X143102974Y-133866863D01*
X142933456Y-133753595D01*
X142745098Y-133675574D01*
X142599975Y-133646708D01*
X140128600Y-131175333D01*
X140128600Y-127562485D01*
X140210805Y-127439456D01*
X140288826Y-127251098D01*
X140328600Y-127051139D01*
X140328600Y-127050461D01*
X143999000Y-127050461D01*
X143999000Y-127254339D01*
X144038774Y-127454298D01*
X144116795Y-127642656D01*
X144230063Y-127812174D01*
X144374226Y-127956337D01*
X144543744Y-128069605D01*
X144732102Y-128147626D01*
X144877225Y-128176493D01*
X145519801Y-128819069D01*
X145519800Y-133701915D01*
X145437595Y-133824944D01*
X145359574Y-134013302D01*
X145319800Y-134213261D01*
X145319800Y-134417139D01*
X145359574Y-134617098D01*
X145437595Y-134805456D01*
X145550863Y-134974974D01*
X145695026Y-135119137D01*
X145864544Y-135232405D01*
X146052902Y-135310426D01*
X146252861Y-135350200D01*
X146456739Y-135350200D01*
X146656698Y-135310426D01*
X146845056Y-135232405D01*
X147014574Y-135119137D01*
X147158737Y-134974974D01*
X147272005Y-134805456D01*
X147350026Y-134617098D01*
X147389800Y-134417139D01*
X147389800Y-134213261D01*
X147350026Y-134013302D01*
X147272005Y-133824944D01*
X147189800Y-133701915D01*
X147189800Y-128514207D01*
X147193839Y-128473199D01*
X147189800Y-128432191D01*
X147189800Y-128432181D01*
X147177718Y-128309511D01*
X147129972Y-128152113D01*
X147052436Y-128007054D01*
X146948091Y-127879909D01*
X146916226Y-127853758D01*
X146058093Y-126995625D01*
X146029226Y-126850502D01*
X145951205Y-126662144D01*
X145837937Y-126492626D01*
X145693774Y-126348463D01*
X145524256Y-126235195D01*
X145335898Y-126157174D01*
X145135939Y-126117400D01*
X144932061Y-126117400D01*
X144732102Y-126157174D01*
X144543744Y-126235195D01*
X144374226Y-126348463D01*
X144230063Y-126492626D01*
X144116795Y-126662144D01*
X144038774Y-126850502D01*
X143999000Y-127050461D01*
X140328600Y-127050461D01*
X140328600Y-126847261D01*
X140288826Y-126647302D01*
X140210805Y-126458944D01*
X140097537Y-126289426D01*
X139953374Y-126145263D01*
X139783856Y-126031995D01*
X139595498Y-125953974D01*
X139395539Y-125914200D01*
X139191661Y-125914200D01*
X138991702Y-125953974D01*
X138803344Y-126031995D01*
X138633826Y-126145263D01*
X138489663Y-126289426D01*
X138376395Y-126458944D01*
X138298374Y-126647302D01*
X138258600Y-126847261D01*
X130106442Y-126847261D01*
X130050805Y-126712944D01*
X129937537Y-126543426D01*
X129793374Y-126399263D01*
X129623856Y-126285995D01*
X129435498Y-126207974D01*
X129235539Y-126168200D01*
X129031661Y-126168200D01*
X128831702Y-126207974D01*
X128643344Y-126285995D01*
X128473826Y-126399263D01*
X128329663Y-126543426D01*
X128216395Y-126712944D01*
X128138374Y-126901302D01*
X128098600Y-127101261D01*
X128098600Y-127305139D01*
X128138374Y-127505098D01*
X128216395Y-127693456D01*
X128298601Y-127816486D01*
X128298600Y-130718181D01*
X128294560Y-130759200D01*
X128298600Y-130800218D01*
X128310682Y-130922888D01*
X128358428Y-131080286D01*
X128435964Y-131225345D01*
X128540309Y-131352491D01*
X128572179Y-131378646D01*
X130885297Y-133691765D01*
X130711302Y-133726374D01*
X130522944Y-133804395D01*
X130353426Y-133917663D01*
X130209263Y-134061826D01*
X130170262Y-134120195D01*
X129954493Y-133904425D01*
X129925626Y-133759302D01*
X129847605Y-133570944D01*
X129734337Y-133401426D01*
X129590174Y-133257263D01*
X129420656Y-133143995D01*
X129232298Y-133065974D01*
X129087177Y-133037108D01*
X124837800Y-128787733D01*
X124837800Y-127765685D01*
X124920005Y-127642656D01*
X124998026Y-127454298D01*
X125037800Y-127254339D01*
X125037800Y-127050461D01*
X124998026Y-126850502D01*
X124920005Y-126662144D01*
X124806737Y-126492626D01*
X124662574Y-126348463D01*
X124493056Y-126235195D01*
X124304698Y-126157174D01*
X124104739Y-126117400D01*
X123900861Y-126117400D01*
X123700902Y-126157174D01*
X123512544Y-126235195D01*
X123343026Y-126348463D01*
X123198863Y-126492626D01*
X123085595Y-126662144D01*
X123007574Y-126850502D01*
X122967800Y-127050461D01*
X105660000Y-127050461D01*
X105660000Y-112115261D01*
X126981000Y-112115261D01*
X126981000Y-112319139D01*
X127020774Y-112519098D01*
X127098795Y-112707456D01*
X127212063Y-112876974D01*
X127356226Y-113021137D01*
X127525744Y-113134405D01*
X127714102Y-113212426D01*
X127860566Y-113241559D01*
X127949853Y-113314835D01*
X128076997Y-113382795D01*
X128094912Y-113392371D01*
X128252310Y-113440117D01*
X128415998Y-113456239D01*
X128457017Y-113452199D01*
X133619581Y-113452199D01*
X133550395Y-113555744D01*
X133472374Y-113744102D01*
X133432600Y-113944061D01*
X133432600Y-114147939D01*
X133472374Y-114347898D01*
X133550395Y-114536256D01*
X133663663Y-114705774D01*
X133807826Y-114849937D01*
X133977344Y-114963205D01*
X134165702Y-115041226D01*
X134365661Y-115081000D01*
X134569539Y-115081000D01*
X134769498Y-115041226D01*
X134957856Y-114963205D01*
X135080885Y-114881000D01*
X139506582Y-114881000D01*
X139547600Y-114885040D01*
X139588618Y-114881000D01*
X139588619Y-114881000D01*
X139711289Y-114868918D01*
X139868687Y-114821172D01*
X140013746Y-114743636D01*
X140140891Y-114639291D01*
X140167046Y-114607421D01*
X148123069Y-106651400D01*
X149245749Y-106651400D01*
X149169574Y-106835302D01*
X149129800Y-107035261D01*
X149129800Y-107239139D01*
X149169574Y-107439098D01*
X149247595Y-107627456D01*
X149360863Y-107796974D01*
X149505026Y-107941137D01*
X149674544Y-108054405D01*
X149862902Y-108132426D01*
X150008025Y-108161293D01*
X151444530Y-109597799D01*
X149580893Y-109597799D01*
X149558005Y-109542544D01*
X149444737Y-109373026D01*
X149300574Y-109228863D01*
X149131056Y-109115595D01*
X148942698Y-109037574D01*
X148742739Y-108997800D01*
X148538861Y-108997800D01*
X148338902Y-109037574D01*
X148150544Y-109115595D01*
X147981026Y-109228863D01*
X147836863Y-109373026D01*
X147723595Y-109542544D01*
X147645574Y-109730902D01*
X147605800Y-109930861D01*
X147605800Y-110134739D01*
X147631476Y-110263821D01*
X147556112Y-110314177D01*
X147411949Y-110458340D01*
X147298681Y-110627858D01*
X147220660Y-110816216D01*
X147180886Y-111016175D01*
X147180886Y-111220053D01*
X147220660Y-111420012D01*
X147289770Y-111586857D01*
X147217774Y-111514861D01*
X147048256Y-111401593D01*
X146859898Y-111323572D01*
X146659939Y-111283798D01*
X146456061Y-111283798D01*
X146256102Y-111323572D01*
X146067744Y-111401593D01*
X145898226Y-111514861D01*
X145754063Y-111659024D01*
X145640795Y-111828542D01*
X145562774Y-112016900D01*
X145523000Y-112216859D01*
X145523000Y-112420737D01*
X145562774Y-112620696D01*
X145640795Y-112809054D01*
X145754063Y-112978572D01*
X145898226Y-113122735D01*
X146067744Y-113236003D01*
X146256102Y-113314024D01*
X146401224Y-113342890D01*
X146649765Y-113591431D01*
X146675911Y-113623291D01*
X146803056Y-113727636D01*
X146948115Y-113805172D01*
X147105513Y-113852918D01*
X147228183Y-113865000D01*
X147228184Y-113865000D01*
X147269202Y-113869040D01*
X147310220Y-113865000D01*
X147700707Y-113865000D01*
X147645574Y-113998102D01*
X147605800Y-114198061D01*
X147605800Y-114401939D01*
X147645574Y-114601898D01*
X147723595Y-114790256D01*
X147836863Y-114959774D01*
X147981026Y-115103937D01*
X148150544Y-115217205D01*
X148338902Y-115295226D01*
X148484026Y-115324093D01*
X155269763Y-122109832D01*
X155295909Y-122141691D01*
X155423054Y-122246036D01*
X155568113Y-122323572D01*
X155725511Y-122371318D01*
X155848181Y-122383400D01*
X155848182Y-122383400D01*
X155889200Y-122387440D01*
X155930218Y-122383400D01*
X178745515Y-122383400D01*
X178868544Y-122465605D01*
X179056902Y-122543626D01*
X179256861Y-122583400D01*
X179460739Y-122583400D01*
X179660698Y-122543626D01*
X179849056Y-122465605D01*
X180018574Y-122352337D01*
X180162737Y-122208174D01*
X180276005Y-122038656D01*
X180354026Y-121850298D01*
X180393800Y-121650339D01*
X180393800Y-121446461D01*
X180354026Y-121246502D01*
X180276005Y-121058144D01*
X180162737Y-120888626D01*
X180018574Y-120744463D01*
X179849056Y-120631195D01*
X179660698Y-120553174D01*
X179460739Y-120513400D01*
X179256861Y-120513400D01*
X179056902Y-120553174D01*
X178868544Y-120631195D01*
X178745515Y-120713400D01*
X171281000Y-120713400D01*
X171281000Y-120532861D01*
X171241226Y-120332902D01*
X171163205Y-120144544D01*
X171049937Y-119975026D01*
X170905774Y-119830863D01*
X170736256Y-119717595D01*
X170547898Y-119639574D01*
X170347939Y-119599800D01*
X170144061Y-119599800D01*
X169944102Y-119639574D01*
X169755744Y-119717595D01*
X169632715Y-119799800D01*
X162689511Y-119799800D01*
X162703537Y-119785774D01*
X162816805Y-119616256D01*
X162894826Y-119427898D01*
X162934600Y-119227939D01*
X162934600Y-119024061D01*
X162894826Y-118824102D01*
X162816805Y-118635744D01*
X162703537Y-118466226D01*
X162559374Y-118322063D01*
X162389856Y-118208795D01*
X162201498Y-118130774D01*
X162056377Y-118101908D01*
X153958667Y-110004200D01*
X155545915Y-110004200D01*
X155668944Y-110086405D01*
X155857302Y-110164426D01*
X156057261Y-110204200D01*
X156261139Y-110204200D01*
X156461098Y-110164426D01*
X156649456Y-110086405D01*
X156818974Y-109973137D01*
X156963137Y-109828974D01*
X157076405Y-109659456D01*
X157154426Y-109471098D01*
X157194200Y-109271139D01*
X157194200Y-109086600D01*
X157226339Y-109086600D01*
X157426298Y-109046826D01*
X157614656Y-108968805D01*
X157784174Y-108855537D01*
X157928337Y-108711374D01*
X158041605Y-108541856D01*
X158119626Y-108353498D01*
X158159400Y-108153539D01*
X158159400Y-108070600D01*
X158242339Y-108070600D01*
X158442298Y-108030826D01*
X158630656Y-107952805D01*
X158800174Y-107839537D01*
X158944337Y-107695374D01*
X159057605Y-107525856D01*
X159135626Y-107337498D01*
X159175400Y-107137539D01*
X159175400Y-106933661D01*
X159152908Y-106820586D01*
X159240256Y-106784405D01*
X159409774Y-106671137D01*
X159553937Y-106526974D01*
X159667205Y-106357456D01*
X159745226Y-106169098D01*
X159785000Y-105969139D01*
X159785000Y-105765261D01*
X159745226Y-105565302D01*
X159667205Y-105376944D01*
X159553937Y-105207426D01*
X159409774Y-105063263D01*
X159240256Y-104949995D01*
X159051898Y-104871974D01*
X158906776Y-104843108D01*
X158073468Y-104009800D01*
X160740933Y-104009800D01*
X161993108Y-105261976D01*
X162021974Y-105407098D01*
X162099995Y-105595456D01*
X162213263Y-105764974D01*
X162357426Y-105909137D01*
X162526944Y-106022405D01*
X162715302Y-106100426D01*
X162915261Y-106140200D01*
X163119139Y-106140200D01*
X163319098Y-106100426D01*
X163507456Y-106022405D01*
X163676974Y-105909137D01*
X163821137Y-105764974D01*
X163934405Y-105595456D01*
X164012426Y-105407098D01*
X164052200Y-105207139D01*
X164052200Y-105003261D01*
X164012426Y-104803302D01*
X163934405Y-104614944D01*
X163821137Y-104445426D01*
X163676974Y-104301263D01*
X163507456Y-104187995D01*
X163319098Y-104109974D01*
X163173976Y-104081108D01*
X161706246Y-102613379D01*
X161680091Y-102581509D01*
X161552946Y-102477164D01*
X161407887Y-102399628D01*
X161250489Y-102351882D01*
X161226179Y-102349488D01*
X164369800Y-99205868D01*
X164369800Y-99301549D01*
X164409574Y-99501508D01*
X164487595Y-99689866D01*
X164600863Y-99859384D01*
X164745026Y-100003547D01*
X164914544Y-100116815D01*
X165102902Y-100194836D01*
X165248025Y-100223703D01*
X167414601Y-102390280D01*
X167414600Y-110079915D01*
X167332395Y-110202944D01*
X167254374Y-110391302D01*
X167214600Y-110591261D01*
X167214600Y-110795139D01*
X167254374Y-110995098D01*
X167332395Y-111183456D01*
X167445663Y-111352974D01*
X167589826Y-111497137D01*
X167759344Y-111610405D01*
X167947702Y-111688426D01*
X168147661Y-111728200D01*
X168351539Y-111728200D01*
X168551498Y-111688426D01*
X168739856Y-111610405D01*
X168909374Y-111497137D01*
X169053537Y-111352974D01*
X169166805Y-111183456D01*
X169244826Y-110995098D01*
X169284600Y-110795139D01*
X169284600Y-110591261D01*
X169244826Y-110391302D01*
X169166805Y-110202944D01*
X169084600Y-110079915D01*
X169084600Y-109661067D01*
X170273508Y-110849975D01*
X170302374Y-110995098D01*
X170380395Y-111183456D01*
X170493663Y-111352974D01*
X170637826Y-111497137D01*
X170807344Y-111610405D01*
X170995702Y-111688426D01*
X171195661Y-111728200D01*
X171399539Y-111728200D01*
X171599498Y-111688426D01*
X171787856Y-111610405D01*
X171957374Y-111497137D01*
X172101537Y-111352974D01*
X172214805Y-111183456D01*
X172292826Y-110995098D01*
X172332600Y-110795139D01*
X172332600Y-110591261D01*
X172292826Y-110391302D01*
X172214805Y-110202944D01*
X172101537Y-110033426D01*
X171957374Y-109889263D01*
X171787856Y-109775995D01*
X171599498Y-109697974D01*
X171454375Y-109669108D01*
X169948200Y-108162933D01*
X169948200Y-101475828D01*
X169952240Y-101434810D01*
X169942228Y-101333158D01*
X169936118Y-101271121D01*
X169888372Y-101113723D01*
X169810836Y-100968664D01*
X169706491Y-100841519D01*
X169674632Y-100815373D01*
X167292493Y-98433235D01*
X167263626Y-98288112D01*
X167219846Y-98182418D01*
X167330825Y-98204493D01*
X173815400Y-104689069D01*
X173815401Y-107997114D01*
X173733195Y-108120144D01*
X173655174Y-108308502D01*
X173615400Y-108508461D01*
X173615400Y-108712339D01*
X173655174Y-108912298D01*
X173733195Y-109100656D01*
X173846463Y-109270174D01*
X173990626Y-109414337D01*
X174160144Y-109527605D01*
X174348502Y-109605626D01*
X174548461Y-109645400D01*
X174752339Y-109645400D01*
X174952298Y-109605626D01*
X175140656Y-109527605D01*
X175310174Y-109414337D01*
X175454337Y-109270174D01*
X175567605Y-109100656D01*
X175645626Y-108912298D01*
X175685400Y-108712339D01*
X175685400Y-108508461D01*
X175645626Y-108308502D01*
X175567605Y-108120144D01*
X175485400Y-107997115D01*
X175485400Y-104384218D01*
X175489440Y-104343200D01*
X175473318Y-104179511D01*
X175425572Y-104022113D01*
X175348036Y-103877054D01*
X175269839Y-103781770D01*
X175269837Y-103781768D01*
X175243691Y-103749909D01*
X175211833Y-103723764D01*
X168511693Y-97023625D01*
X168482826Y-96878502D01*
X168404805Y-96690144D01*
X168291537Y-96520626D01*
X168147374Y-96376463D01*
X167977856Y-96263195D01*
X167789498Y-96185174D01*
X167589539Y-96145400D01*
X167385661Y-96145400D01*
X167185702Y-96185174D01*
X166997344Y-96263195D01*
X166827826Y-96376463D01*
X166683663Y-96520626D01*
X166570395Y-96690144D01*
X166492374Y-96878502D01*
X166452600Y-97078461D01*
X166452600Y-97282339D01*
X166492374Y-97482298D01*
X166536154Y-97587992D01*
X166370339Y-97555010D01*
X166272056Y-97555010D01*
X166322005Y-97480256D01*
X166400026Y-97291898D01*
X166439800Y-97091939D01*
X166439800Y-96888061D01*
X166400026Y-96688102D01*
X166322005Y-96499744D01*
X166208737Y-96330226D01*
X166064574Y-96186063D01*
X165895056Y-96072795D01*
X165706698Y-95994774D01*
X165506739Y-95955000D01*
X165302861Y-95955000D01*
X165102902Y-95994774D01*
X164914544Y-96072795D01*
X164745026Y-96186063D01*
X164600863Y-96330226D01*
X164487595Y-96499744D01*
X164409574Y-96688102D01*
X164380708Y-96833223D01*
X160042533Y-101171400D01*
X158906085Y-101171400D01*
X158783056Y-101089195D01*
X158594698Y-101011174D01*
X158394739Y-100971400D01*
X158190861Y-100971400D01*
X157990902Y-101011174D01*
X157802544Y-101089195D01*
X157633026Y-101202463D01*
X157488863Y-101346626D01*
X157375595Y-101516144D01*
X157297574Y-101704502D01*
X157257800Y-101904461D01*
X157257800Y-102108339D01*
X157297574Y-102308298D01*
X157310623Y-102339800D01*
X154127741Y-102339800D01*
X154312656Y-102263205D01*
X154482174Y-102149937D01*
X154626337Y-102005774D01*
X154739605Y-101836256D01*
X154817626Y-101647898D01*
X154857400Y-101447939D01*
X154857400Y-101244061D01*
X154817626Y-101044102D01*
X154739605Y-100855744D01*
X154626337Y-100686226D01*
X154482174Y-100542063D01*
X154312656Y-100428795D01*
X154124298Y-100350774D01*
X153924339Y-100311000D01*
X153720461Y-100311000D01*
X153520502Y-100350774D01*
X153332144Y-100428795D01*
X153209115Y-100511000D01*
X151794085Y-100511000D01*
X151671056Y-100428795D01*
X151482698Y-100350774D01*
X151282739Y-100311000D01*
X151078861Y-100311000D01*
X150878902Y-100350774D01*
X150690544Y-100428795D01*
X150521026Y-100542063D01*
X150376863Y-100686226D01*
X150263595Y-100855744D01*
X150185574Y-101044102D01*
X150145800Y-101244061D01*
X150145800Y-101447939D01*
X150185574Y-101647898D01*
X150263595Y-101836256D01*
X150376863Y-102005774D01*
X150521026Y-102149937D01*
X150690544Y-102263205D01*
X150875459Y-102339800D01*
X145545685Y-102339800D01*
X145422656Y-102257595D01*
X145234298Y-102179574D01*
X145034339Y-102139800D01*
X144830461Y-102139800D01*
X144630502Y-102179574D01*
X144442144Y-102257595D01*
X144272626Y-102370863D01*
X144128463Y-102515026D01*
X144015195Y-102684544D01*
X143937174Y-102872902D01*
X143897400Y-103072861D01*
X143897400Y-103276739D01*
X143937174Y-103476698D01*
X144015195Y-103665056D01*
X144128463Y-103834574D01*
X144272626Y-103978737D01*
X144442144Y-104092005D01*
X144630502Y-104170026D01*
X144830461Y-104209800D01*
X145034339Y-104209800D01*
X145234298Y-104170026D01*
X145253430Y-104162101D01*
X142198602Y-107216930D01*
X142198602Y-103939865D01*
X147781575Y-98356892D01*
X147926698Y-98328026D01*
X148115056Y-98250005D01*
X148284574Y-98136737D01*
X148428737Y-97992574D01*
X148542005Y-97823056D01*
X148620026Y-97634698D01*
X148659800Y-97434739D01*
X148659800Y-97230861D01*
X148620026Y-97030902D01*
X148542005Y-96842544D01*
X148428737Y-96673026D01*
X148284574Y-96528863D01*
X148115056Y-96415595D01*
X147926698Y-96337574D01*
X147726739Y-96297800D01*
X147522861Y-96297800D01*
X147322902Y-96337574D01*
X147134544Y-96415595D01*
X146965026Y-96528863D01*
X146820863Y-96673026D01*
X146707595Y-96842544D01*
X146629574Y-97030902D01*
X146600708Y-97176025D01*
X141398600Y-102378133D01*
X141398600Y-97742885D01*
X141480805Y-97619856D01*
X141558826Y-97431498D01*
X141598600Y-97231539D01*
X141598600Y-97027661D01*
X141558826Y-96827702D01*
X141480805Y-96639344D01*
X141367537Y-96469826D01*
X141223374Y-96325663D01*
X141165005Y-96286662D01*
X141533175Y-95918492D01*
X141678298Y-95889626D01*
X141866656Y-95811605D01*
X142036174Y-95698337D01*
X142180337Y-95554174D01*
X142293605Y-95384656D01*
X142371626Y-95196298D01*
X142411400Y-94996339D01*
X142411400Y-94903810D01*
X143861915Y-94903810D01*
X143984944Y-94986015D01*
X144173302Y-95064036D01*
X144373261Y-95103810D01*
X144577139Y-95103810D01*
X144777098Y-95064036D01*
X144965456Y-94986015D01*
X145134974Y-94872747D01*
X145279137Y-94728584D01*
X145392405Y-94559066D01*
X145470426Y-94370708D01*
X145510200Y-94170749D01*
X145510200Y-93966871D01*
X145470426Y-93766912D01*
X145392405Y-93578554D01*
X145320982Y-93471661D01*
X146386600Y-93471661D01*
X146386600Y-93675539D01*
X146426374Y-93875498D01*
X146504395Y-94063856D01*
X146617663Y-94233374D01*
X146761826Y-94377537D01*
X146931344Y-94490805D01*
X147119702Y-94568826D01*
X147319661Y-94608600D01*
X147523539Y-94608600D01*
X147723498Y-94568826D01*
X147911856Y-94490805D01*
X148034885Y-94408600D01*
X168797463Y-94408600D01*
X168838481Y-94412640D01*
X168879499Y-94408600D01*
X168879500Y-94408600D01*
X169002170Y-94396518D01*
X169159568Y-94348772D01*
X169304627Y-94271236D01*
X169431772Y-94166891D01*
X169457927Y-94135021D01*
X175571928Y-88021021D01*
X175571928Y-89050000D01*
X175584188Y-89174482D01*
X175620498Y-89294180D01*
X175679463Y-89404494D01*
X175758815Y-89501185D01*
X175855506Y-89580537D01*
X175965820Y-89639502D01*
X176038380Y-89661513D01*
X175906525Y-89793368D01*
X175744010Y-90036589D01*
X175632068Y-90306842D01*
X175575000Y-90593740D01*
X175575000Y-90886260D01*
X175632068Y-91173158D01*
X175744010Y-91443411D01*
X175906525Y-91686632D01*
X176113368Y-91893475D01*
X176287760Y-92010000D01*
X176113368Y-92126525D01*
X175906525Y-92333368D01*
X175744010Y-92576589D01*
X175632068Y-92846842D01*
X175575000Y-93133740D01*
X175575000Y-93426260D01*
X175632068Y-93713158D01*
X175744010Y-93983411D01*
X175906525Y-94226632D01*
X176113368Y-94433475D01*
X176287760Y-94550000D01*
X176113368Y-94666525D01*
X175906525Y-94873368D01*
X175744010Y-95116589D01*
X175632068Y-95386842D01*
X175575000Y-95673740D01*
X175575000Y-95966260D01*
X175632068Y-96253158D01*
X175744010Y-96523411D01*
X175906525Y-96766632D01*
X176113368Y-96973475D01*
X176287760Y-97090000D01*
X176113368Y-97206525D01*
X175906525Y-97413368D01*
X175744010Y-97656589D01*
X175632068Y-97926842D01*
X175575000Y-98213740D01*
X175575000Y-98506260D01*
X175632068Y-98793158D01*
X175744010Y-99063411D01*
X175906525Y-99306632D01*
X176113368Y-99513475D01*
X176287760Y-99630000D01*
X176113368Y-99746525D01*
X175906525Y-99953368D01*
X175744010Y-100196589D01*
X175632068Y-100466842D01*
X175575000Y-100753740D01*
X175575000Y-101046260D01*
X175632068Y-101333158D01*
X175744010Y-101603411D01*
X175906525Y-101846632D01*
X176113368Y-102053475D01*
X176287760Y-102170000D01*
X176113368Y-102286525D01*
X175906525Y-102493368D01*
X175744010Y-102736589D01*
X175632068Y-103006842D01*
X175575000Y-103293740D01*
X175575000Y-103586260D01*
X175632068Y-103873158D01*
X175744010Y-104143411D01*
X175906525Y-104386632D01*
X176113368Y-104593475D01*
X176287760Y-104710000D01*
X176113368Y-104826525D01*
X175906525Y-105033368D01*
X175744010Y-105276589D01*
X175632068Y-105546842D01*
X175575000Y-105833740D01*
X175575000Y-106126260D01*
X175632068Y-106413158D01*
X175744010Y-106683411D01*
X175906525Y-106926632D01*
X176113368Y-107133475D01*
X176356589Y-107295990D01*
X176626842Y-107407932D01*
X176913740Y-107465000D01*
X177206260Y-107465000D01*
X177493158Y-107407932D01*
X177763411Y-107295990D01*
X178006632Y-107133475D01*
X178213475Y-106926632D01*
X178375990Y-106683411D01*
X178487932Y-106413158D01*
X178545000Y-106126260D01*
X178545000Y-105833740D01*
X178487932Y-105546842D01*
X178375990Y-105276589D01*
X178213475Y-105033368D01*
X178006632Y-104826525D01*
X177832240Y-104710000D01*
X178006632Y-104593475D01*
X178213475Y-104386632D01*
X178375990Y-104143411D01*
X178487932Y-103873158D01*
X178545000Y-103586260D01*
X178545000Y-103293740D01*
X178487932Y-103006842D01*
X178375990Y-102736589D01*
X178213475Y-102493368D01*
X178006632Y-102286525D01*
X177832240Y-102170000D01*
X178006632Y-102053475D01*
X178213475Y-101846632D01*
X178375990Y-101603411D01*
X178487932Y-101333158D01*
X178545000Y-101046260D01*
X178545000Y-100753740D01*
X178487932Y-100466842D01*
X178375990Y-100196589D01*
X178213475Y-99953368D01*
X178006632Y-99746525D01*
X177832240Y-99630000D01*
X178006632Y-99513475D01*
X178213475Y-99306632D01*
X178375990Y-99063411D01*
X178487932Y-98793158D01*
X178545000Y-98506260D01*
X178545000Y-98213740D01*
X178487932Y-97926842D01*
X178375990Y-97656589D01*
X178213475Y-97413368D01*
X178006632Y-97206525D01*
X177832240Y-97090000D01*
X178006632Y-96973475D01*
X178213475Y-96766632D01*
X178375990Y-96523411D01*
X178487932Y-96253158D01*
X178545000Y-95966260D01*
X178545000Y-95673740D01*
X178487932Y-95386842D01*
X178375990Y-95116589D01*
X178213475Y-94873368D01*
X178006632Y-94666525D01*
X177832240Y-94550000D01*
X178006632Y-94433475D01*
X178213475Y-94226632D01*
X178375990Y-93983411D01*
X178487932Y-93713158D01*
X178545000Y-93426260D01*
X178545000Y-93133740D01*
X178487932Y-92846842D01*
X178375990Y-92576589D01*
X178213475Y-92333368D01*
X178006632Y-92126525D01*
X177832240Y-92010000D01*
X178006632Y-91893475D01*
X178213475Y-91686632D01*
X178375990Y-91443411D01*
X178487932Y-91173158D01*
X178545000Y-90886260D01*
X178545000Y-90593740D01*
X178487932Y-90306842D01*
X178375990Y-90036589D01*
X178213475Y-89793368D01*
X178081620Y-89661513D01*
X178154180Y-89639502D01*
X178264494Y-89580537D01*
X178361185Y-89501185D01*
X178440537Y-89404494D01*
X178499502Y-89294180D01*
X178535812Y-89174482D01*
X178548072Y-89050000D01*
X178548072Y-87350000D01*
X178535812Y-87225518D01*
X178499502Y-87105820D01*
X178440537Y-86995506D01*
X178361185Y-86898815D01*
X178264494Y-86819463D01*
X178154180Y-86760498D01*
X178034482Y-86724188D01*
X177910000Y-86711928D01*
X176881022Y-86711928D01*
X177621433Y-85971517D01*
X177653291Y-85945372D01*
X177757636Y-85818227D01*
X177835172Y-85673168D01*
X177882918Y-85515770D01*
X177895000Y-85393100D01*
X177895000Y-85393099D01*
X177896585Y-85377006D01*
X178006632Y-85303475D01*
X178213475Y-85096632D01*
X178375990Y-84853411D01*
X178413853Y-84762000D01*
X183999928Y-84762000D01*
X184012188Y-84886482D01*
X184048498Y-85006180D01*
X184107463Y-85116494D01*
X184186815Y-85213185D01*
X184283506Y-85292537D01*
X184393820Y-85351502D01*
X184513518Y-85387812D01*
X184597465Y-85396080D01*
X184509465Y-85454880D01*
X184314880Y-85649465D01*
X184161995Y-85878273D01*
X184056686Y-86132510D01*
X184003000Y-86402408D01*
X184003000Y-86677592D01*
X184056686Y-86947490D01*
X184161995Y-87201727D01*
X184314880Y-87430535D01*
X184509465Y-87625120D01*
X184738273Y-87778005D01*
X184815515Y-87810000D01*
X184738273Y-87841995D01*
X184509465Y-87994880D01*
X184314880Y-88189465D01*
X184161995Y-88418273D01*
X184056686Y-88672510D01*
X184003000Y-88942408D01*
X184003000Y-89217592D01*
X184056686Y-89487490D01*
X184161995Y-89741727D01*
X184314880Y-89970535D01*
X184509465Y-90165120D01*
X184738273Y-90318005D01*
X184815515Y-90350000D01*
X184738273Y-90381995D01*
X184509465Y-90534880D01*
X184314880Y-90729465D01*
X184161995Y-90958273D01*
X184056686Y-91212510D01*
X184003000Y-91482408D01*
X184003000Y-91757592D01*
X184056686Y-92027490D01*
X184161995Y-92281727D01*
X184314880Y-92510535D01*
X184509465Y-92705120D01*
X184738273Y-92858005D01*
X184992510Y-92963314D01*
X185262408Y-93017000D01*
X185537592Y-93017000D01*
X185807490Y-92963314D01*
X186061727Y-92858005D01*
X186290535Y-92705120D01*
X186485120Y-92510535D01*
X186638005Y-92281727D01*
X186670000Y-92204485D01*
X186701995Y-92281727D01*
X186854880Y-92510535D01*
X187049465Y-92705120D01*
X187278273Y-92858005D01*
X187532510Y-92963314D01*
X187802408Y-93017000D01*
X188077592Y-93017000D01*
X188347490Y-92963314D01*
X188601727Y-92858005D01*
X188830535Y-92705120D01*
X189025120Y-92510535D01*
X189178005Y-92281727D01*
X189283314Y-92027490D01*
X189337000Y-91757592D01*
X189337000Y-91482408D01*
X189283314Y-91212510D01*
X189178005Y-90958273D01*
X189025120Y-90729465D01*
X188830535Y-90534880D01*
X188601727Y-90381995D01*
X188524485Y-90350000D01*
X188601727Y-90318005D01*
X188830535Y-90165120D01*
X189025120Y-89970535D01*
X189178005Y-89741727D01*
X189283314Y-89487490D01*
X189337000Y-89217592D01*
X189337000Y-88942408D01*
X189283314Y-88672510D01*
X189178005Y-88418273D01*
X189025120Y-88189465D01*
X188830535Y-87994880D01*
X188601727Y-87841995D01*
X188524485Y-87810000D01*
X188601727Y-87778005D01*
X188830535Y-87625120D01*
X189025120Y-87430535D01*
X189178005Y-87201727D01*
X189283314Y-86947490D01*
X189337000Y-86677592D01*
X189337000Y-86402408D01*
X189283314Y-86132510D01*
X189178005Y-85878273D01*
X189025120Y-85649465D01*
X188830535Y-85454880D01*
X188601727Y-85301995D01*
X188524485Y-85270000D01*
X188601727Y-85238005D01*
X188830535Y-85085120D01*
X189025120Y-84890535D01*
X189178005Y-84661727D01*
X189283314Y-84407490D01*
X189337000Y-84137592D01*
X189337000Y-83862408D01*
X189283314Y-83592510D01*
X189178005Y-83338273D01*
X189025120Y-83109465D01*
X188830535Y-82914880D01*
X188601727Y-82761995D01*
X188347490Y-82656686D01*
X188077592Y-82603000D01*
X187802408Y-82603000D01*
X187532510Y-82656686D01*
X187278273Y-82761995D01*
X187049465Y-82914880D01*
X186854880Y-83109465D01*
X186796080Y-83197465D01*
X186787812Y-83113518D01*
X186751502Y-82993820D01*
X186692537Y-82883506D01*
X186613185Y-82786815D01*
X186516494Y-82707463D01*
X186406180Y-82648498D01*
X186286482Y-82612188D01*
X186162000Y-82599928D01*
X185685750Y-82603000D01*
X185527000Y-82761750D01*
X185527000Y-83873000D01*
X185547000Y-83873000D01*
X185547000Y-84127000D01*
X185527000Y-84127000D01*
X185527000Y-84147000D01*
X185273000Y-84147000D01*
X185273000Y-84127000D01*
X184161750Y-84127000D01*
X184003000Y-84285750D01*
X183999928Y-84762000D01*
X178413853Y-84762000D01*
X178487932Y-84583158D01*
X178545000Y-84296260D01*
X178545000Y-84003740D01*
X178487932Y-83716842D01*
X178375990Y-83446589D01*
X178236616Y-83238000D01*
X183999928Y-83238000D01*
X184003000Y-83714250D01*
X184161750Y-83873000D01*
X185273000Y-83873000D01*
X185273000Y-82761750D01*
X185114250Y-82603000D01*
X184638000Y-82599928D01*
X184513518Y-82612188D01*
X184393820Y-82648498D01*
X184283506Y-82707463D01*
X184186815Y-82786815D01*
X184107463Y-82883506D01*
X184048498Y-82993820D01*
X184012188Y-83113518D01*
X183999928Y-83238000D01*
X178236616Y-83238000D01*
X178213475Y-83203368D01*
X178006632Y-82996525D01*
X177832240Y-82880000D01*
X178006632Y-82763475D01*
X178213475Y-82556632D01*
X178375990Y-82313411D01*
X178487932Y-82043158D01*
X178545000Y-81756260D01*
X178545000Y-81463740D01*
X178487932Y-81176842D01*
X178375990Y-80906589D01*
X178213475Y-80663368D01*
X178006632Y-80456525D01*
X177832240Y-80340000D01*
X178006632Y-80223475D01*
X178213475Y-80016632D01*
X178375990Y-79773411D01*
X178487932Y-79503158D01*
X178545000Y-79216260D01*
X178545000Y-78923740D01*
X178487932Y-78636842D01*
X178375990Y-78366589D01*
X178213475Y-78123368D01*
X178006632Y-77916525D01*
X177832240Y-77800000D01*
X178006632Y-77683475D01*
X178213475Y-77476632D01*
X178375990Y-77233411D01*
X178487932Y-76963158D01*
X178545000Y-76676260D01*
X178545000Y-76383740D01*
X178487932Y-76096842D01*
X178375990Y-75826589D01*
X178213475Y-75583368D01*
X178006632Y-75376525D01*
X177832240Y-75260000D01*
X178006632Y-75143475D01*
X178213475Y-74936632D01*
X178375990Y-74693411D01*
X178487932Y-74423158D01*
X178545000Y-74136260D01*
X178545000Y-73843740D01*
X178487932Y-73556842D01*
X178375990Y-73286589D01*
X178213475Y-73043368D01*
X178006632Y-72836525D01*
X177832240Y-72720000D01*
X178006632Y-72603475D01*
X178213475Y-72396632D01*
X178375990Y-72153411D01*
X178487932Y-71883158D01*
X178545000Y-71596260D01*
X178545000Y-71303740D01*
X178487932Y-71016842D01*
X178375990Y-70746589D01*
X178213475Y-70503368D01*
X178006632Y-70296525D01*
X177824466Y-70174805D01*
X177941355Y-70105178D01*
X178157588Y-69910269D01*
X178331641Y-69676920D01*
X178456825Y-69414099D01*
X178501476Y-69266890D01*
X178380155Y-69037000D01*
X177187000Y-69037000D01*
X177187000Y-69057000D01*
X176933000Y-69057000D01*
X176933000Y-69037000D01*
X175739845Y-69037000D01*
X175618524Y-69266890D01*
X175663175Y-69414099D01*
X175788359Y-69676920D01*
X175962412Y-69910269D01*
X176178645Y-70105178D01*
X176295534Y-70174805D01*
X176113368Y-70296525D01*
X175906525Y-70503368D01*
X175744010Y-70746589D01*
X175632068Y-71016842D01*
X175575000Y-71303740D01*
X175575000Y-71596260D01*
X175632068Y-71883158D01*
X175744010Y-72153411D01*
X175906525Y-72396632D01*
X176113368Y-72603475D01*
X176287760Y-72720000D01*
X176113368Y-72836525D01*
X175906525Y-73043368D01*
X175744010Y-73286589D01*
X175632068Y-73556842D01*
X175575000Y-73843740D01*
X175575000Y-74136260D01*
X175601193Y-74267939D01*
X172260179Y-77608954D01*
X172228309Y-77635109D01*
X172123965Y-77762254D01*
X172123964Y-77762255D01*
X172046428Y-77907314D01*
X171998682Y-78064712D01*
X171982560Y-78228400D01*
X171986600Y-78269419D01*
X171986601Y-85543514D01*
X171904395Y-85666544D01*
X171826374Y-85854902D01*
X171786600Y-86054861D01*
X171786600Y-86258739D01*
X171826374Y-86458698D01*
X171904395Y-86647056D01*
X172017663Y-86816574D01*
X172161826Y-86960737D01*
X172331344Y-87074005D01*
X172519702Y-87152026D01*
X172719661Y-87191800D01*
X172923539Y-87191800D01*
X173123498Y-87152026D01*
X173311856Y-87074005D01*
X173481374Y-86960737D01*
X173625537Y-86816574D01*
X173734375Y-86653686D01*
X173787426Y-86706737D01*
X173956944Y-86820005D01*
X174145302Y-86898026D01*
X174302015Y-86929198D01*
X168492614Y-92738600D01*
X148034885Y-92738600D01*
X147911856Y-92656395D01*
X147723498Y-92578374D01*
X147523539Y-92538600D01*
X147319661Y-92538600D01*
X147119702Y-92578374D01*
X146931344Y-92656395D01*
X146761826Y-92769663D01*
X146617663Y-92913826D01*
X146504395Y-93083344D01*
X146426374Y-93271702D01*
X146386600Y-93471661D01*
X145320982Y-93471661D01*
X145279137Y-93409036D01*
X145134974Y-93264873D01*
X144965456Y-93151605D01*
X144777098Y-93073584D01*
X144577139Y-93033810D01*
X144373261Y-93033810D01*
X144173302Y-93073584D01*
X143984944Y-93151605D01*
X143861915Y-93233810D01*
X135672208Y-93233810D01*
X135631190Y-93229770D01*
X135590172Y-93233810D01*
X135590171Y-93233810D01*
X135467501Y-93245892D01*
X135310103Y-93293638D01*
X135165044Y-93371174D01*
X135037899Y-93475519D01*
X135011753Y-93507378D01*
X130285000Y-98234132D01*
X130285000Y-98213740D01*
X130227932Y-97926842D01*
X130115990Y-97656589D01*
X129953475Y-97413368D01*
X129746632Y-97206525D01*
X129572240Y-97090000D01*
X129746632Y-96973475D01*
X129953475Y-96766632D01*
X130115990Y-96523411D01*
X130227932Y-96253158D01*
X130285000Y-95966260D01*
X130285000Y-95673740D01*
X130227932Y-95386842D01*
X130115990Y-95116589D01*
X129953475Y-94873368D01*
X129821620Y-94741513D01*
X129894180Y-94719502D01*
X130004494Y-94660537D01*
X130101185Y-94581185D01*
X130180537Y-94484494D01*
X130239502Y-94374180D01*
X130275812Y-94254482D01*
X130288072Y-94130000D01*
X130288072Y-92430000D01*
X130275812Y-92305518D01*
X130239502Y-92185820D01*
X130180537Y-92075506D01*
X130101185Y-91978815D01*
X130004494Y-91899463D01*
X129894180Y-91840498D01*
X129774482Y-91804188D01*
X129650000Y-91791928D01*
X127950000Y-91791928D01*
X127825518Y-91804188D01*
X127705820Y-91840498D01*
X127595506Y-91899463D01*
X127498815Y-91978815D01*
X127419463Y-92075506D01*
X127360498Y-92185820D01*
X127324188Y-92305518D01*
X127311928Y-92430000D01*
X127311928Y-94130000D01*
X127324188Y-94254482D01*
X127360498Y-94374180D01*
X127419463Y-94484494D01*
X127498815Y-94581185D01*
X127595506Y-94660537D01*
X127705820Y-94719502D01*
X127778380Y-94741513D01*
X127646525Y-94873368D01*
X127484010Y-95116589D01*
X127372068Y-95386842D01*
X127315000Y-95673740D01*
X127315000Y-95966260D01*
X127372068Y-96253158D01*
X127484010Y-96523411D01*
X127646525Y-96766632D01*
X127853368Y-96973475D01*
X128027760Y-97090000D01*
X127853368Y-97206525D01*
X127646525Y-97413368D01*
X127484010Y-97656589D01*
X127372068Y-97926842D01*
X127315000Y-98213740D01*
X127315000Y-98506260D01*
X127372068Y-98793158D01*
X127484010Y-99063411D01*
X127646525Y-99306632D01*
X127853368Y-99513475D01*
X128027760Y-99630000D01*
X127853368Y-99746525D01*
X127646525Y-99953368D01*
X127484010Y-100196589D01*
X127372068Y-100466842D01*
X127315000Y-100753740D01*
X127315000Y-101046260D01*
X127372068Y-101333158D01*
X127484010Y-101603411D01*
X127646525Y-101846632D01*
X127853368Y-102053475D01*
X128027760Y-102170000D01*
X127853368Y-102286525D01*
X127646525Y-102493368D01*
X127484010Y-102736589D01*
X127372068Y-103006842D01*
X127315000Y-103293740D01*
X127315000Y-103586260D01*
X127372068Y-103873158D01*
X127484010Y-104143411D01*
X127646525Y-104386632D01*
X127853368Y-104593475D01*
X128027760Y-104710000D01*
X127853368Y-104826525D01*
X127646525Y-105033368D01*
X127484010Y-105276589D01*
X127372068Y-105546842D01*
X127315000Y-105833740D01*
X127315000Y-106126260D01*
X127372068Y-106413158D01*
X127484010Y-106683411D01*
X127646525Y-106926632D01*
X127853368Y-107133475D01*
X128096589Y-107295990D01*
X128366842Y-107407932D01*
X128653740Y-107465000D01*
X128946260Y-107465000D01*
X129233158Y-107407932D01*
X129503411Y-107295990D01*
X129746632Y-107133475D01*
X129953475Y-106926632D01*
X130115990Y-106683411D01*
X130227932Y-106413158D01*
X130285000Y-106126260D01*
X130285000Y-105833740D01*
X130227932Y-105546842D01*
X130115990Y-105276589D01*
X129953475Y-105033368D01*
X129746632Y-104826525D01*
X129572240Y-104710000D01*
X129746632Y-104593475D01*
X129953475Y-104386632D01*
X130115990Y-104143411D01*
X130227932Y-103873158D01*
X130285000Y-103586260D01*
X130285000Y-103293740D01*
X130227932Y-103006842D01*
X130115990Y-102736589D01*
X129953475Y-102493368D01*
X129746632Y-102286525D01*
X129572240Y-102170000D01*
X129746632Y-102053475D01*
X129953475Y-101846632D01*
X130115990Y-101603411D01*
X130227932Y-101333158D01*
X130285000Y-101046260D01*
X130285000Y-100753740D01*
X130258807Y-100622060D01*
X135977059Y-94903810D01*
X140186122Y-94903810D01*
X136598579Y-98491354D01*
X136566709Y-98517509D01*
X136462365Y-98644654D01*
X136462364Y-98644655D01*
X136384828Y-98789714D01*
X136337082Y-98947112D01*
X136320960Y-99110800D01*
X136325000Y-99151819D01*
X136325001Y-107235114D01*
X136242795Y-107358144D01*
X136164774Y-107546502D01*
X136125000Y-107746461D01*
X136125000Y-107950339D01*
X136164774Y-108150298D01*
X136242795Y-108338656D01*
X136356063Y-108508174D01*
X136500226Y-108652337D01*
X136669744Y-108765605D01*
X136858102Y-108843626D01*
X137058061Y-108883400D01*
X137261939Y-108883400D01*
X137461898Y-108843626D01*
X137650256Y-108765605D01*
X137819774Y-108652337D01*
X137963937Y-108508174D01*
X138077205Y-108338656D01*
X138155226Y-108150298D01*
X138195000Y-107950339D01*
X138195000Y-107746461D01*
X138155226Y-107546502D01*
X138077205Y-107358144D01*
X137995000Y-107235115D01*
X137995000Y-99456667D01*
X139720662Y-97731005D01*
X139728600Y-97742885D01*
X139728601Y-106930316D01*
X139646395Y-107053346D01*
X139568374Y-107241704D01*
X139528600Y-107441663D01*
X139528600Y-107645541D01*
X139568374Y-107845500D01*
X139646395Y-108033858D01*
X139759663Y-108203376D01*
X139891159Y-108334872D01*
X137630163Y-110595869D01*
X137574906Y-110572980D01*
X137374947Y-110533206D01*
X137171069Y-110533206D01*
X136971110Y-110572980D01*
X136782752Y-110651001D01*
X136613234Y-110764269D01*
X136469071Y-110908432D01*
X136355803Y-111077950D01*
X136277782Y-111266308D01*
X136238008Y-111466267D01*
X136238008Y-111670145D01*
X136260297Y-111782199D01*
X128956093Y-111782199D01*
X128933205Y-111726944D01*
X128819937Y-111557426D01*
X128675774Y-111413263D01*
X128506256Y-111299995D01*
X128317898Y-111221974D01*
X128117939Y-111182200D01*
X127914061Y-111182200D01*
X127714102Y-111221974D01*
X127525744Y-111299995D01*
X127356226Y-111413263D01*
X127212063Y-111557426D01*
X127098795Y-111726944D01*
X127020774Y-111915302D01*
X126981000Y-112115261D01*
X105660000Y-112115261D01*
X105660000Y-87333740D01*
X127315000Y-87333740D01*
X127315000Y-87626260D01*
X127372068Y-87913158D01*
X127484010Y-88183411D01*
X127646525Y-88426632D01*
X127853368Y-88633475D01*
X128096589Y-88795990D01*
X128366842Y-88907932D01*
X128653740Y-88965000D01*
X128946260Y-88965000D01*
X129233158Y-88907932D01*
X129503411Y-88795990D01*
X129746632Y-88633475D01*
X129953475Y-88426632D01*
X130115990Y-88183411D01*
X130227932Y-87913158D01*
X130285000Y-87626260D01*
X130285000Y-87333740D01*
X130227932Y-87046842D01*
X130115990Y-86776589D01*
X129953475Y-86533368D01*
X129746632Y-86326525D01*
X129564466Y-86204805D01*
X129681355Y-86135178D01*
X129897588Y-85940269D01*
X130071641Y-85706920D01*
X130196825Y-85444099D01*
X130241476Y-85296890D01*
X130120155Y-85067000D01*
X128927000Y-85067000D01*
X128927000Y-85087000D01*
X128673000Y-85087000D01*
X128673000Y-85067000D01*
X127479845Y-85067000D01*
X127358524Y-85296890D01*
X127403175Y-85444099D01*
X127528359Y-85706920D01*
X127702412Y-85940269D01*
X127918645Y-86135178D01*
X128035534Y-86204805D01*
X127853368Y-86326525D01*
X127646525Y-86533368D01*
X127484010Y-86776589D01*
X127372068Y-87046842D01*
X127315000Y-87333740D01*
X105660000Y-87333740D01*
X105660000Y-82756890D01*
X127358524Y-82756890D01*
X127403175Y-82904099D01*
X127528359Y-83166920D01*
X127702412Y-83400269D01*
X127918645Y-83595178D01*
X128044255Y-83670000D01*
X127918645Y-83744822D01*
X127702412Y-83939731D01*
X127528359Y-84173080D01*
X127403175Y-84435901D01*
X127358524Y-84583110D01*
X127479845Y-84813000D01*
X128673000Y-84813000D01*
X128673000Y-82527000D01*
X128927000Y-82527000D01*
X128927000Y-84813000D01*
X130120155Y-84813000D01*
X130241476Y-84583110D01*
X130196825Y-84435901D01*
X130071641Y-84173080D01*
X129897588Y-83939731D01*
X129681355Y-83744822D01*
X129555745Y-83670000D01*
X129681355Y-83595178D01*
X129897588Y-83400269D01*
X130071641Y-83166920D01*
X130196825Y-82904099D01*
X130241476Y-82756890D01*
X130120155Y-82527000D01*
X128927000Y-82527000D01*
X128673000Y-82527000D01*
X127479845Y-82527000D01*
X127358524Y-82756890D01*
X105660000Y-82756890D01*
X105660000Y-68850000D01*
X127311928Y-68850000D01*
X127311928Y-70550000D01*
X127324188Y-70674482D01*
X127360498Y-70794180D01*
X127419463Y-70904494D01*
X127498815Y-71001185D01*
X127595506Y-71080537D01*
X127705820Y-71139502D01*
X127778380Y-71161513D01*
X127646525Y-71293368D01*
X127484010Y-71536589D01*
X127372068Y-71806842D01*
X127315000Y-72093740D01*
X127315000Y-72386260D01*
X127372068Y-72673158D01*
X127484010Y-72943411D01*
X127646525Y-73186632D01*
X127853368Y-73393475D01*
X128027760Y-73510000D01*
X127853368Y-73626525D01*
X127646525Y-73833368D01*
X127484010Y-74076589D01*
X127372068Y-74346842D01*
X127315000Y-74633740D01*
X127315000Y-74926260D01*
X127372068Y-75213158D01*
X127484010Y-75483411D01*
X127646525Y-75726632D01*
X127853368Y-75933475D01*
X128027760Y-76050000D01*
X127853368Y-76166525D01*
X127646525Y-76373368D01*
X127484010Y-76616589D01*
X127372068Y-76886842D01*
X127315000Y-77173740D01*
X127315000Y-77466260D01*
X127372068Y-77753158D01*
X127484010Y-78023411D01*
X127646525Y-78266632D01*
X127853368Y-78473475D01*
X128027760Y-78590000D01*
X127853368Y-78706525D01*
X127646525Y-78913368D01*
X127484010Y-79156589D01*
X127372068Y-79426842D01*
X127315000Y-79713740D01*
X127315000Y-80006260D01*
X127372068Y-80293158D01*
X127484010Y-80563411D01*
X127646525Y-80806632D01*
X127853368Y-81013475D01*
X128035534Y-81135195D01*
X127918645Y-81204822D01*
X127702412Y-81399731D01*
X127528359Y-81633080D01*
X127403175Y-81895901D01*
X127358524Y-82043110D01*
X127479845Y-82273000D01*
X128673000Y-82273000D01*
X128673000Y-82253000D01*
X128927000Y-82253000D01*
X128927000Y-82273000D01*
X130120155Y-82273000D01*
X130241476Y-82043110D01*
X130196825Y-81895901D01*
X130071641Y-81633080D01*
X129897588Y-81399731D01*
X129681355Y-81204822D01*
X129564466Y-81135195D01*
X129746632Y-81013475D01*
X129953475Y-80806632D01*
X130115990Y-80563411D01*
X130227932Y-80293158D01*
X130285000Y-80006260D01*
X130285000Y-79713740D01*
X130227932Y-79426842D01*
X130115990Y-79156589D01*
X129953475Y-78913368D01*
X129746632Y-78706525D01*
X129572240Y-78590000D01*
X129746632Y-78473475D01*
X129953475Y-78266632D01*
X130115990Y-78023411D01*
X130227932Y-77753158D01*
X130285000Y-77466260D01*
X130285000Y-77173740D01*
X130227932Y-76886842D01*
X130115990Y-76616589D01*
X129953475Y-76373368D01*
X129746632Y-76166525D01*
X129572240Y-76050000D01*
X129746632Y-75933475D01*
X129953475Y-75726632D01*
X130115990Y-75483411D01*
X130227932Y-75213158D01*
X130285000Y-74926260D01*
X130285000Y-74633740D01*
X130227932Y-74346842D01*
X130115990Y-74076589D01*
X129953475Y-73833368D01*
X129746632Y-73626525D01*
X129572240Y-73510000D01*
X129746632Y-73393475D01*
X129953475Y-73186632D01*
X130115990Y-72943411D01*
X130227932Y-72673158D01*
X130285000Y-72386260D01*
X130285000Y-72093740D01*
X130227932Y-71806842D01*
X130115990Y-71536589D01*
X129953475Y-71293368D01*
X129821620Y-71161513D01*
X129894180Y-71139502D01*
X130004494Y-71080537D01*
X130101185Y-71001185D01*
X130180537Y-70904494D01*
X130239502Y-70794180D01*
X130275812Y-70674482D01*
X130288072Y-70550000D01*
X130288072Y-68850000D01*
X130275812Y-68725518D01*
X130239502Y-68605820D01*
X130180537Y-68495506D01*
X130101185Y-68398815D01*
X130004494Y-68319463D01*
X129894180Y-68260498D01*
X129774482Y-68224188D01*
X129650000Y-68211928D01*
X127950000Y-68211928D01*
X127825518Y-68224188D01*
X127705820Y-68260498D01*
X127595506Y-68319463D01*
X127498815Y-68398815D01*
X127419463Y-68495506D01*
X127360498Y-68605820D01*
X127324188Y-68725518D01*
X127311928Y-68850000D01*
X105660000Y-68850000D01*
X105660000Y-59876890D01*
X108750048Y-59876890D01*
X108750048Y-60123110D01*
X108798083Y-60364598D01*
X108892307Y-60592074D01*
X109029099Y-60796798D01*
X109203202Y-60970901D01*
X109407926Y-61107693D01*
X109635402Y-61201917D01*
X109876890Y-61249952D01*
X110123110Y-61249952D01*
X110364598Y-61201917D01*
X110592074Y-61107693D01*
X110796798Y-60970901D01*
X110970901Y-60796798D01*
X111107693Y-60592074D01*
X111170684Y-60440000D01*
X175571928Y-60440000D01*
X175571928Y-62140000D01*
X175584188Y-62264482D01*
X175620498Y-62384180D01*
X175679463Y-62494494D01*
X175758815Y-62591185D01*
X175855506Y-62670537D01*
X175965820Y-62729502D01*
X176038380Y-62751513D01*
X175906525Y-62883368D01*
X175744010Y-63126589D01*
X175632068Y-63396842D01*
X175575000Y-63683740D01*
X175575000Y-63976260D01*
X175632068Y-64263158D01*
X175744010Y-64533411D01*
X175906525Y-64776632D01*
X176113368Y-64983475D01*
X176287760Y-65100000D01*
X176113368Y-65216525D01*
X175906525Y-65423368D01*
X175744010Y-65666589D01*
X175632068Y-65936842D01*
X175575000Y-66223740D01*
X175575000Y-66516260D01*
X175632068Y-66803158D01*
X175744010Y-67073411D01*
X175906525Y-67316632D01*
X176113368Y-67523475D01*
X176295534Y-67645195D01*
X176178645Y-67714822D01*
X175962412Y-67909731D01*
X175788359Y-68143080D01*
X175663175Y-68405901D01*
X175618524Y-68553110D01*
X175739845Y-68783000D01*
X176933000Y-68783000D01*
X176933000Y-68763000D01*
X177187000Y-68763000D01*
X177187000Y-68783000D01*
X178380155Y-68783000D01*
X178501476Y-68553110D01*
X178456825Y-68405901D01*
X178331641Y-68143080D01*
X178157588Y-67909731D01*
X177941355Y-67714822D01*
X177824466Y-67645195D01*
X178006632Y-67523475D01*
X178213475Y-67316632D01*
X178375990Y-67073411D01*
X178487932Y-66803158D01*
X178545000Y-66516260D01*
X178545000Y-66223740D01*
X178487932Y-65936842D01*
X178375990Y-65666589D01*
X178213475Y-65423368D01*
X178006632Y-65216525D01*
X177832240Y-65100000D01*
X178006632Y-64983475D01*
X178213475Y-64776632D01*
X178375990Y-64533411D01*
X178487932Y-64263158D01*
X178545000Y-63976260D01*
X178545000Y-63683740D01*
X178487932Y-63396842D01*
X178375990Y-63126589D01*
X178213475Y-62883368D01*
X178081620Y-62751513D01*
X178154180Y-62729502D01*
X178264494Y-62670537D01*
X178361185Y-62591185D01*
X178440537Y-62494494D01*
X178499502Y-62384180D01*
X178535812Y-62264482D01*
X178548072Y-62140000D01*
X178548072Y-60440000D01*
X178535812Y-60315518D01*
X178499502Y-60195820D01*
X178440537Y-60085506D01*
X178361185Y-59988815D01*
X178264494Y-59909463D01*
X178203556Y-59876890D01*
X193750048Y-59876890D01*
X193750048Y-60123110D01*
X193798083Y-60364598D01*
X193892307Y-60592074D01*
X194029099Y-60796798D01*
X194203202Y-60970901D01*
X194407926Y-61107693D01*
X194635402Y-61201917D01*
X194876890Y-61249952D01*
X195123110Y-61249952D01*
X195364598Y-61201917D01*
X195592074Y-61107693D01*
X195796798Y-60970901D01*
X195970901Y-60796798D01*
X196107693Y-60592074D01*
X196201917Y-60364598D01*
X196249952Y-60123110D01*
X196249952Y-59876890D01*
X196201917Y-59635402D01*
X196107693Y-59407926D01*
X195970901Y-59203202D01*
X195796798Y-59029099D01*
X195592074Y-58892307D01*
X195364598Y-58798083D01*
X195123110Y-58750048D01*
X194876890Y-58750048D01*
X194635402Y-58798083D01*
X194407926Y-58892307D01*
X194203202Y-59029099D01*
X194029099Y-59203202D01*
X193892307Y-59407926D01*
X193798083Y-59635402D01*
X193750048Y-59876890D01*
X178203556Y-59876890D01*
X178154180Y-59850498D01*
X178034482Y-59814188D01*
X177910000Y-59801928D01*
X176210000Y-59801928D01*
X176085518Y-59814188D01*
X175965820Y-59850498D01*
X175855506Y-59909463D01*
X175758815Y-59988815D01*
X175679463Y-60085506D01*
X175620498Y-60195820D01*
X175584188Y-60315518D01*
X175571928Y-60440000D01*
X111170684Y-60440000D01*
X111201917Y-60364598D01*
X111249952Y-60123110D01*
X111249952Y-59876890D01*
X111201917Y-59635402D01*
X111107693Y-59407926D01*
X110970901Y-59203202D01*
X110796798Y-59029099D01*
X110592074Y-58892307D01*
X110364598Y-58798083D01*
X110123110Y-58750048D01*
X109876890Y-58750048D01*
X109635402Y-58798083D01*
X109407926Y-58892307D01*
X109203202Y-59029099D01*
X109029099Y-59203202D01*
X108892307Y-59407926D01*
X108798083Y-59635402D01*
X108750048Y-59876890D01*
X105660000Y-59876890D01*
X105660000Y-50660000D01*
X199340001Y-50660000D01*
X199340001Y-78973000D01*
G37*
G04 #@! TD.AperFunction*
M02*
