M48
; DRILL file {KiCad 5.1.7-a382d34a8~88~ubuntu18.04.1} date Fri Sep 17 12:34:19 2021
; FORMAT={-:-/ absolute / metric / decimal}
; #@! TF.CreationDate,2021-09-17T12:34:19-05:00
; #@! TF.GenerationSoftware,Kicad,Pcbnew,5.1.7-a382d34a8~88~ubuntu18.04.1
; #@! TF.FileFunction,Plated,1,2,PTH
FMAT,2
METRIC
T1C0.400
T2C0.762
T3C1.000
T4C1.100
%
G90
G05
T1
X107.4Y-53.8
X124.003Y-127.152
X127.305Y-134.722
X128.016Y-112.217
X128.93Y-134.061
X129.134Y-127.203
X130.823Y-128.349
X131.013Y-134.722
X132.334Y-133.96
X134.468Y-114.046
X137.16Y-107.848
X137.273Y-111.568
X139.294Y-126.949
X140.208Y-111.709
X140.564Y-97.13
X140.564Y-107.544
X141.376Y-94.894
X142.443Y-134.671
X142.799Y-95.555
X144.475Y-94.069
X144.653Y-128.27
X144.932Y-103.175
X145.034Y-127.152
X146.355Y-134.315
X146.558Y-112.319
X147.422Y-93.574
X147.625Y-97.333
X148.216Y-111.118
X148.641Y-110.033
X148.641Y-114.3
X150.165Y-107.137
X151.181Y-101.346
X153.352Y-113.03
X153.822Y-101.346
X156.159Y-109.169
X156.616Y-134.67
X157.124Y-108.052
X158.14Y-107.036
X158.191Y-134.518
X158.293Y-102.006
X158.699Y-126.898
X158.75Y-105.867
X160.274Y-128.27
X160.325Y-134.671
X161.9Y-119.126
X161.9Y-134.366
X163.017Y-105.105
X165.202Y-101.295
X165.405Y-96.99
X165.405Y-99.2
X166.268Y-98.59
X167.488Y-97.18
X168.25Y-110.693
X170.246Y-120.635
X171.298Y-110.693
X171.806Y-134.315
X172.415Y-126.949
X172.822Y-86.157
X173.678Y-128.322
X174.447Y-85.903
X174.65Y-108.61
X179.359Y-121.548
T2
X185.4Y-84.0
X185.4Y-86.54
X185.4Y-89.08
X185.4Y-91.62
X187.94Y-84.0
X187.94Y-86.54
X187.94Y-89.08
X187.94Y-91.62
T3
X128.8Y-93.28
X128.8Y-95.82
X128.8Y-98.36
X128.8Y-100.9
X128.8Y-103.44
X128.8Y-105.98
X177.06Y-61.29
X177.06Y-63.83
X177.06Y-66.37
X177.06Y-68.91
X177.06Y-71.45
X177.06Y-73.99
X177.06Y-76.53
X177.06Y-79.07
X177.06Y-81.61
X177.06Y-84.15
X177.06Y-88.2
X177.06Y-90.74
X177.06Y-93.28
X177.06Y-95.82
X177.06Y-98.36
X177.06Y-100.9
X177.06Y-103.44
X177.06Y-105.98
X128.8Y-69.7
X128.8Y-72.24
X128.8Y-74.78
X128.8Y-77.32
X128.8Y-79.86
X128.8Y-82.4
X128.8Y-84.94
X128.8Y-87.48
T4
X155.367Y-138.746
X157.907Y-138.746
X160.447Y-138.746
X162.987Y-138.746
X165.527Y-138.746
X168.067Y-138.746
X170.607Y-138.746
X173.147Y-138.746
X175.687Y-138.746
X178.227Y-138.746
X126.447Y-138.773
X128.987Y-138.773
X131.527Y-138.773
X134.067Y-138.773
X136.607Y-138.773
X139.147Y-138.773
X141.687Y-138.773
X144.227Y-138.773
X146.767Y-138.773
X149.307Y-138.773
T0
M30
