G04 #@! TF.GenerationSoftware,KiCad,Pcbnew,5.1.7-a382d34a8~88~ubuntu18.04.1*
G04 #@! TF.CreationDate,2021-09-17T12:32:22-05:00*
G04 #@! TF.ProjectId,serial_logger_uart_expander,73657269-616c-45f6-9c6f-676765725f75,rev?*
G04 #@! TF.SameCoordinates,Original*
G04 #@! TF.FileFunction,Legend,Top*
G04 #@! TF.FilePolarity,Positive*
%FSLAX46Y46*%
G04 Gerber Fmt 4.6, Leading zero omitted, Abs format (unit mm)*
G04 Created by KiCad (PCBNEW 5.1.7-a382d34a8~88~ubuntu18.04.1) date 2021-09-17 12:32:22*
%MOMM*%
%LPD*%
G01*
G04 APERTURE LIST*
%ADD10C,0.254000*%
%ADD11C,0.150000*%
%ADD12C,0.200000*%
%ADD13C,0.120000*%
%ADD14C,0.250000*%
%ADD15R,0.900000X0.800000*%
%ADD16R,0.800000X0.900000*%
%ADD17R,1.700000X1.700000*%
%ADD18O,1.700000X1.700000*%
%ADD19C,2.100000*%
%ADD20R,2.100000X2.100000*%
%ADD21R,0.600000X1.200000*%
%ADD22R,1.524000X1.524000*%
%ADD23C,1.524000*%
G04 APERTURE END LIST*
D10*
X184835800Y-127101600D02*
G75*
G03*
X184835800Y-127101600I-127000J0D01*
G01*
X180568600Y-127152400D02*
G75*
G03*
X180568600Y-127152400I-127000J0D01*
G01*
X176453800Y-122478800D02*
G75*
G03*
X176453800Y-122478800I-127000J0D01*
G01*
X172999400Y-122428000D02*
G75*
G03*
X172999400Y-122428000I-127000J0D01*
G01*
X168681400Y-127152400D02*
G75*
G03*
X168681400Y-127152400I-127000J0D01*
G01*
X164465000Y-127152400D02*
G75*
G03*
X164465000Y-127152400I-127000J0D01*
G01*
X160299400Y-122428000D02*
G75*
G03*
X160299400Y-122428000I-127000J0D01*
G01*
X156895800Y-122428000D02*
G75*
G03*
X156895800Y-122428000I-127000J0D01*
G01*
X152781000Y-127000000D02*
G75*
G03*
X152781000Y-127000000I-127000J0D01*
G01*
X148717000Y-127152400D02*
G75*
G03*
X148717000Y-127152400I-127000J0D01*
G01*
X144856200Y-122428000D02*
G75*
G03*
X144856200Y-122428000I-127000J0D01*
G01*
X140792200Y-122478800D02*
G75*
G03*
X140792200Y-122478800I-127000J0D01*
G01*
X137591800Y-127254000D02*
G75*
G03*
X137591800Y-127254000I-127000J0D01*
G01*
X133375400Y-127203200D02*
G75*
G03*
X133375400Y-127203200I-127000J0D01*
G01*
X129209800Y-122377200D02*
G75*
G03*
X129209800Y-122377200I-127000J0D01*
G01*
X125501400Y-122377200D02*
G75*
G03*
X125501400Y-122377200I-127000J0D01*
G01*
X146050000Y-128524000D02*
G75*
G03*
X146050000Y-128524000I-127000J0D01*
G01*
X131902200Y-128524000D02*
G75*
G03*
X131902200Y-128524000I-127000J0D01*
G01*
X174879000Y-128524000D02*
G75*
G03*
X174879000Y-128524000I-127000J0D01*
G01*
X161925000Y-128524000D02*
G75*
G03*
X161925000Y-128524000I-127000J0D01*
G01*
X159689800Y-102768400D02*
G75*
G03*
X159689800Y-102768400I-127000J0D01*
G01*
X148869400Y-94132400D02*
G75*
G03*
X148869400Y-94132400I-127000J0D01*
G01*
D11*
X167162500Y-105514857D02*
X167562500Y-106714857D01*
X167962500Y-105514857D01*
X169048214Y-106600571D02*
X168991071Y-106657714D01*
X168819642Y-106714857D01*
X168705357Y-106714857D01*
X168533928Y-106657714D01*
X168419642Y-106543428D01*
X168362500Y-106429142D01*
X168305357Y-106200571D01*
X168305357Y-106029142D01*
X168362500Y-105800571D01*
X168419642Y-105686285D01*
X168533928Y-105572000D01*
X168705357Y-105514857D01*
X168819642Y-105514857D01*
X168991071Y-105572000D01*
X169048214Y-105629142D01*
X169791071Y-105514857D02*
X170019642Y-105514857D01*
X170133928Y-105572000D01*
X170248214Y-105686285D01*
X170305357Y-105914857D01*
X170305357Y-106314857D01*
X170248214Y-106543428D01*
X170133928Y-106657714D01*
X170019642Y-106714857D01*
X169791071Y-106714857D01*
X169676785Y-106657714D01*
X169562500Y-106543428D01*
X169505357Y-106314857D01*
X169505357Y-105914857D01*
X169562500Y-105686285D01*
X169676785Y-105572000D01*
X169791071Y-105514857D01*
X170819642Y-106714857D02*
X170819642Y-105514857D01*
X171219642Y-106372000D01*
X171619642Y-105514857D01*
X171619642Y-106714857D01*
X171905357Y-106829142D02*
X172819642Y-106829142D01*
X173791071Y-106714857D02*
X173391071Y-106143428D01*
X173105357Y-106714857D02*
X173105357Y-105514857D01*
X173562500Y-105514857D01*
X173676785Y-105572000D01*
X173733928Y-105629142D01*
X173791071Y-105743428D01*
X173791071Y-105914857D01*
X173733928Y-106029142D01*
X173676785Y-106086285D01*
X173562500Y-106143428D01*
X173105357Y-106143428D01*
X174191071Y-105514857D02*
X174991071Y-106714857D01*
X174991071Y-105514857D02*
X174191071Y-106714857D01*
X167448214Y-102720857D02*
X167848214Y-103920857D01*
X168248214Y-102720857D01*
X169333928Y-103806571D02*
X169276785Y-103863714D01*
X169105357Y-103920857D01*
X168991071Y-103920857D01*
X168819642Y-103863714D01*
X168705357Y-103749428D01*
X168648214Y-103635142D01*
X168591071Y-103406571D01*
X168591071Y-103235142D01*
X168648214Y-103006571D01*
X168705357Y-102892285D01*
X168819642Y-102778000D01*
X168991071Y-102720857D01*
X169105357Y-102720857D01*
X169276785Y-102778000D01*
X169333928Y-102835142D01*
X170076785Y-102720857D02*
X170305357Y-102720857D01*
X170419642Y-102778000D01*
X170533928Y-102892285D01*
X170591071Y-103120857D01*
X170591071Y-103520857D01*
X170533928Y-103749428D01*
X170419642Y-103863714D01*
X170305357Y-103920857D01*
X170076785Y-103920857D01*
X169962500Y-103863714D01*
X169848214Y-103749428D01*
X169791071Y-103520857D01*
X169791071Y-103120857D01*
X169848214Y-102892285D01*
X169962500Y-102778000D01*
X170076785Y-102720857D01*
X171105357Y-103920857D02*
X171105357Y-102720857D01*
X171505357Y-103578000D01*
X171905357Y-102720857D01*
X171905357Y-103920857D01*
X172191071Y-104035142D02*
X173105357Y-104035142D01*
X173219642Y-102720857D02*
X173905357Y-102720857D01*
X173562500Y-103920857D02*
X173562500Y-102720857D01*
X174191071Y-102720857D02*
X174991071Y-103920857D01*
X174991071Y-102720857D02*
X174191071Y-103920857D01*
X168019642Y-101380857D02*
X168019642Y-100180857D01*
X168305357Y-100180857D01*
X168476785Y-100238000D01*
X168591071Y-100352285D01*
X168648214Y-100466571D01*
X168705357Y-100695142D01*
X168705357Y-100866571D01*
X168648214Y-101095142D01*
X168591071Y-101209428D01*
X168476785Y-101323714D01*
X168305357Y-101380857D01*
X168019642Y-101380857D01*
X169162500Y-101038000D02*
X169733928Y-101038000D01*
X169048214Y-101380857D02*
X169448214Y-100180857D01*
X169848214Y-101380857D01*
X170076785Y-100180857D02*
X170762500Y-100180857D01*
X170419642Y-101380857D02*
X170419642Y-100180857D01*
X171105357Y-101038000D02*
X171676785Y-101038000D01*
X170991071Y-101380857D02*
X171391071Y-100180857D01*
X171791071Y-101380857D01*
X171905357Y-101495142D02*
X172819642Y-101495142D01*
X173791071Y-101380857D02*
X173391071Y-100809428D01*
X173105357Y-101380857D02*
X173105357Y-100180857D01*
X173562500Y-100180857D01*
X173676785Y-100238000D01*
X173733928Y-100295142D01*
X173791071Y-100409428D01*
X173791071Y-100580857D01*
X173733928Y-100695142D01*
X173676785Y-100752285D01*
X173562500Y-100809428D01*
X173105357Y-100809428D01*
X174191071Y-100180857D02*
X174991071Y-101380857D01*
X174991071Y-100180857D02*
X174191071Y-101380857D01*
X171848214Y-99037714D02*
X172019642Y-99094857D01*
X172305357Y-99094857D01*
X172419642Y-99037714D01*
X172476785Y-98980571D01*
X172533928Y-98866285D01*
X172533928Y-98752000D01*
X172476785Y-98637714D01*
X172419642Y-98580571D01*
X172305357Y-98523428D01*
X172076785Y-98466285D01*
X171962500Y-98409142D01*
X171905357Y-98352000D01*
X171848214Y-98237714D01*
X171848214Y-98123428D01*
X171905357Y-98009142D01*
X171962500Y-97952000D01*
X172076785Y-97894857D01*
X172362500Y-97894857D01*
X172533928Y-97952000D01*
X173733928Y-98980571D02*
X173676785Y-99037714D01*
X173505357Y-99094857D01*
X173391071Y-99094857D01*
X173219642Y-99037714D01*
X173105357Y-98923428D01*
X173048214Y-98809142D01*
X172991071Y-98580571D01*
X172991071Y-98409142D01*
X173048214Y-98180571D01*
X173105357Y-98066285D01*
X173219642Y-97952000D01*
X173391071Y-97894857D01*
X173505357Y-97894857D01*
X173676785Y-97952000D01*
X173733928Y-98009142D01*
X174248214Y-99094857D02*
X174248214Y-97894857D01*
X174933928Y-99094857D02*
X174419642Y-98409142D01*
X174933928Y-97894857D02*
X174248214Y-98580571D01*
X171105357Y-96554857D02*
X171105357Y-95354857D01*
X171505357Y-96212000D01*
X171905357Y-95354857D01*
X171905357Y-96554857D01*
X172705357Y-95354857D02*
X172933928Y-95354857D01*
X173048214Y-95412000D01*
X173162500Y-95526285D01*
X173219642Y-95754857D01*
X173219642Y-96154857D01*
X173162500Y-96383428D01*
X173048214Y-96497714D01*
X172933928Y-96554857D01*
X172705357Y-96554857D01*
X172591071Y-96497714D01*
X172476785Y-96383428D01*
X172419642Y-96154857D01*
X172419642Y-95754857D01*
X172476785Y-95526285D01*
X172591071Y-95412000D01*
X172705357Y-95354857D01*
X173676785Y-96497714D02*
X173848214Y-96554857D01*
X174133928Y-96554857D01*
X174248214Y-96497714D01*
X174305357Y-96440571D01*
X174362500Y-96326285D01*
X174362500Y-96212000D01*
X174305357Y-96097714D01*
X174248214Y-96040571D01*
X174133928Y-95983428D01*
X173905357Y-95926285D01*
X173791071Y-95869142D01*
X173733928Y-95812000D01*
X173676785Y-95697714D01*
X173676785Y-95583428D01*
X173733928Y-95469142D01*
X173791071Y-95412000D01*
X173905357Y-95354857D01*
X174191071Y-95354857D01*
X174362500Y-95412000D01*
X174876785Y-96554857D02*
X174876785Y-95354857D01*
X171105357Y-93760857D02*
X171105357Y-92560857D01*
X171505357Y-93418000D01*
X171905357Y-92560857D01*
X171905357Y-93760857D01*
X172476785Y-93760857D02*
X172476785Y-92560857D01*
X172991071Y-93703714D02*
X173162500Y-93760857D01*
X173448214Y-93760857D01*
X173562500Y-93703714D01*
X173619642Y-93646571D01*
X173676785Y-93532285D01*
X173676785Y-93418000D01*
X173619642Y-93303714D01*
X173562500Y-93246571D01*
X173448214Y-93189428D01*
X173219642Y-93132285D01*
X173105357Y-93075142D01*
X173048214Y-93018000D01*
X172991071Y-92903714D01*
X172991071Y-92789428D01*
X173048214Y-92675142D01*
X173105357Y-92618000D01*
X173219642Y-92560857D01*
X173505357Y-92560857D01*
X173676785Y-92618000D01*
X174419642Y-92560857D02*
X174648214Y-92560857D01*
X174762500Y-92618000D01*
X174876785Y-92732285D01*
X174933928Y-92960857D01*
X174933928Y-93360857D01*
X174876785Y-93589428D01*
X174762500Y-93703714D01*
X174648214Y-93760857D01*
X174419642Y-93760857D01*
X174305357Y-93703714D01*
X174191071Y-93589428D01*
X174133928Y-93360857D01*
X174133928Y-92960857D01*
X174191071Y-92732285D01*
X174305357Y-92618000D01*
X174419642Y-92560857D01*
X172565642Y-89619000D02*
X173765642Y-89619000D01*
X173537071Y-91106571D02*
X173479928Y-91163714D01*
X173308500Y-91220857D01*
X173194214Y-91220857D01*
X173022785Y-91163714D01*
X172908500Y-91049428D01*
X172851357Y-90935142D01*
X172794214Y-90706571D01*
X172794214Y-90535142D01*
X172851357Y-90306571D01*
X172908500Y-90192285D01*
X173022785Y-90078000D01*
X173194214Y-90020857D01*
X173308500Y-90020857D01*
X173479928Y-90078000D01*
X173537071Y-90135142D01*
X173765642Y-89619000D02*
X174908500Y-89619000D01*
X173994214Y-91163714D02*
X174165642Y-91220857D01*
X174451357Y-91220857D01*
X174565642Y-91163714D01*
X174622785Y-91106571D01*
X174679928Y-90992285D01*
X174679928Y-90878000D01*
X174622785Y-90763714D01*
X174565642Y-90706571D01*
X174451357Y-90649428D01*
X174222785Y-90592285D01*
X174108500Y-90535142D01*
X174051357Y-90478000D01*
X173994214Y-90363714D01*
X173994214Y-90249428D01*
X174051357Y-90135142D01*
X174108500Y-90078000D01*
X174222785Y-90020857D01*
X174508500Y-90020857D01*
X174679928Y-90078000D01*
X171676785Y-88680857D02*
X171276785Y-88109428D01*
X170991071Y-88680857D02*
X170991071Y-87480857D01*
X171448214Y-87480857D01*
X171562500Y-87538000D01*
X171619642Y-87595142D01*
X171676785Y-87709428D01*
X171676785Y-87880857D01*
X171619642Y-87995142D01*
X171562500Y-88052285D01*
X171448214Y-88109428D01*
X170991071Y-88109428D01*
X172076785Y-87480857D02*
X172876785Y-88680857D01*
X172876785Y-87480857D02*
X172076785Y-88680857D01*
X173048214Y-88795142D02*
X173962500Y-88795142D01*
X174933928Y-88566571D02*
X174876785Y-88623714D01*
X174705357Y-88680857D01*
X174591071Y-88680857D01*
X174419642Y-88623714D01*
X174305357Y-88509428D01*
X174248214Y-88395142D01*
X174191071Y-88166571D01*
X174191071Y-87995142D01*
X174248214Y-87766571D01*
X174305357Y-87652285D01*
X174419642Y-87538000D01*
X174591071Y-87480857D01*
X174705357Y-87480857D01*
X174876785Y-87538000D01*
X174933928Y-87595142D01*
X168305357Y-84616857D02*
X168305357Y-83416857D01*
X168591071Y-83416857D01*
X168762500Y-83474000D01*
X168876785Y-83588285D01*
X168933928Y-83702571D01*
X168991071Y-83931142D01*
X168991071Y-84102571D01*
X168933928Y-84331142D01*
X168876785Y-84445428D01*
X168762500Y-84559714D01*
X168591071Y-84616857D01*
X168305357Y-84616857D01*
X169448214Y-84274000D02*
X170019642Y-84274000D01*
X169333928Y-84616857D02*
X169733928Y-83416857D01*
X170133928Y-84616857D01*
X170362500Y-83416857D02*
X171048214Y-83416857D01*
X170705357Y-84616857D02*
X170705357Y-83416857D01*
X171391071Y-84274000D02*
X171962500Y-84274000D01*
X171276785Y-84616857D02*
X171676785Y-83416857D01*
X172076785Y-84616857D01*
X172191071Y-84731142D02*
X173105357Y-84731142D01*
X173219642Y-83416857D02*
X173905357Y-83416857D01*
X173562500Y-84616857D02*
X173562500Y-83416857D01*
X174191071Y-83416857D02*
X174991071Y-84616857D01*
X174991071Y-83416857D02*
X174191071Y-84616857D01*
X172165642Y-82330857D02*
X172165642Y-81130857D01*
X173422785Y-82330857D02*
X173022785Y-81759428D01*
X172737071Y-82330857D02*
X172737071Y-81130857D01*
X173194214Y-81130857D01*
X173308500Y-81188000D01*
X173365642Y-81245142D01*
X173422785Y-81359428D01*
X173422785Y-81530857D01*
X173365642Y-81645142D01*
X173308500Y-81702285D01*
X173194214Y-81759428D01*
X172737071Y-81759428D01*
X174737071Y-82445142D02*
X174622785Y-82388000D01*
X174508500Y-82273714D01*
X174337071Y-82102285D01*
X174222785Y-82045142D01*
X174108500Y-82045142D01*
X174165642Y-82330857D02*
X174051357Y-82273714D01*
X173937071Y-82159428D01*
X173879928Y-81930857D01*
X173879928Y-81530857D01*
X173937071Y-81302285D01*
X174051357Y-81188000D01*
X174165642Y-81130857D01*
X174394214Y-81130857D01*
X174508500Y-81188000D01*
X174622785Y-81302285D01*
X174679928Y-81530857D01*
X174679928Y-81930857D01*
X174622785Y-82159428D01*
X174508500Y-82273714D01*
X174394214Y-82330857D01*
X174165642Y-82330857D01*
X173594214Y-79676571D02*
X173537071Y-79733714D01*
X173365642Y-79790857D01*
X173251357Y-79790857D01*
X173079928Y-79733714D01*
X172965642Y-79619428D01*
X172908500Y-79505142D01*
X172851357Y-79276571D01*
X172851357Y-79105142D01*
X172908500Y-78876571D01*
X172965642Y-78762285D01*
X173079928Y-78648000D01*
X173251357Y-78590857D01*
X173365642Y-78590857D01*
X173537071Y-78648000D01*
X173594214Y-78705142D01*
X174108500Y-79162285D02*
X174508500Y-79162285D01*
X174679928Y-79790857D02*
X174108500Y-79790857D01*
X174108500Y-78590857D01*
X174679928Y-78590857D01*
X171422785Y-77250857D02*
X171022785Y-76679428D01*
X170737071Y-77250857D02*
X170737071Y-76050857D01*
X171194214Y-76050857D01*
X171308500Y-76108000D01*
X171365642Y-76165142D01*
X171422785Y-76279428D01*
X171422785Y-76450857D01*
X171365642Y-76565142D01*
X171308500Y-76622285D01*
X171194214Y-76679428D01*
X170737071Y-76679428D01*
X171822785Y-76050857D02*
X172622785Y-77250857D01*
X172622785Y-76050857D02*
X171822785Y-77250857D01*
X172794214Y-77365142D02*
X173708500Y-77365142D01*
X174394214Y-76622285D02*
X174565642Y-76679428D01*
X174622785Y-76736571D01*
X174679928Y-76850857D01*
X174679928Y-77022285D01*
X174622785Y-77136571D01*
X174565642Y-77193714D01*
X174451357Y-77250857D01*
X173994214Y-77250857D01*
X173994214Y-76050857D01*
X174394214Y-76050857D01*
X174508500Y-76108000D01*
X174565642Y-76165142D01*
X174622785Y-76279428D01*
X174622785Y-76393714D01*
X174565642Y-76508000D01*
X174508500Y-76565142D01*
X174394214Y-76622285D01*
X173994214Y-76622285D01*
X171594214Y-74710857D02*
X171194214Y-74139428D01*
X170908500Y-74710857D02*
X170908500Y-73510857D01*
X171365642Y-73510857D01*
X171479928Y-73568000D01*
X171537071Y-73625142D01*
X171594214Y-73739428D01*
X171594214Y-73910857D01*
X171537071Y-74025142D01*
X171479928Y-74082285D01*
X171365642Y-74139428D01*
X170908500Y-74139428D01*
X171994214Y-73510857D02*
X172794214Y-74710857D01*
X172794214Y-73510857D02*
X171994214Y-74710857D01*
X172965642Y-74825142D02*
X173879928Y-74825142D01*
X174108500Y-74368000D02*
X174679928Y-74368000D01*
X173994214Y-74710857D02*
X174394214Y-73510857D01*
X174794214Y-74710857D01*
X172451357Y-72170857D02*
X171879928Y-72170857D01*
X171879928Y-70970857D01*
X172851357Y-72170857D02*
X172851357Y-70970857D01*
X173137071Y-70970857D01*
X173308500Y-71028000D01*
X173422785Y-71142285D01*
X173479928Y-71256571D01*
X173537071Y-71485142D01*
X173537071Y-71656571D01*
X173479928Y-71885142D01*
X173422785Y-71999428D01*
X173308500Y-72113714D01*
X173137071Y-72170857D01*
X172851357Y-72170857D01*
X173994214Y-71085142D02*
X174051357Y-71028000D01*
X174165642Y-70970857D01*
X174451357Y-70970857D01*
X174565642Y-71028000D01*
X174622785Y-71085142D01*
X174679928Y-71199428D01*
X174679928Y-71313714D01*
X174622785Y-71485142D01*
X173937071Y-72170857D01*
X174679928Y-72170857D01*
X172165642Y-68488000D02*
X172051357Y-68430857D01*
X171879928Y-68430857D01*
X171708500Y-68488000D01*
X171594214Y-68602285D01*
X171537071Y-68716571D01*
X171479928Y-68945142D01*
X171479928Y-69116571D01*
X171537071Y-69345142D01*
X171594214Y-69459428D01*
X171708500Y-69573714D01*
X171879928Y-69630857D01*
X171994214Y-69630857D01*
X172165642Y-69573714D01*
X172222785Y-69516571D01*
X172222785Y-69116571D01*
X171994214Y-69116571D01*
X172737071Y-69630857D02*
X172737071Y-68430857D01*
X173422785Y-69630857D01*
X173422785Y-68430857D01*
X173994214Y-69630857D02*
X173994214Y-68430857D01*
X174279928Y-68430857D01*
X174451357Y-68488000D01*
X174565642Y-68602285D01*
X174622785Y-68716571D01*
X174679928Y-68945142D01*
X174679928Y-69116571D01*
X174622785Y-69345142D01*
X174565642Y-69459428D01*
X174451357Y-69573714D01*
X174279928Y-69630857D01*
X173994214Y-69630857D01*
X131878928Y-106714857D02*
X131478928Y-106143428D01*
X131193214Y-106714857D02*
X131193214Y-105514857D01*
X131650357Y-105514857D01*
X131764642Y-105572000D01*
X131821785Y-105629142D01*
X131878928Y-105743428D01*
X131878928Y-105914857D01*
X131821785Y-106029142D01*
X131764642Y-106086285D01*
X131650357Y-106143428D01*
X131193214Y-106143428D01*
X132278928Y-105514857D02*
X133078928Y-106714857D01*
X133078928Y-105514857D02*
X132278928Y-106714857D01*
X133250357Y-106829142D02*
X134164642Y-106829142D01*
X134450357Y-106714857D02*
X134450357Y-105514857D01*
X135021785Y-106714857D02*
X135021785Y-105514857D01*
X135707500Y-106714857D01*
X135707500Y-105514857D01*
X136278928Y-106714857D02*
X136278928Y-105514857D01*
X136278928Y-106086285D02*
X136964642Y-106086285D01*
X136964642Y-106714857D02*
X136964642Y-105514857D01*
X131021785Y-100434857D02*
X131707500Y-100434857D01*
X131364642Y-101634857D02*
X131364642Y-100434857D01*
X131993214Y-100434857D02*
X132793214Y-101634857D01*
X132793214Y-100434857D02*
X131993214Y-101634857D01*
X132964642Y-101749142D02*
X133878928Y-101749142D01*
X134164642Y-101634857D02*
X134164642Y-100434857D01*
X134736071Y-101634857D02*
X134736071Y-100434857D01*
X135421785Y-101634857D01*
X135421785Y-100434857D01*
X135993214Y-101634857D02*
X135993214Y-100434857D01*
X135993214Y-101006285D02*
X136678928Y-101006285D01*
X136678928Y-101634857D02*
X136678928Y-100434857D01*
X131021785Y-97894857D02*
X131707500Y-97894857D01*
X131364642Y-99094857D02*
X131364642Y-97894857D01*
X131993214Y-97894857D02*
X132793214Y-99094857D01*
X132793214Y-97894857D02*
X131993214Y-99094857D01*
X132964642Y-99209142D02*
X133878928Y-99209142D01*
X134850357Y-98980571D02*
X134793214Y-99037714D01*
X134621785Y-99094857D01*
X134507500Y-99094857D01*
X134336071Y-99037714D01*
X134221785Y-98923428D01*
X134164642Y-98809142D01*
X134107500Y-98580571D01*
X134107500Y-98409142D01*
X134164642Y-98180571D01*
X134221785Y-98066285D01*
X134336071Y-97952000D01*
X134507500Y-97894857D01*
X134621785Y-97894857D01*
X134793214Y-97952000D01*
X134850357Y-98009142D01*
X131021785Y-95354857D02*
X131707500Y-95354857D01*
X131364642Y-96554857D02*
X131364642Y-95354857D01*
X131993214Y-95354857D02*
X132793214Y-96554857D01*
X132793214Y-95354857D02*
X131993214Y-96554857D01*
X132964642Y-96669142D02*
X133878928Y-96669142D01*
X134564642Y-95926285D02*
X134736071Y-95983428D01*
X134793214Y-96040571D01*
X134850357Y-96154857D01*
X134850357Y-96326285D01*
X134793214Y-96440571D01*
X134736071Y-96497714D01*
X134621785Y-96554857D01*
X134164642Y-96554857D01*
X134164642Y-95354857D01*
X134564642Y-95354857D01*
X134678928Y-95412000D01*
X134736071Y-95469142D01*
X134793214Y-95583428D01*
X134793214Y-95697714D01*
X134736071Y-95812000D01*
X134678928Y-95869142D01*
X134564642Y-95926285D01*
X134164642Y-95926285D01*
X131021785Y-92814857D02*
X131707500Y-92814857D01*
X131364642Y-94014857D02*
X131364642Y-92814857D01*
X131993214Y-92814857D02*
X132793214Y-94014857D01*
X132793214Y-92814857D02*
X131993214Y-94014857D01*
X132964642Y-94129142D02*
X133878928Y-94129142D01*
X134107500Y-93672000D02*
X134678928Y-93672000D01*
X133993214Y-94014857D02*
X134393214Y-92814857D01*
X134793214Y-94014857D01*
X131821785Y-84490000D02*
X131707500Y-84432857D01*
X131536071Y-84432857D01*
X131364642Y-84490000D01*
X131250357Y-84604285D01*
X131193214Y-84718571D01*
X131136071Y-84947142D01*
X131136071Y-85118571D01*
X131193214Y-85347142D01*
X131250357Y-85461428D01*
X131364642Y-85575714D01*
X131536071Y-85632857D01*
X131650357Y-85632857D01*
X131821785Y-85575714D01*
X131878928Y-85518571D01*
X131878928Y-85118571D01*
X131650357Y-85118571D01*
X132393214Y-85632857D02*
X132393214Y-84432857D01*
X133078928Y-85632857D01*
X133078928Y-84432857D01*
X133650357Y-85632857D02*
X133650357Y-84432857D01*
X133936071Y-84432857D01*
X134107500Y-84490000D01*
X134221785Y-84604285D01*
X134278928Y-84718571D01*
X134336071Y-84947142D01*
X134336071Y-85118571D01*
X134278928Y-85347142D01*
X134221785Y-85461428D01*
X134107500Y-85575714D01*
X133936071Y-85632857D01*
X133650357Y-85632857D01*
X131821785Y-81950000D02*
X131707500Y-81892857D01*
X131536071Y-81892857D01*
X131364642Y-81950000D01*
X131250357Y-82064285D01*
X131193214Y-82178571D01*
X131136071Y-82407142D01*
X131136071Y-82578571D01*
X131193214Y-82807142D01*
X131250357Y-82921428D01*
X131364642Y-83035714D01*
X131536071Y-83092857D01*
X131650357Y-83092857D01*
X131821785Y-83035714D01*
X131878928Y-82978571D01*
X131878928Y-82578571D01*
X131650357Y-82578571D01*
X132393214Y-83092857D02*
X132393214Y-81892857D01*
X133078928Y-83092857D01*
X133078928Y-81892857D01*
X133650357Y-83092857D02*
X133650357Y-81892857D01*
X133936071Y-81892857D01*
X134107500Y-81950000D01*
X134221785Y-82064285D01*
X134278928Y-82178571D01*
X134336071Y-82407142D01*
X134336071Y-82578571D01*
X134278928Y-82807142D01*
X134221785Y-82921428D01*
X134107500Y-83035714D01*
X133936071Y-83092857D01*
X133650357Y-83092857D01*
X131764642Y-79352857D02*
X131193214Y-79352857D01*
X131136071Y-79924285D01*
X131193214Y-79867142D01*
X131307500Y-79810000D01*
X131593214Y-79810000D01*
X131707500Y-79867142D01*
X131764642Y-79924285D01*
X131821785Y-80038571D01*
X131821785Y-80324285D01*
X131764642Y-80438571D01*
X131707500Y-80495714D01*
X131593214Y-80552857D01*
X131307500Y-80552857D01*
X131193214Y-80495714D01*
X131136071Y-80438571D01*
X132164642Y-79352857D02*
X132564642Y-80552857D01*
X132964642Y-79352857D01*
X131078928Y-76812857D02*
X131821785Y-76812857D01*
X131421785Y-77270000D01*
X131593214Y-77270000D01*
X131707500Y-77327142D01*
X131764642Y-77384285D01*
X131821785Y-77498571D01*
X131821785Y-77784285D01*
X131764642Y-77898571D01*
X131707500Y-77955714D01*
X131593214Y-78012857D01*
X131250357Y-78012857D01*
X131136071Y-77955714D01*
X131078928Y-77898571D01*
X132164642Y-76812857D02*
X132564642Y-78012857D01*
X132964642Y-76812857D01*
X133250357Y-76812857D02*
X133993214Y-76812857D01*
X133593214Y-77270000D01*
X133764642Y-77270000D01*
X133878928Y-77327142D01*
X133936071Y-77384285D01*
X133993214Y-77498571D01*
X133993214Y-77784285D01*
X133936071Y-77898571D01*
X133878928Y-77955714D01*
X133764642Y-78012857D01*
X133421785Y-78012857D01*
X133307500Y-77955714D01*
X133250357Y-77898571D01*
X130907500Y-73871000D02*
X132107500Y-73871000D01*
X131878928Y-75472857D02*
X131478928Y-74901428D01*
X131193214Y-75472857D02*
X131193214Y-74272857D01*
X131650357Y-74272857D01*
X131764642Y-74330000D01*
X131821785Y-74387142D01*
X131878928Y-74501428D01*
X131878928Y-74672857D01*
X131821785Y-74787142D01*
X131764642Y-74844285D01*
X131650357Y-74901428D01*
X131193214Y-74901428D01*
X132107500Y-73871000D02*
X133250357Y-73871000D01*
X132336071Y-75415714D02*
X132507500Y-75472857D01*
X132793214Y-75472857D01*
X132907500Y-75415714D01*
X132964642Y-75358571D01*
X133021785Y-75244285D01*
X133021785Y-75130000D01*
X132964642Y-75015714D01*
X132907500Y-74958571D01*
X132793214Y-74901428D01*
X132564642Y-74844285D01*
X132450357Y-74787142D01*
X132393214Y-74730000D01*
X132336071Y-74615714D01*
X132336071Y-74501428D01*
X132393214Y-74387142D01*
X132450357Y-74330000D01*
X132564642Y-74272857D01*
X132850357Y-74272857D01*
X133021785Y-74330000D01*
X133250357Y-73871000D02*
X134164642Y-73871000D01*
X133364642Y-74272857D02*
X134050357Y-74272857D01*
X133707500Y-75472857D02*
X133707500Y-74272857D01*
X131078928Y-71732857D02*
X131821785Y-71732857D01*
X131421785Y-72190000D01*
X131593214Y-72190000D01*
X131707500Y-72247142D01*
X131764642Y-72304285D01*
X131821785Y-72418571D01*
X131821785Y-72704285D01*
X131764642Y-72818571D01*
X131707500Y-72875714D01*
X131593214Y-72932857D01*
X131250357Y-72932857D01*
X131136071Y-72875714D01*
X131078928Y-72818571D01*
X132164642Y-71732857D02*
X132564642Y-72932857D01*
X132964642Y-71732857D01*
X133250357Y-71732857D02*
X133993214Y-71732857D01*
X133593214Y-72190000D01*
X133764642Y-72190000D01*
X133878928Y-72247142D01*
X133936071Y-72304285D01*
X133993214Y-72418571D01*
X133993214Y-72704285D01*
X133936071Y-72818571D01*
X133878928Y-72875714D01*
X133764642Y-72932857D01*
X133421785Y-72932857D01*
X133307500Y-72875714D01*
X133250357Y-72818571D01*
D12*
X120459523Y-51990761D02*
X120459523Y-53419333D01*
X120364285Y-53705047D01*
X120173809Y-53895523D01*
X119888095Y-53990761D01*
X119697619Y-53990761D01*
X121411904Y-53800285D02*
X121507142Y-53895523D01*
X121411904Y-53990761D01*
X121316666Y-53895523D01*
X121411904Y-53800285D01*
X121411904Y-53990761D01*
X124935714Y-52086000D02*
X124745238Y-51990761D01*
X124459523Y-51990761D01*
X124173809Y-52086000D01*
X123983333Y-52276476D01*
X123888095Y-52466952D01*
X123792857Y-52847904D01*
X123792857Y-53133619D01*
X123888095Y-53514571D01*
X123983333Y-53705047D01*
X124173809Y-53895523D01*
X124459523Y-53990761D01*
X124650000Y-53990761D01*
X124935714Y-53895523D01*
X125030952Y-53800285D01*
X125030952Y-53133619D01*
X124650000Y-53133619D01*
X125888095Y-53990761D02*
X125888095Y-52657428D01*
X125888095Y-51990761D02*
X125792857Y-52086000D01*
X125888095Y-52181238D01*
X125983333Y-52086000D01*
X125888095Y-51990761D01*
X125888095Y-52181238D01*
X127126190Y-53990761D02*
X126935714Y-53895523D01*
X126840476Y-53705047D01*
X126840476Y-51990761D01*
X128173809Y-53990761D02*
X127983333Y-53895523D01*
X127888095Y-53705047D01*
X127888095Y-51990761D01*
X128935714Y-53990761D02*
X128935714Y-52657428D01*
X128935714Y-51990761D02*
X128840476Y-52086000D01*
X128935714Y-52181238D01*
X129030952Y-52086000D01*
X128935714Y-51990761D01*
X128935714Y-52181238D01*
X129792857Y-53895523D02*
X129983333Y-53990761D01*
X130364285Y-53990761D01*
X130554761Y-53895523D01*
X130650000Y-53705047D01*
X130650000Y-53609809D01*
X130554761Y-53419333D01*
X130364285Y-53324095D01*
X130078571Y-53324095D01*
X129888095Y-53228857D01*
X129792857Y-53038380D01*
X129792857Y-52943142D01*
X129888095Y-52752666D01*
X130078571Y-52657428D01*
X130364285Y-52657428D01*
X130554761Y-52752666D01*
X131507142Y-52657428D02*
X131507142Y-54657428D01*
X131507142Y-52752666D02*
X131697619Y-52657428D01*
X132078571Y-52657428D01*
X132269047Y-52752666D01*
X132364285Y-52847904D01*
X132459523Y-53038380D01*
X132459523Y-53609809D01*
X132364285Y-53800285D01*
X132269047Y-53895523D01*
X132078571Y-53990761D01*
X131697619Y-53990761D01*
X131507142Y-53895523D01*
X133316666Y-53990761D02*
X133316666Y-52657428D01*
X133316666Y-51990761D02*
X133221428Y-52086000D01*
X133316666Y-52181238D01*
X133411904Y-52086000D01*
X133316666Y-51990761D01*
X133316666Y-52181238D01*
X135030952Y-53895523D02*
X134840476Y-53990761D01*
X134459523Y-53990761D01*
X134269047Y-53895523D01*
X134173809Y-53705047D01*
X134173809Y-52943142D01*
X134269047Y-52752666D01*
X134459523Y-52657428D01*
X134840476Y-52657428D01*
X135030952Y-52752666D01*
X135126190Y-52943142D01*
X135126190Y-53133619D01*
X134173809Y-53324095D01*
X137411904Y-52181238D02*
X137507142Y-52086000D01*
X137697619Y-51990761D01*
X138173809Y-51990761D01*
X138364285Y-52086000D01*
X138459523Y-52181238D01*
X138554761Y-52371714D01*
X138554761Y-52562190D01*
X138459523Y-52847904D01*
X137316666Y-53990761D01*
X138554761Y-53990761D01*
X139792857Y-51990761D02*
X139983333Y-51990761D01*
X140173809Y-52086000D01*
X140269047Y-52181238D01*
X140364285Y-52371714D01*
X140459523Y-52752666D01*
X140459523Y-53228857D01*
X140364285Y-53609809D01*
X140269047Y-53800285D01*
X140173809Y-53895523D01*
X139983333Y-53990761D01*
X139792857Y-53990761D01*
X139602380Y-53895523D01*
X139507142Y-53800285D01*
X139411904Y-53609809D01*
X139316666Y-53228857D01*
X139316666Y-52752666D01*
X139411904Y-52371714D01*
X139507142Y-52181238D01*
X139602380Y-52086000D01*
X139792857Y-51990761D01*
X141221428Y-52181238D02*
X141316666Y-52086000D01*
X141507142Y-51990761D01*
X141983333Y-51990761D01*
X142173809Y-52086000D01*
X142269047Y-52181238D01*
X142364285Y-52371714D01*
X142364285Y-52562190D01*
X142269047Y-52847904D01*
X141126190Y-53990761D01*
X142364285Y-53990761D01*
X144269047Y-53990761D02*
X143126190Y-53990761D01*
X143697619Y-53990761D02*
X143697619Y-51990761D01*
X143507142Y-52276476D01*
X143316666Y-52466952D01*
X143126190Y-52562190D01*
X176561333Y-53025904D02*
X176370857Y-52930666D01*
X176275619Y-52835428D01*
X176180380Y-52644952D01*
X176180380Y-52549714D01*
X176275619Y-52359238D01*
X176370857Y-52264000D01*
X176561333Y-52168761D01*
X176942285Y-52168761D01*
X177132761Y-52264000D01*
X177228000Y-52359238D01*
X177323238Y-52549714D01*
X177323238Y-52644952D01*
X177228000Y-52835428D01*
X177132761Y-52930666D01*
X176942285Y-53025904D01*
X176561333Y-53025904D01*
X176370857Y-53121142D01*
X176275619Y-53216380D01*
X176180380Y-53406857D01*
X176180380Y-53787809D01*
X176275619Y-53978285D01*
X176370857Y-54073523D01*
X176561333Y-54168761D01*
X176942285Y-54168761D01*
X177132761Y-54073523D01*
X177228000Y-53978285D01*
X177323238Y-53787809D01*
X177323238Y-53406857D01*
X177228000Y-53216380D01*
X177132761Y-53121142D01*
X176942285Y-53025904D01*
X178180380Y-53978285D02*
X178275619Y-54073523D01*
X178180380Y-54168761D01*
X178085142Y-54073523D01*
X178180380Y-53978285D01*
X178180380Y-54168761D01*
X178180380Y-52930666D02*
X178275619Y-53025904D01*
X178180380Y-53121142D01*
X178085142Y-53025904D01*
X178180380Y-52930666D01*
X178180380Y-53121142D01*
X180180380Y-54168761D02*
X179037523Y-54168761D01*
X179608952Y-54168761D02*
X179608952Y-52168761D01*
X179418476Y-52454476D01*
X179228000Y-52644952D01*
X179037523Y-52740190D01*
X182561333Y-52168761D02*
X182561333Y-53787809D01*
X182656571Y-53978285D01*
X182751809Y-54073523D01*
X182942285Y-54168761D01*
X183323238Y-54168761D01*
X183513714Y-54073523D01*
X183608952Y-53978285D01*
X183704190Y-53787809D01*
X183704190Y-52168761D01*
X184561333Y-53597333D02*
X185513714Y-53597333D01*
X184370857Y-54168761D02*
X185037523Y-52168761D01*
X185704190Y-54168761D01*
X187513714Y-54168761D02*
X186847047Y-53216380D01*
X186370857Y-54168761D02*
X186370857Y-52168761D01*
X187132761Y-52168761D01*
X187323238Y-52264000D01*
X187418476Y-52359238D01*
X187513714Y-52549714D01*
X187513714Y-52835428D01*
X187418476Y-53025904D01*
X187323238Y-53121142D01*
X187132761Y-53216380D01*
X186370857Y-53216380D01*
X188085142Y-52168761D02*
X189228000Y-52168761D01*
X188656571Y-54168761D02*
X188656571Y-52168761D01*
X191418476Y-54168761D02*
X191418476Y-52168761D01*
X192085142Y-53597333D01*
X192751809Y-52168761D01*
X192751809Y-54168761D01*
X193704190Y-52168761D02*
X193704190Y-53787809D01*
X193799428Y-53978285D01*
X193894666Y-54073523D01*
X194085142Y-54168761D01*
X194466095Y-54168761D01*
X194656571Y-54073523D01*
X194751809Y-53978285D01*
X194847047Y-53787809D01*
X194847047Y-52168761D01*
X195608952Y-52168761D02*
X196942285Y-54168761D01*
X196942285Y-52168761D02*
X195608952Y-54168761D01*
X191228000Y-56035428D02*
X191704190Y-57368761D01*
X192180380Y-56035428D01*
X193323238Y-55368761D02*
X193513714Y-55368761D01*
X193704190Y-55464000D01*
X193799428Y-55559238D01*
X193894666Y-55749714D01*
X193989904Y-56130666D01*
X193989904Y-56606857D01*
X193894666Y-56987809D01*
X193799428Y-57178285D01*
X193704190Y-57273523D01*
X193513714Y-57368761D01*
X193323238Y-57368761D01*
X193132761Y-57273523D01*
X193037523Y-57178285D01*
X192942285Y-56987809D01*
X192847047Y-56606857D01*
X192847047Y-56130666D01*
X192942285Y-55749714D01*
X193037523Y-55559238D01*
X193132761Y-55464000D01*
X193323238Y-55368761D01*
X194847047Y-57178285D02*
X194942285Y-57273523D01*
X194847047Y-57368761D01*
X194751809Y-57273523D01*
X194847047Y-57178285D01*
X194847047Y-57368761D01*
X196847047Y-57368761D02*
X195704190Y-57368761D01*
X196275619Y-57368761D02*
X196275619Y-55368761D01*
X196085142Y-55654476D01*
X195894666Y-55844952D01*
X195704190Y-55940190D01*
D11*
X190275214Y-83362095D02*
X191079976Y-83362095D01*
X190646642Y-83857333D01*
X190832357Y-83857333D01*
X190956166Y-83919238D01*
X191018071Y-83981142D01*
X191079976Y-84104952D01*
X191079976Y-84414476D01*
X191018071Y-84538285D01*
X190956166Y-84600190D01*
X190832357Y-84662095D01*
X190460928Y-84662095D01*
X190337119Y-84600190D01*
X190275214Y-84538285D01*
X191451404Y-83362095D02*
X191884738Y-84662095D01*
X192318071Y-83362095D01*
X192627595Y-83362095D02*
X193432357Y-83362095D01*
X192999023Y-83857333D01*
X193184738Y-83857333D01*
X193308547Y-83919238D01*
X193370452Y-83981142D01*
X193432357Y-84104952D01*
X193432357Y-84414476D01*
X193370452Y-84538285D01*
X193308547Y-84600190D01*
X193184738Y-84662095D01*
X192813309Y-84662095D01*
X192689500Y-84600190D01*
X192627595Y-84538285D01*
X190089500Y-85483000D02*
X191389500Y-85483000D01*
X191141880Y-87202095D02*
X190708547Y-86583047D01*
X190399023Y-87202095D02*
X190399023Y-85902095D01*
X190894261Y-85902095D01*
X191018071Y-85964000D01*
X191079976Y-86025904D01*
X191141880Y-86149714D01*
X191141880Y-86335428D01*
X191079976Y-86459238D01*
X191018071Y-86521142D01*
X190894261Y-86583047D01*
X190399023Y-86583047D01*
X191389500Y-85483000D02*
X192627595Y-85483000D01*
X191637119Y-87140190D02*
X191822833Y-87202095D01*
X192132357Y-87202095D01*
X192256166Y-87140190D01*
X192318071Y-87078285D01*
X192379976Y-86954476D01*
X192379976Y-86830666D01*
X192318071Y-86706857D01*
X192256166Y-86644952D01*
X192132357Y-86583047D01*
X191884738Y-86521142D01*
X191760928Y-86459238D01*
X191699023Y-86397333D01*
X191637119Y-86273523D01*
X191637119Y-86149714D01*
X191699023Y-86025904D01*
X191760928Y-85964000D01*
X191884738Y-85902095D01*
X192194261Y-85902095D01*
X192379976Y-85964000D01*
X192627595Y-85483000D02*
X193618071Y-85483000D01*
X192751404Y-85902095D02*
X193494261Y-85902095D01*
X193122833Y-87202095D02*
X193122833Y-85902095D01*
X190399023Y-89742095D02*
X190399023Y-88442095D01*
X190832357Y-89370666D01*
X191265690Y-88442095D01*
X191265690Y-89742095D01*
X192132357Y-88442095D02*
X192379976Y-88442095D01*
X192503785Y-88504000D01*
X192627595Y-88627809D01*
X192689500Y-88875428D01*
X192689500Y-89308761D01*
X192627595Y-89556380D01*
X192503785Y-89680190D01*
X192379976Y-89742095D01*
X192132357Y-89742095D01*
X192008547Y-89680190D01*
X191884738Y-89556380D01*
X191822833Y-89308761D01*
X191822833Y-88875428D01*
X191884738Y-88627809D01*
X192008547Y-88504000D01*
X192132357Y-88442095D01*
X193184738Y-89680190D02*
X193370452Y-89742095D01*
X193679976Y-89742095D01*
X193803785Y-89680190D01*
X193865690Y-89618285D01*
X193927595Y-89494476D01*
X193927595Y-89370666D01*
X193865690Y-89246857D01*
X193803785Y-89184952D01*
X193679976Y-89123047D01*
X193432357Y-89061142D01*
X193308547Y-88999238D01*
X193246642Y-88937333D01*
X193184738Y-88813523D01*
X193184738Y-88689714D01*
X193246642Y-88565904D01*
X193308547Y-88504000D01*
X193432357Y-88442095D01*
X193741880Y-88442095D01*
X193927595Y-88504000D01*
X194484738Y-89742095D02*
X194484738Y-88442095D01*
X190399023Y-92282095D02*
X190399023Y-90982095D01*
X191760928Y-92282095D02*
X191327595Y-91663047D01*
X191018071Y-92282095D02*
X191018071Y-90982095D01*
X191513309Y-90982095D01*
X191637119Y-91044000D01*
X191699023Y-91105904D01*
X191760928Y-91229714D01*
X191760928Y-91415428D01*
X191699023Y-91539238D01*
X191637119Y-91601142D01*
X191513309Y-91663047D01*
X191018071Y-91663047D01*
X193184738Y-92405904D02*
X193060928Y-92344000D01*
X192937119Y-92220190D01*
X192751404Y-92034476D01*
X192627595Y-91972571D01*
X192503785Y-91972571D01*
X192565690Y-92282095D02*
X192441880Y-92220190D01*
X192318071Y-92096380D01*
X192256166Y-91848761D01*
X192256166Y-91415428D01*
X192318071Y-91167809D01*
X192441880Y-91044000D01*
X192565690Y-90982095D01*
X192813309Y-90982095D01*
X192937119Y-91044000D01*
X193060928Y-91167809D01*
X193122833Y-91415428D01*
X193122833Y-91848761D01*
X193060928Y-92096380D01*
X192937119Y-92220190D01*
X192813309Y-92282095D01*
X192565690Y-92282095D01*
X179149261Y-92282095D02*
X179149261Y-90982095D01*
X179582595Y-91910666D01*
X180015928Y-90982095D01*
X180015928Y-92282095D01*
X180634976Y-92282095D02*
X180634976Y-90982095D01*
X181192119Y-92220190D02*
X181377833Y-92282095D01*
X181687357Y-92282095D01*
X181811166Y-92220190D01*
X181873071Y-92158285D01*
X181934976Y-92034476D01*
X181934976Y-91910666D01*
X181873071Y-91786857D01*
X181811166Y-91724952D01*
X181687357Y-91663047D01*
X181439738Y-91601142D01*
X181315928Y-91539238D01*
X181254023Y-91477333D01*
X181192119Y-91353523D01*
X181192119Y-91229714D01*
X181254023Y-91105904D01*
X181315928Y-91044000D01*
X181439738Y-90982095D01*
X181749261Y-90982095D01*
X181934976Y-91044000D01*
X182739738Y-90982095D02*
X182987357Y-90982095D01*
X183111166Y-91044000D01*
X183234976Y-91167809D01*
X183296880Y-91415428D01*
X183296880Y-91848761D01*
X183234976Y-92096380D01*
X183111166Y-92220190D01*
X182987357Y-92282095D01*
X182739738Y-92282095D01*
X182615928Y-92220190D01*
X182492119Y-92096380D01*
X182430214Y-91848761D01*
X182430214Y-91415428D01*
X182492119Y-91167809D01*
X182615928Y-91044000D01*
X182739738Y-90982095D01*
X179954023Y-89680190D02*
X180139738Y-89742095D01*
X180449261Y-89742095D01*
X180573071Y-89680190D01*
X180634976Y-89618285D01*
X180696880Y-89494476D01*
X180696880Y-89370666D01*
X180634976Y-89246857D01*
X180573071Y-89184952D01*
X180449261Y-89123047D01*
X180201642Y-89061142D01*
X180077833Y-88999238D01*
X180015928Y-88937333D01*
X179954023Y-88813523D01*
X179954023Y-88689714D01*
X180015928Y-88565904D01*
X180077833Y-88504000D01*
X180201642Y-88442095D01*
X180511166Y-88442095D01*
X180696880Y-88504000D01*
X181996880Y-89618285D02*
X181934976Y-89680190D01*
X181749261Y-89742095D01*
X181625452Y-89742095D01*
X181439738Y-89680190D01*
X181315928Y-89556380D01*
X181254023Y-89432571D01*
X181192119Y-89184952D01*
X181192119Y-88999238D01*
X181254023Y-88751619D01*
X181315928Y-88627809D01*
X181439738Y-88504000D01*
X181625452Y-88442095D01*
X181749261Y-88442095D01*
X181934976Y-88504000D01*
X181996880Y-88565904D01*
X182554023Y-89742095D02*
X182554023Y-88442095D01*
X183296880Y-89742095D02*
X182739738Y-88999238D01*
X183296880Y-88442095D02*
X182554023Y-89184952D01*
X182120690Y-87078285D02*
X182058785Y-87140190D01*
X181873071Y-87202095D01*
X181749261Y-87202095D01*
X181563547Y-87140190D01*
X181439738Y-87016380D01*
X181377833Y-86892571D01*
X181315928Y-86644952D01*
X181315928Y-86459238D01*
X181377833Y-86211619D01*
X181439738Y-86087809D01*
X181563547Y-85964000D01*
X181749261Y-85902095D01*
X181873071Y-85902095D01*
X182058785Y-85964000D01*
X182120690Y-86025904D01*
X182677833Y-86521142D02*
X183111166Y-86521142D01*
X183296880Y-87202095D02*
X182677833Y-87202095D01*
X182677833Y-85902095D01*
X183296880Y-85902095D01*
X180573071Y-83424000D02*
X180449261Y-83362095D01*
X180263547Y-83362095D01*
X180077833Y-83424000D01*
X179954023Y-83547809D01*
X179892119Y-83671619D01*
X179830214Y-83919238D01*
X179830214Y-84104952D01*
X179892119Y-84352571D01*
X179954023Y-84476380D01*
X180077833Y-84600190D01*
X180263547Y-84662095D01*
X180387357Y-84662095D01*
X180573071Y-84600190D01*
X180634976Y-84538285D01*
X180634976Y-84104952D01*
X180387357Y-84104952D01*
X181192119Y-84662095D02*
X181192119Y-83362095D01*
X181934976Y-84662095D01*
X181934976Y-83362095D01*
X182554023Y-84662095D02*
X182554023Y-83362095D01*
X182863547Y-83362095D01*
X183049261Y-83424000D01*
X183173071Y-83547809D01*
X183234976Y-83671619D01*
X183296880Y-83919238D01*
X183296880Y-84104952D01*
X183234976Y-84352571D01*
X183173071Y-84476380D01*
X183049261Y-84600190D01*
X182863547Y-84662095D01*
X182554023Y-84662095D01*
X128083571Y-146829642D02*
X128083571Y-145972500D01*
X129583571Y-146401071D02*
X128083571Y-146401071D01*
X128083571Y-145615357D02*
X129583571Y-144615357D01*
X128083571Y-144615357D02*
X129583571Y-145615357D01*
X128083571Y-144186785D02*
X128083571Y-143186785D01*
X129583571Y-143829642D01*
X138497571Y-146829642D02*
X138497571Y-145972500D01*
X139997571Y-146401071D02*
X138497571Y-146401071D01*
X138497571Y-145615357D02*
X139997571Y-144615357D01*
X138497571Y-144615357D02*
X139997571Y-145615357D01*
X138497571Y-143329642D02*
X138497571Y-144043928D01*
X139211857Y-144115357D01*
X139140428Y-144043928D01*
X139069000Y-143901071D01*
X139069000Y-143543928D01*
X139140428Y-143401071D01*
X139211857Y-143329642D01*
X139354714Y-143258214D01*
X139711857Y-143258214D01*
X139854714Y-143329642D01*
X139926142Y-143401071D01*
X139997571Y-143543928D01*
X139997571Y-143901071D01*
X139926142Y-144043928D01*
X139854714Y-144115357D01*
X142537571Y-146115357D02*
X141823285Y-146615357D01*
X142537571Y-146972500D02*
X141037571Y-146972500D01*
X141037571Y-146401071D01*
X141109000Y-146258214D01*
X141180428Y-146186785D01*
X141323285Y-146115357D01*
X141537571Y-146115357D01*
X141680428Y-146186785D01*
X141751857Y-146258214D01*
X141823285Y-146401071D01*
X141823285Y-146972500D01*
X141037571Y-145615357D02*
X142537571Y-144615357D01*
X141037571Y-144615357D02*
X142537571Y-145615357D01*
X141037571Y-143329642D02*
X141037571Y-144043928D01*
X141751857Y-144115357D01*
X141680428Y-144043928D01*
X141609000Y-143901071D01*
X141609000Y-143543928D01*
X141680428Y-143401071D01*
X141751857Y-143329642D01*
X141894714Y-143258214D01*
X142251857Y-143258214D01*
X142394714Y-143329642D01*
X142466142Y-143401071D01*
X142537571Y-143543928D01*
X142537571Y-143901071D01*
X142466142Y-144043928D01*
X142394714Y-144115357D01*
X125543571Y-148615357D02*
X127043571Y-148115357D01*
X125543571Y-147615357D01*
X126257857Y-146615357D02*
X126329285Y-146401071D01*
X126400714Y-146329642D01*
X126543571Y-146258214D01*
X126757857Y-146258214D01*
X126900714Y-146329642D01*
X126972142Y-146401071D01*
X127043571Y-146543928D01*
X127043571Y-147115357D01*
X125543571Y-147115357D01*
X125543571Y-146615357D01*
X125615000Y-146472500D01*
X125686428Y-146401071D01*
X125829285Y-146329642D01*
X125972142Y-146329642D01*
X126115000Y-146401071D01*
X126186428Y-146472500D01*
X126257857Y-146615357D01*
X126257857Y-147115357D01*
X125543571Y-145615357D02*
X126757857Y-145615357D01*
X126900714Y-145543928D01*
X126972142Y-145472500D01*
X127043571Y-145329642D01*
X127043571Y-145043928D01*
X126972142Y-144901071D01*
X126900714Y-144829642D01*
X126757857Y-144758214D01*
X125543571Y-144758214D01*
X126972142Y-144115357D02*
X127043571Y-143901071D01*
X127043571Y-143543928D01*
X126972142Y-143401071D01*
X126900714Y-143329642D01*
X126757857Y-143258214D01*
X126615000Y-143258214D01*
X126472142Y-143329642D01*
X126400714Y-143401071D01*
X126329285Y-143543928D01*
X126257857Y-143829642D01*
X126186428Y-143972500D01*
X126115000Y-144043928D01*
X125972142Y-144115357D01*
X125829285Y-144115357D01*
X125686428Y-144043928D01*
X125615000Y-143972500D01*
X125543571Y-143829642D01*
X125543571Y-143472500D01*
X125615000Y-143258214D01*
X143577571Y-146829642D02*
X143577571Y-145972500D01*
X145077571Y-146401071D02*
X143577571Y-146401071D01*
X143577571Y-145615357D02*
X145077571Y-144615357D01*
X143577571Y-144615357D02*
X145077571Y-145615357D01*
X144077571Y-143401071D02*
X145077571Y-143401071D01*
X143506142Y-143758214D02*
X144577571Y-144115357D01*
X144577571Y-143186785D01*
X147617571Y-146115357D02*
X146903285Y-146615357D01*
X147617571Y-146972500D02*
X146117571Y-146972500D01*
X146117571Y-146401071D01*
X146189000Y-146258214D01*
X146260428Y-146186785D01*
X146403285Y-146115357D01*
X146617571Y-146115357D01*
X146760428Y-146186785D01*
X146831857Y-146258214D01*
X146903285Y-146401071D01*
X146903285Y-146972500D01*
X146117571Y-145615357D02*
X147617571Y-144615357D01*
X146117571Y-144615357D02*
X147617571Y-145615357D01*
X146617571Y-143401071D02*
X147617571Y-143401071D01*
X146046142Y-143758214D02*
X147117571Y-144115357D01*
X147117571Y-143186785D01*
X132123571Y-146115357D02*
X131409285Y-146615357D01*
X132123571Y-146972500D02*
X130623571Y-146972500D01*
X130623571Y-146401071D01*
X130695000Y-146258214D01*
X130766428Y-146186785D01*
X130909285Y-146115357D01*
X131123571Y-146115357D01*
X131266428Y-146186785D01*
X131337857Y-146258214D01*
X131409285Y-146401071D01*
X131409285Y-146972500D01*
X130623571Y-145615357D02*
X132123571Y-144615357D01*
X130623571Y-144615357D02*
X132123571Y-145615357D01*
X130623571Y-144186785D02*
X130623571Y-143186785D01*
X132123571Y-143829642D01*
X133163571Y-146829642D02*
X133163571Y-145972500D01*
X134663571Y-146401071D02*
X133163571Y-146401071D01*
X133163571Y-145615357D02*
X134663571Y-144615357D01*
X133163571Y-144615357D02*
X134663571Y-145615357D01*
X133163571Y-143401071D02*
X133163571Y-143686785D01*
X133235000Y-143829642D01*
X133306428Y-143901071D01*
X133520714Y-144043928D01*
X133806428Y-144115357D01*
X134377857Y-144115357D01*
X134520714Y-144043928D01*
X134592142Y-143972500D01*
X134663571Y-143829642D01*
X134663571Y-143543928D01*
X134592142Y-143401071D01*
X134520714Y-143329642D01*
X134377857Y-143258214D01*
X134020714Y-143258214D01*
X133877857Y-143329642D01*
X133806428Y-143401071D01*
X133735000Y-143543928D01*
X133735000Y-143829642D01*
X133806428Y-143972500D01*
X133877857Y-144043928D01*
X134020714Y-144115357D01*
X137457571Y-146115357D02*
X136743285Y-146615357D01*
X137457571Y-146972500D02*
X135957571Y-146972500D01*
X135957571Y-146401071D01*
X136029000Y-146258214D01*
X136100428Y-146186785D01*
X136243285Y-146115357D01*
X136457571Y-146115357D01*
X136600428Y-146186785D01*
X136671857Y-146258214D01*
X136743285Y-146401071D01*
X136743285Y-146972500D01*
X135957571Y-145615357D02*
X137457571Y-144615357D01*
X135957571Y-144615357D02*
X137457571Y-145615357D01*
X135957571Y-143401071D02*
X135957571Y-143686785D01*
X136029000Y-143829642D01*
X136100428Y-143901071D01*
X136314714Y-144043928D01*
X136600428Y-144115357D01*
X137171857Y-144115357D01*
X137314714Y-144043928D01*
X137386142Y-143972500D01*
X137457571Y-143829642D01*
X137457571Y-143543928D01*
X137386142Y-143401071D01*
X137314714Y-143329642D01*
X137171857Y-143258214D01*
X136814714Y-143258214D01*
X136671857Y-143329642D01*
X136600428Y-143401071D01*
X136529000Y-143543928D01*
X136529000Y-143829642D01*
X136600428Y-143972500D01*
X136671857Y-144043928D01*
X136814714Y-144115357D01*
X148729000Y-146401071D02*
X148657571Y-146543928D01*
X148657571Y-146758214D01*
X148729000Y-146972500D01*
X148871857Y-147115357D01*
X149014714Y-147186785D01*
X149300428Y-147258214D01*
X149514714Y-147258214D01*
X149800428Y-147186785D01*
X149943285Y-147115357D01*
X150086142Y-146972500D01*
X150157571Y-146758214D01*
X150157571Y-146615357D01*
X150086142Y-146401071D01*
X150014714Y-146329642D01*
X149514714Y-146329642D01*
X149514714Y-146615357D01*
X150157571Y-145686785D02*
X148657571Y-145686785D01*
X150157571Y-144829642D01*
X148657571Y-144829642D01*
X150157571Y-144115357D02*
X148657571Y-144115357D01*
X148657571Y-143758214D01*
X148729000Y-143543928D01*
X148871857Y-143401071D01*
X149014714Y-143329642D01*
X149300428Y-143258214D01*
X149514714Y-143258214D01*
X149800428Y-143329642D01*
X149943285Y-143401071D01*
X150086142Y-143543928D01*
X150157571Y-143758214D01*
X150157571Y-144115357D01*
X177685000Y-146274071D02*
X177613571Y-146416928D01*
X177613571Y-146631214D01*
X177685000Y-146845500D01*
X177827857Y-146988357D01*
X177970714Y-147059785D01*
X178256428Y-147131214D01*
X178470714Y-147131214D01*
X178756428Y-147059785D01*
X178899285Y-146988357D01*
X179042142Y-146845500D01*
X179113571Y-146631214D01*
X179113571Y-146488357D01*
X179042142Y-146274071D01*
X178970714Y-146202642D01*
X178470714Y-146202642D01*
X178470714Y-146488357D01*
X179113571Y-145559785D02*
X177613571Y-145559785D01*
X179113571Y-144702642D01*
X177613571Y-144702642D01*
X179113571Y-143988357D02*
X177613571Y-143988357D01*
X177613571Y-143631214D01*
X177685000Y-143416928D01*
X177827857Y-143274071D01*
X177970714Y-143202642D01*
X178256428Y-143131214D01*
X178470714Y-143131214D01*
X178756428Y-143202642D01*
X178899285Y-143274071D01*
X179042142Y-143416928D01*
X179113571Y-143631214D01*
X179113571Y-143988357D01*
X167453571Y-146702642D02*
X167453571Y-145845500D01*
X168953571Y-146274071D02*
X167453571Y-146274071D01*
X167453571Y-145488357D02*
X168953571Y-144488357D01*
X167453571Y-144488357D02*
X168953571Y-145488357D01*
X168953571Y-143131214D02*
X168953571Y-143988357D01*
X168953571Y-143559785D02*
X167453571Y-143559785D01*
X167667857Y-143702642D01*
X167810714Y-143845500D01*
X167882142Y-143988357D01*
X171493571Y-145988357D02*
X170779285Y-146488357D01*
X171493571Y-146845500D02*
X169993571Y-146845500D01*
X169993571Y-146274071D01*
X170065000Y-146131214D01*
X170136428Y-146059785D01*
X170279285Y-145988357D01*
X170493571Y-145988357D01*
X170636428Y-146059785D01*
X170707857Y-146131214D01*
X170779285Y-146274071D01*
X170779285Y-146845500D01*
X169993571Y-145488357D02*
X171493571Y-144488357D01*
X169993571Y-144488357D02*
X171493571Y-145488357D01*
X171493571Y-143131214D02*
X171493571Y-143988357D01*
X171493571Y-143559785D02*
X169993571Y-143559785D01*
X170207857Y-143702642D01*
X170350714Y-143845500D01*
X170422142Y-143988357D01*
X172533571Y-146702642D02*
X172533571Y-145845500D01*
X174033571Y-146274071D02*
X172533571Y-146274071D01*
X172533571Y-145488357D02*
X174033571Y-144488357D01*
X172533571Y-144488357D02*
X174033571Y-145488357D01*
X172533571Y-143631214D02*
X172533571Y-143488357D01*
X172605000Y-143345500D01*
X172676428Y-143274071D01*
X172819285Y-143202642D01*
X173105000Y-143131214D01*
X173462142Y-143131214D01*
X173747857Y-143202642D01*
X173890714Y-143274071D01*
X173962142Y-143345500D01*
X174033571Y-143488357D01*
X174033571Y-143631214D01*
X173962142Y-143774071D01*
X173890714Y-143845500D01*
X173747857Y-143916928D01*
X173462142Y-143988357D01*
X173105000Y-143988357D01*
X172819285Y-143916928D01*
X172676428Y-143845500D01*
X172605000Y-143774071D01*
X172533571Y-143631214D01*
X176573571Y-145988357D02*
X175859285Y-146488357D01*
X176573571Y-146845500D02*
X175073571Y-146845500D01*
X175073571Y-146274071D01*
X175145000Y-146131214D01*
X175216428Y-146059785D01*
X175359285Y-145988357D01*
X175573571Y-145988357D01*
X175716428Y-146059785D01*
X175787857Y-146131214D01*
X175859285Y-146274071D01*
X175859285Y-146845500D01*
X175073571Y-145488357D02*
X176573571Y-144488357D01*
X175073571Y-144488357D02*
X176573571Y-145488357D01*
X175073571Y-143631214D02*
X175073571Y-143488357D01*
X175145000Y-143345500D01*
X175216428Y-143274071D01*
X175359285Y-143202642D01*
X175645000Y-143131214D01*
X176002142Y-143131214D01*
X176287857Y-143202642D01*
X176430714Y-143274071D01*
X176502142Y-143345500D01*
X176573571Y-143488357D01*
X176573571Y-143631214D01*
X176502142Y-143774071D01*
X176430714Y-143845500D01*
X176287857Y-143916928D01*
X176002142Y-143988357D01*
X175645000Y-143988357D01*
X175359285Y-143916928D01*
X175216428Y-143845500D01*
X175145000Y-143774071D01*
X175073571Y-143631214D01*
X162119571Y-146702642D02*
X162119571Y-145845500D01*
X163619571Y-146274071D02*
X162119571Y-146274071D01*
X162119571Y-145488357D02*
X163619571Y-144488357D01*
X162119571Y-144488357D02*
X163619571Y-145488357D01*
X162262428Y-143988357D02*
X162191000Y-143916928D01*
X162119571Y-143774071D01*
X162119571Y-143416928D01*
X162191000Y-143274071D01*
X162262428Y-143202642D01*
X162405285Y-143131214D01*
X162548142Y-143131214D01*
X162762428Y-143202642D01*
X163619571Y-144059785D01*
X163619571Y-143131214D01*
X166413571Y-145988357D02*
X165699285Y-146488357D01*
X166413571Y-146845500D02*
X164913571Y-146845500D01*
X164913571Y-146274071D01*
X164985000Y-146131214D01*
X165056428Y-146059785D01*
X165199285Y-145988357D01*
X165413571Y-145988357D01*
X165556428Y-146059785D01*
X165627857Y-146131214D01*
X165699285Y-146274071D01*
X165699285Y-146845500D01*
X164913571Y-145488357D02*
X166413571Y-144488357D01*
X164913571Y-144488357D02*
X166413571Y-145488357D01*
X165056428Y-143988357D02*
X164985000Y-143916928D01*
X164913571Y-143774071D01*
X164913571Y-143416928D01*
X164985000Y-143274071D01*
X165056428Y-143202642D01*
X165199285Y-143131214D01*
X165342142Y-143131214D01*
X165556428Y-143202642D01*
X166413571Y-144059785D01*
X166413571Y-143131214D01*
X161079571Y-145988357D02*
X160365285Y-146488357D01*
X161079571Y-146845500D02*
X159579571Y-146845500D01*
X159579571Y-146274071D01*
X159651000Y-146131214D01*
X159722428Y-146059785D01*
X159865285Y-145988357D01*
X160079571Y-145988357D01*
X160222428Y-146059785D01*
X160293857Y-146131214D01*
X160365285Y-146274071D01*
X160365285Y-146845500D01*
X159579571Y-145488357D02*
X161079571Y-144488357D01*
X159579571Y-144488357D02*
X161079571Y-145488357D01*
X159579571Y-144059785D02*
X159579571Y-143131214D01*
X160151000Y-143631214D01*
X160151000Y-143416928D01*
X160222428Y-143274071D01*
X160293857Y-143202642D01*
X160436714Y-143131214D01*
X160793857Y-143131214D01*
X160936714Y-143202642D01*
X161008142Y-143274071D01*
X161079571Y-143416928D01*
X161079571Y-143845500D01*
X161008142Y-143988357D01*
X160936714Y-144059785D01*
X157039571Y-146702642D02*
X157039571Y-145845500D01*
X158539571Y-146274071D02*
X157039571Y-146274071D01*
X157039571Y-145488357D02*
X158539571Y-144488357D01*
X157039571Y-144488357D02*
X158539571Y-145488357D01*
X157039571Y-144059785D02*
X157039571Y-143131214D01*
X157611000Y-143631214D01*
X157611000Y-143416928D01*
X157682428Y-143274071D01*
X157753857Y-143202642D01*
X157896714Y-143131214D01*
X158253857Y-143131214D01*
X158396714Y-143202642D01*
X158468142Y-143274071D01*
X158539571Y-143416928D01*
X158539571Y-143845500D01*
X158468142Y-143988357D01*
X158396714Y-144059785D01*
X154499571Y-148488357D02*
X155999571Y-147988357D01*
X154499571Y-147488357D01*
X155213857Y-146488357D02*
X155285285Y-146274071D01*
X155356714Y-146202642D01*
X155499571Y-146131214D01*
X155713857Y-146131214D01*
X155856714Y-146202642D01*
X155928142Y-146274071D01*
X155999571Y-146416928D01*
X155999571Y-146988357D01*
X154499571Y-146988357D01*
X154499571Y-146488357D01*
X154571000Y-146345500D01*
X154642428Y-146274071D01*
X154785285Y-146202642D01*
X154928142Y-146202642D01*
X155071000Y-146274071D01*
X155142428Y-146345500D01*
X155213857Y-146488357D01*
X155213857Y-146988357D01*
X154499571Y-145488357D02*
X155713857Y-145488357D01*
X155856714Y-145416928D01*
X155928142Y-145345500D01*
X155999571Y-145202642D01*
X155999571Y-144916928D01*
X155928142Y-144774071D01*
X155856714Y-144702642D01*
X155713857Y-144631214D01*
X154499571Y-144631214D01*
X155928142Y-143988357D02*
X155999571Y-143774071D01*
X155999571Y-143416928D01*
X155928142Y-143274071D01*
X155856714Y-143202642D01*
X155713857Y-143131214D01*
X155571000Y-143131214D01*
X155428142Y-143202642D01*
X155356714Y-143274071D01*
X155285285Y-143416928D01*
X155213857Y-143702642D01*
X155142428Y-143845500D01*
X155071000Y-143916928D01*
X154928142Y-143988357D01*
X154785285Y-143988357D01*
X154642428Y-143916928D01*
X154571000Y-143845500D01*
X154499571Y-143702642D01*
X154499571Y-143345500D01*
X154571000Y-143131214D01*
D13*
X117400000Y-58800000D02*
X117400000Y-50700000D01*
X105700000Y-58800000D02*
X117400000Y-58800000D01*
D14*
X109433333Y-57704761D02*
X109433333Y-55704761D01*
X110195238Y-55704761D01*
X110385714Y-55800000D01*
X110480952Y-55895238D01*
X110576190Y-56085714D01*
X110576190Y-56371428D01*
X110480952Y-56561904D01*
X110385714Y-56657142D01*
X110195238Y-56752380D01*
X109433333Y-56752380D01*
X111242857Y-55704761D02*
X111719047Y-57704761D01*
X112100000Y-56276190D01*
X112480952Y-57704761D01*
X112957142Y-55704761D01*
X114861904Y-57704761D02*
X114195238Y-56752380D01*
X113719047Y-57704761D02*
X113719047Y-55704761D01*
X114480952Y-55704761D01*
X114671428Y-55800000D01*
X114766666Y-55895238D01*
X114861904Y-56085714D01*
X114861904Y-56371428D01*
X114766666Y-56561904D01*
X114671428Y-56657142D01*
X114480952Y-56752380D01*
X113719047Y-56752380D01*
D13*
X174410900Y-118448858D02*
X174410900Y-117974342D01*
X173365900Y-118448858D02*
X173365900Y-117974342D01*
X161546000Y-124150000D02*
X163006000Y-124150000D01*
X161546000Y-127310000D02*
X163706000Y-127310000D01*
X161546000Y-127310000D02*
X161546000Y-126380000D01*
X161546000Y-124150000D02*
X161546000Y-125080000D01*
X149862000Y-124150000D02*
X151322000Y-124150000D01*
X149862000Y-127310000D02*
X152022000Y-127310000D01*
X149862000Y-127310000D02*
X149862000Y-126380000D01*
X149862000Y-124150000D02*
X149862000Y-125080000D01*
X134672800Y-124251600D02*
X136132800Y-124251600D01*
X134672800Y-127411600D02*
X136832800Y-127411600D01*
X134672800Y-127411600D02*
X134672800Y-126481600D01*
X134672800Y-124251600D02*
X134672800Y-125181600D01*
X177598800Y-124150000D02*
X179058800Y-124150000D01*
X177598800Y-127310000D02*
X179758800Y-127310000D01*
X177598800Y-127310000D02*
X177598800Y-126380000D01*
X177598800Y-124150000D02*
X177598800Y-125080000D01*
X169616000Y-125270800D02*
X169616000Y-123810800D01*
X172776000Y-125270800D02*
X172776000Y-123110800D01*
X172776000Y-125270800D02*
X171846000Y-125270800D01*
X169616000Y-125270800D02*
X170546000Y-125270800D01*
X153512400Y-125270800D02*
X153512400Y-123810800D01*
X156672400Y-125270800D02*
X156672400Y-123110800D01*
X156672400Y-125270800D02*
X155742400Y-125270800D01*
X153512400Y-125270800D02*
X154442400Y-125270800D01*
X141422000Y-125270800D02*
X141422000Y-123810800D01*
X144582000Y-125270800D02*
X144582000Y-123110800D01*
X144582000Y-125270800D02*
X143652000Y-125270800D01*
X141422000Y-125270800D02*
X142352000Y-125270800D01*
X126080400Y-125270800D02*
X126080400Y-123810800D01*
X129240400Y-125270800D02*
X129240400Y-123110800D01*
X129240400Y-125270800D02*
X128310400Y-125270800D01*
X126080400Y-125270800D02*
X127010400Y-125270800D01*
X181866000Y-124150000D02*
X183326000Y-124150000D01*
X181866000Y-127310000D02*
X184026000Y-127310000D01*
X181866000Y-127310000D02*
X181866000Y-126380000D01*
X181866000Y-124150000D02*
X181866000Y-125080000D01*
X165762400Y-124150000D02*
X167222400Y-124150000D01*
X165762400Y-127310000D02*
X167922400Y-127310000D01*
X165762400Y-127310000D02*
X165762400Y-126380000D01*
X165762400Y-124150000D02*
X165762400Y-125080000D01*
X145848800Y-124150000D02*
X147308800Y-124150000D01*
X145848800Y-127310000D02*
X148008800Y-127310000D01*
X145848800Y-127310000D02*
X145848800Y-126380000D01*
X145848800Y-124150000D02*
X145848800Y-125080000D01*
X173222800Y-125270800D02*
X173222800Y-123810800D01*
X176382800Y-125270800D02*
X176382800Y-123110800D01*
X176382800Y-125270800D02*
X175452800Y-125270800D01*
X173222800Y-125270800D02*
X174152800Y-125270800D01*
X157119200Y-125270800D02*
X157119200Y-123810800D01*
X160279200Y-125270800D02*
X160279200Y-123110800D01*
X160279200Y-125270800D02*
X159349200Y-125270800D01*
X157119200Y-125270800D02*
X158049200Y-125270800D01*
X137713600Y-125270800D02*
X137713600Y-123810800D01*
X140873600Y-125270800D02*
X140873600Y-123110800D01*
X140873600Y-125270800D02*
X139943600Y-125270800D01*
X137713600Y-125270800D02*
X138643600Y-125270800D01*
X122473600Y-125270800D02*
X123403600Y-125270800D01*
X125633600Y-125270800D02*
X124703600Y-125270800D01*
X125633600Y-125270800D02*
X125633600Y-123110800D01*
X122473600Y-125270800D02*
X122473600Y-123810800D01*
X112315000Y-54485000D02*
X114800000Y-54485000D01*
X112315000Y-53115000D02*
X112315000Y-54485000D01*
X114800000Y-53115000D02*
X112315000Y-53115000D01*
X127470000Y-68370000D02*
X128800000Y-68370000D01*
X127470000Y-69700000D02*
X127470000Y-68370000D01*
X127470000Y-70970000D02*
X130130000Y-70970000D01*
X130130000Y-70970000D02*
X130130000Y-88810000D01*
X127470000Y-70970000D02*
X127470000Y-88810000D01*
X127470000Y-88810000D02*
X130130000Y-88810000D01*
X127470000Y-91950000D02*
X128800000Y-91950000D01*
X127470000Y-93280000D02*
X127470000Y-91950000D01*
X127470000Y-94550000D02*
X130130000Y-94550000D01*
X130130000Y-94550000D02*
X130130000Y-107310000D01*
X127470000Y-94550000D02*
X127470000Y-107310000D01*
X127470000Y-107310000D02*
X130130000Y-107310000D01*
X175730000Y-59960000D02*
X177060000Y-59960000D01*
X175730000Y-61290000D02*
X175730000Y-59960000D01*
X175730000Y-62560000D02*
X178390000Y-62560000D01*
X178390000Y-62560000D02*
X178390000Y-85480000D01*
X175730000Y-62560000D02*
X175730000Y-85480000D01*
X175730000Y-85480000D02*
X178390000Y-85480000D01*
X175730000Y-107310000D02*
X178390000Y-107310000D01*
X175730000Y-89470000D02*
X175730000Y-107310000D01*
X178390000Y-89470000D02*
X178390000Y-107310000D01*
X175730000Y-89470000D02*
X178390000Y-89470000D01*
X175730000Y-88200000D02*
X175730000Y-86870000D01*
X175730000Y-86870000D02*
X177060000Y-86870000D01*
X124827000Y-141623000D02*
X150927000Y-141623000D01*
X124827000Y-136523000D02*
X150927000Y-136523000D01*
X124827000Y-135403000D02*
X150927000Y-135403000D01*
X124827000Y-142143000D02*
X150927000Y-142143000D01*
X124827000Y-135403000D02*
X124827000Y-142143000D01*
X150927000Y-135403000D02*
X150927000Y-142143000D01*
X124587000Y-141743000D02*
X124587000Y-142383000D01*
X124587000Y-142383000D02*
X124987000Y-142383000D01*
X153507000Y-142356000D02*
X153907000Y-142356000D01*
X153507000Y-141716000D02*
X153507000Y-142356000D01*
X179847000Y-135376000D02*
X179847000Y-142116000D01*
X153747000Y-135376000D02*
X153747000Y-142116000D01*
X153747000Y-142116000D02*
X179847000Y-142116000D01*
X153747000Y-135376000D02*
X179847000Y-135376000D01*
X153747000Y-136496000D02*
X179847000Y-136496000D01*
X153747000Y-141596000D02*
X179847000Y-141596000D01*
X136920500Y-118448858D02*
X136920500Y-117974342D01*
X135875500Y-118448858D02*
X135875500Y-117974342D01*
X151115500Y-118499658D02*
X151115500Y-118025142D01*
X152160500Y-118499658D02*
X152160500Y-118025142D01*
X162748700Y-118448858D02*
X162748700Y-117974342D01*
X163793700Y-118448858D02*
X163793700Y-117974342D01*
X178852300Y-118398058D02*
X178852300Y-117923542D01*
X179897300Y-118398058D02*
X179897300Y-117923542D01*
X131760700Y-118448858D02*
X131760700Y-117974342D01*
X132805700Y-118448858D02*
X132805700Y-117974342D01*
X148096500Y-118499658D02*
X148096500Y-118025142D01*
X147051500Y-118499658D02*
X147051500Y-118025142D01*
X167015900Y-118448858D02*
X167015900Y-117974342D01*
X168060900Y-118448858D02*
X168060900Y-117974342D01*
X183119500Y-118398058D02*
X183119500Y-117923542D01*
X184164500Y-118398058D02*
X184164500Y-117923542D01*
X126223500Y-118448858D02*
X126223500Y-117974342D01*
X127268500Y-118448858D02*
X127268500Y-117974342D01*
X142610100Y-118448858D02*
X142610100Y-117974342D01*
X141565100Y-118448858D02*
X141565100Y-117974342D01*
X154649700Y-118499658D02*
X154649700Y-118025142D01*
X153604700Y-118499658D02*
X153604700Y-118025142D01*
X170804100Y-118448858D02*
X170804100Y-117974342D01*
X169759100Y-118448858D02*
X169759100Y-117974342D01*
X123661700Y-118448858D02*
X123661700Y-117974342D01*
X122616700Y-118448858D02*
X122616700Y-117974342D01*
X138901700Y-118448858D02*
X138901700Y-117974342D01*
X137856700Y-118448858D02*
X137856700Y-117974342D01*
X158256500Y-118448858D02*
X158256500Y-117974342D01*
X157211500Y-118448858D02*
X157211500Y-117974342D01*
X127016742Y-130316500D02*
X127491258Y-130316500D01*
X127016742Y-129271500D02*
X127491258Y-129271500D01*
X140859742Y-129144500D02*
X141334258Y-129144500D01*
X140859742Y-130189500D02*
X141334258Y-130189500D01*
X156353742Y-129144500D02*
X156828258Y-129144500D01*
X156353742Y-130189500D02*
X156828258Y-130189500D01*
X169815742Y-129144500D02*
X170290258Y-129144500D01*
X169815742Y-130189500D02*
X170290258Y-130189500D01*
X127016742Y-131557500D02*
X127491258Y-131557500D01*
X127016742Y-132602500D02*
X127491258Y-132602500D01*
X140859742Y-131430500D02*
X141334258Y-131430500D01*
X140859742Y-132475500D02*
X141334258Y-132475500D01*
X156353742Y-131430500D02*
X156828258Y-131430500D01*
X156353742Y-132475500D02*
X156828258Y-132475500D01*
X169815742Y-131430500D02*
X170290258Y-131430500D01*
X169815742Y-132475500D02*
X170290258Y-132475500D01*
X134603258Y-130316500D02*
X134128742Y-130316500D01*
X134603258Y-129271500D02*
X134128742Y-129271500D01*
X148573258Y-129144500D02*
X148098742Y-129144500D01*
X148573258Y-130189500D02*
X148098742Y-130189500D01*
X164194258Y-129144500D02*
X163719742Y-129144500D01*
X164194258Y-130189500D02*
X163719742Y-130189500D01*
X177656258Y-129144500D02*
X177181742Y-129144500D01*
X177656258Y-130189500D02*
X177181742Y-130189500D01*
X134603258Y-132602500D02*
X134128742Y-132602500D01*
X134603258Y-131557500D02*
X134128742Y-131557500D01*
X148573258Y-131430500D02*
X148098742Y-131430500D01*
X148573258Y-132475500D02*
X148098742Y-132475500D01*
X164194258Y-131430500D02*
X163719742Y-131430500D01*
X164194258Y-132475500D02*
X163719742Y-132475500D01*
X177656258Y-131557500D02*
X177181742Y-131557500D01*
X177656258Y-132602500D02*
X177181742Y-132602500D01*
X109262742Y-54322500D02*
X109737258Y-54322500D01*
X109262742Y-53277500D02*
X109737258Y-53277500D01*
X148901400Y-98420400D02*
X148901400Y-94820400D01*
X148901400Y-98420400D02*
X148901400Y-100620400D01*
X143431400Y-98420400D02*
X143431400Y-96220400D01*
X143431400Y-98420400D02*
X143431400Y-100620400D01*
X164583800Y-98450400D02*
X164583800Y-96250400D01*
X164583800Y-98450400D02*
X164583800Y-100650400D01*
X159113800Y-98450400D02*
X159113800Y-96250400D01*
X159113800Y-98450400D02*
X159113800Y-102050400D01*
X132433000Y-131849000D02*
X132433000Y-129399000D01*
X129213000Y-130049000D02*
X129213000Y-131849000D01*
X143121000Y-129922000D02*
X143121000Y-131722000D01*
X146341000Y-131722000D02*
X146341000Y-129272000D01*
X161877000Y-131722000D02*
X161877000Y-129272000D01*
X158657000Y-129922000D02*
X158657000Y-131722000D01*
X172068000Y-129922000D02*
X172068000Y-131722000D01*
X175288000Y-131722000D02*
X175288000Y-129272000D01*
X184130000Y-82476000D02*
X184130000Y-82476000D01*
X184130000Y-93144000D02*
X184130000Y-82476000D01*
X183800000Y-81900000D02*
X183800000Y-81900000D01*
X183800000Y-97350000D02*
X183800000Y-81900000D01*
X213000000Y-97350000D02*
X183800000Y-97350000D01*
X213000000Y-81900000D02*
X213000000Y-97350000D01*
X183800000Y-81900000D02*
X213000000Y-81900000D01*
X184384000Y-85270000D02*
X184384000Y-85270000D01*
X186670000Y-85270000D02*
X184384000Y-85270000D01*
X186670000Y-82984000D02*
X186670000Y-85270000D01*
X184130000Y-93144000D02*
X184130000Y-93144000D01*
X189464000Y-93144000D02*
X184130000Y-93144000D01*
X189464000Y-82476000D02*
X189464000Y-93144000D01*
X184130000Y-82476000D02*
X189464000Y-82476000D01*
X186861252Y-79665000D02*
X186338748Y-79665000D01*
X186861252Y-81135000D02*
X186338748Y-81135000D01*
X130456400Y-124251600D02*
X130456400Y-125181600D01*
X130456400Y-127411600D02*
X130456400Y-126481600D01*
X130456400Y-127411600D02*
X132616400Y-127411600D01*
X130456400Y-124251600D02*
X131916400Y-124251600D01*
D11*
X174340780Y-115990666D02*
X173864590Y-116324000D01*
X174340780Y-116562095D02*
X173340780Y-116562095D01*
X173340780Y-116181142D01*
X173388400Y-116085904D01*
X173436019Y-116038285D01*
X173531257Y-115990666D01*
X173674114Y-115990666D01*
X173769352Y-116038285D01*
X173816971Y-116085904D01*
X173864590Y-116181142D01*
X173864590Y-116562095D01*
X173340780Y-115657333D02*
X173340780Y-114990666D01*
X174340780Y-115419238D01*
X161734571Y-123839219D02*
X161639333Y-123791600D01*
X161544095Y-123696361D01*
X161401238Y-123553504D01*
X161306000Y-123505885D01*
X161210761Y-123505885D01*
X161258380Y-123743980D02*
X161163142Y-123696361D01*
X161067904Y-123601123D01*
X161020285Y-123410647D01*
X161020285Y-123077314D01*
X161067904Y-122886838D01*
X161163142Y-122791600D01*
X161258380Y-122743980D01*
X161448857Y-122743980D01*
X161544095Y-122791600D01*
X161639333Y-122886838D01*
X161686952Y-123077314D01*
X161686952Y-123410647D01*
X161639333Y-123601123D01*
X161544095Y-123696361D01*
X161448857Y-123743980D01*
X161258380Y-123743980D01*
X162639333Y-123743980D02*
X162067904Y-123743980D01*
X162353619Y-123743980D02*
X162353619Y-122743980D01*
X162258380Y-122886838D01*
X162163142Y-122982076D01*
X162067904Y-123029695D01*
X163496476Y-122743980D02*
X163306000Y-122743980D01*
X163210761Y-122791600D01*
X163163142Y-122839219D01*
X163067904Y-122982076D01*
X163020285Y-123172552D01*
X163020285Y-123553504D01*
X163067904Y-123648742D01*
X163115523Y-123696361D01*
X163210761Y-123743980D01*
X163401238Y-123743980D01*
X163496476Y-123696361D01*
X163544095Y-123648742D01*
X163591714Y-123553504D01*
X163591714Y-123315409D01*
X163544095Y-123220171D01*
X163496476Y-123172552D01*
X163401238Y-123124933D01*
X163210761Y-123124933D01*
X163115523Y-123172552D01*
X163067904Y-123220171D01*
X163020285Y-123315409D01*
X150050571Y-123801119D02*
X149955333Y-123753500D01*
X149860095Y-123658261D01*
X149717238Y-123515404D01*
X149622000Y-123467785D01*
X149526761Y-123467785D01*
X149574380Y-123705880D02*
X149479142Y-123658261D01*
X149383904Y-123563023D01*
X149336285Y-123372547D01*
X149336285Y-123039214D01*
X149383904Y-122848738D01*
X149479142Y-122753500D01*
X149574380Y-122705880D01*
X149764857Y-122705880D01*
X149860095Y-122753500D01*
X149955333Y-122848738D01*
X150002952Y-123039214D01*
X150002952Y-123372547D01*
X149955333Y-123563023D01*
X149860095Y-123658261D01*
X149764857Y-123705880D01*
X149574380Y-123705880D01*
X150955333Y-123705880D02*
X150383904Y-123705880D01*
X150669619Y-123705880D02*
X150669619Y-122705880D01*
X150574380Y-122848738D01*
X150479142Y-122943976D01*
X150383904Y-122991595D01*
X151860095Y-122705880D02*
X151383904Y-122705880D01*
X151336285Y-123182071D01*
X151383904Y-123134452D01*
X151479142Y-123086833D01*
X151717238Y-123086833D01*
X151812476Y-123134452D01*
X151860095Y-123182071D01*
X151907714Y-123277309D01*
X151907714Y-123515404D01*
X151860095Y-123610642D01*
X151812476Y-123658261D01*
X151717238Y-123705880D01*
X151479142Y-123705880D01*
X151383904Y-123658261D01*
X151336285Y-123610642D01*
X134861371Y-123966219D02*
X134766133Y-123918600D01*
X134670895Y-123823361D01*
X134528038Y-123680504D01*
X134432800Y-123632885D01*
X134337561Y-123632885D01*
X134385180Y-123870980D02*
X134289942Y-123823361D01*
X134194704Y-123728123D01*
X134147085Y-123537647D01*
X134147085Y-123204314D01*
X134194704Y-123013838D01*
X134289942Y-122918600D01*
X134385180Y-122870980D01*
X134575657Y-122870980D01*
X134670895Y-122918600D01*
X134766133Y-123013838D01*
X134813752Y-123204314D01*
X134813752Y-123537647D01*
X134766133Y-123728123D01*
X134670895Y-123823361D01*
X134575657Y-123870980D01*
X134385180Y-123870980D01*
X135766133Y-123870980D02*
X135194704Y-123870980D01*
X135480419Y-123870980D02*
X135480419Y-122870980D01*
X135385180Y-123013838D01*
X135289942Y-123109076D01*
X135194704Y-123156695D01*
X136623276Y-123204314D02*
X136623276Y-123870980D01*
X136385180Y-122823361D02*
X136147085Y-123537647D01*
X136766133Y-123537647D01*
X177787371Y-123839219D02*
X177692133Y-123791600D01*
X177596895Y-123696361D01*
X177454038Y-123553504D01*
X177358800Y-123505885D01*
X177263561Y-123505885D01*
X177311180Y-123743980D02*
X177215942Y-123696361D01*
X177120704Y-123601123D01*
X177073085Y-123410647D01*
X177073085Y-123077314D01*
X177120704Y-122886838D01*
X177215942Y-122791600D01*
X177311180Y-122743980D01*
X177501657Y-122743980D01*
X177596895Y-122791600D01*
X177692133Y-122886838D01*
X177739752Y-123077314D01*
X177739752Y-123410647D01*
X177692133Y-123601123D01*
X177596895Y-123696361D01*
X177501657Y-123743980D01*
X177311180Y-123743980D01*
X178692133Y-123743980D02*
X178120704Y-123743980D01*
X178406419Y-123743980D02*
X178406419Y-122743980D01*
X178311180Y-122886838D01*
X178215942Y-122982076D01*
X178120704Y-123029695D01*
X179025466Y-122743980D02*
X179644514Y-122743980D01*
X179311180Y-123124933D01*
X179454038Y-123124933D01*
X179549276Y-123172552D01*
X179596895Y-123220171D01*
X179644514Y-123315409D01*
X179644514Y-123553504D01*
X179596895Y-123648742D01*
X179549276Y-123696361D01*
X179454038Y-123743980D01*
X179168323Y-123743980D01*
X179073085Y-123696361D01*
X179025466Y-123648742D01*
X170624571Y-122721619D02*
X170529333Y-122674000D01*
X170434095Y-122578761D01*
X170291238Y-122435904D01*
X170196000Y-122388285D01*
X170100761Y-122388285D01*
X170148380Y-122626380D02*
X170053142Y-122578761D01*
X169957904Y-122483523D01*
X169910285Y-122293047D01*
X169910285Y-121959714D01*
X169957904Y-121769238D01*
X170053142Y-121674000D01*
X170148380Y-121626380D01*
X170338857Y-121626380D01*
X170434095Y-121674000D01*
X170529333Y-121769238D01*
X170576952Y-121959714D01*
X170576952Y-122293047D01*
X170529333Y-122483523D01*
X170434095Y-122578761D01*
X170338857Y-122626380D01*
X170148380Y-122626380D01*
X171529333Y-122626380D02*
X170957904Y-122626380D01*
X171243619Y-122626380D02*
X171243619Y-121626380D01*
X171148380Y-121769238D01*
X171053142Y-121864476D01*
X170957904Y-121912095D01*
X171910285Y-121721619D02*
X171957904Y-121674000D01*
X172053142Y-121626380D01*
X172291238Y-121626380D01*
X172386476Y-121674000D01*
X172434095Y-121721619D01*
X172481714Y-121816857D01*
X172481714Y-121912095D01*
X172434095Y-122054952D01*
X171862666Y-122626380D01*
X172481714Y-122626380D01*
X154520971Y-122670819D02*
X154425733Y-122623200D01*
X154330495Y-122527961D01*
X154187638Y-122385104D01*
X154092400Y-122337485D01*
X153997161Y-122337485D01*
X154044780Y-122575580D02*
X153949542Y-122527961D01*
X153854304Y-122432723D01*
X153806685Y-122242247D01*
X153806685Y-121908914D01*
X153854304Y-121718438D01*
X153949542Y-121623200D01*
X154044780Y-121575580D01*
X154235257Y-121575580D01*
X154330495Y-121623200D01*
X154425733Y-121718438D01*
X154473352Y-121908914D01*
X154473352Y-122242247D01*
X154425733Y-122432723D01*
X154330495Y-122527961D01*
X154235257Y-122575580D01*
X154044780Y-122575580D01*
X155425733Y-122575580D02*
X154854304Y-122575580D01*
X155140019Y-122575580D02*
X155140019Y-121575580D01*
X155044780Y-121718438D01*
X154949542Y-121813676D01*
X154854304Y-121861295D01*
X156378114Y-122575580D02*
X155806685Y-122575580D01*
X156092400Y-122575580D02*
X156092400Y-121575580D01*
X155997161Y-121718438D01*
X155901923Y-121813676D01*
X155806685Y-121861295D01*
X142430571Y-122670819D02*
X142335333Y-122623200D01*
X142240095Y-122527961D01*
X142097238Y-122385104D01*
X142002000Y-122337485D01*
X141906761Y-122337485D01*
X141954380Y-122575580D02*
X141859142Y-122527961D01*
X141763904Y-122432723D01*
X141716285Y-122242247D01*
X141716285Y-121908914D01*
X141763904Y-121718438D01*
X141859142Y-121623200D01*
X141954380Y-121575580D01*
X142144857Y-121575580D01*
X142240095Y-121623200D01*
X142335333Y-121718438D01*
X142382952Y-121908914D01*
X142382952Y-122242247D01*
X142335333Y-122432723D01*
X142240095Y-122527961D01*
X142144857Y-122575580D01*
X141954380Y-122575580D01*
X143335333Y-122575580D02*
X142763904Y-122575580D01*
X143049619Y-122575580D02*
X143049619Y-121575580D01*
X142954380Y-121718438D01*
X142859142Y-121813676D01*
X142763904Y-121861295D01*
X143954380Y-121575580D02*
X144049619Y-121575580D01*
X144144857Y-121623200D01*
X144192476Y-121670819D01*
X144240095Y-121766057D01*
X144287714Y-121956533D01*
X144287714Y-122194628D01*
X144240095Y-122385104D01*
X144192476Y-122480342D01*
X144144857Y-122527961D01*
X144049619Y-122575580D01*
X143954380Y-122575580D01*
X143859142Y-122527961D01*
X143811523Y-122480342D01*
X143763904Y-122385104D01*
X143716285Y-122194628D01*
X143716285Y-121956533D01*
X143763904Y-121766057D01*
X143811523Y-121670819D01*
X143859142Y-121623200D01*
X143954380Y-121575580D01*
X127565161Y-122645419D02*
X127469923Y-122597800D01*
X127374685Y-122502561D01*
X127231828Y-122359704D01*
X127136590Y-122312085D01*
X127041352Y-122312085D01*
X127088971Y-122550180D02*
X126993733Y-122502561D01*
X126898495Y-122407323D01*
X126850876Y-122216847D01*
X126850876Y-121883514D01*
X126898495Y-121693038D01*
X126993733Y-121597800D01*
X127088971Y-121550180D01*
X127279447Y-121550180D01*
X127374685Y-121597800D01*
X127469923Y-121693038D01*
X127517542Y-121883514D01*
X127517542Y-122216847D01*
X127469923Y-122407323D01*
X127374685Y-122502561D01*
X127279447Y-122550180D01*
X127088971Y-122550180D01*
X127993733Y-122550180D02*
X128184209Y-122550180D01*
X128279447Y-122502561D01*
X128327066Y-122454942D01*
X128422304Y-122312085D01*
X128469923Y-122121609D01*
X128469923Y-121740657D01*
X128422304Y-121645419D01*
X128374685Y-121597800D01*
X128279447Y-121550180D01*
X128088971Y-121550180D01*
X127993733Y-121597800D01*
X127946114Y-121645419D01*
X127898495Y-121740657D01*
X127898495Y-121978752D01*
X127946114Y-122073990D01*
X127993733Y-122121609D01*
X128088971Y-122169228D01*
X128279447Y-122169228D01*
X128374685Y-122121609D01*
X128422304Y-122073990D01*
X128469923Y-121978752D01*
X182530761Y-123839219D02*
X182435523Y-123791600D01*
X182340285Y-123696361D01*
X182197428Y-123553504D01*
X182102190Y-123505885D01*
X182006952Y-123505885D01*
X182054571Y-123743980D02*
X181959333Y-123696361D01*
X181864095Y-123601123D01*
X181816476Y-123410647D01*
X181816476Y-123077314D01*
X181864095Y-122886838D01*
X181959333Y-122791600D01*
X182054571Y-122743980D01*
X182245047Y-122743980D01*
X182340285Y-122791600D01*
X182435523Y-122886838D01*
X182483142Y-123077314D01*
X182483142Y-123410647D01*
X182435523Y-123601123D01*
X182340285Y-123696361D01*
X182245047Y-123743980D01*
X182054571Y-123743980D01*
X183054571Y-123172552D02*
X182959333Y-123124933D01*
X182911714Y-123077314D01*
X182864095Y-122982076D01*
X182864095Y-122934457D01*
X182911714Y-122839219D01*
X182959333Y-122791600D01*
X183054571Y-122743980D01*
X183245047Y-122743980D01*
X183340285Y-122791600D01*
X183387904Y-122839219D01*
X183435523Y-122934457D01*
X183435523Y-122982076D01*
X183387904Y-123077314D01*
X183340285Y-123124933D01*
X183245047Y-123172552D01*
X183054571Y-123172552D01*
X182959333Y-123220171D01*
X182911714Y-123267790D01*
X182864095Y-123363028D01*
X182864095Y-123553504D01*
X182911714Y-123648742D01*
X182959333Y-123696361D01*
X183054571Y-123743980D01*
X183245047Y-123743980D01*
X183340285Y-123696361D01*
X183387904Y-123648742D01*
X183435523Y-123553504D01*
X183435523Y-123363028D01*
X183387904Y-123267790D01*
X183340285Y-123220171D01*
X183245047Y-123172552D01*
X166427161Y-128777619D02*
X166331923Y-128730000D01*
X166236685Y-128634761D01*
X166093828Y-128491904D01*
X165998590Y-128444285D01*
X165903352Y-128444285D01*
X165950971Y-128682380D02*
X165855733Y-128634761D01*
X165760495Y-128539523D01*
X165712876Y-128349047D01*
X165712876Y-128015714D01*
X165760495Y-127825238D01*
X165855733Y-127730000D01*
X165950971Y-127682380D01*
X166141447Y-127682380D01*
X166236685Y-127730000D01*
X166331923Y-127825238D01*
X166379542Y-128015714D01*
X166379542Y-128349047D01*
X166331923Y-128539523D01*
X166236685Y-128634761D01*
X166141447Y-128682380D01*
X165950971Y-128682380D01*
X166712876Y-127682380D02*
X167379542Y-127682380D01*
X166950971Y-128682380D01*
X146564361Y-123890019D02*
X146469123Y-123842400D01*
X146373885Y-123747161D01*
X146231028Y-123604304D01*
X146135790Y-123556685D01*
X146040552Y-123556685D01*
X146088171Y-123794780D02*
X145992933Y-123747161D01*
X145897695Y-123651923D01*
X145850076Y-123461447D01*
X145850076Y-123128114D01*
X145897695Y-122937638D01*
X145992933Y-122842400D01*
X146088171Y-122794780D01*
X146278647Y-122794780D01*
X146373885Y-122842400D01*
X146469123Y-122937638D01*
X146516742Y-123128114D01*
X146516742Y-123461447D01*
X146469123Y-123651923D01*
X146373885Y-123747161D01*
X146278647Y-123794780D01*
X146088171Y-123794780D01*
X147373885Y-122794780D02*
X147183409Y-122794780D01*
X147088171Y-122842400D01*
X147040552Y-122890019D01*
X146945314Y-123032876D01*
X146897695Y-123223352D01*
X146897695Y-123604304D01*
X146945314Y-123699542D01*
X146992933Y-123747161D01*
X147088171Y-123794780D01*
X147278647Y-123794780D01*
X147373885Y-123747161D01*
X147421504Y-123699542D01*
X147469123Y-123604304D01*
X147469123Y-123366209D01*
X147421504Y-123270971D01*
X147373885Y-123223352D01*
X147278647Y-123175733D01*
X147088171Y-123175733D01*
X146992933Y-123223352D01*
X146945314Y-123270971D01*
X146897695Y-123366209D01*
X174707561Y-122670819D02*
X174612323Y-122623200D01*
X174517085Y-122527961D01*
X174374228Y-122385104D01*
X174278990Y-122337485D01*
X174183752Y-122337485D01*
X174231371Y-122575580D02*
X174136133Y-122527961D01*
X174040895Y-122432723D01*
X173993276Y-122242247D01*
X173993276Y-121908914D01*
X174040895Y-121718438D01*
X174136133Y-121623200D01*
X174231371Y-121575580D01*
X174421847Y-121575580D01*
X174517085Y-121623200D01*
X174612323Y-121718438D01*
X174659942Y-121908914D01*
X174659942Y-122242247D01*
X174612323Y-122432723D01*
X174517085Y-122527961D01*
X174421847Y-122575580D01*
X174231371Y-122575580D01*
X175517085Y-121908914D02*
X175517085Y-122575580D01*
X175278990Y-121527961D02*
X175040895Y-122242247D01*
X175659942Y-122242247D01*
X158553161Y-122620019D02*
X158457923Y-122572400D01*
X158362685Y-122477161D01*
X158219828Y-122334304D01*
X158124590Y-122286685D01*
X158029352Y-122286685D01*
X158076971Y-122524780D02*
X157981733Y-122477161D01*
X157886495Y-122381923D01*
X157838876Y-122191447D01*
X157838876Y-121858114D01*
X157886495Y-121667638D01*
X157981733Y-121572400D01*
X158076971Y-121524780D01*
X158267447Y-121524780D01*
X158362685Y-121572400D01*
X158457923Y-121667638D01*
X158505542Y-121858114D01*
X158505542Y-122191447D01*
X158457923Y-122381923D01*
X158362685Y-122477161D01*
X158267447Y-122524780D01*
X158076971Y-122524780D01*
X158838876Y-121524780D02*
X159457923Y-121524780D01*
X159124590Y-121905733D01*
X159267447Y-121905733D01*
X159362685Y-121953352D01*
X159410304Y-122000971D01*
X159457923Y-122096209D01*
X159457923Y-122334304D01*
X159410304Y-122429542D01*
X159362685Y-122477161D01*
X159267447Y-122524780D01*
X158981733Y-122524780D01*
X158886495Y-122477161D01*
X158838876Y-122429542D01*
X139198361Y-122670819D02*
X139103123Y-122623200D01*
X139007885Y-122527961D01*
X138865028Y-122385104D01*
X138769790Y-122337485D01*
X138674552Y-122337485D01*
X138722171Y-122575580D02*
X138626933Y-122527961D01*
X138531695Y-122432723D01*
X138484076Y-122242247D01*
X138484076Y-121908914D01*
X138531695Y-121718438D01*
X138626933Y-121623200D01*
X138722171Y-121575580D01*
X138912647Y-121575580D01*
X139007885Y-121623200D01*
X139103123Y-121718438D01*
X139150742Y-121908914D01*
X139150742Y-122242247D01*
X139103123Y-122432723D01*
X139007885Y-122527961D01*
X138912647Y-122575580D01*
X138722171Y-122575580D01*
X139531695Y-121670819D02*
X139579314Y-121623200D01*
X139674552Y-121575580D01*
X139912647Y-121575580D01*
X140007885Y-121623200D01*
X140055504Y-121670819D01*
X140103123Y-121766057D01*
X140103123Y-121861295D01*
X140055504Y-122004152D01*
X139484076Y-122575580D01*
X140103123Y-122575580D01*
X123958361Y-122645419D02*
X123863123Y-122597800D01*
X123767885Y-122502561D01*
X123625028Y-122359704D01*
X123529790Y-122312085D01*
X123434552Y-122312085D01*
X123482171Y-122550180D02*
X123386933Y-122502561D01*
X123291695Y-122407323D01*
X123244076Y-122216847D01*
X123244076Y-121883514D01*
X123291695Y-121693038D01*
X123386933Y-121597800D01*
X123482171Y-121550180D01*
X123672647Y-121550180D01*
X123767885Y-121597800D01*
X123863123Y-121693038D01*
X123910742Y-121883514D01*
X123910742Y-122216847D01*
X123863123Y-122407323D01*
X123767885Y-122502561D01*
X123672647Y-122550180D01*
X123482171Y-122550180D01*
X124863123Y-122550180D02*
X124291695Y-122550180D01*
X124577409Y-122550180D02*
X124577409Y-121550180D01*
X124482171Y-121693038D01*
X124386933Y-121788276D01*
X124291695Y-121835895D01*
X113261904Y-52872380D02*
X113261904Y-51872380D01*
X113500000Y-51872380D01*
X113642857Y-51920000D01*
X113738095Y-52015238D01*
X113785714Y-52110476D01*
X113833333Y-52300952D01*
X113833333Y-52443809D01*
X113785714Y-52634285D01*
X113738095Y-52729523D01*
X113642857Y-52824761D01*
X113500000Y-52872380D01*
X113261904Y-52872380D01*
X114785714Y-52872380D02*
X114214285Y-52872380D01*
X114500000Y-52872380D02*
X114500000Y-51872380D01*
X114404761Y-52015238D01*
X114309523Y-52110476D01*
X114214285Y-52158095D01*
X128466666Y-66822380D02*
X128466666Y-67536666D01*
X128419047Y-67679523D01*
X128323809Y-67774761D01*
X128180952Y-67822380D01*
X128085714Y-67822380D01*
X128895238Y-66917619D02*
X128942857Y-66870000D01*
X129038095Y-66822380D01*
X129276190Y-66822380D01*
X129371428Y-66870000D01*
X129419047Y-66917619D01*
X129466666Y-67012857D01*
X129466666Y-67108095D01*
X129419047Y-67250952D01*
X128847619Y-67822380D01*
X129466666Y-67822380D01*
X128466666Y-90402380D02*
X128466666Y-91116666D01*
X128419047Y-91259523D01*
X128323809Y-91354761D01*
X128180952Y-91402380D01*
X128085714Y-91402380D01*
X128847619Y-90402380D02*
X129466666Y-90402380D01*
X129133333Y-90783333D01*
X129276190Y-90783333D01*
X129371428Y-90830952D01*
X129419047Y-90878571D01*
X129466666Y-90973809D01*
X129466666Y-91211904D01*
X129419047Y-91307142D01*
X129371428Y-91354761D01*
X129276190Y-91402380D01*
X128990476Y-91402380D01*
X128895238Y-91354761D01*
X128847619Y-91307142D01*
X176726666Y-58412380D02*
X176726666Y-59126666D01*
X176679047Y-59269523D01*
X176583809Y-59364761D01*
X176440952Y-59412380D01*
X176345714Y-59412380D01*
X177631428Y-58745714D02*
X177631428Y-59412380D01*
X177393333Y-58364761D02*
X177155238Y-59079047D01*
X177774285Y-59079047D01*
X176726666Y-85322380D02*
X176726666Y-86036666D01*
X176679047Y-86179523D01*
X176583809Y-86274761D01*
X176440952Y-86322380D01*
X176345714Y-86322380D01*
X177679047Y-85322380D02*
X177202857Y-85322380D01*
X177155238Y-85798571D01*
X177202857Y-85750952D01*
X177298095Y-85703333D01*
X177536190Y-85703333D01*
X177631428Y-85750952D01*
X177679047Y-85798571D01*
X177726666Y-85893809D01*
X177726666Y-86131904D01*
X177679047Y-86227142D01*
X177631428Y-86274761D01*
X177536190Y-86322380D01*
X177298095Y-86322380D01*
X177202857Y-86274761D01*
X177155238Y-86227142D01*
X123819619Y-135772666D02*
X123105333Y-135772666D01*
X122962476Y-135725047D01*
X122867238Y-135629809D01*
X122819619Y-135486952D01*
X122819619Y-135391714D01*
X122819619Y-136772666D02*
X122819619Y-136201238D01*
X122819619Y-136486952D02*
X123819619Y-136486952D01*
X123676761Y-136391714D01*
X123581523Y-136296476D01*
X123533904Y-136201238D01*
X153114619Y-135612666D02*
X152400333Y-135612666D01*
X152257476Y-135565047D01*
X152162238Y-135469809D01*
X152114619Y-135326952D01*
X152114619Y-135231714D01*
X153114619Y-136517428D02*
X153114619Y-136326952D01*
X153067000Y-136231714D01*
X153019380Y-136184095D01*
X152876523Y-136088857D01*
X152686047Y-136041238D01*
X152305095Y-136041238D01*
X152209857Y-136088857D01*
X152162238Y-136136476D01*
X152114619Y-136231714D01*
X152114619Y-136422190D01*
X152162238Y-136517428D01*
X152209857Y-136565047D01*
X152305095Y-136612666D01*
X152543190Y-136612666D01*
X152638428Y-136565047D01*
X152686047Y-136517428D01*
X152733666Y-136422190D01*
X152733666Y-136231714D01*
X152686047Y-136136476D01*
X152638428Y-136088857D01*
X152543190Y-136041238D01*
X136850380Y-115958857D02*
X136374190Y-116292190D01*
X136850380Y-116530285D02*
X135850380Y-116530285D01*
X135850380Y-116149333D01*
X135898000Y-116054095D01*
X135945619Y-116006476D01*
X136040857Y-115958857D01*
X136183714Y-115958857D01*
X136278952Y-116006476D01*
X136326571Y-116054095D01*
X136374190Y-116149333D01*
X136374190Y-116530285D01*
X136850380Y-115006476D02*
X136850380Y-115577904D01*
X136850380Y-115292190D02*
X135850380Y-115292190D01*
X135993238Y-115387428D01*
X136088476Y-115482666D01*
X136136095Y-115577904D01*
X136278952Y-114435047D02*
X136231333Y-114530285D01*
X136183714Y-114577904D01*
X136088476Y-114625523D01*
X136040857Y-114625523D01*
X135945619Y-114577904D01*
X135898000Y-114530285D01*
X135850380Y-114435047D01*
X135850380Y-114244571D01*
X135898000Y-114149333D01*
X135945619Y-114101714D01*
X136040857Y-114054095D01*
X136088476Y-114054095D01*
X136183714Y-114101714D01*
X136231333Y-114149333D01*
X136278952Y-114244571D01*
X136278952Y-114435047D01*
X136326571Y-114530285D01*
X136374190Y-114577904D01*
X136469428Y-114625523D01*
X136659904Y-114625523D01*
X136755142Y-114577904D01*
X136802761Y-114530285D01*
X136850380Y-114435047D01*
X136850380Y-114244571D01*
X136802761Y-114149333D01*
X136755142Y-114101714D01*
X136659904Y-114054095D01*
X136469428Y-114054095D01*
X136374190Y-114101714D01*
X136326571Y-114149333D01*
X136278952Y-114244571D01*
X152141180Y-115958857D02*
X151664990Y-116292190D01*
X152141180Y-116530285D02*
X151141180Y-116530285D01*
X151141180Y-116149333D01*
X151188800Y-116054095D01*
X151236419Y-116006476D01*
X151331657Y-115958857D01*
X151474514Y-115958857D01*
X151569752Y-116006476D01*
X151617371Y-116054095D01*
X151664990Y-116149333D01*
X151664990Y-116530285D01*
X151236419Y-115577904D02*
X151188800Y-115530285D01*
X151141180Y-115435047D01*
X151141180Y-115196952D01*
X151188800Y-115101714D01*
X151236419Y-115054095D01*
X151331657Y-115006476D01*
X151426895Y-115006476D01*
X151569752Y-115054095D01*
X152141180Y-115625523D01*
X152141180Y-115006476D01*
X151141180Y-114387428D02*
X151141180Y-114292190D01*
X151188800Y-114196952D01*
X151236419Y-114149333D01*
X151331657Y-114101714D01*
X151522133Y-114054095D01*
X151760228Y-114054095D01*
X151950704Y-114101714D01*
X152045942Y-114149333D01*
X152093561Y-114196952D01*
X152141180Y-114292190D01*
X152141180Y-114387428D01*
X152093561Y-114482666D01*
X152045942Y-114530285D01*
X151950704Y-114577904D01*
X151760228Y-114625523D01*
X151522133Y-114625523D01*
X151331657Y-114577904D01*
X151236419Y-114530285D01*
X151188800Y-114482666D01*
X151141180Y-114387428D01*
X163774380Y-115908057D02*
X163298190Y-116241390D01*
X163774380Y-116479485D02*
X162774380Y-116479485D01*
X162774380Y-116098533D01*
X162822000Y-116003295D01*
X162869619Y-115955676D01*
X162964857Y-115908057D01*
X163107714Y-115908057D01*
X163202952Y-115955676D01*
X163250571Y-116003295D01*
X163298190Y-116098533D01*
X163298190Y-116479485D01*
X162869619Y-115527104D02*
X162822000Y-115479485D01*
X162774380Y-115384247D01*
X162774380Y-115146152D01*
X162822000Y-115050914D01*
X162869619Y-115003295D01*
X162964857Y-114955676D01*
X163060095Y-114955676D01*
X163202952Y-115003295D01*
X163774380Y-115574723D01*
X163774380Y-114955676D01*
X162869619Y-114574723D02*
X162822000Y-114527104D01*
X162774380Y-114431866D01*
X162774380Y-114193771D01*
X162822000Y-114098533D01*
X162869619Y-114050914D01*
X162964857Y-114003295D01*
X163060095Y-114003295D01*
X163202952Y-114050914D01*
X163774380Y-114622342D01*
X163774380Y-114003295D01*
X179877980Y-115908057D02*
X179401790Y-116241390D01*
X179877980Y-116479485D02*
X178877980Y-116479485D01*
X178877980Y-116098533D01*
X178925600Y-116003295D01*
X178973219Y-115955676D01*
X179068457Y-115908057D01*
X179211314Y-115908057D01*
X179306552Y-115955676D01*
X179354171Y-116003295D01*
X179401790Y-116098533D01*
X179401790Y-116479485D01*
X178973219Y-115527104D02*
X178925600Y-115479485D01*
X178877980Y-115384247D01*
X178877980Y-115146152D01*
X178925600Y-115050914D01*
X178973219Y-115003295D01*
X179068457Y-114955676D01*
X179163695Y-114955676D01*
X179306552Y-115003295D01*
X179877980Y-115574723D01*
X179877980Y-114955676D01*
X179211314Y-114098533D02*
X179877980Y-114098533D01*
X178830361Y-114336628D02*
X179544647Y-114574723D01*
X179544647Y-113955676D01*
X132786380Y-115990666D02*
X132310190Y-116324000D01*
X132786380Y-116562095D02*
X131786380Y-116562095D01*
X131786380Y-116181142D01*
X131834000Y-116085904D01*
X131881619Y-116038285D01*
X131976857Y-115990666D01*
X132119714Y-115990666D01*
X132214952Y-116038285D01*
X132262571Y-116085904D01*
X132310190Y-116181142D01*
X132310190Y-116562095D01*
X131881619Y-115609714D02*
X131834000Y-115562095D01*
X131786380Y-115466857D01*
X131786380Y-115228761D01*
X131834000Y-115133523D01*
X131881619Y-115085904D01*
X131976857Y-115038285D01*
X132072095Y-115038285D01*
X132214952Y-115085904D01*
X132786380Y-115657333D01*
X132786380Y-115038285D01*
X148026380Y-115990666D02*
X147550190Y-116324000D01*
X148026380Y-116562095D02*
X147026380Y-116562095D01*
X147026380Y-116181142D01*
X147074000Y-116085904D01*
X147121619Y-116038285D01*
X147216857Y-115990666D01*
X147359714Y-115990666D01*
X147454952Y-116038285D01*
X147502571Y-116085904D01*
X147550190Y-116181142D01*
X147550190Y-116562095D01*
X147359714Y-115133523D02*
X148026380Y-115133523D01*
X146978761Y-115371619D02*
X147693047Y-115609714D01*
X147693047Y-114990666D01*
X168041580Y-115939866D02*
X167565390Y-116273200D01*
X168041580Y-116511295D02*
X167041580Y-116511295D01*
X167041580Y-116130342D01*
X167089200Y-116035104D01*
X167136819Y-115987485D01*
X167232057Y-115939866D01*
X167374914Y-115939866D01*
X167470152Y-115987485D01*
X167517771Y-116035104D01*
X167565390Y-116130342D01*
X167565390Y-116511295D01*
X167041580Y-115082723D02*
X167041580Y-115273200D01*
X167089200Y-115368438D01*
X167136819Y-115416057D01*
X167279676Y-115511295D01*
X167470152Y-115558914D01*
X167851104Y-115558914D01*
X167946342Y-115511295D01*
X167993961Y-115463676D01*
X168041580Y-115368438D01*
X168041580Y-115177961D01*
X167993961Y-115082723D01*
X167946342Y-115035104D01*
X167851104Y-114987485D01*
X167613009Y-114987485D01*
X167517771Y-115035104D01*
X167470152Y-115082723D01*
X167422533Y-115177961D01*
X167422533Y-115368438D01*
X167470152Y-115463676D01*
X167517771Y-115511295D01*
X167613009Y-115558914D01*
X184094380Y-115902466D02*
X183618190Y-116235800D01*
X184094380Y-116473895D02*
X183094380Y-116473895D01*
X183094380Y-116092942D01*
X183142000Y-115997704D01*
X183189619Y-115950085D01*
X183284857Y-115902466D01*
X183427714Y-115902466D01*
X183522952Y-115950085D01*
X183570571Y-115997704D01*
X183618190Y-116092942D01*
X183618190Y-116473895D01*
X183522952Y-115331038D02*
X183475333Y-115426276D01*
X183427714Y-115473895D01*
X183332476Y-115521514D01*
X183284857Y-115521514D01*
X183189619Y-115473895D01*
X183142000Y-115426276D01*
X183094380Y-115331038D01*
X183094380Y-115140561D01*
X183142000Y-115045323D01*
X183189619Y-114997704D01*
X183284857Y-114950085D01*
X183332476Y-114950085D01*
X183427714Y-114997704D01*
X183475333Y-115045323D01*
X183522952Y-115140561D01*
X183522952Y-115331038D01*
X183570571Y-115426276D01*
X183618190Y-115473895D01*
X183713428Y-115521514D01*
X183903904Y-115521514D01*
X183999142Y-115473895D01*
X184046761Y-115426276D01*
X184094380Y-115331038D01*
X184094380Y-115140561D01*
X184046761Y-115045323D01*
X183999142Y-114997704D01*
X183903904Y-114950085D01*
X183713428Y-114950085D01*
X183618190Y-114997704D01*
X183570571Y-115045323D01*
X183522952Y-115140561D01*
X127198380Y-116009657D02*
X126722190Y-116342990D01*
X127198380Y-116581085D02*
X126198380Y-116581085D01*
X126198380Y-116200133D01*
X126246000Y-116104895D01*
X126293619Y-116057276D01*
X126388857Y-116009657D01*
X126531714Y-116009657D01*
X126626952Y-116057276D01*
X126674571Y-116104895D01*
X126722190Y-116200133D01*
X126722190Y-116581085D01*
X127198380Y-115057276D02*
X127198380Y-115628704D01*
X127198380Y-115342990D02*
X126198380Y-115342990D01*
X126341238Y-115438228D01*
X126436476Y-115533466D01*
X126484095Y-115628704D01*
X126198380Y-114723942D02*
X126198380Y-114057276D01*
X127198380Y-114485847D01*
X142590780Y-115958857D02*
X142114590Y-116292190D01*
X142590780Y-116530285D02*
X141590780Y-116530285D01*
X141590780Y-116149333D01*
X141638400Y-116054095D01*
X141686019Y-116006476D01*
X141781257Y-115958857D01*
X141924114Y-115958857D01*
X142019352Y-116006476D01*
X142066971Y-116054095D01*
X142114590Y-116149333D01*
X142114590Y-116530285D01*
X142590780Y-115006476D02*
X142590780Y-115577904D01*
X142590780Y-115292190D02*
X141590780Y-115292190D01*
X141733638Y-115387428D01*
X141828876Y-115482666D01*
X141876495Y-115577904D01*
X142590780Y-114530285D02*
X142590780Y-114339809D01*
X142543161Y-114244571D01*
X142495542Y-114196952D01*
X142352685Y-114101714D01*
X142162209Y-114054095D01*
X141781257Y-114054095D01*
X141686019Y-114101714D01*
X141638400Y-114149333D01*
X141590780Y-114244571D01*
X141590780Y-114435047D01*
X141638400Y-114530285D01*
X141686019Y-114577904D01*
X141781257Y-114625523D01*
X142019352Y-114625523D01*
X142114590Y-114577904D01*
X142162209Y-114530285D01*
X142209828Y-114435047D01*
X142209828Y-114244571D01*
X142162209Y-114149333D01*
X142114590Y-114101714D01*
X142019352Y-114054095D01*
X154579580Y-116009657D02*
X154103390Y-116342990D01*
X154579580Y-116581085D02*
X153579580Y-116581085D01*
X153579580Y-116200133D01*
X153627200Y-116104895D01*
X153674819Y-116057276D01*
X153770057Y-116009657D01*
X153912914Y-116009657D01*
X154008152Y-116057276D01*
X154055771Y-116104895D01*
X154103390Y-116200133D01*
X154103390Y-116581085D01*
X153674819Y-115628704D02*
X153627200Y-115581085D01*
X153579580Y-115485847D01*
X153579580Y-115247752D01*
X153627200Y-115152514D01*
X153674819Y-115104895D01*
X153770057Y-115057276D01*
X153865295Y-115057276D01*
X154008152Y-115104895D01*
X154579580Y-115676323D01*
X154579580Y-115057276D01*
X154579580Y-114104895D02*
X154579580Y-114676323D01*
X154579580Y-114390609D02*
X153579580Y-114390609D01*
X153722438Y-114485847D01*
X153817676Y-114581085D01*
X153865295Y-114676323D01*
X170835580Y-115958857D02*
X170359390Y-116292190D01*
X170835580Y-116530285D02*
X169835580Y-116530285D01*
X169835580Y-116149333D01*
X169883200Y-116054095D01*
X169930819Y-116006476D01*
X170026057Y-115958857D01*
X170168914Y-115958857D01*
X170264152Y-116006476D01*
X170311771Y-116054095D01*
X170359390Y-116149333D01*
X170359390Y-116530285D01*
X169930819Y-115577904D02*
X169883200Y-115530285D01*
X169835580Y-115435047D01*
X169835580Y-115196952D01*
X169883200Y-115101714D01*
X169930819Y-115054095D01*
X170026057Y-115006476D01*
X170121295Y-115006476D01*
X170264152Y-115054095D01*
X170835580Y-115625523D01*
X170835580Y-115006476D01*
X169835580Y-114673142D02*
X169835580Y-114054095D01*
X170216533Y-114387428D01*
X170216533Y-114244571D01*
X170264152Y-114149333D01*
X170311771Y-114101714D01*
X170407009Y-114054095D01*
X170645104Y-114054095D01*
X170740342Y-114101714D01*
X170787961Y-114149333D01*
X170835580Y-114244571D01*
X170835580Y-114530285D01*
X170787961Y-114625523D01*
X170740342Y-114673142D01*
X123591580Y-115939866D02*
X123115390Y-116273200D01*
X123591580Y-116511295D02*
X122591580Y-116511295D01*
X122591580Y-116130342D01*
X122639200Y-116035104D01*
X122686819Y-115987485D01*
X122782057Y-115939866D01*
X122924914Y-115939866D01*
X123020152Y-115987485D01*
X123067771Y-116035104D01*
X123115390Y-116130342D01*
X123115390Y-116511295D01*
X123591580Y-114987485D02*
X123591580Y-115558914D01*
X123591580Y-115273200D02*
X122591580Y-115273200D01*
X122734438Y-115368438D01*
X122829676Y-115463676D01*
X122877295Y-115558914D01*
X138882380Y-115939866D02*
X138406190Y-116273200D01*
X138882380Y-116511295D02*
X137882380Y-116511295D01*
X137882380Y-116130342D01*
X137930000Y-116035104D01*
X137977619Y-115987485D01*
X138072857Y-115939866D01*
X138215714Y-115939866D01*
X138310952Y-115987485D01*
X138358571Y-116035104D01*
X138406190Y-116130342D01*
X138406190Y-116511295D01*
X137882380Y-115606533D02*
X137882380Y-114987485D01*
X138263333Y-115320819D01*
X138263333Y-115177961D01*
X138310952Y-115082723D01*
X138358571Y-115035104D01*
X138453809Y-114987485D01*
X138691904Y-114987485D01*
X138787142Y-115035104D01*
X138834761Y-115082723D01*
X138882380Y-115177961D01*
X138882380Y-115463676D01*
X138834761Y-115558914D01*
X138787142Y-115606533D01*
X158237180Y-115939866D02*
X157760990Y-116273200D01*
X158237180Y-116511295D02*
X157237180Y-116511295D01*
X157237180Y-116130342D01*
X157284800Y-116035104D01*
X157332419Y-115987485D01*
X157427657Y-115939866D01*
X157570514Y-115939866D01*
X157665752Y-115987485D01*
X157713371Y-116035104D01*
X157760990Y-116130342D01*
X157760990Y-116511295D01*
X157237180Y-115035104D02*
X157237180Y-115511295D01*
X157713371Y-115558914D01*
X157665752Y-115511295D01*
X157618133Y-115416057D01*
X157618133Y-115177961D01*
X157665752Y-115082723D01*
X157713371Y-115035104D01*
X157808609Y-114987485D01*
X158046704Y-114987485D01*
X158141942Y-115035104D01*
X158189561Y-115082723D01*
X158237180Y-115177961D01*
X158237180Y-115416057D01*
X158189561Y-115511295D01*
X158141942Y-115558914D01*
X126611142Y-128849380D02*
X126277809Y-128373190D01*
X126039714Y-128849380D02*
X126039714Y-127849380D01*
X126420666Y-127849380D01*
X126515904Y-127897000D01*
X126563523Y-127944619D01*
X126611142Y-128039857D01*
X126611142Y-128182714D01*
X126563523Y-128277952D01*
X126515904Y-128325571D01*
X126420666Y-128373190D01*
X126039714Y-128373190D01*
X126992095Y-127944619D02*
X127039714Y-127897000D01*
X127134952Y-127849380D01*
X127373047Y-127849380D01*
X127468285Y-127897000D01*
X127515904Y-127944619D01*
X127563523Y-128039857D01*
X127563523Y-128135095D01*
X127515904Y-128277952D01*
X126944476Y-128849380D01*
X127563523Y-128849380D01*
X128468285Y-127849380D02*
X127992095Y-127849380D01*
X127944476Y-128325571D01*
X127992095Y-128277952D01*
X128087333Y-128230333D01*
X128325428Y-128230333D01*
X128420666Y-128277952D01*
X128468285Y-128325571D01*
X128515904Y-128420809D01*
X128515904Y-128658904D01*
X128468285Y-128754142D01*
X128420666Y-128801761D01*
X128325428Y-128849380D01*
X128087333Y-128849380D01*
X127992095Y-128801761D01*
X127944476Y-128754142D01*
X140581142Y-128722380D02*
X140247809Y-128246190D01*
X140009714Y-128722380D02*
X140009714Y-127722380D01*
X140390666Y-127722380D01*
X140485904Y-127770000D01*
X140533523Y-127817619D01*
X140581142Y-127912857D01*
X140581142Y-128055714D01*
X140533523Y-128150952D01*
X140485904Y-128198571D01*
X140390666Y-128246190D01*
X140009714Y-128246190D01*
X140962095Y-127817619D02*
X141009714Y-127770000D01*
X141104952Y-127722380D01*
X141343047Y-127722380D01*
X141438285Y-127770000D01*
X141485904Y-127817619D01*
X141533523Y-127912857D01*
X141533523Y-128008095D01*
X141485904Y-128150952D01*
X140914476Y-128722380D01*
X141533523Y-128722380D01*
X141866857Y-127722380D02*
X142533523Y-127722380D01*
X142104952Y-128722380D01*
X156075142Y-128722380D02*
X155741809Y-128246190D01*
X155503714Y-128722380D02*
X155503714Y-127722380D01*
X155884666Y-127722380D01*
X155979904Y-127770000D01*
X156027523Y-127817619D01*
X156075142Y-127912857D01*
X156075142Y-128055714D01*
X156027523Y-128150952D01*
X155979904Y-128198571D01*
X155884666Y-128246190D01*
X155503714Y-128246190D01*
X156456095Y-127817619D02*
X156503714Y-127770000D01*
X156598952Y-127722380D01*
X156837047Y-127722380D01*
X156932285Y-127770000D01*
X156979904Y-127817619D01*
X157027523Y-127912857D01*
X157027523Y-128008095D01*
X156979904Y-128150952D01*
X156408476Y-128722380D01*
X157027523Y-128722380D01*
X157503714Y-128722380D02*
X157694190Y-128722380D01*
X157789428Y-128674761D01*
X157837047Y-128627142D01*
X157932285Y-128484285D01*
X157979904Y-128293809D01*
X157979904Y-127912857D01*
X157932285Y-127817619D01*
X157884666Y-127770000D01*
X157789428Y-127722380D01*
X157598952Y-127722380D01*
X157503714Y-127770000D01*
X157456095Y-127817619D01*
X157408476Y-127912857D01*
X157408476Y-128150952D01*
X157456095Y-128246190D01*
X157503714Y-128293809D01*
X157598952Y-128341428D01*
X157789428Y-128341428D01*
X157884666Y-128293809D01*
X157932285Y-128246190D01*
X157979904Y-128150952D01*
X169410142Y-128595380D02*
X169076809Y-128119190D01*
X168838714Y-128595380D02*
X168838714Y-127595380D01*
X169219666Y-127595380D01*
X169314904Y-127643000D01*
X169362523Y-127690619D01*
X169410142Y-127785857D01*
X169410142Y-127928714D01*
X169362523Y-128023952D01*
X169314904Y-128071571D01*
X169219666Y-128119190D01*
X168838714Y-128119190D01*
X169743476Y-127595380D02*
X170362523Y-127595380D01*
X170029190Y-127976333D01*
X170172047Y-127976333D01*
X170267285Y-128023952D01*
X170314904Y-128071571D01*
X170362523Y-128166809D01*
X170362523Y-128404904D01*
X170314904Y-128500142D01*
X170267285Y-128547761D01*
X170172047Y-128595380D01*
X169886333Y-128595380D01*
X169791095Y-128547761D01*
X169743476Y-128500142D01*
X171314904Y-128595380D02*
X170743476Y-128595380D01*
X171029190Y-128595380D02*
X171029190Y-127595380D01*
X170933952Y-127738238D01*
X170838714Y-127833476D01*
X170743476Y-127881095D01*
X127214333Y-134056380D02*
X126881000Y-133580190D01*
X126642904Y-134056380D02*
X126642904Y-133056380D01*
X127023857Y-133056380D01*
X127119095Y-133104000D01*
X127166714Y-133151619D01*
X127214333Y-133246857D01*
X127214333Y-133389714D01*
X127166714Y-133484952D01*
X127119095Y-133532571D01*
X127023857Y-133580190D01*
X126642904Y-133580190D01*
X127690523Y-134056380D02*
X127881000Y-134056380D01*
X127976238Y-134008761D01*
X128023857Y-133961142D01*
X128119095Y-133818285D01*
X128166714Y-133627809D01*
X128166714Y-133246857D01*
X128119095Y-133151619D01*
X128071476Y-133104000D01*
X127976238Y-133056380D01*
X127785761Y-133056380D01*
X127690523Y-133104000D01*
X127642904Y-133151619D01*
X127595285Y-133246857D01*
X127595285Y-133484952D01*
X127642904Y-133580190D01*
X127690523Y-133627809D01*
X127785761Y-133675428D01*
X127976238Y-133675428D01*
X128071476Y-133627809D01*
X128119095Y-133580190D01*
X128166714Y-133484952D01*
X140581142Y-133929380D02*
X140247809Y-133453190D01*
X140009714Y-133929380D02*
X140009714Y-132929380D01*
X140390666Y-132929380D01*
X140485904Y-132977000D01*
X140533523Y-133024619D01*
X140581142Y-133119857D01*
X140581142Y-133262714D01*
X140533523Y-133357952D01*
X140485904Y-133405571D01*
X140390666Y-133453190D01*
X140009714Y-133453190D01*
X141533523Y-133929380D02*
X140962095Y-133929380D01*
X141247809Y-133929380D02*
X141247809Y-132929380D01*
X141152571Y-133072238D01*
X141057333Y-133167476D01*
X140962095Y-133215095D01*
X142485904Y-133929380D02*
X141914476Y-133929380D01*
X142200190Y-133929380D02*
X142200190Y-132929380D01*
X142104952Y-133072238D01*
X142009714Y-133167476D01*
X141914476Y-133215095D01*
X155948142Y-133929380D02*
X155614809Y-133453190D01*
X155376714Y-133929380D02*
X155376714Y-132929380D01*
X155757666Y-132929380D01*
X155852904Y-132977000D01*
X155900523Y-133024619D01*
X155948142Y-133119857D01*
X155948142Y-133262714D01*
X155900523Y-133357952D01*
X155852904Y-133405571D01*
X155757666Y-133453190D01*
X155376714Y-133453190D01*
X156900523Y-133929380D02*
X156329095Y-133929380D01*
X156614809Y-133929380D02*
X156614809Y-132929380D01*
X156519571Y-133072238D01*
X156424333Y-133167476D01*
X156329095Y-133215095D01*
X157233857Y-132929380D02*
X157852904Y-132929380D01*
X157519571Y-133310333D01*
X157662428Y-133310333D01*
X157757666Y-133357952D01*
X157805285Y-133405571D01*
X157852904Y-133500809D01*
X157852904Y-133738904D01*
X157805285Y-133834142D01*
X157757666Y-133881761D01*
X157662428Y-133929380D01*
X157376714Y-133929380D01*
X157281476Y-133881761D01*
X157233857Y-133834142D01*
X169410142Y-133929380D02*
X169076809Y-133453190D01*
X168838714Y-133929380D02*
X168838714Y-132929380D01*
X169219666Y-132929380D01*
X169314904Y-132977000D01*
X169362523Y-133024619D01*
X169410142Y-133119857D01*
X169410142Y-133262714D01*
X169362523Y-133357952D01*
X169314904Y-133405571D01*
X169219666Y-133453190D01*
X168838714Y-133453190D01*
X170362523Y-133929380D02*
X169791095Y-133929380D01*
X170076809Y-133929380D02*
X170076809Y-132929380D01*
X169981571Y-133072238D01*
X169886333Y-133167476D01*
X169791095Y-133215095D01*
X171267285Y-132929380D02*
X170791095Y-132929380D01*
X170743476Y-133405571D01*
X170791095Y-133357952D01*
X170886333Y-133310333D01*
X171124428Y-133310333D01*
X171219666Y-133357952D01*
X171267285Y-133405571D01*
X171314904Y-133500809D01*
X171314904Y-133738904D01*
X171267285Y-133834142D01*
X171219666Y-133881761D01*
X171124428Y-133929380D01*
X170886333Y-133929380D01*
X170791095Y-133881761D01*
X170743476Y-133834142D01*
X133723142Y-128849380D02*
X133389809Y-128373190D01*
X133151714Y-128849380D02*
X133151714Y-127849380D01*
X133532666Y-127849380D01*
X133627904Y-127897000D01*
X133675523Y-127944619D01*
X133723142Y-128039857D01*
X133723142Y-128182714D01*
X133675523Y-128277952D01*
X133627904Y-128325571D01*
X133532666Y-128373190D01*
X133151714Y-128373190D01*
X134104095Y-127944619D02*
X134151714Y-127897000D01*
X134246952Y-127849380D01*
X134485047Y-127849380D01*
X134580285Y-127897000D01*
X134627904Y-127944619D01*
X134675523Y-128039857D01*
X134675523Y-128135095D01*
X134627904Y-128277952D01*
X134056476Y-128849380D01*
X134675523Y-128849380D01*
X135532666Y-127849380D02*
X135342190Y-127849380D01*
X135246952Y-127897000D01*
X135199333Y-127944619D01*
X135104095Y-128087476D01*
X135056476Y-128277952D01*
X135056476Y-128658904D01*
X135104095Y-128754142D01*
X135151714Y-128801761D01*
X135246952Y-128849380D01*
X135437428Y-128849380D01*
X135532666Y-128801761D01*
X135580285Y-128754142D01*
X135627904Y-128658904D01*
X135627904Y-128420809D01*
X135580285Y-128325571D01*
X135532666Y-128277952D01*
X135437428Y-128230333D01*
X135246952Y-128230333D01*
X135151714Y-128277952D01*
X135104095Y-128325571D01*
X135056476Y-128420809D01*
X147693142Y-128722380D02*
X147359809Y-128246190D01*
X147121714Y-128722380D02*
X147121714Y-127722380D01*
X147502666Y-127722380D01*
X147597904Y-127770000D01*
X147645523Y-127817619D01*
X147693142Y-127912857D01*
X147693142Y-128055714D01*
X147645523Y-128150952D01*
X147597904Y-128198571D01*
X147502666Y-128246190D01*
X147121714Y-128246190D01*
X148074095Y-127817619D02*
X148121714Y-127770000D01*
X148216952Y-127722380D01*
X148455047Y-127722380D01*
X148550285Y-127770000D01*
X148597904Y-127817619D01*
X148645523Y-127912857D01*
X148645523Y-128008095D01*
X148597904Y-128150952D01*
X148026476Y-128722380D01*
X148645523Y-128722380D01*
X149216952Y-128150952D02*
X149121714Y-128103333D01*
X149074095Y-128055714D01*
X149026476Y-127960476D01*
X149026476Y-127912857D01*
X149074095Y-127817619D01*
X149121714Y-127770000D01*
X149216952Y-127722380D01*
X149407428Y-127722380D01*
X149502666Y-127770000D01*
X149550285Y-127817619D01*
X149597904Y-127912857D01*
X149597904Y-127960476D01*
X149550285Y-128055714D01*
X149502666Y-128103333D01*
X149407428Y-128150952D01*
X149216952Y-128150952D01*
X149121714Y-128198571D01*
X149074095Y-128246190D01*
X149026476Y-128341428D01*
X149026476Y-128531904D01*
X149074095Y-128627142D01*
X149121714Y-128674761D01*
X149216952Y-128722380D01*
X149407428Y-128722380D01*
X149502666Y-128674761D01*
X149550285Y-128627142D01*
X149597904Y-128531904D01*
X149597904Y-128341428D01*
X149550285Y-128246190D01*
X149502666Y-128198571D01*
X149407428Y-128150952D01*
X163314142Y-128722380D02*
X162980809Y-128246190D01*
X162742714Y-128722380D02*
X162742714Y-127722380D01*
X163123666Y-127722380D01*
X163218904Y-127770000D01*
X163266523Y-127817619D01*
X163314142Y-127912857D01*
X163314142Y-128055714D01*
X163266523Y-128150952D01*
X163218904Y-128198571D01*
X163123666Y-128246190D01*
X162742714Y-128246190D01*
X163647476Y-127722380D02*
X164266523Y-127722380D01*
X163933190Y-128103333D01*
X164076047Y-128103333D01*
X164171285Y-128150952D01*
X164218904Y-128198571D01*
X164266523Y-128293809D01*
X164266523Y-128531904D01*
X164218904Y-128627142D01*
X164171285Y-128674761D01*
X164076047Y-128722380D01*
X163790333Y-128722380D01*
X163695095Y-128674761D01*
X163647476Y-128627142D01*
X164885571Y-127722380D02*
X164980809Y-127722380D01*
X165076047Y-127770000D01*
X165123666Y-127817619D01*
X165171285Y-127912857D01*
X165218904Y-128103333D01*
X165218904Y-128341428D01*
X165171285Y-128531904D01*
X165123666Y-128627142D01*
X165076047Y-128674761D01*
X164980809Y-128722380D01*
X164885571Y-128722380D01*
X164790333Y-128674761D01*
X164742714Y-128627142D01*
X164695095Y-128531904D01*
X164647476Y-128341428D01*
X164647476Y-128103333D01*
X164695095Y-127912857D01*
X164742714Y-127817619D01*
X164790333Y-127770000D01*
X164885571Y-127722380D01*
X176776142Y-128722380D02*
X176442809Y-128246190D01*
X176204714Y-128722380D02*
X176204714Y-127722380D01*
X176585666Y-127722380D01*
X176680904Y-127770000D01*
X176728523Y-127817619D01*
X176776142Y-127912857D01*
X176776142Y-128055714D01*
X176728523Y-128150952D01*
X176680904Y-128198571D01*
X176585666Y-128246190D01*
X176204714Y-128246190D01*
X177109476Y-127722380D02*
X177728523Y-127722380D01*
X177395190Y-128103333D01*
X177538047Y-128103333D01*
X177633285Y-128150952D01*
X177680904Y-128198571D01*
X177728523Y-128293809D01*
X177728523Y-128531904D01*
X177680904Y-128627142D01*
X177633285Y-128674761D01*
X177538047Y-128722380D01*
X177252333Y-128722380D01*
X177157095Y-128674761D01*
X177109476Y-128627142D01*
X178109476Y-127817619D02*
X178157095Y-127770000D01*
X178252333Y-127722380D01*
X178490428Y-127722380D01*
X178585666Y-127770000D01*
X178633285Y-127817619D01*
X178680904Y-127912857D01*
X178680904Y-128008095D01*
X178633285Y-128150952D01*
X178061857Y-128722380D01*
X178680904Y-128722380D01*
X133723142Y-134183380D02*
X133389809Y-133707190D01*
X133151714Y-134183380D02*
X133151714Y-133183380D01*
X133532666Y-133183380D01*
X133627904Y-133231000D01*
X133675523Y-133278619D01*
X133723142Y-133373857D01*
X133723142Y-133516714D01*
X133675523Y-133611952D01*
X133627904Y-133659571D01*
X133532666Y-133707190D01*
X133151714Y-133707190D01*
X134675523Y-134183380D02*
X134104095Y-134183380D01*
X134389809Y-134183380D02*
X134389809Y-133183380D01*
X134294571Y-133326238D01*
X134199333Y-133421476D01*
X134104095Y-133469095D01*
X135294571Y-133183380D02*
X135389809Y-133183380D01*
X135485047Y-133231000D01*
X135532666Y-133278619D01*
X135580285Y-133373857D01*
X135627904Y-133564333D01*
X135627904Y-133802428D01*
X135580285Y-133992904D01*
X135532666Y-134088142D01*
X135485047Y-134135761D01*
X135389809Y-134183380D01*
X135294571Y-134183380D01*
X135199333Y-134135761D01*
X135151714Y-134088142D01*
X135104095Y-133992904D01*
X135056476Y-133802428D01*
X135056476Y-133564333D01*
X135104095Y-133373857D01*
X135151714Y-133278619D01*
X135199333Y-133231000D01*
X135294571Y-133183380D01*
X147693142Y-133929380D02*
X147359809Y-133453190D01*
X147121714Y-133929380D02*
X147121714Y-132929380D01*
X147502666Y-132929380D01*
X147597904Y-132977000D01*
X147645523Y-133024619D01*
X147693142Y-133119857D01*
X147693142Y-133262714D01*
X147645523Y-133357952D01*
X147597904Y-133405571D01*
X147502666Y-133453190D01*
X147121714Y-133453190D01*
X148645523Y-133929380D02*
X148074095Y-133929380D01*
X148359809Y-133929380D02*
X148359809Y-132929380D01*
X148264571Y-133072238D01*
X148169333Y-133167476D01*
X148074095Y-133215095D01*
X149026476Y-133024619D02*
X149074095Y-132977000D01*
X149169333Y-132929380D01*
X149407428Y-132929380D01*
X149502666Y-132977000D01*
X149550285Y-133024619D01*
X149597904Y-133119857D01*
X149597904Y-133215095D01*
X149550285Y-133357952D01*
X148978857Y-133929380D01*
X149597904Y-133929380D01*
X163314142Y-133929380D02*
X162980809Y-133453190D01*
X162742714Y-133929380D02*
X162742714Y-132929380D01*
X163123666Y-132929380D01*
X163218904Y-132977000D01*
X163266523Y-133024619D01*
X163314142Y-133119857D01*
X163314142Y-133262714D01*
X163266523Y-133357952D01*
X163218904Y-133405571D01*
X163123666Y-133453190D01*
X162742714Y-133453190D01*
X164266523Y-133929380D02*
X163695095Y-133929380D01*
X163980809Y-133929380D02*
X163980809Y-132929380D01*
X163885571Y-133072238D01*
X163790333Y-133167476D01*
X163695095Y-133215095D01*
X165123666Y-133262714D02*
X165123666Y-133929380D01*
X164885571Y-132881761D02*
X164647476Y-133596047D01*
X165266523Y-133596047D01*
X176776142Y-134056380D02*
X176442809Y-133580190D01*
X176204714Y-134056380D02*
X176204714Y-133056380D01*
X176585666Y-133056380D01*
X176680904Y-133104000D01*
X176728523Y-133151619D01*
X176776142Y-133246857D01*
X176776142Y-133389714D01*
X176728523Y-133484952D01*
X176680904Y-133532571D01*
X176585666Y-133580190D01*
X176204714Y-133580190D01*
X177728523Y-134056380D02*
X177157095Y-134056380D01*
X177442809Y-134056380D02*
X177442809Y-133056380D01*
X177347571Y-133199238D01*
X177252333Y-133294476D01*
X177157095Y-133342095D01*
X178585666Y-133056380D02*
X178395190Y-133056380D01*
X178299952Y-133104000D01*
X178252333Y-133151619D01*
X178157095Y-133294476D01*
X178109476Y-133484952D01*
X178109476Y-133865904D01*
X178157095Y-133961142D01*
X178204714Y-134008761D01*
X178299952Y-134056380D01*
X178490428Y-134056380D01*
X178585666Y-134008761D01*
X178633285Y-133961142D01*
X178680904Y-133865904D01*
X178680904Y-133627809D01*
X178633285Y-133532571D01*
X178585666Y-133484952D01*
X178490428Y-133437333D01*
X178299952Y-133437333D01*
X178204714Y-133484952D01*
X178157095Y-133532571D01*
X178109476Y-133627809D01*
X108857142Y-52822380D02*
X108523809Y-52346190D01*
X108285714Y-52822380D02*
X108285714Y-51822380D01*
X108666666Y-51822380D01*
X108761904Y-51870000D01*
X108809523Y-51917619D01*
X108857142Y-52012857D01*
X108857142Y-52155714D01*
X108809523Y-52250952D01*
X108761904Y-52298571D01*
X108666666Y-52346190D01*
X108285714Y-52346190D01*
X109190476Y-51822380D02*
X109809523Y-51822380D01*
X109476190Y-52203333D01*
X109619047Y-52203333D01*
X109714285Y-52250952D01*
X109761904Y-52298571D01*
X109809523Y-52393809D01*
X109809523Y-52631904D01*
X109761904Y-52727142D01*
X109714285Y-52774761D01*
X109619047Y-52822380D01*
X109333333Y-52822380D01*
X109238095Y-52774761D01*
X109190476Y-52727142D01*
X110142857Y-51822380D02*
X110761904Y-51822380D01*
X110428571Y-52203333D01*
X110571428Y-52203333D01*
X110666666Y-52250952D01*
X110714285Y-52298571D01*
X110761904Y-52393809D01*
X110761904Y-52631904D01*
X110714285Y-52727142D01*
X110666666Y-52774761D01*
X110571428Y-52822380D01*
X110285714Y-52822380D01*
X110190476Y-52774761D01*
X110142857Y-52727142D01*
X149068780Y-99182304D02*
X149878304Y-99182304D01*
X149973542Y-99134685D01*
X150021161Y-99087066D01*
X150068780Y-98991828D01*
X150068780Y-98801352D01*
X150021161Y-98706114D01*
X149973542Y-98658495D01*
X149878304Y-98610876D01*
X149068780Y-98610876D01*
X150068780Y-97610876D02*
X150068780Y-98182304D01*
X150068780Y-97896590D02*
X149068780Y-97896590D01*
X149211638Y-97991828D01*
X149306876Y-98087066D01*
X149354495Y-98182304D01*
X157851180Y-99212304D02*
X158660704Y-99212304D01*
X158755942Y-99164685D01*
X158803561Y-99117066D01*
X158851180Y-99021828D01*
X158851180Y-98831352D01*
X158803561Y-98736114D01*
X158755942Y-98688495D01*
X158660704Y-98640876D01*
X157851180Y-98640876D01*
X157946419Y-98212304D02*
X157898800Y-98164685D01*
X157851180Y-98069447D01*
X157851180Y-97831352D01*
X157898800Y-97736114D01*
X157946419Y-97688495D01*
X158041657Y-97640876D01*
X158136895Y-97640876D01*
X158279752Y-97688495D01*
X158851180Y-98259923D01*
X158851180Y-97640876D01*
X130048095Y-133183380D02*
X130048095Y-133992904D01*
X130095714Y-134088142D01*
X130143333Y-134135761D01*
X130238571Y-134183380D01*
X130429047Y-134183380D01*
X130524285Y-134135761D01*
X130571904Y-134088142D01*
X130619523Y-133992904D01*
X130619523Y-133183380D01*
X131524285Y-133516714D02*
X131524285Y-134183380D01*
X131286190Y-133135761D02*
X131048095Y-133850047D01*
X131667142Y-133850047D01*
X144018095Y-133056380D02*
X144018095Y-133865904D01*
X144065714Y-133961142D01*
X144113333Y-134008761D01*
X144208571Y-134056380D01*
X144399047Y-134056380D01*
X144494285Y-134008761D01*
X144541904Y-133961142D01*
X144589523Y-133865904D01*
X144589523Y-133056380D01*
X145541904Y-133056380D02*
X145065714Y-133056380D01*
X145018095Y-133532571D01*
X145065714Y-133484952D01*
X145160952Y-133437333D01*
X145399047Y-133437333D01*
X145494285Y-133484952D01*
X145541904Y-133532571D01*
X145589523Y-133627809D01*
X145589523Y-133865904D01*
X145541904Y-133961142D01*
X145494285Y-134008761D01*
X145399047Y-134056380D01*
X145160952Y-134056380D01*
X145065714Y-134008761D01*
X145018095Y-133961142D01*
X159512095Y-133056380D02*
X159512095Y-133865904D01*
X159559714Y-133961142D01*
X159607333Y-134008761D01*
X159702571Y-134056380D01*
X159893047Y-134056380D01*
X159988285Y-134008761D01*
X160035904Y-133961142D01*
X160083523Y-133865904D01*
X160083523Y-133056380D01*
X160988285Y-133056380D02*
X160797809Y-133056380D01*
X160702571Y-133104000D01*
X160654952Y-133151619D01*
X160559714Y-133294476D01*
X160512095Y-133484952D01*
X160512095Y-133865904D01*
X160559714Y-133961142D01*
X160607333Y-134008761D01*
X160702571Y-134056380D01*
X160893047Y-134056380D01*
X160988285Y-134008761D01*
X161035904Y-133961142D01*
X161083523Y-133865904D01*
X161083523Y-133627809D01*
X161035904Y-133532571D01*
X160988285Y-133484952D01*
X160893047Y-133437333D01*
X160702571Y-133437333D01*
X160607333Y-133484952D01*
X160559714Y-133532571D01*
X160512095Y-133627809D01*
X172720095Y-133056380D02*
X172720095Y-133865904D01*
X172767714Y-133961142D01*
X172815333Y-134008761D01*
X172910571Y-134056380D01*
X173101047Y-134056380D01*
X173196285Y-134008761D01*
X173243904Y-133961142D01*
X173291523Y-133865904D01*
X173291523Y-133056380D01*
X173672476Y-133056380D02*
X174339142Y-133056380D01*
X173910571Y-134056380D01*
X184658095Y-93686380D02*
X184658095Y-94495904D01*
X184705714Y-94591142D01*
X184753333Y-94638761D01*
X184848571Y-94686380D01*
X185039047Y-94686380D01*
X185134285Y-94638761D01*
X185181904Y-94591142D01*
X185229523Y-94495904D01*
X185229523Y-93686380D01*
X185610476Y-93686380D02*
X186229523Y-93686380D01*
X185896190Y-94067333D01*
X186039047Y-94067333D01*
X186134285Y-94114952D01*
X186181904Y-94162571D01*
X186229523Y-94257809D01*
X186229523Y-94495904D01*
X186181904Y-94591142D01*
X186134285Y-94638761D01*
X186039047Y-94686380D01*
X185753333Y-94686380D01*
X185658095Y-94638761D01*
X185610476Y-94591142D01*
X186333333Y-78857142D02*
X186285714Y-78904761D01*
X186142857Y-78952380D01*
X186047619Y-78952380D01*
X185904761Y-78904761D01*
X185809523Y-78809523D01*
X185761904Y-78714285D01*
X185714285Y-78523809D01*
X185714285Y-78380952D01*
X185761904Y-78190476D01*
X185809523Y-78095238D01*
X185904761Y-78000000D01*
X186047619Y-77952380D01*
X186142857Y-77952380D01*
X186285714Y-78000000D01*
X186333333Y-78047619D01*
X187285714Y-78952380D02*
X186714285Y-78952380D01*
X187000000Y-78952380D02*
X187000000Y-77952380D01*
X186904761Y-78095238D01*
X186809523Y-78190476D01*
X186714285Y-78238095D01*
X130994161Y-123966219D02*
X130898923Y-123918600D01*
X130803685Y-123823361D01*
X130660828Y-123680504D01*
X130565590Y-123632885D01*
X130470352Y-123632885D01*
X130517971Y-123870980D02*
X130422733Y-123823361D01*
X130327495Y-123728123D01*
X130279876Y-123537647D01*
X130279876Y-123204314D01*
X130327495Y-123013838D01*
X130422733Y-122918600D01*
X130517971Y-122870980D01*
X130708447Y-122870980D01*
X130803685Y-122918600D01*
X130898923Y-123013838D01*
X130946542Y-123204314D01*
X130946542Y-123537647D01*
X130898923Y-123728123D01*
X130803685Y-123823361D01*
X130708447Y-123870980D01*
X130517971Y-123870980D01*
X131851304Y-122870980D02*
X131375114Y-122870980D01*
X131327495Y-123347171D01*
X131375114Y-123299552D01*
X131470352Y-123251933D01*
X131708447Y-123251933D01*
X131803685Y-123299552D01*
X131851304Y-123347171D01*
X131898923Y-123442409D01*
X131898923Y-123680504D01*
X131851304Y-123775742D01*
X131803685Y-123823361D01*
X131708447Y-123870980D01*
X131470352Y-123870980D01*
X131375114Y-123823361D01*
X131327495Y-123775742D01*
%LPC*%
G36*
G01*
X174163400Y-119436600D02*
X173613400Y-119436600D01*
G75*
G02*
X173413400Y-119236600I0J200000D01*
G01*
X173413400Y-118836600D01*
G75*
G02*
X173613400Y-118636600I200000J0D01*
G01*
X174163400Y-118636600D01*
G75*
G02*
X174363400Y-118836600I0J-200000D01*
G01*
X174363400Y-119236600D01*
G75*
G02*
X174163400Y-119436600I-200000J0D01*
G01*
G37*
G36*
G01*
X174163400Y-117786600D02*
X173613400Y-117786600D01*
G75*
G02*
X173413400Y-117586600I0J200000D01*
G01*
X173413400Y-117186600D01*
G75*
G02*
X173613400Y-116986600I200000J0D01*
G01*
X174163400Y-116986600D01*
G75*
G02*
X174363400Y-117186600I0J-200000D01*
G01*
X174363400Y-117586600D01*
G75*
G02*
X174163400Y-117786600I-200000J0D01*
G01*
G37*
D15*
X161306000Y-125730000D03*
X163306000Y-124780000D03*
X163306000Y-126680000D03*
X149622000Y-125730000D03*
X151622000Y-124780000D03*
X151622000Y-126680000D03*
X134432800Y-125831600D03*
X136432800Y-124881600D03*
X136432800Y-126781600D03*
X177358800Y-125730000D03*
X179358800Y-124780000D03*
X179358800Y-126680000D03*
D16*
X171196000Y-125510800D03*
X170246000Y-123510800D03*
X172146000Y-123510800D03*
X155092400Y-125510800D03*
X154142400Y-123510800D03*
X156042400Y-123510800D03*
X143002000Y-125510800D03*
X142052000Y-123510800D03*
X143952000Y-123510800D03*
X127660400Y-125510800D03*
X126710400Y-123510800D03*
X128610400Y-123510800D03*
D15*
X181626000Y-125730000D03*
X183626000Y-124780000D03*
X183626000Y-126680000D03*
X165522400Y-125730000D03*
X167522400Y-124780000D03*
X167522400Y-126680000D03*
X145608800Y-125730000D03*
X147608800Y-124780000D03*
X147608800Y-126680000D03*
D16*
X174802800Y-125510800D03*
X173852800Y-123510800D03*
X175752800Y-123510800D03*
X158699200Y-125510800D03*
X157749200Y-123510800D03*
X159649200Y-123510800D03*
X139293600Y-125510800D03*
X138343600Y-123510800D03*
X140243600Y-123510800D03*
X125003600Y-123510800D03*
X123103600Y-123510800D03*
X124053600Y-125510800D03*
G36*
G01*
X112575000Y-54012500D02*
X112575000Y-53587500D01*
G75*
G02*
X112787500Y-53375000I212500J0D01*
G01*
X113587500Y-53375000D01*
G75*
G02*
X113800000Y-53587500I0J-212500D01*
G01*
X113800000Y-54012500D01*
G75*
G02*
X113587500Y-54225000I-212500J0D01*
G01*
X112787500Y-54225000D01*
G75*
G02*
X112575000Y-54012500I0J212500D01*
G01*
G37*
G36*
G01*
X114200000Y-54012500D02*
X114200000Y-53587500D01*
G75*
G02*
X114412500Y-53375000I212500J0D01*
G01*
X115212500Y-53375000D01*
G75*
G02*
X115425000Y-53587500I0J-212500D01*
G01*
X115425000Y-54012500D01*
G75*
G02*
X115212500Y-54225000I-212500J0D01*
G01*
X114412500Y-54225000D01*
G75*
G02*
X114200000Y-54012500I0J212500D01*
G01*
G37*
D17*
X128800000Y-69700000D03*
D18*
X128800000Y-72240000D03*
X128800000Y-74780000D03*
X128800000Y-77320000D03*
X128800000Y-79860000D03*
X128800000Y-82400000D03*
X128800000Y-84940000D03*
X128800000Y-87480000D03*
D17*
X128800000Y-93280000D03*
D18*
X128800000Y-95820000D03*
X128800000Y-98360000D03*
X128800000Y-100900000D03*
X128800000Y-103440000D03*
X128800000Y-105980000D03*
D17*
X177060000Y-61290000D03*
D18*
X177060000Y-63830000D03*
X177060000Y-66370000D03*
X177060000Y-68910000D03*
X177060000Y-71450000D03*
X177060000Y-73990000D03*
X177060000Y-76530000D03*
X177060000Y-79070000D03*
X177060000Y-81610000D03*
X177060000Y-84150000D03*
X177060000Y-105980000D03*
X177060000Y-103440000D03*
X177060000Y-100900000D03*
X177060000Y-98360000D03*
X177060000Y-95820000D03*
X177060000Y-93280000D03*
X177060000Y-90740000D03*
D17*
X177060000Y-88200000D03*
D19*
X149307000Y-138773000D03*
X146767000Y-138773000D03*
X144227000Y-138773000D03*
X141687000Y-138773000D03*
X139147000Y-138773000D03*
X136607000Y-138773000D03*
X134067000Y-138773000D03*
X131527000Y-138773000D03*
X128987000Y-138773000D03*
D20*
X126447000Y-138773000D03*
X155367000Y-138746000D03*
D19*
X157907000Y-138746000D03*
X160447000Y-138746000D03*
X162987000Y-138746000D03*
X165527000Y-138746000D03*
X168067000Y-138746000D03*
X170607000Y-138746000D03*
X173147000Y-138746000D03*
X175687000Y-138746000D03*
X178227000Y-138746000D03*
G36*
G01*
X136673000Y-119436600D02*
X136123000Y-119436600D01*
G75*
G02*
X135923000Y-119236600I0J200000D01*
G01*
X135923000Y-118836600D01*
G75*
G02*
X136123000Y-118636600I200000J0D01*
G01*
X136673000Y-118636600D01*
G75*
G02*
X136873000Y-118836600I0J-200000D01*
G01*
X136873000Y-119236600D01*
G75*
G02*
X136673000Y-119436600I-200000J0D01*
G01*
G37*
G36*
G01*
X136673000Y-117786600D02*
X136123000Y-117786600D01*
G75*
G02*
X135923000Y-117586600I0J200000D01*
G01*
X135923000Y-117186600D01*
G75*
G02*
X136123000Y-116986600I200000J0D01*
G01*
X136673000Y-116986600D01*
G75*
G02*
X136873000Y-117186600I0J-200000D01*
G01*
X136873000Y-117586600D01*
G75*
G02*
X136673000Y-117786600I-200000J0D01*
G01*
G37*
G36*
G01*
X151913000Y-117837400D02*
X151363000Y-117837400D01*
G75*
G02*
X151163000Y-117637400I0J200000D01*
G01*
X151163000Y-117237400D01*
G75*
G02*
X151363000Y-117037400I200000J0D01*
G01*
X151913000Y-117037400D01*
G75*
G02*
X152113000Y-117237400I0J-200000D01*
G01*
X152113000Y-117637400D01*
G75*
G02*
X151913000Y-117837400I-200000J0D01*
G01*
G37*
G36*
G01*
X151913000Y-119487400D02*
X151363000Y-119487400D01*
G75*
G02*
X151163000Y-119287400I0J200000D01*
G01*
X151163000Y-118887400D01*
G75*
G02*
X151363000Y-118687400I200000J0D01*
G01*
X151913000Y-118687400D01*
G75*
G02*
X152113000Y-118887400I0J-200000D01*
G01*
X152113000Y-119287400D01*
G75*
G02*
X151913000Y-119487400I-200000J0D01*
G01*
G37*
G36*
G01*
X163546200Y-117786600D02*
X162996200Y-117786600D01*
G75*
G02*
X162796200Y-117586600I0J200000D01*
G01*
X162796200Y-117186600D01*
G75*
G02*
X162996200Y-116986600I200000J0D01*
G01*
X163546200Y-116986600D01*
G75*
G02*
X163746200Y-117186600I0J-200000D01*
G01*
X163746200Y-117586600D01*
G75*
G02*
X163546200Y-117786600I-200000J0D01*
G01*
G37*
G36*
G01*
X163546200Y-119436600D02*
X162996200Y-119436600D01*
G75*
G02*
X162796200Y-119236600I0J200000D01*
G01*
X162796200Y-118836600D01*
G75*
G02*
X162996200Y-118636600I200000J0D01*
G01*
X163546200Y-118636600D01*
G75*
G02*
X163746200Y-118836600I0J-200000D01*
G01*
X163746200Y-119236600D01*
G75*
G02*
X163546200Y-119436600I-200000J0D01*
G01*
G37*
G36*
G01*
X179649800Y-117735800D02*
X179099800Y-117735800D01*
G75*
G02*
X178899800Y-117535800I0J200000D01*
G01*
X178899800Y-117135800D01*
G75*
G02*
X179099800Y-116935800I200000J0D01*
G01*
X179649800Y-116935800D01*
G75*
G02*
X179849800Y-117135800I0J-200000D01*
G01*
X179849800Y-117535800D01*
G75*
G02*
X179649800Y-117735800I-200000J0D01*
G01*
G37*
G36*
G01*
X179649800Y-119385800D02*
X179099800Y-119385800D01*
G75*
G02*
X178899800Y-119185800I0J200000D01*
G01*
X178899800Y-118785800D01*
G75*
G02*
X179099800Y-118585800I200000J0D01*
G01*
X179649800Y-118585800D01*
G75*
G02*
X179849800Y-118785800I0J-200000D01*
G01*
X179849800Y-119185800D01*
G75*
G02*
X179649800Y-119385800I-200000J0D01*
G01*
G37*
G36*
G01*
X132558200Y-117786600D02*
X132008200Y-117786600D01*
G75*
G02*
X131808200Y-117586600I0J200000D01*
G01*
X131808200Y-117186600D01*
G75*
G02*
X132008200Y-116986600I200000J0D01*
G01*
X132558200Y-116986600D01*
G75*
G02*
X132758200Y-117186600I0J-200000D01*
G01*
X132758200Y-117586600D01*
G75*
G02*
X132558200Y-117786600I-200000J0D01*
G01*
G37*
G36*
G01*
X132558200Y-119436600D02*
X132008200Y-119436600D01*
G75*
G02*
X131808200Y-119236600I0J200000D01*
G01*
X131808200Y-118836600D01*
G75*
G02*
X132008200Y-118636600I200000J0D01*
G01*
X132558200Y-118636600D01*
G75*
G02*
X132758200Y-118836600I0J-200000D01*
G01*
X132758200Y-119236600D01*
G75*
G02*
X132558200Y-119436600I-200000J0D01*
G01*
G37*
G36*
G01*
X147849000Y-119487400D02*
X147299000Y-119487400D01*
G75*
G02*
X147099000Y-119287400I0J200000D01*
G01*
X147099000Y-118887400D01*
G75*
G02*
X147299000Y-118687400I200000J0D01*
G01*
X147849000Y-118687400D01*
G75*
G02*
X148049000Y-118887400I0J-200000D01*
G01*
X148049000Y-119287400D01*
G75*
G02*
X147849000Y-119487400I-200000J0D01*
G01*
G37*
G36*
G01*
X147849000Y-117837400D02*
X147299000Y-117837400D01*
G75*
G02*
X147099000Y-117637400I0J200000D01*
G01*
X147099000Y-117237400D01*
G75*
G02*
X147299000Y-117037400I200000J0D01*
G01*
X147849000Y-117037400D01*
G75*
G02*
X148049000Y-117237400I0J-200000D01*
G01*
X148049000Y-117637400D01*
G75*
G02*
X147849000Y-117837400I-200000J0D01*
G01*
G37*
G36*
G01*
X167813400Y-117786600D02*
X167263400Y-117786600D01*
G75*
G02*
X167063400Y-117586600I0J200000D01*
G01*
X167063400Y-117186600D01*
G75*
G02*
X167263400Y-116986600I200000J0D01*
G01*
X167813400Y-116986600D01*
G75*
G02*
X168013400Y-117186600I0J-200000D01*
G01*
X168013400Y-117586600D01*
G75*
G02*
X167813400Y-117786600I-200000J0D01*
G01*
G37*
G36*
G01*
X167813400Y-119436600D02*
X167263400Y-119436600D01*
G75*
G02*
X167063400Y-119236600I0J200000D01*
G01*
X167063400Y-118836600D01*
G75*
G02*
X167263400Y-118636600I200000J0D01*
G01*
X167813400Y-118636600D01*
G75*
G02*
X168013400Y-118836600I0J-200000D01*
G01*
X168013400Y-119236600D01*
G75*
G02*
X167813400Y-119436600I-200000J0D01*
G01*
G37*
G36*
G01*
X183917000Y-117735800D02*
X183367000Y-117735800D01*
G75*
G02*
X183167000Y-117535800I0J200000D01*
G01*
X183167000Y-117135800D01*
G75*
G02*
X183367000Y-116935800I200000J0D01*
G01*
X183917000Y-116935800D01*
G75*
G02*
X184117000Y-117135800I0J-200000D01*
G01*
X184117000Y-117535800D01*
G75*
G02*
X183917000Y-117735800I-200000J0D01*
G01*
G37*
G36*
G01*
X183917000Y-119385800D02*
X183367000Y-119385800D01*
G75*
G02*
X183167000Y-119185800I0J200000D01*
G01*
X183167000Y-118785800D01*
G75*
G02*
X183367000Y-118585800I200000J0D01*
G01*
X183917000Y-118585800D01*
G75*
G02*
X184117000Y-118785800I0J-200000D01*
G01*
X184117000Y-119185800D01*
G75*
G02*
X183917000Y-119385800I-200000J0D01*
G01*
G37*
G36*
G01*
X127021000Y-117786600D02*
X126471000Y-117786600D01*
G75*
G02*
X126271000Y-117586600I0J200000D01*
G01*
X126271000Y-117186600D01*
G75*
G02*
X126471000Y-116986600I200000J0D01*
G01*
X127021000Y-116986600D01*
G75*
G02*
X127221000Y-117186600I0J-200000D01*
G01*
X127221000Y-117586600D01*
G75*
G02*
X127021000Y-117786600I-200000J0D01*
G01*
G37*
G36*
G01*
X127021000Y-119436600D02*
X126471000Y-119436600D01*
G75*
G02*
X126271000Y-119236600I0J200000D01*
G01*
X126271000Y-118836600D01*
G75*
G02*
X126471000Y-118636600I200000J0D01*
G01*
X127021000Y-118636600D01*
G75*
G02*
X127221000Y-118836600I0J-200000D01*
G01*
X127221000Y-119236600D01*
G75*
G02*
X127021000Y-119436600I-200000J0D01*
G01*
G37*
G36*
G01*
X142362600Y-119436600D02*
X141812600Y-119436600D01*
G75*
G02*
X141612600Y-119236600I0J200000D01*
G01*
X141612600Y-118836600D01*
G75*
G02*
X141812600Y-118636600I200000J0D01*
G01*
X142362600Y-118636600D01*
G75*
G02*
X142562600Y-118836600I0J-200000D01*
G01*
X142562600Y-119236600D01*
G75*
G02*
X142362600Y-119436600I-200000J0D01*
G01*
G37*
G36*
G01*
X142362600Y-117786600D02*
X141812600Y-117786600D01*
G75*
G02*
X141612600Y-117586600I0J200000D01*
G01*
X141612600Y-117186600D01*
G75*
G02*
X141812600Y-116986600I200000J0D01*
G01*
X142362600Y-116986600D01*
G75*
G02*
X142562600Y-117186600I0J-200000D01*
G01*
X142562600Y-117586600D01*
G75*
G02*
X142362600Y-117786600I-200000J0D01*
G01*
G37*
G36*
G01*
X154402200Y-119487400D02*
X153852200Y-119487400D01*
G75*
G02*
X153652200Y-119287400I0J200000D01*
G01*
X153652200Y-118887400D01*
G75*
G02*
X153852200Y-118687400I200000J0D01*
G01*
X154402200Y-118687400D01*
G75*
G02*
X154602200Y-118887400I0J-200000D01*
G01*
X154602200Y-119287400D01*
G75*
G02*
X154402200Y-119487400I-200000J0D01*
G01*
G37*
G36*
G01*
X154402200Y-117837400D02*
X153852200Y-117837400D01*
G75*
G02*
X153652200Y-117637400I0J200000D01*
G01*
X153652200Y-117237400D01*
G75*
G02*
X153852200Y-117037400I200000J0D01*
G01*
X154402200Y-117037400D01*
G75*
G02*
X154602200Y-117237400I0J-200000D01*
G01*
X154602200Y-117637400D01*
G75*
G02*
X154402200Y-117837400I-200000J0D01*
G01*
G37*
G36*
G01*
X170556600Y-119436600D02*
X170006600Y-119436600D01*
G75*
G02*
X169806600Y-119236600I0J200000D01*
G01*
X169806600Y-118836600D01*
G75*
G02*
X170006600Y-118636600I200000J0D01*
G01*
X170556600Y-118636600D01*
G75*
G02*
X170756600Y-118836600I0J-200000D01*
G01*
X170756600Y-119236600D01*
G75*
G02*
X170556600Y-119436600I-200000J0D01*
G01*
G37*
G36*
G01*
X170556600Y-117786600D02*
X170006600Y-117786600D01*
G75*
G02*
X169806600Y-117586600I0J200000D01*
G01*
X169806600Y-117186600D01*
G75*
G02*
X170006600Y-116986600I200000J0D01*
G01*
X170556600Y-116986600D01*
G75*
G02*
X170756600Y-117186600I0J-200000D01*
G01*
X170756600Y-117586600D01*
G75*
G02*
X170556600Y-117786600I-200000J0D01*
G01*
G37*
G36*
G01*
X123414200Y-119436600D02*
X122864200Y-119436600D01*
G75*
G02*
X122664200Y-119236600I0J200000D01*
G01*
X122664200Y-118836600D01*
G75*
G02*
X122864200Y-118636600I200000J0D01*
G01*
X123414200Y-118636600D01*
G75*
G02*
X123614200Y-118836600I0J-200000D01*
G01*
X123614200Y-119236600D01*
G75*
G02*
X123414200Y-119436600I-200000J0D01*
G01*
G37*
G36*
G01*
X123414200Y-117786600D02*
X122864200Y-117786600D01*
G75*
G02*
X122664200Y-117586600I0J200000D01*
G01*
X122664200Y-117186600D01*
G75*
G02*
X122864200Y-116986600I200000J0D01*
G01*
X123414200Y-116986600D01*
G75*
G02*
X123614200Y-117186600I0J-200000D01*
G01*
X123614200Y-117586600D01*
G75*
G02*
X123414200Y-117786600I-200000J0D01*
G01*
G37*
G36*
G01*
X138654200Y-119436600D02*
X138104200Y-119436600D01*
G75*
G02*
X137904200Y-119236600I0J200000D01*
G01*
X137904200Y-118836600D01*
G75*
G02*
X138104200Y-118636600I200000J0D01*
G01*
X138654200Y-118636600D01*
G75*
G02*
X138854200Y-118836600I0J-200000D01*
G01*
X138854200Y-119236600D01*
G75*
G02*
X138654200Y-119436600I-200000J0D01*
G01*
G37*
G36*
G01*
X138654200Y-117786600D02*
X138104200Y-117786600D01*
G75*
G02*
X137904200Y-117586600I0J200000D01*
G01*
X137904200Y-117186600D01*
G75*
G02*
X138104200Y-116986600I200000J0D01*
G01*
X138654200Y-116986600D01*
G75*
G02*
X138854200Y-117186600I0J-200000D01*
G01*
X138854200Y-117586600D01*
G75*
G02*
X138654200Y-117786600I-200000J0D01*
G01*
G37*
G36*
G01*
X158009000Y-119436600D02*
X157459000Y-119436600D01*
G75*
G02*
X157259000Y-119236600I0J200000D01*
G01*
X157259000Y-118836600D01*
G75*
G02*
X157459000Y-118636600I200000J0D01*
G01*
X158009000Y-118636600D01*
G75*
G02*
X158209000Y-118836600I0J-200000D01*
G01*
X158209000Y-119236600D01*
G75*
G02*
X158009000Y-119436600I-200000J0D01*
G01*
G37*
G36*
G01*
X158009000Y-117786600D02*
X157459000Y-117786600D01*
G75*
G02*
X157259000Y-117586600I0J200000D01*
G01*
X157259000Y-117186600D01*
G75*
G02*
X157459000Y-116986600I200000J0D01*
G01*
X158009000Y-116986600D01*
G75*
G02*
X158209000Y-117186600I0J-200000D01*
G01*
X158209000Y-117586600D01*
G75*
G02*
X158009000Y-117786600I-200000J0D01*
G01*
G37*
G36*
G01*
X126029000Y-130069000D02*
X126029000Y-129519000D01*
G75*
G02*
X126229000Y-129319000I200000J0D01*
G01*
X126629000Y-129319000D01*
G75*
G02*
X126829000Y-129519000I0J-200000D01*
G01*
X126829000Y-130069000D01*
G75*
G02*
X126629000Y-130269000I-200000J0D01*
G01*
X126229000Y-130269000D01*
G75*
G02*
X126029000Y-130069000I0J200000D01*
G01*
G37*
G36*
G01*
X127679000Y-130069000D02*
X127679000Y-129519000D01*
G75*
G02*
X127879000Y-129319000I200000J0D01*
G01*
X128279000Y-129319000D01*
G75*
G02*
X128479000Y-129519000I0J-200000D01*
G01*
X128479000Y-130069000D01*
G75*
G02*
X128279000Y-130269000I-200000J0D01*
G01*
X127879000Y-130269000D01*
G75*
G02*
X127679000Y-130069000I0J200000D01*
G01*
G37*
G36*
G01*
X141522000Y-129942000D02*
X141522000Y-129392000D01*
G75*
G02*
X141722000Y-129192000I200000J0D01*
G01*
X142122000Y-129192000D01*
G75*
G02*
X142322000Y-129392000I0J-200000D01*
G01*
X142322000Y-129942000D01*
G75*
G02*
X142122000Y-130142000I-200000J0D01*
G01*
X141722000Y-130142000D01*
G75*
G02*
X141522000Y-129942000I0J200000D01*
G01*
G37*
G36*
G01*
X139872000Y-129942000D02*
X139872000Y-129392000D01*
G75*
G02*
X140072000Y-129192000I200000J0D01*
G01*
X140472000Y-129192000D01*
G75*
G02*
X140672000Y-129392000I0J-200000D01*
G01*
X140672000Y-129942000D01*
G75*
G02*
X140472000Y-130142000I-200000J0D01*
G01*
X140072000Y-130142000D01*
G75*
G02*
X139872000Y-129942000I0J200000D01*
G01*
G37*
G36*
G01*
X157016000Y-129942000D02*
X157016000Y-129392000D01*
G75*
G02*
X157216000Y-129192000I200000J0D01*
G01*
X157616000Y-129192000D01*
G75*
G02*
X157816000Y-129392000I0J-200000D01*
G01*
X157816000Y-129942000D01*
G75*
G02*
X157616000Y-130142000I-200000J0D01*
G01*
X157216000Y-130142000D01*
G75*
G02*
X157016000Y-129942000I0J200000D01*
G01*
G37*
G36*
G01*
X155366000Y-129942000D02*
X155366000Y-129392000D01*
G75*
G02*
X155566000Y-129192000I200000J0D01*
G01*
X155966000Y-129192000D01*
G75*
G02*
X156166000Y-129392000I0J-200000D01*
G01*
X156166000Y-129942000D01*
G75*
G02*
X155966000Y-130142000I-200000J0D01*
G01*
X155566000Y-130142000D01*
G75*
G02*
X155366000Y-129942000I0J200000D01*
G01*
G37*
G36*
G01*
X170478000Y-129942000D02*
X170478000Y-129392000D01*
G75*
G02*
X170678000Y-129192000I200000J0D01*
G01*
X171078000Y-129192000D01*
G75*
G02*
X171278000Y-129392000I0J-200000D01*
G01*
X171278000Y-129942000D01*
G75*
G02*
X171078000Y-130142000I-200000J0D01*
G01*
X170678000Y-130142000D01*
G75*
G02*
X170478000Y-129942000I0J200000D01*
G01*
G37*
G36*
G01*
X168828000Y-129942000D02*
X168828000Y-129392000D01*
G75*
G02*
X169028000Y-129192000I200000J0D01*
G01*
X169428000Y-129192000D01*
G75*
G02*
X169628000Y-129392000I0J-200000D01*
G01*
X169628000Y-129942000D01*
G75*
G02*
X169428000Y-130142000I-200000J0D01*
G01*
X169028000Y-130142000D01*
G75*
G02*
X168828000Y-129942000I0J200000D01*
G01*
G37*
G36*
G01*
X127679000Y-132355000D02*
X127679000Y-131805000D01*
G75*
G02*
X127879000Y-131605000I200000J0D01*
G01*
X128279000Y-131605000D01*
G75*
G02*
X128479000Y-131805000I0J-200000D01*
G01*
X128479000Y-132355000D01*
G75*
G02*
X128279000Y-132555000I-200000J0D01*
G01*
X127879000Y-132555000D01*
G75*
G02*
X127679000Y-132355000I0J200000D01*
G01*
G37*
G36*
G01*
X126029000Y-132355000D02*
X126029000Y-131805000D01*
G75*
G02*
X126229000Y-131605000I200000J0D01*
G01*
X126629000Y-131605000D01*
G75*
G02*
X126829000Y-131805000I0J-200000D01*
G01*
X126829000Y-132355000D01*
G75*
G02*
X126629000Y-132555000I-200000J0D01*
G01*
X126229000Y-132555000D01*
G75*
G02*
X126029000Y-132355000I0J200000D01*
G01*
G37*
G36*
G01*
X141522000Y-132228000D02*
X141522000Y-131678000D01*
G75*
G02*
X141722000Y-131478000I200000J0D01*
G01*
X142122000Y-131478000D01*
G75*
G02*
X142322000Y-131678000I0J-200000D01*
G01*
X142322000Y-132228000D01*
G75*
G02*
X142122000Y-132428000I-200000J0D01*
G01*
X141722000Y-132428000D01*
G75*
G02*
X141522000Y-132228000I0J200000D01*
G01*
G37*
G36*
G01*
X139872000Y-132228000D02*
X139872000Y-131678000D01*
G75*
G02*
X140072000Y-131478000I200000J0D01*
G01*
X140472000Y-131478000D01*
G75*
G02*
X140672000Y-131678000I0J-200000D01*
G01*
X140672000Y-132228000D01*
G75*
G02*
X140472000Y-132428000I-200000J0D01*
G01*
X140072000Y-132428000D01*
G75*
G02*
X139872000Y-132228000I0J200000D01*
G01*
G37*
G36*
G01*
X157016000Y-132228000D02*
X157016000Y-131678000D01*
G75*
G02*
X157216000Y-131478000I200000J0D01*
G01*
X157616000Y-131478000D01*
G75*
G02*
X157816000Y-131678000I0J-200000D01*
G01*
X157816000Y-132228000D01*
G75*
G02*
X157616000Y-132428000I-200000J0D01*
G01*
X157216000Y-132428000D01*
G75*
G02*
X157016000Y-132228000I0J200000D01*
G01*
G37*
G36*
G01*
X155366000Y-132228000D02*
X155366000Y-131678000D01*
G75*
G02*
X155566000Y-131478000I200000J0D01*
G01*
X155966000Y-131478000D01*
G75*
G02*
X156166000Y-131678000I0J-200000D01*
G01*
X156166000Y-132228000D01*
G75*
G02*
X155966000Y-132428000I-200000J0D01*
G01*
X155566000Y-132428000D01*
G75*
G02*
X155366000Y-132228000I0J200000D01*
G01*
G37*
G36*
G01*
X170478000Y-132228000D02*
X170478000Y-131678000D01*
G75*
G02*
X170678000Y-131478000I200000J0D01*
G01*
X171078000Y-131478000D01*
G75*
G02*
X171278000Y-131678000I0J-200000D01*
G01*
X171278000Y-132228000D01*
G75*
G02*
X171078000Y-132428000I-200000J0D01*
G01*
X170678000Y-132428000D01*
G75*
G02*
X170478000Y-132228000I0J200000D01*
G01*
G37*
G36*
G01*
X168828000Y-132228000D02*
X168828000Y-131678000D01*
G75*
G02*
X169028000Y-131478000I200000J0D01*
G01*
X169428000Y-131478000D01*
G75*
G02*
X169628000Y-131678000I0J-200000D01*
G01*
X169628000Y-132228000D01*
G75*
G02*
X169428000Y-132428000I-200000J0D01*
G01*
X169028000Y-132428000D01*
G75*
G02*
X168828000Y-132228000I0J200000D01*
G01*
G37*
G36*
G01*
X133941000Y-129519000D02*
X133941000Y-130069000D01*
G75*
G02*
X133741000Y-130269000I-200000J0D01*
G01*
X133341000Y-130269000D01*
G75*
G02*
X133141000Y-130069000I0J200000D01*
G01*
X133141000Y-129519000D01*
G75*
G02*
X133341000Y-129319000I200000J0D01*
G01*
X133741000Y-129319000D01*
G75*
G02*
X133941000Y-129519000I0J-200000D01*
G01*
G37*
G36*
G01*
X135591000Y-129519000D02*
X135591000Y-130069000D01*
G75*
G02*
X135391000Y-130269000I-200000J0D01*
G01*
X134991000Y-130269000D01*
G75*
G02*
X134791000Y-130069000I0J200000D01*
G01*
X134791000Y-129519000D01*
G75*
G02*
X134991000Y-129319000I200000J0D01*
G01*
X135391000Y-129319000D01*
G75*
G02*
X135591000Y-129519000I0J-200000D01*
G01*
G37*
G36*
G01*
X149561000Y-129392000D02*
X149561000Y-129942000D01*
G75*
G02*
X149361000Y-130142000I-200000J0D01*
G01*
X148961000Y-130142000D01*
G75*
G02*
X148761000Y-129942000I0J200000D01*
G01*
X148761000Y-129392000D01*
G75*
G02*
X148961000Y-129192000I200000J0D01*
G01*
X149361000Y-129192000D01*
G75*
G02*
X149561000Y-129392000I0J-200000D01*
G01*
G37*
G36*
G01*
X147911000Y-129392000D02*
X147911000Y-129942000D01*
G75*
G02*
X147711000Y-130142000I-200000J0D01*
G01*
X147311000Y-130142000D01*
G75*
G02*
X147111000Y-129942000I0J200000D01*
G01*
X147111000Y-129392000D01*
G75*
G02*
X147311000Y-129192000I200000J0D01*
G01*
X147711000Y-129192000D01*
G75*
G02*
X147911000Y-129392000I0J-200000D01*
G01*
G37*
G36*
G01*
X165182000Y-129392000D02*
X165182000Y-129942000D01*
G75*
G02*
X164982000Y-130142000I-200000J0D01*
G01*
X164582000Y-130142000D01*
G75*
G02*
X164382000Y-129942000I0J200000D01*
G01*
X164382000Y-129392000D01*
G75*
G02*
X164582000Y-129192000I200000J0D01*
G01*
X164982000Y-129192000D01*
G75*
G02*
X165182000Y-129392000I0J-200000D01*
G01*
G37*
G36*
G01*
X163532000Y-129392000D02*
X163532000Y-129942000D01*
G75*
G02*
X163332000Y-130142000I-200000J0D01*
G01*
X162932000Y-130142000D01*
G75*
G02*
X162732000Y-129942000I0J200000D01*
G01*
X162732000Y-129392000D01*
G75*
G02*
X162932000Y-129192000I200000J0D01*
G01*
X163332000Y-129192000D01*
G75*
G02*
X163532000Y-129392000I0J-200000D01*
G01*
G37*
G36*
G01*
X178644000Y-129392000D02*
X178644000Y-129942000D01*
G75*
G02*
X178444000Y-130142000I-200000J0D01*
G01*
X178044000Y-130142000D01*
G75*
G02*
X177844000Y-129942000I0J200000D01*
G01*
X177844000Y-129392000D01*
G75*
G02*
X178044000Y-129192000I200000J0D01*
G01*
X178444000Y-129192000D01*
G75*
G02*
X178644000Y-129392000I0J-200000D01*
G01*
G37*
G36*
G01*
X176994000Y-129392000D02*
X176994000Y-129942000D01*
G75*
G02*
X176794000Y-130142000I-200000J0D01*
G01*
X176394000Y-130142000D01*
G75*
G02*
X176194000Y-129942000I0J200000D01*
G01*
X176194000Y-129392000D01*
G75*
G02*
X176394000Y-129192000I200000J0D01*
G01*
X176794000Y-129192000D01*
G75*
G02*
X176994000Y-129392000I0J-200000D01*
G01*
G37*
G36*
G01*
X133941000Y-131805000D02*
X133941000Y-132355000D01*
G75*
G02*
X133741000Y-132555000I-200000J0D01*
G01*
X133341000Y-132555000D01*
G75*
G02*
X133141000Y-132355000I0J200000D01*
G01*
X133141000Y-131805000D01*
G75*
G02*
X133341000Y-131605000I200000J0D01*
G01*
X133741000Y-131605000D01*
G75*
G02*
X133941000Y-131805000I0J-200000D01*
G01*
G37*
G36*
G01*
X135591000Y-131805000D02*
X135591000Y-132355000D01*
G75*
G02*
X135391000Y-132555000I-200000J0D01*
G01*
X134991000Y-132555000D01*
G75*
G02*
X134791000Y-132355000I0J200000D01*
G01*
X134791000Y-131805000D01*
G75*
G02*
X134991000Y-131605000I200000J0D01*
G01*
X135391000Y-131605000D01*
G75*
G02*
X135591000Y-131805000I0J-200000D01*
G01*
G37*
G36*
G01*
X149561000Y-131678000D02*
X149561000Y-132228000D01*
G75*
G02*
X149361000Y-132428000I-200000J0D01*
G01*
X148961000Y-132428000D01*
G75*
G02*
X148761000Y-132228000I0J200000D01*
G01*
X148761000Y-131678000D01*
G75*
G02*
X148961000Y-131478000I200000J0D01*
G01*
X149361000Y-131478000D01*
G75*
G02*
X149561000Y-131678000I0J-200000D01*
G01*
G37*
G36*
G01*
X147911000Y-131678000D02*
X147911000Y-132228000D01*
G75*
G02*
X147711000Y-132428000I-200000J0D01*
G01*
X147311000Y-132428000D01*
G75*
G02*
X147111000Y-132228000I0J200000D01*
G01*
X147111000Y-131678000D01*
G75*
G02*
X147311000Y-131478000I200000J0D01*
G01*
X147711000Y-131478000D01*
G75*
G02*
X147911000Y-131678000I0J-200000D01*
G01*
G37*
G36*
G01*
X165182000Y-131678000D02*
X165182000Y-132228000D01*
G75*
G02*
X164982000Y-132428000I-200000J0D01*
G01*
X164582000Y-132428000D01*
G75*
G02*
X164382000Y-132228000I0J200000D01*
G01*
X164382000Y-131678000D01*
G75*
G02*
X164582000Y-131478000I200000J0D01*
G01*
X164982000Y-131478000D01*
G75*
G02*
X165182000Y-131678000I0J-200000D01*
G01*
G37*
G36*
G01*
X163532000Y-131678000D02*
X163532000Y-132228000D01*
G75*
G02*
X163332000Y-132428000I-200000J0D01*
G01*
X162932000Y-132428000D01*
G75*
G02*
X162732000Y-132228000I0J200000D01*
G01*
X162732000Y-131678000D01*
G75*
G02*
X162932000Y-131478000I200000J0D01*
G01*
X163332000Y-131478000D01*
G75*
G02*
X163532000Y-131678000I0J-200000D01*
G01*
G37*
G36*
G01*
X178644000Y-131805000D02*
X178644000Y-132355000D01*
G75*
G02*
X178444000Y-132555000I-200000J0D01*
G01*
X178044000Y-132555000D01*
G75*
G02*
X177844000Y-132355000I0J200000D01*
G01*
X177844000Y-131805000D01*
G75*
G02*
X178044000Y-131605000I200000J0D01*
G01*
X178444000Y-131605000D01*
G75*
G02*
X178644000Y-131805000I0J-200000D01*
G01*
G37*
G36*
G01*
X176994000Y-131805000D02*
X176994000Y-132355000D01*
G75*
G02*
X176794000Y-132555000I-200000J0D01*
G01*
X176394000Y-132555000D01*
G75*
G02*
X176194000Y-132355000I0J200000D01*
G01*
X176194000Y-131805000D01*
G75*
G02*
X176394000Y-131605000I200000J0D01*
G01*
X176794000Y-131605000D01*
G75*
G02*
X176994000Y-131805000I0J-200000D01*
G01*
G37*
G36*
G01*
X108275000Y-54075000D02*
X108275000Y-53525000D01*
G75*
G02*
X108475000Y-53325000I200000J0D01*
G01*
X108875000Y-53325000D01*
G75*
G02*
X109075000Y-53525000I0J-200000D01*
G01*
X109075000Y-54075000D01*
G75*
G02*
X108875000Y-54275000I-200000J0D01*
G01*
X108475000Y-54275000D01*
G75*
G02*
X108275000Y-54075000I0J200000D01*
G01*
G37*
G36*
G01*
X109925000Y-54075000D02*
X109925000Y-53525000D01*
G75*
G02*
X110125000Y-53325000I200000J0D01*
G01*
X110525000Y-53325000D01*
G75*
G02*
X110725000Y-53525000I0J-200000D01*
G01*
X110725000Y-54075000D01*
G75*
G02*
X110525000Y-54275000I-200000J0D01*
G01*
X110125000Y-54275000D01*
G75*
G02*
X109925000Y-54075000I0J200000D01*
G01*
G37*
G36*
G01*
X148341400Y-100545400D02*
X148541400Y-100545400D01*
G75*
G02*
X148641400Y-100645400I0J-100000D01*
G01*
X148641400Y-101920400D01*
G75*
G02*
X148541400Y-102020400I-100000J0D01*
G01*
X148341400Y-102020400D01*
G75*
G02*
X148241400Y-101920400I0J100000D01*
G01*
X148241400Y-100645400D01*
G75*
G02*
X148341400Y-100545400I100000J0D01*
G01*
G37*
G36*
G01*
X147691400Y-100545400D02*
X147891400Y-100545400D01*
G75*
G02*
X147991400Y-100645400I0J-100000D01*
G01*
X147991400Y-101920400D01*
G75*
G02*
X147891400Y-102020400I-100000J0D01*
G01*
X147691400Y-102020400D01*
G75*
G02*
X147591400Y-101920400I0J100000D01*
G01*
X147591400Y-100645400D01*
G75*
G02*
X147691400Y-100545400I100000J0D01*
G01*
G37*
G36*
G01*
X147041400Y-100545400D02*
X147241400Y-100545400D01*
G75*
G02*
X147341400Y-100645400I0J-100000D01*
G01*
X147341400Y-101920400D01*
G75*
G02*
X147241400Y-102020400I-100000J0D01*
G01*
X147041400Y-102020400D01*
G75*
G02*
X146941400Y-101920400I0J100000D01*
G01*
X146941400Y-100645400D01*
G75*
G02*
X147041400Y-100545400I100000J0D01*
G01*
G37*
G36*
G01*
X146391400Y-100545400D02*
X146591400Y-100545400D01*
G75*
G02*
X146691400Y-100645400I0J-100000D01*
G01*
X146691400Y-101920400D01*
G75*
G02*
X146591400Y-102020400I-100000J0D01*
G01*
X146391400Y-102020400D01*
G75*
G02*
X146291400Y-101920400I0J100000D01*
G01*
X146291400Y-100645400D01*
G75*
G02*
X146391400Y-100545400I100000J0D01*
G01*
G37*
G36*
G01*
X145741400Y-100545400D02*
X145941400Y-100545400D01*
G75*
G02*
X146041400Y-100645400I0J-100000D01*
G01*
X146041400Y-101920400D01*
G75*
G02*
X145941400Y-102020400I-100000J0D01*
G01*
X145741400Y-102020400D01*
G75*
G02*
X145641400Y-101920400I0J100000D01*
G01*
X145641400Y-100645400D01*
G75*
G02*
X145741400Y-100545400I100000J0D01*
G01*
G37*
G36*
G01*
X145091400Y-100545400D02*
X145291400Y-100545400D01*
G75*
G02*
X145391400Y-100645400I0J-100000D01*
G01*
X145391400Y-101920400D01*
G75*
G02*
X145291400Y-102020400I-100000J0D01*
G01*
X145091400Y-102020400D01*
G75*
G02*
X144991400Y-101920400I0J100000D01*
G01*
X144991400Y-100645400D01*
G75*
G02*
X145091400Y-100545400I100000J0D01*
G01*
G37*
G36*
G01*
X144441400Y-100545400D02*
X144641400Y-100545400D01*
G75*
G02*
X144741400Y-100645400I0J-100000D01*
G01*
X144741400Y-101920400D01*
G75*
G02*
X144641400Y-102020400I-100000J0D01*
G01*
X144441400Y-102020400D01*
G75*
G02*
X144341400Y-101920400I0J100000D01*
G01*
X144341400Y-100645400D01*
G75*
G02*
X144441400Y-100545400I100000J0D01*
G01*
G37*
G36*
G01*
X143791400Y-100545400D02*
X143991400Y-100545400D01*
G75*
G02*
X144091400Y-100645400I0J-100000D01*
G01*
X144091400Y-101920400D01*
G75*
G02*
X143991400Y-102020400I-100000J0D01*
G01*
X143791400Y-102020400D01*
G75*
G02*
X143691400Y-101920400I0J100000D01*
G01*
X143691400Y-100645400D01*
G75*
G02*
X143791400Y-100545400I100000J0D01*
G01*
G37*
G36*
G01*
X143791400Y-94820400D02*
X143991400Y-94820400D01*
G75*
G02*
X144091400Y-94920400I0J-100000D01*
G01*
X144091400Y-96195400D01*
G75*
G02*
X143991400Y-96295400I-100000J0D01*
G01*
X143791400Y-96295400D01*
G75*
G02*
X143691400Y-96195400I0J100000D01*
G01*
X143691400Y-94920400D01*
G75*
G02*
X143791400Y-94820400I100000J0D01*
G01*
G37*
G36*
G01*
X144441400Y-94820400D02*
X144641400Y-94820400D01*
G75*
G02*
X144741400Y-94920400I0J-100000D01*
G01*
X144741400Y-96195400D01*
G75*
G02*
X144641400Y-96295400I-100000J0D01*
G01*
X144441400Y-96295400D01*
G75*
G02*
X144341400Y-96195400I0J100000D01*
G01*
X144341400Y-94920400D01*
G75*
G02*
X144441400Y-94820400I100000J0D01*
G01*
G37*
G36*
G01*
X145091400Y-94820400D02*
X145291400Y-94820400D01*
G75*
G02*
X145391400Y-94920400I0J-100000D01*
G01*
X145391400Y-96195400D01*
G75*
G02*
X145291400Y-96295400I-100000J0D01*
G01*
X145091400Y-96295400D01*
G75*
G02*
X144991400Y-96195400I0J100000D01*
G01*
X144991400Y-94920400D01*
G75*
G02*
X145091400Y-94820400I100000J0D01*
G01*
G37*
G36*
G01*
X145741400Y-94820400D02*
X145941400Y-94820400D01*
G75*
G02*
X146041400Y-94920400I0J-100000D01*
G01*
X146041400Y-96195400D01*
G75*
G02*
X145941400Y-96295400I-100000J0D01*
G01*
X145741400Y-96295400D01*
G75*
G02*
X145641400Y-96195400I0J100000D01*
G01*
X145641400Y-94920400D01*
G75*
G02*
X145741400Y-94820400I100000J0D01*
G01*
G37*
G36*
G01*
X146391400Y-94820400D02*
X146591400Y-94820400D01*
G75*
G02*
X146691400Y-94920400I0J-100000D01*
G01*
X146691400Y-96195400D01*
G75*
G02*
X146591400Y-96295400I-100000J0D01*
G01*
X146391400Y-96295400D01*
G75*
G02*
X146291400Y-96195400I0J100000D01*
G01*
X146291400Y-94920400D01*
G75*
G02*
X146391400Y-94820400I100000J0D01*
G01*
G37*
G36*
G01*
X147041400Y-94820400D02*
X147241400Y-94820400D01*
G75*
G02*
X147341400Y-94920400I0J-100000D01*
G01*
X147341400Y-96195400D01*
G75*
G02*
X147241400Y-96295400I-100000J0D01*
G01*
X147041400Y-96295400D01*
G75*
G02*
X146941400Y-96195400I0J100000D01*
G01*
X146941400Y-94920400D01*
G75*
G02*
X147041400Y-94820400I100000J0D01*
G01*
G37*
G36*
G01*
X147691400Y-94820400D02*
X147891400Y-94820400D01*
G75*
G02*
X147991400Y-94920400I0J-100000D01*
G01*
X147991400Y-96195400D01*
G75*
G02*
X147891400Y-96295400I-100000J0D01*
G01*
X147691400Y-96295400D01*
G75*
G02*
X147591400Y-96195400I0J100000D01*
G01*
X147591400Y-94920400D01*
G75*
G02*
X147691400Y-94820400I100000J0D01*
G01*
G37*
G36*
G01*
X148341400Y-94820400D02*
X148541400Y-94820400D01*
G75*
G02*
X148641400Y-94920400I0J-100000D01*
G01*
X148641400Y-96195400D01*
G75*
G02*
X148541400Y-96295400I-100000J0D01*
G01*
X148341400Y-96295400D01*
G75*
G02*
X148241400Y-96195400I0J100000D01*
G01*
X148241400Y-94920400D01*
G75*
G02*
X148341400Y-94820400I100000J0D01*
G01*
G37*
G36*
G01*
X159673800Y-102050400D02*
X159473800Y-102050400D01*
G75*
G02*
X159373800Y-101950400I0J100000D01*
G01*
X159373800Y-100675400D01*
G75*
G02*
X159473800Y-100575400I100000J0D01*
G01*
X159673800Y-100575400D01*
G75*
G02*
X159773800Y-100675400I0J-100000D01*
G01*
X159773800Y-101950400D01*
G75*
G02*
X159673800Y-102050400I-100000J0D01*
G01*
G37*
G36*
G01*
X160323800Y-102050400D02*
X160123800Y-102050400D01*
G75*
G02*
X160023800Y-101950400I0J100000D01*
G01*
X160023800Y-100675400D01*
G75*
G02*
X160123800Y-100575400I100000J0D01*
G01*
X160323800Y-100575400D01*
G75*
G02*
X160423800Y-100675400I0J-100000D01*
G01*
X160423800Y-101950400D01*
G75*
G02*
X160323800Y-102050400I-100000J0D01*
G01*
G37*
G36*
G01*
X160973800Y-102050400D02*
X160773800Y-102050400D01*
G75*
G02*
X160673800Y-101950400I0J100000D01*
G01*
X160673800Y-100675400D01*
G75*
G02*
X160773800Y-100575400I100000J0D01*
G01*
X160973800Y-100575400D01*
G75*
G02*
X161073800Y-100675400I0J-100000D01*
G01*
X161073800Y-101950400D01*
G75*
G02*
X160973800Y-102050400I-100000J0D01*
G01*
G37*
G36*
G01*
X161623800Y-102050400D02*
X161423800Y-102050400D01*
G75*
G02*
X161323800Y-101950400I0J100000D01*
G01*
X161323800Y-100675400D01*
G75*
G02*
X161423800Y-100575400I100000J0D01*
G01*
X161623800Y-100575400D01*
G75*
G02*
X161723800Y-100675400I0J-100000D01*
G01*
X161723800Y-101950400D01*
G75*
G02*
X161623800Y-102050400I-100000J0D01*
G01*
G37*
G36*
G01*
X162273800Y-102050400D02*
X162073800Y-102050400D01*
G75*
G02*
X161973800Y-101950400I0J100000D01*
G01*
X161973800Y-100675400D01*
G75*
G02*
X162073800Y-100575400I100000J0D01*
G01*
X162273800Y-100575400D01*
G75*
G02*
X162373800Y-100675400I0J-100000D01*
G01*
X162373800Y-101950400D01*
G75*
G02*
X162273800Y-102050400I-100000J0D01*
G01*
G37*
G36*
G01*
X162923800Y-102050400D02*
X162723800Y-102050400D01*
G75*
G02*
X162623800Y-101950400I0J100000D01*
G01*
X162623800Y-100675400D01*
G75*
G02*
X162723800Y-100575400I100000J0D01*
G01*
X162923800Y-100575400D01*
G75*
G02*
X163023800Y-100675400I0J-100000D01*
G01*
X163023800Y-101950400D01*
G75*
G02*
X162923800Y-102050400I-100000J0D01*
G01*
G37*
G36*
G01*
X163573800Y-102050400D02*
X163373800Y-102050400D01*
G75*
G02*
X163273800Y-101950400I0J100000D01*
G01*
X163273800Y-100675400D01*
G75*
G02*
X163373800Y-100575400I100000J0D01*
G01*
X163573800Y-100575400D01*
G75*
G02*
X163673800Y-100675400I0J-100000D01*
G01*
X163673800Y-101950400D01*
G75*
G02*
X163573800Y-102050400I-100000J0D01*
G01*
G37*
G36*
G01*
X164223800Y-102050400D02*
X164023800Y-102050400D01*
G75*
G02*
X163923800Y-101950400I0J100000D01*
G01*
X163923800Y-100675400D01*
G75*
G02*
X164023800Y-100575400I100000J0D01*
G01*
X164223800Y-100575400D01*
G75*
G02*
X164323800Y-100675400I0J-100000D01*
G01*
X164323800Y-101950400D01*
G75*
G02*
X164223800Y-102050400I-100000J0D01*
G01*
G37*
G36*
G01*
X164223800Y-96325400D02*
X164023800Y-96325400D01*
G75*
G02*
X163923800Y-96225400I0J100000D01*
G01*
X163923800Y-94950400D01*
G75*
G02*
X164023800Y-94850400I100000J0D01*
G01*
X164223800Y-94850400D01*
G75*
G02*
X164323800Y-94950400I0J-100000D01*
G01*
X164323800Y-96225400D01*
G75*
G02*
X164223800Y-96325400I-100000J0D01*
G01*
G37*
G36*
G01*
X163573800Y-96325400D02*
X163373800Y-96325400D01*
G75*
G02*
X163273800Y-96225400I0J100000D01*
G01*
X163273800Y-94950400D01*
G75*
G02*
X163373800Y-94850400I100000J0D01*
G01*
X163573800Y-94850400D01*
G75*
G02*
X163673800Y-94950400I0J-100000D01*
G01*
X163673800Y-96225400D01*
G75*
G02*
X163573800Y-96325400I-100000J0D01*
G01*
G37*
G36*
G01*
X162923800Y-96325400D02*
X162723800Y-96325400D01*
G75*
G02*
X162623800Y-96225400I0J100000D01*
G01*
X162623800Y-94950400D01*
G75*
G02*
X162723800Y-94850400I100000J0D01*
G01*
X162923800Y-94850400D01*
G75*
G02*
X163023800Y-94950400I0J-100000D01*
G01*
X163023800Y-96225400D01*
G75*
G02*
X162923800Y-96325400I-100000J0D01*
G01*
G37*
G36*
G01*
X162273800Y-96325400D02*
X162073800Y-96325400D01*
G75*
G02*
X161973800Y-96225400I0J100000D01*
G01*
X161973800Y-94950400D01*
G75*
G02*
X162073800Y-94850400I100000J0D01*
G01*
X162273800Y-94850400D01*
G75*
G02*
X162373800Y-94950400I0J-100000D01*
G01*
X162373800Y-96225400D01*
G75*
G02*
X162273800Y-96325400I-100000J0D01*
G01*
G37*
G36*
G01*
X161623800Y-96325400D02*
X161423800Y-96325400D01*
G75*
G02*
X161323800Y-96225400I0J100000D01*
G01*
X161323800Y-94950400D01*
G75*
G02*
X161423800Y-94850400I100000J0D01*
G01*
X161623800Y-94850400D01*
G75*
G02*
X161723800Y-94950400I0J-100000D01*
G01*
X161723800Y-96225400D01*
G75*
G02*
X161623800Y-96325400I-100000J0D01*
G01*
G37*
G36*
G01*
X160973800Y-96325400D02*
X160773800Y-96325400D01*
G75*
G02*
X160673800Y-96225400I0J100000D01*
G01*
X160673800Y-94950400D01*
G75*
G02*
X160773800Y-94850400I100000J0D01*
G01*
X160973800Y-94850400D01*
G75*
G02*
X161073800Y-94950400I0J-100000D01*
G01*
X161073800Y-96225400D01*
G75*
G02*
X160973800Y-96325400I-100000J0D01*
G01*
G37*
G36*
G01*
X160323800Y-96325400D02*
X160123800Y-96325400D01*
G75*
G02*
X160023800Y-96225400I0J100000D01*
G01*
X160023800Y-94950400D01*
G75*
G02*
X160123800Y-94850400I100000J0D01*
G01*
X160323800Y-94850400D01*
G75*
G02*
X160423800Y-94950400I0J-100000D01*
G01*
X160423800Y-96225400D01*
G75*
G02*
X160323800Y-96325400I-100000J0D01*
G01*
G37*
G36*
G01*
X159673800Y-96325400D02*
X159473800Y-96325400D01*
G75*
G02*
X159373800Y-96225400I0J100000D01*
G01*
X159373800Y-94950400D01*
G75*
G02*
X159473800Y-94850400I100000J0D01*
G01*
X159673800Y-94850400D01*
G75*
G02*
X159773800Y-94950400I0J-100000D01*
G01*
X159773800Y-96225400D01*
G75*
G02*
X159673800Y-96325400I-100000J0D01*
G01*
G37*
D21*
X130823000Y-132099000D03*
X131773000Y-132099000D03*
X129873000Y-132099000D03*
X129873000Y-129799000D03*
X130823000Y-129799000D03*
X131773000Y-129799000D03*
X145681000Y-129672000D03*
X144731000Y-129672000D03*
X143781000Y-129672000D03*
X143781000Y-131972000D03*
X145681000Y-131972000D03*
X144731000Y-131972000D03*
X160267000Y-131972000D03*
X161217000Y-131972000D03*
X159317000Y-131972000D03*
X159317000Y-129672000D03*
X160267000Y-129672000D03*
X161217000Y-129672000D03*
X174628000Y-129672000D03*
X173678000Y-129672000D03*
X172728000Y-129672000D03*
X172728000Y-131972000D03*
X174628000Y-131972000D03*
X173678000Y-131972000D03*
D22*
X185400000Y-84000000D03*
D23*
X187940000Y-84000000D03*
X185400000Y-86540000D03*
X187940000Y-86540000D03*
X185400000Y-89080000D03*
X187940000Y-89080000D03*
X185400000Y-91620000D03*
X187940000Y-91620000D03*
G36*
G01*
X188050000Y-79925000D02*
X188050000Y-80875000D01*
G75*
G02*
X187800000Y-81125000I-250000J0D01*
G01*
X187300000Y-81125000D01*
G75*
G02*
X187050000Y-80875000I0J250000D01*
G01*
X187050000Y-79925000D01*
G75*
G02*
X187300000Y-79675000I250000J0D01*
G01*
X187800000Y-79675000D01*
G75*
G02*
X188050000Y-79925000I0J-250000D01*
G01*
G37*
G36*
G01*
X186150000Y-79925000D02*
X186150000Y-80875000D01*
G75*
G02*
X185900000Y-81125000I-250000J0D01*
G01*
X185400000Y-81125000D01*
G75*
G02*
X185150000Y-80875000I0J250000D01*
G01*
X185150000Y-79925000D01*
G75*
G02*
X185400000Y-79675000I250000J0D01*
G01*
X185900000Y-79675000D01*
G75*
G02*
X186150000Y-79925000I0J-250000D01*
G01*
G37*
D15*
X132216400Y-126781600D03*
X132216400Y-124881600D03*
X130216400Y-125831600D03*
M02*
