G04 #@! TF.GenerationSoftware,KiCad,Pcbnew,5.1.10-88a1d61d58~90~ubuntu20.04.1*
G04 #@! TF.CreationDate,2021-09-14T19:28:04-05:00*
G04 #@! TF.ProjectId,serial_logger_uart_expander,73657269-616c-45f6-9c6f-676765725f75,rev?*
G04 #@! TF.SameCoordinates,Original*
G04 #@! TF.FileFunction,Soldermask,Bot*
G04 #@! TF.FilePolarity,Negative*
%FSLAX46Y46*%
G04 Gerber Fmt 4.6, Leading zero omitted, Abs format (unit mm)*
G04 Created by KiCad (PCBNEW 5.1.10-88a1d61d58~90~ubuntu20.04.1) date 2021-09-14 19:28:04*
%MOMM*%
%LPD*%
G01*
G04 APERTURE LIST*
%ADD10R,1.700000X1.700000*%
%ADD11O,1.700000X1.700000*%
%ADD12C,2.100000*%
%ADD13R,2.100000X2.100000*%
%ADD14R,1.524000X1.524000*%
%ADD15C,1.524000*%
G04 APERTURE END LIST*
D10*
X128800000Y-69700000D03*
D11*
X128800000Y-72240000D03*
X128800000Y-74780000D03*
X128800000Y-77320000D03*
X128800000Y-79860000D03*
X128800000Y-82400000D03*
X128800000Y-84940000D03*
X128800000Y-87480000D03*
D10*
X128800000Y-93280000D03*
D11*
X128800000Y-95820000D03*
X128800000Y-98360000D03*
X128800000Y-100900000D03*
X128800000Y-103440000D03*
X128800000Y-105980000D03*
D10*
X177060000Y-61290000D03*
D11*
X177060000Y-63830000D03*
X177060000Y-66370000D03*
X177060000Y-68910000D03*
X177060000Y-71450000D03*
X177060000Y-73990000D03*
X177060000Y-76530000D03*
X177060000Y-79070000D03*
X177060000Y-81610000D03*
X177060000Y-84150000D03*
X177060000Y-105980000D03*
X177060000Y-103440000D03*
X177060000Y-100900000D03*
X177060000Y-98360000D03*
X177060000Y-95820000D03*
X177060000Y-93280000D03*
X177060000Y-90740000D03*
D10*
X177060000Y-88200000D03*
D12*
X179660000Y-138900000D03*
X177120000Y-138900000D03*
X174580000Y-138900000D03*
X172040000Y-138900000D03*
X169500000Y-138900000D03*
X166960000Y-138900000D03*
X164420000Y-138900000D03*
X161880000Y-138900000D03*
X159340000Y-138900000D03*
D13*
X156800000Y-138900000D03*
X127300000Y-139000000D03*
D12*
X129840000Y-139000000D03*
X132380000Y-139000000D03*
X134920000Y-139000000D03*
X137460000Y-139000000D03*
X140000000Y-139000000D03*
X142540000Y-139000000D03*
X145080000Y-139000000D03*
X147620000Y-139000000D03*
X150160000Y-139000000D03*
D14*
X185400000Y-84000000D03*
D15*
X187940000Y-84000000D03*
X185400000Y-86540000D03*
X187940000Y-86540000D03*
X185400000Y-89080000D03*
X187940000Y-89080000D03*
X185400000Y-91620000D03*
X187940000Y-91620000D03*
M02*
