%FSLAX45Y45*%
G04 Gerber Fmt 4.5, Leading zero omitted, Abs format (unit mm)*
G04 Created by KiCad (PCBNEW 5.1.10-88a1d61d58~90~ubuntu20.04.1) date 2021-09-14 19:28:11*
%MOMM*%
%LPD*%
G01*
G04 APERTURE LIST*
%TA.AperFunction,Profile*%
%ADD10C,0.050000*%
%TD*%
%ADD11C,0.200000*%
%ADD12C,0.300000*%
G04 APERTURE END LIST*
D10*
X10500000Y-5000000D02*
X10500000Y-15000000D01*
X10500000Y-5000000D02*
X20000000Y-5000000D01*
X20000000Y-15000000D02*
X20000000Y-5000000D01*
X10500000Y-15000000D02*
X20000000Y-15000000D01*
D11*
X10720000Y-5360000D02*
X10760000Y-5400000D01*
X10760000Y-5360000D02*
X10720000Y-5400000D01*
X11690000Y-11610000D02*
X11730000Y-11650000D01*
X11730000Y-11610000D02*
X11690000Y-11650000D01*
X11850000Y-11790000D02*
X11890000Y-11830000D01*
X11890000Y-11790000D02*
X11850000Y-11830000D01*
X11880000Y-12740000D02*
X11920000Y-12780000D01*
X11920000Y-12740000D02*
X11880000Y-12780000D01*
X11963431Y-10836569D02*
X12003431Y-10876569D01*
X12003431Y-10836569D02*
X11963431Y-10876569D01*
X12058309Y-10931448D02*
X12098309Y-10971448D01*
X12098309Y-10931448D02*
X12058309Y-10971448D01*
X12330000Y-12820000D02*
X12370000Y-12860000D01*
X12370000Y-12820000D02*
X12330000Y-12860000D01*
X12380000Y-12010000D02*
X12420000Y-12050000D01*
X12420000Y-12010000D02*
X12380000Y-12050000D01*
X12580000Y-12640000D02*
X12620000Y-12680000D01*
X12620000Y-12640000D02*
X12580000Y-12680000D01*
X12710000Y-13230000D02*
X12750000Y-13270000D01*
X12750000Y-13230000D02*
X12710000Y-13270000D01*
X12712395Y-11422605D02*
X12752395Y-11462605D01*
X12752395Y-11422605D02*
X12712395Y-11462605D01*
X12920000Y-13230000D02*
X12960000Y-13270000D01*
X12960000Y-13230000D02*
X12920000Y-13270000D01*
X13190000Y-11990000D02*
X13230000Y-12030000D01*
X13230000Y-11990000D02*
X13190000Y-12030000D01*
X13200000Y-12970000D02*
X13240000Y-13010000D01*
X13240000Y-12970000D02*
X13200000Y-13010000D01*
X13360000Y-12330000D02*
X13400000Y-12370000D01*
X13400000Y-12330000D02*
X13360000Y-12370000D01*
X13440000Y-12540000D02*
X13480000Y-12580000D01*
X13480000Y-12540000D02*
X13440000Y-12580000D01*
X13440000Y-13390000D02*
X13480000Y-13430000D01*
X13480000Y-13390000D02*
X13440000Y-13430000D01*
X13510000Y-11420000D02*
X13550000Y-11460000D01*
X13550000Y-11420000D02*
X13510000Y-11460000D01*
X13840000Y-11810000D02*
X13880000Y-11850000D01*
X13880000Y-11810000D02*
X13840000Y-11850000D01*
X14150000Y-9640000D02*
X14190000Y-9680000D01*
X14190000Y-9640000D02*
X14150000Y-9680000D01*
X14179999Y-12309999D02*
X14219999Y-12349999D01*
X14219999Y-12309999D02*
X14179999Y-12349999D01*
X14240000Y-11650000D02*
X14280000Y-11690000D01*
X14280000Y-11650000D02*
X14240000Y-11690000D01*
X14370000Y-9340000D02*
X14410000Y-9380000D01*
X14410000Y-9340000D02*
X14370000Y-9380000D01*
X14370000Y-13360000D02*
X14410000Y-13400000D01*
X14410000Y-13360000D02*
X14370000Y-13400000D01*
X14480000Y-8810000D02*
X14520000Y-8850000D01*
X14520000Y-8810000D02*
X14480000Y-8850000D01*
X14590000Y-9860000D02*
X14630000Y-9900000D01*
X14630000Y-9860000D02*
X14590000Y-9900000D01*
X14630000Y-12990000D02*
X14670000Y-13030000D01*
X14670000Y-12990000D02*
X14630000Y-13030000D01*
X14650000Y-8960000D02*
X14690000Y-9000000D01*
X14690000Y-8960000D02*
X14650000Y-9000000D01*
X14660000Y-12550000D02*
X14700000Y-12590000D01*
X14700000Y-12550000D02*
X14660000Y-12590000D01*
X14890000Y-12630000D02*
X14930000Y-12670000D01*
X14930000Y-12630000D02*
X14890000Y-12670000D01*
X14890000Y-13430000D02*
X14930000Y-13470000D01*
X14930000Y-13430000D02*
X14890000Y-13470000D01*
X15040000Y-9500000D02*
X15080000Y-9540000D01*
X15080000Y-9500000D02*
X15040000Y-9540000D01*
X15060000Y-12020000D02*
X15100000Y-12060000D01*
X15100000Y-12020000D02*
X15060000Y-12060000D01*
X15090000Y-11570000D02*
X15130000Y-11610000D01*
X15130000Y-11570000D02*
X15090000Y-11610000D01*
X15194256Y-10155582D02*
X15234256Y-10195582D01*
X15234256Y-10155582D02*
X15194256Y-10195582D01*
X15240000Y-10779999D02*
X15280000Y-10819999D01*
X15280000Y-10779999D02*
X15240000Y-10819999D01*
X15260000Y-10060000D02*
X15300000Y-10100000D01*
X15300000Y-10060000D02*
X15260000Y-10100000D01*
X15260000Y-12550000D02*
X15300000Y-12590000D01*
X15300000Y-12550000D02*
X15260000Y-12590000D01*
X15600000Y-10260000D02*
X15640000Y-10300000D01*
X15640000Y-10260000D02*
X15600000Y-10300000D01*
X15620000Y-11130000D02*
X15660000Y-11170000D01*
X15660000Y-11130000D02*
X15620000Y-11170000D01*
X15630000Y-9950000D02*
X15670000Y-9990000D01*
X15670000Y-9950000D02*
X15630000Y-9990000D01*
X15690000Y-11840000D02*
X15730000Y-11880000D01*
X15730000Y-11840000D02*
X15690000Y-11880000D01*
X15730000Y-10830000D02*
X15770000Y-10870000D01*
X15770000Y-10830000D02*
X15730000Y-10870000D01*
X15740000Y-11030000D02*
X15780000Y-11070000D01*
X15780000Y-11030000D02*
X15740000Y-11070000D01*
X15770000Y-9570000D02*
X15810000Y-9610000D01*
X15810000Y-9570000D02*
X15770000Y-9610000D01*
X15770000Y-9720000D02*
X15810000Y-9760000D01*
X15810000Y-9720000D02*
X15770000Y-9760000D01*
X15790000Y-10080000D02*
X15830000Y-10120000D01*
X15830000Y-10080000D02*
X15790000Y-10120000D01*
X15800000Y-9960000D02*
X15840000Y-10000000D01*
X15840000Y-9960000D02*
X15800000Y-10000000D01*
X15900000Y-12620000D02*
X15940000Y-12660000D01*
X15940000Y-12620000D02*
X15900000Y-12660000D01*
X15920000Y-13330000D02*
X15960000Y-13370000D01*
X15960000Y-13330000D02*
X15920000Y-13370000D01*
X16020000Y-10350000D02*
X16060000Y-10390000D01*
X16060000Y-10350000D02*
X16020000Y-10390000D01*
X16140000Y-12940000D02*
X16180000Y-12980000D01*
X16180000Y-12940000D02*
X16140000Y-12980000D01*
X16150000Y-10130000D02*
X16190000Y-10170000D01*
X16190000Y-10130000D02*
X16150000Y-10170000D01*
X16155000Y-12445000D02*
X16195000Y-12485000D01*
X16195000Y-12445000D02*
X16155000Y-12485000D01*
X16250000Y-12980000D02*
X16290000Y-13020000D01*
X16290000Y-12980000D02*
X16250000Y-13020000D01*
X16510000Y-11580000D02*
X16550000Y-11620000D01*
X16550000Y-11580000D02*
X16510000Y-11620000D01*
X16520000Y-13390000D02*
X16560000Y-13430000D01*
X16560000Y-13390000D02*
X16520000Y-13430000D01*
X16690000Y-13210000D02*
X16730000Y-13250000D01*
X16730000Y-13210000D02*
X16690000Y-13250000D01*
X16740000Y-9747500D02*
X16780000Y-9787500D01*
X16780000Y-9747500D02*
X16740000Y-9787500D01*
X16740000Y-12580000D02*
X16780000Y-12620000D01*
X16780000Y-12580000D02*
X16740000Y-12620000D01*
X16850000Y-11980000D02*
X16890000Y-12020000D01*
X16890000Y-11980000D02*
X16850000Y-12020000D01*
X16961569Y-11698431D02*
X17001569Y-11738431D01*
X17001569Y-11698431D02*
X16961569Y-11738431D01*
X17040000Y-12490000D02*
X17080000Y-12530000D01*
X17080000Y-12490000D02*
X17040000Y-12530000D01*
X17310000Y-11800000D02*
X17350000Y-11840000D01*
X17350000Y-11800000D02*
X17310000Y-11840000D01*
X17340000Y-13380000D02*
X17380000Y-13420000D01*
X17380000Y-13380000D02*
X17340000Y-13420000D01*
X17870000Y-13350000D02*
X17910000Y-13390000D01*
X17910000Y-13350000D02*
X17870000Y-13390000D01*
X17930000Y-7710000D02*
X17970000Y-7750000D01*
X17970000Y-7710000D02*
X17930000Y-7750000D01*
X17930000Y-12340000D02*
X17970000Y-12380000D01*
X17970000Y-12340000D02*
X17930000Y-12380000D01*
X17960000Y-13200000D02*
X18000000Y-13240000D01*
X18000000Y-13200000D02*
X17960000Y-13240000D01*
X18110000Y-13360000D02*
X18150000Y-13400000D01*
X18150000Y-13360000D02*
X18110000Y-13400000D01*
X18370000Y-12580000D02*
X18410000Y-12620000D01*
X18410000Y-12580000D02*
X18370000Y-12620000D01*
X18850000Y-12090000D02*
X18890000Y-12130000D01*
X18890000Y-12090000D02*
X18850000Y-12130000D01*
X18578100Y-8400000D02*
G75*
G03*
X18578100Y-8400000I-38100J0D01*
G01*
X18578100Y-8654000D02*
G75*
G03*
X18578100Y-8654000I-38100J0D01*
G01*
X18578100Y-8908000D02*
G75*
G03*
X18578100Y-8908000I-38100J0D01*
G01*
X18578100Y-9162000D02*
G75*
G03*
X18578100Y-9162000I-38100J0D01*
G01*
X18832100Y-8400000D02*
G75*
G03*
X18832100Y-8400000I-38100J0D01*
G01*
X18832100Y-8654000D02*
G75*
G03*
X18832100Y-8654000I-38100J0D01*
G01*
X18832100Y-8908000D02*
G75*
G03*
X18832100Y-8908000I-38100J0D01*
G01*
X18832100Y-9162000D02*
G75*
G03*
X18832100Y-9162000I-38100J0D01*
G01*
X12880000Y-6920000D02*
X12880000Y-7020000D01*
X12830000Y-6970000D02*
X12930000Y-6970000D01*
X12880000Y-7174000D02*
X12880000Y-7274000D01*
X12830000Y-7224000D02*
X12930000Y-7224000D01*
X12880000Y-7428000D02*
X12880000Y-7528000D01*
X12830000Y-7478000D02*
X12930000Y-7478000D01*
X12880000Y-7682000D02*
X12880000Y-7782000D01*
X12830000Y-7732000D02*
X12930000Y-7732000D01*
X12880000Y-7936000D02*
X12880000Y-8036000D01*
X12830000Y-7986000D02*
X12930000Y-7986000D01*
X12880000Y-8190000D02*
X12880000Y-8290000D01*
X12830000Y-8240000D02*
X12930000Y-8240000D01*
X12880000Y-8444000D02*
X12880000Y-8544000D01*
X12830000Y-8494000D02*
X12930000Y-8494000D01*
X12880000Y-8698000D02*
X12880000Y-8798000D01*
X12830000Y-8748000D02*
X12930000Y-8748000D01*
X12880000Y-9278000D02*
X12880000Y-9378000D01*
X12830000Y-9328000D02*
X12930000Y-9328000D01*
X12880000Y-9532000D02*
X12880000Y-9632000D01*
X12830000Y-9582000D02*
X12930000Y-9582000D01*
X12880000Y-9786000D02*
X12880000Y-9886000D01*
X12830000Y-9836000D02*
X12930000Y-9836000D01*
X12880000Y-10040000D02*
X12880000Y-10140000D01*
X12830000Y-10090000D02*
X12930000Y-10090000D01*
X12880000Y-10294000D02*
X12880000Y-10394000D01*
X12830000Y-10344000D02*
X12930000Y-10344000D01*
X12880000Y-10548000D02*
X12880000Y-10648000D01*
X12830000Y-10598000D02*
X12930000Y-10598000D01*
X17706000Y-6079000D02*
X17706000Y-6179000D01*
X17656000Y-6129000D02*
X17756000Y-6129000D01*
X17706000Y-6333000D02*
X17706000Y-6433000D01*
X17656000Y-6383000D02*
X17756000Y-6383000D01*
X17706000Y-6587000D02*
X17706000Y-6687000D01*
X17656000Y-6637000D02*
X17756000Y-6637000D01*
X17706000Y-6841000D02*
X17706000Y-6941000D01*
X17656000Y-6891000D02*
X17756000Y-6891000D01*
X17706000Y-7095000D02*
X17706000Y-7195000D01*
X17656000Y-7145000D02*
X17756000Y-7145000D01*
X17706000Y-7349000D02*
X17706000Y-7449000D01*
X17656000Y-7399000D02*
X17756000Y-7399000D01*
X17706000Y-7603000D02*
X17706000Y-7703000D01*
X17656000Y-7653000D02*
X17756000Y-7653000D01*
X17706000Y-7857000D02*
X17706000Y-7957000D01*
X17656000Y-7907000D02*
X17756000Y-7907000D01*
X17706000Y-8111000D02*
X17706000Y-8211000D01*
X17656000Y-8161000D02*
X17756000Y-8161000D01*
X17706000Y-8365000D02*
X17706000Y-8465000D01*
X17656000Y-8415000D02*
X17756000Y-8415000D01*
X17706000Y-8770000D02*
X17706000Y-8870000D01*
X17656000Y-8820000D02*
X17756000Y-8820000D01*
X17706000Y-9024000D02*
X17706000Y-9124000D01*
X17656000Y-9074000D02*
X17756000Y-9074000D01*
X17706000Y-9278000D02*
X17706000Y-9378000D01*
X17656000Y-9328000D02*
X17756000Y-9328000D01*
X17706000Y-9532000D02*
X17706000Y-9632000D01*
X17656000Y-9582000D02*
X17756000Y-9582000D01*
X17706000Y-9786000D02*
X17706000Y-9886000D01*
X17656000Y-9836000D02*
X17756000Y-9836000D01*
X17706000Y-10040000D02*
X17706000Y-10140000D01*
X17656000Y-10090000D02*
X17756000Y-10090000D01*
X17706000Y-10294000D02*
X17706000Y-10394000D01*
X17656000Y-10344000D02*
X17756000Y-10344000D01*
X17706000Y-10548000D02*
X17706000Y-10648000D01*
X17656000Y-10598000D02*
X17756000Y-10598000D01*
X12768891Y-13938891D02*
X12768891Y-13861109D01*
X12691109Y-13861109D01*
X12691109Y-13938891D01*
X12768891Y-13938891D01*
X13022891Y-13938891D02*
X13022891Y-13861109D01*
X12945109Y-13861109D01*
X12945109Y-13938891D01*
X13022891Y-13938891D01*
X13276891Y-13938891D02*
X13276891Y-13861109D01*
X13199109Y-13861109D01*
X13199109Y-13938891D01*
X13276891Y-13938891D01*
X13530891Y-13938891D02*
X13530891Y-13861109D01*
X13453109Y-13861109D01*
X13453109Y-13938891D01*
X13530891Y-13938891D01*
X13784891Y-13938891D02*
X13784891Y-13861109D01*
X13707109Y-13861109D01*
X13707109Y-13938891D01*
X13784891Y-13938891D01*
X14038891Y-13938891D02*
X14038891Y-13861109D01*
X13961109Y-13861109D01*
X13961109Y-13938891D01*
X14038891Y-13938891D01*
X14292891Y-13938891D02*
X14292891Y-13861109D01*
X14215109Y-13861109D01*
X14215109Y-13938891D01*
X14292891Y-13938891D01*
X14546891Y-13938891D02*
X14546891Y-13861109D01*
X14469109Y-13861109D01*
X14469109Y-13938891D01*
X14546891Y-13938891D01*
X14800891Y-13938891D02*
X14800891Y-13861109D01*
X14723109Y-13861109D01*
X14723109Y-13938891D01*
X14800891Y-13938891D01*
X15054891Y-13938891D02*
X15054891Y-13861109D01*
X14977109Y-13861109D01*
X14977109Y-13938891D01*
X15054891Y-13938891D01*
X15718891Y-13928891D02*
X15718891Y-13851109D01*
X15641109Y-13851109D01*
X15641109Y-13928891D01*
X15718891Y-13928891D01*
X15972891Y-13928891D02*
X15972891Y-13851109D01*
X15895109Y-13851109D01*
X15895109Y-13928891D01*
X15972891Y-13928891D01*
X16226891Y-13928891D02*
X16226891Y-13851109D01*
X16149109Y-13851109D01*
X16149109Y-13928891D01*
X16226891Y-13928891D01*
X16480891Y-13928891D02*
X16480891Y-13851109D01*
X16403109Y-13851109D01*
X16403109Y-13928891D01*
X16480891Y-13928891D01*
X16734891Y-13928891D02*
X16734891Y-13851109D01*
X16657109Y-13851109D01*
X16657109Y-13928891D01*
X16734891Y-13928891D01*
X16988891Y-13928891D02*
X16988891Y-13851109D01*
X16911109Y-13851109D01*
X16911109Y-13928891D01*
X16988891Y-13928891D01*
X17242891Y-13928891D02*
X17242891Y-13851109D01*
X17165109Y-13851109D01*
X17165109Y-13928891D01*
X17242891Y-13928891D01*
X17496891Y-13928891D02*
X17496891Y-13851109D01*
X17419109Y-13851109D01*
X17419109Y-13928891D01*
X17496891Y-13928891D01*
X17750891Y-13928891D02*
X17750891Y-13851109D01*
X17673109Y-13851109D01*
X17673109Y-13928891D01*
X17750891Y-13928891D01*
X18004891Y-13928891D02*
X18004891Y-13851109D01*
X17927109Y-13851109D01*
X17927109Y-13928891D01*
X18004891Y-13928891D01*
D12*
X10783928Y-15468214D02*
X10783928Y-15168214D01*
X10855357Y-15168214D01*
X10898214Y-15182500D01*
X10926786Y-15211071D01*
X10941071Y-15239643D01*
X10955357Y-15296786D01*
X10955357Y-15339643D01*
X10941071Y-15396786D01*
X10926786Y-15425357D01*
X10898214Y-15453929D01*
X10855357Y-15468214D01*
X10783928Y-15468214D01*
X11083928Y-15468214D02*
X11083928Y-15268214D01*
X11083928Y-15325357D02*
X11098214Y-15296786D01*
X11112500Y-15282500D01*
X11141071Y-15268214D01*
X11169643Y-15268214D01*
X11269643Y-15468214D02*
X11269643Y-15268214D01*
X11269643Y-15168214D02*
X11255357Y-15182500D01*
X11269643Y-15196786D01*
X11283928Y-15182500D01*
X11269643Y-15168214D01*
X11269643Y-15196786D01*
X11455357Y-15468214D02*
X11426786Y-15453929D01*
X11412500Y-15425357D01*
X11412500Y-15168214D01*
X11612500Y-15468214D02*
X11583928Y-15453929D01*
X11569643Y-15425357D01*
X11569643Y-15168214D01*
X11955357Y-15468214D02*
X11955357Y-15168214D01*
X12055357Y-15382500D01*
X12155357Y-15168214D01*
X12155357Y-15468214D01*
X12426786Y-15468214D02*
X12426786Y-15311071D01*
X12412500Y-15282500D01*
X12383928Y-15268214D01*
X12326786Y-15268214D01*
X12298214Y-15282500D01*
X12426786Y-15453929D02*
X12398214Y-15468214D01*
X12326786Y-15468214D01*
X12298214Y-15453929D01*
X12283928Y-15425357D01*
X12283928Y-15396786D01*
X12298214Y-15368214D01*
X12326786Y-15353929D01*
X12398214Y-15353929D01*
X12426786Y-15339643D01*
X12569643Y-15268214D02*
X12569643Y-15568214D01*
X12569643Y-15282500D02*
X12598214Y-15268214D01*
X12655357Y-15268214D01*
X12683928Y-15282500D01*
X12698214Y-15296786D01*
X12712500Y-15325357D01*
X12712500Y-15411071D01*
X12698214Y-15439643D01*
X12683928Y-15453929D01*
X12655357Y-15468214D01*
X12598214Y-15468214D01*
X12569643Y-15453929D01*
X12841071Y-15439643D02*
X12855357Y-15453929D01*
X12841071Y-15468214D01*
X12826786Y-15453929D01*
X12841071Y-15439643D01*
X12841071Y-15468214D01*
X12841071Y-15282500D02*
X12855357Y-15296786D01*
X12841071Y-15311071D01*
X12826786Y-15296786D01*
X12841071Y-15282500D01*
X12841071Y-15311071D01*
X10457500Y-15942500D02*
X10497500Y-15982500D01*
X10497500Y-15942500D02*
X10457500Y-15982500D01*
X10841071Y-15798214D02*
X10869643Y-15798214D01*
X10898214Y-15812500D01*
X10912500Y-15826786D01*
X10926786Y-15855357D01*
X10941071Y-15912500D01*
X10941071Y-15983929D01*
X10926786Y-16041071D01*
X10912500Y-16069643D01*
X10898214Y-16083929D01*
X10869643Y-16098214D01*
X10841071Y-16098214D01*
X10812500Y-16083929D01*
X10798214Y-16069643D01*
X10783928Y-16041071D01*
X10769643Y-15983929D01*
X10769643Y-15912500D01*
X10783928Y-15855357D01*
X10798214Y-15826786D01*
X10812500Y-15812500D01*
X10841071Y-15798214D01*
X11069643Y-16069643D02*
X11083928Y-16083929D01*
X11069643Y-16098214D01*
X11055357Y-16083929D01*
X11069643Y-16069643D01*
X11069643Y-16098214D01*
X11341071Y-15898214D02*
X11341071Y-16098214D01*
X11269643Y-15783929D02*
X11198214Y-15998214D01*
X11383928Y-15998214D01*
X11555357Y-15798214D02*
X11583928Y-15798214D01*
X11612500Y-15812500D01*
X11626786Y-15826786D01*
X11641071Y-15855357D01*
X11655357Y-15912500D01*
X11655357Y-15983929D01*
X11641071Y-16041071D01*
X11626786Y-16069643D01*
X11612500Y-16083929D01*
X11583928Y-16098214D01*
X11555357Y-16098214D01*
X11526786Y-16083929D01*
X11512500Y-16069643D01*
X11498214Y-16041071D01*
X11483928Y-15983929D01*
X11483928Y-15912500D01*
X11498214Y-15855357D01*
X11512500Y-15826786D01*
X11526786Y-15812500D01*
X11555357Y-15798214D01*
X11841071Y-15798214D02*
X11869643Y-15798214D01*
X11898214Y-15812500D01*
X11912500Y-15826786D01*
X11926786Y-15855357D01*
X11941071Y-15912500D01*
X11941071Y-15983929D01*
X11926786Y-16041071D01*
X11912500Y-16069643D01*
X11898214Y-16083929D01*
X11869643Y-16098214D01*
X11841071Y-16098214D01*
X11812500Y-16083929D01*
X11798214Y-16069643D01*
X11783928Y-16041071D01*
X11769643Y-15983929D01*
X11769643Y-15912500D01*
X11783928Y-15855357D01*
X11798214Y-15826786D01*
X11812500Y-15812500D01*
X11841071Y-15798214D01*
X12069643Y-16098214D02*
X12069643Y-15898214D01*
X12069643Y-15926786D02*
X12083928Y-15912500D01*
X12112500Y-15898214D01*
X12155357Y-15898214D01*
X12183928Y-15912500D01*
X12198214Y-15941071D01*
X12198214Y-16098214D01*
X12198214Y-15941071D02*
X12212500Y-15912500D01*
X12241071Y-15898214D01*
X12283928Y-15898214D01*
X12312500Y-15912500D01*
X12326786Y-15941071D01*
X12326786Y-16098214D01*
X12469643Y-16098214D02*
X12469643Y-15898214D01*
X12469643Y-15926786D02*
X12483928Y-15912500D01*
X12512500Y-15898214D01*
X12555357Y-15898214D01*
X12583928Y-15912500D01*
X12598214Y-15941071D01*
X12598214Y-16098214D01*
X12598214Y-15941071D02*
X12612500Y-15912500D01*
X12641071Y-15898214D01*
X12683928Y-15898214D01*
X12712500Y-15912500D01*
X12726786Y-15941071D01*
X12726786Y-16098214D01*
X13312500Y-15783929D02*
X13055357Y-16169643D01*
X13698214Y-15798214D02*
X13726786Y-15798214D01*
X13755357Y-15812500D01*
X13769643Y-15826786D01*
X13783928Y-15855357D01*
X13798214Y-15912500D01*
X13798214Y-15983929D01*
X13783928Y-16041071D01*
X13769643Y-16069643D01*
X13755357Y-16083929D01*
X13726786Y-16098214D01*
X13698214Y-16098214D01*
X13669643Y-16083929D01*
X13655357Y-16069643D01*
X13641071Y-16041071D01*
X13626786Y-15983929D01*
X13626786Y-15912500D01*
X13641071Y-15855357D01*
X13655357Y-15826786D01*
X13669643Y-15812500D01*
X13698214Y-15798214D01*
X13926786Y-16069643D02*
X13941071Y-16083929D01*
X13926786Y-16098214D01*
X13912500Y-16083929D01*
X13926786Y-16069643D01*
X13926786Y-16098214D01*
X14126786Y-15798214D02*
X14155357Y-15798214D01*
X14183928Y-15812500D01*
X14198214Y-15826786D01*
X14212500Y-15855357D01*
X14226786Y-15912500D01*
X14226786Y-15983929D01*
X14212500Y-16041071D01*
X14198214Y-16069643D01*
X14183928Y-16083929D01*
X14155357Y-16098214D01*
X14126786Y-16098214D01*
X14098214Y-16083929D01*
X14083928Y-16069643D01*
X14069643Y-16041071D01*
X14055357Y-15983929D01*
X14055357Y-15912500D01*
X14069643Y-15855357D01*
X14083928Y-15826786D01*
X14098214Y-15812500D01*
X14126786Y-15798214D01*
X14512500Y-16098214D02*
X14341071Y-16098214D01*
X14426786Y-16098214D02*
X14426786Y-15798214D01*
X14398214Y-15841071D01*
X14369643Y-15869643D01*
X14341071Y-15883929D01*
X14783928Y-15798214D02*
X14641071Y-15798214D01*
X14626786Y-15941071D01*
X14641071Y-15926786D01*
X14669643Y-15912500D01*
X14741071Y-15912500D01*
X14769643Y-15926786D01*
X14783928Y-15941071D01*
X14798214Y-15969643D01*
X14798214Y-16041071D01*
X14783928Y-16069643D01*
X14769643Y-16083929D01*
X14741071Y-16098214D01*
X14669643Y-16098214D01*
X14641071Y-16083929D01*
X14626786Y-16069643D01*
X14898214Y-15798214D02*
X15098214Y-15798214D01*
X14969643Y-16098214D01*
X15198214Y-15798214D02*
X15198214Y-15855357D01*
X15312500Y-15798214D02*
X15312500Y-15855357D01*
X15755357Y-16212500D02*
X15741071Y-16198214D01*
X15712500Y-16155357D01*
X15698214Y-16126786D01*
X15683928Y-16083929D01*
X15669643Y-16012500D01*
X15669643Y-15955357D01*
X15683928Y-15883929D01*
X15698214Y-15841071D01*
X15712500Y-15812500D01*
X15741071Y-15769643D01*
X15755357Y-15755357D01*
X15841071Y-15798214D02*
X16041071Y-15798214D01*
X15912500Y-16098214D01*
X16141071Y-15826786D02*
X16155357Y-15812500D01*
X16183928Y-15798214D01*
X16255357Y-15798214D01*
X16283928Y-15812500D01*
X16298214Y-15826786D01*
X16312500Y-15855357D01*
X16312500Y-15883929D01*
X16298214Y-15926786D01*
X16126786Y-16098214D01*
X16312500Y-16098214D01*
X16669643Y-16098214D02*
X16669643Y-15798214D01*
X16798214Y-16098214D02*
X16798214Y-15941071D01*
X16783928Y-15912500D01*
X16755357Y-15898214D01*
X16712500Y-15898214D01*
X16683928Y-15912500D01*
X16669643Y-15926786D01*
X16983928Y-16098214D02*
X16955357Y-16083929D01*
X16941071Y-16069643D01*
X16926786Y-16041071D01*
X16926786Y-15955357D01*
X16941071Y-15926786D01*
X16955357Y-15912500D01*
X16983928Y-15898214D01*
X17026786Y-15898214D01*
X17055357Y-15912500D01*
X17069643Y-15926786D01*
X17083928Y-15955357D01*
X17083928Y-16041071D01*
X17069643Y-16069643D01*
X17055357Y-16083929D01*
X17026786Y-16098214D01*
X16983928Y-16098214D01*
X17255357Y-16098214D02*
X17226786Y-16083929D01*
X17212500Y-16055357D01*
X17212500Y-15798214D01*
X17483928Y-16083929D02*
X17455357Y-16098214D01*
X17398214Y-16098214D01*
X17369643Y-16083929D01*
X17355357Y-16055357D01*
X17355357Y-15941071D01*
X17369643Y-15912500D01*
X17398214Y-15898214D01*
X17455357Y-15898214D01*
X17483928Y-15912500D01*
X17498214Y-15941071D01*
X17498214Y-15969643D01*
X17355357Y-15998214D01*
X17612500Y-16083929D02*
X17641071Y-16098214D01*
X17698214Y-16098214D01*
X17726786Y-16083929D01*
X17741071Y-16055357D01*
X17741071Y-16041071D01*
X17726786Y-16012500D01*
X17698214Y-15998214D01*
X17655357Y-15998214D01*
X17626786Y-15983929D01*
X17612500Y-15955357D01*
X17612500Y-15941071D01*
X17626786Y-15912500D01*
X17655357Y-15898214D01*
X17698214Y-15898214D01*
X17726786Y-15912500D01*
X17841071Y-16212500D02*
X17855357Y-16198214D01*
X17883928Y-16155357D01*
X17898214Y-16126786D01*
X17912500Y-16083929D01*
X17926786Y-16012500D01*
X17926786Y-15955357D01*
X17912500Y-15883929D01*
X17898214Y-15841071D01*
X17883928Y-15812500D01*
X17855357Y-15769643D01*
X17841071Y-15755357D01*
X10497500Y-16358500D02*
G75*
G03*
X10497500Y-16358500I-38100J0D01*
G01*
X10841071Y-16194214D02*
X10869643Y-16194214D01*
X10898214Y-16208500D01*
X10912500Y-16222786D01*
X10926786Y-16251357D01*
X10941071Y-16308500D01*
X10941071Y-16379929D01*
X10926786Y-16437071D01*
X10912500Y-16465643D01*
X10898214Y-16479929D01*
X10869643Y-16494214D01*
X10841071Y-16494214D01*
X10812500Y-16479929D01*
X10798214Y-16465643D01*
X10783928Y-16437071D01*
X10769643Y-16379929D01*
X10769643Y-16308500D01*
X10783928Y-16251357D01*
X10798214Y-16222786D01*
X10812500Y-16208500D01*
X10841071Y-16194214D01*
X11069643Y-16465643D02*
X11083928Y-16479929D01*
X11069643Y-16494214D01*
X11055357Y-16479929D01*
X11069643Y-16465643D01*
X11069643Y-16494214D01*
X11183928Y-16194214D02*
X11383928Y-16194214D01*
X11255357Y-16494214D01*
X11626786Y-16194214D02*
X11569643Y-16194214D01*
X11541071Y-16208500D01*
X11526786Y-16222786D01*
X11498214Y-16265643D01*
X11483928Y-16322786D01*
X11483928Y-16437071D01*
X11498214Y-16465643D01*
X11512500Y-16479929D01*
X11541071Y-16494214D01*
X11598214Y-16494214D01*
X11626786Y-16479929D01*
X11641071Y-16465643D01*
X11655357Y-16437071D01*
X11655357Y-16365643D01*
X11641071Y-16337071D01*
X11626786Y-16322786D01*
X11598214Y-16308500D01*
X11541071Y-16308500D01*
X11512500Y-16322786D01*
X11498214Y-16337071D01*
X11483928Y-16365643D01*
X11769643Y-16222786D02*
X11783928Y-16208500D01*
X11812500Y-16194214D01*
X11883928Y-16194214D01*
X11912500Y-16208500D01*
X11926786Y-16222786D01*
X11941071Y-16251357D01*
X11941071Y-16279929D01*
X11926786Y-16322786D01*
X11755357Y-16494214D01*
X11941071Y-16494214D01*
X12069643Y-16494214D02*
X12069643Y-16294214D01*
X12069643Y-16322786D02*
X12083928Y-16308500D01*
X12112500Y-16294214D01*
X12155357Y-16294214D01*
X12183928Y-16308500D01*
X12198214Y-16337071D01*
X12198214Y-16494214D01*
X12198214Y-16337071D02*
X12212500Y-16308500D01*
X12241071Y-16294214D01*
X12283928Y-16294214D01*
X12312500Y-16308500D01*
X12326786Y-16337071D01*
X12326786Y-16494214D01*
X12469643Y-16494214D02*
X12469643Y-16294214D01*
X12469643Y-16322786D02*
X12483928Y-16308500D01*
X12512500Y-16294214D01*
X12555357Y-16294214D01*
X12583928Y-16308500D01*
X12598214Y-16337071D01*
X12598214Y-16494214D01*
X12598214Y-16337071D02*
X12612500Y-16308500D01*
X12641071Y-16294214D01*
X12683928Y-16294214D01*
X12712500Y-16308500D01*
X12726786Y-16337071D01*
X12726786Y-16494214D01*
X13312500Y-16179929D02*
X13055357Y-16565643D01*
X13698214Y-16194214D02*
X13726786Y-16194214D01*
X13755357Y-16208500D01*
X13769643Y-16222786D01*
X13783928Y-16251357D01*
X13798214Y-16308500D01*
X13798214Y-16379929D01*
X13783928Y-16437071D01*
X13769643Y-16465643D01*
X13755357Y-16479929D01*
X13726786Y-16494214D01*
X13698214Y-16494214D01*
X13669643Y-16479929D01*
X13655357Y-16465643D01*
X13641071Y-16437071D01*
X13626786Y-16379929D01*
X13626786Y-16308500D01*
X13641071Y-16251357D01*
X13655357Y-16222786D01*
X13669643Y-16208500D01*
X13698214Y-16194214D01*
X13926786Y-16465643D02*
X13941071Y-16479929D01*
X13926786Y-16494214D01*
X13912500Y-16479929D01*
X13926786Y-16465643D01*
X13926786Y-16494214D01*
X14126786Y-16194214D02*
X14155357Y-16194214D01*
X14183928Y-16208500D01*
X14198214Y-16222786D01*
X14212500Y-16251357D01*
X14226786Y-16308500D01*
X14226786Y-16379929D01*
X14212500Y-16437071D01*
X14198214Y-16465643D01*
X14183928Y-16479929D01*
X14155357Y-16494214D01*
X14126786Y-16494214D01*
X14098214Y-16479929D01*
X14083928Y-16465643D01*
X14069643Y-16437071D01*
X14055357Y-16379929D01*
X14055357Y-16308500D01*
X14069643Y-16251357D01*
X14083928Y-16222786D01*
X14098214Y-16208500D01*
X14126786Y-16194214D01*
X14326786Y-16194214D02*
X14512500Y-16194214D01*
X14412500Y-16308500D01*
X14455357Y-16308500D01*
X14483928Y-16322786D01*
X14498214Y-16337071D01*
X14512500Y-16365643D01*
X14512500Y-16437071D01*
X14498214Y-16465643D01*
X14483928Y-16479929D01*
X14455357Y-16494214D01*
X14369643Y-16494214D01*
X14341071Y-16479929D01*
X14326786Y-16465643D01*
X14698214Y-16194214D02*
X14726786Y-16194214D01*
X14755357Y-16208500D01*
X14769643Y-16222786D01*
X14783928Y-16251357D01*
X14798214Y-16308500D01*
X14798214Y-16379929D01*
X14783928Y-16437071D01*
X14769643Y-16465643D01*
X14755357Y-16479929D01*
X14726786Y-16494214D01*
X14698214Y-16494214D01*
X14669643Y-16479929D01*
X14655357Y-16465643D01*
X14641071Y-16437071D01*
X14626786Y-16379929D01*
X14626786Y-16308500D01*
X14641071Y-16251357D01*
X14655357Y-16222786D01*
X14669643Y-16208500D01*
X14698214Y-16194214D01*
X14983928Y-16194214D02*
X15012500Y-16194214D01*
X15041071Y-16208500D01*
X15055357Y-16222786D01*
X15069643Y-16251357D01*
X15083928Y-16308500D01*
X15083928Y-16379929D01*
X15069643Y-16437071D01*
X15055357Y-16465643D01*
X15041071Y-16479929D01*
X15012500Y-16494214D01*
X14983928Y-16494214D01*
X14955357Y-16479929D01*
X14941071Y-16465643D01*
X14926786Y-16437071D01*
X14912500Y-16379929D01*
X14912500Y-16308500D01*
X14926786Y-16251357D01*
X14941071Y-16222786D01*
X14955357Y-16208500D01*
X14983928Y-16194214D01*
X15198214Y-16194214D02*
X15198214Y-16251357D01*
X15312500Y-16194214D02*
X15312500Y-16251357D01*
X15755357Y-16608500D02*
X15741071Y-16594214D01*
X15712500Y-16551357D01*
X15698214Y-16522786D01*
X15683928Y-16479929D01*
X15669643Y-16408500D01*
X15669643Y-16351357D01*
X15683928Y-16279929D01*
X15698214Y-16237071D01*
X15712500Y-16208500D01*
X15741071Y-16165643D01*
X15755357Y-16151357D01*
X15912500Y-16322786D02*
X15883928Y-16308500D01*
X15869643Y-16294214D01*
X15855357Y-16265643D01*
X15855357Y-16251357D01*
X15869643Y-16222786D01*
X15883928Y-16208500D01*
X15912500Y-16194214D01*
X15969643Y-16194214D01*
X15998214Y-16208500D01*
X16012500Y-16222786D01*
X16026786Y-16251357D01*
X16026786Y-16265643D01*
X16012500Y-16294214D01*
X15998214Y-16308500D01*
X15969643Y-16322786D01*
X15912500Y-16322786D01*
X15883928Y-16337071D01*
X15869643Y-16351357D01*
X15855357Y-16379929D01*
X15855357Y-16437071D01*
X15869643Y-16465643D01*
X15883928Y-16479929D01*
X15912500Y-16494214D01*
X15969643Y-16494214D01*
X15998214Y-16479929D01*
X16012500Y-16465643D01*
X16026786Y-16437071D01*
X16026786Y-16379929D01*
X16012500Y-16351357D01*
X15998214Y-16337071D01*
X15969643Y-16322786D01*
X16383928Y-16494214D02*
X16383928Y-16194214D01*
X16512500Y-16494214D02*
X16512500Y-16337071D01*
X16498214Y-16308500D01*
X16469643Y-16294214D01*
X16426786Y-16294214D01*
X16398214Y-16308500D01*
X16383928Y-16322786D01*
X16698214Y-16494214D02*
X16669643Y-16479929D01*
X16655357Y-16465643D01*
X16641071Y-16437071D01*
X16641071Y-16351357D01*
X16655357Y-16322786D01*
X16669643Y-16308500D01*
X16698214Y-16294214D01*
X16741071Y-16294214D01*
X16769643Y-16308500D01*
X16783928Y-16322786D01*
X16798214Y-16351357D01*
X16798214Y-16437071D01*
X16783928Y-16465643D01*
X16769643Y-16479929D01*
X16741071Y-16494214D01*
X16698214Y-16494214D01*
X16969643Y-16494214D02*
X16941071Y-16479929D01*
X16926786Y-16451357D01*
X16926786Y-16194214D01*
X17198214Y-16479929D02*
X17169643Y-16494214D01*
X17112500Y-16494214D01*
X17083928Y-16479929D01*
X17069643Y-16451357D01*
X17069643Y-16337071D01*
X17083928Y-16308500D01*
X17112500Y-16294214D01*
X17169643Y-16294214D01*
X17198214Y-16308500D01*
X17212500Y-16337071D01*
X17212500Y-16365643D01*
X17069643Y-16394214D01*
X17326786Y-16479929D02*
X17355357Y-16494214D01*
X17412500Y-16494214D01*
X17441071Y-16479929D01*
X17455357Y-16451357D01*
X17455357Y-16437071D01*
X17441071Y-16408500D01*
X17412500Y-16394214D01*
X17369643Y-16394214D01*
X17341071Y-16379929D01*
X17326786Y-16351357D01*
X17326786Y-16337071D01*
X17341071Y-16308500D01*
X17369643Y-16294214D01*
X17412500Y-16294214D01*
X17441071Y-16308500D01*
X17555357Y-16608500D02*
X17569643Y-16594214D01*
X17598214Y-16551357D01*
X17612500Y-16522786D01*
X17626786Y-16479929D01*
X17641071Y-16408500D01*
X17641071Y-16351357D01*
X17626786Y-16279929D01*
X17612500Y-16237071D01*
X17598214Y-16208500D01*
X17569643Y-16165643D01*
X17555357Y-16151357D01*
X10447500Y-16704500D02*
X10447500Y-16804500D01*
X10397500Y-16754500D02*
X10497500Y-16754500D01*
X10941071Y-16890214D02*
X10769643Y-16890214D01*
X10855357Y-16890214D02*
X10855357Y-16590214D01*
X10826786Y-16633071D01*
X10798214Y-16661643D01*
X10769643Y-16675929D01*
X11069643Y-16861643D02*
X11083928Y-16875929D01*
X11069643Y-16890214D01*
X11055357Y-16875929D01*
X11069643Y-16861643D01*
X11069643Y-16890214D01*
X11269643Y-16590214D02*
X11298214Y-16590214D01*
X11326786Y-16604500D01*
X11341071Y-16618786D01*
X11355357Y-16647357D01*
X11369643Y-16704500D01*
X11369643Y-16775929D01*
X11355357Y-16833072D01*
X11341071Y-16861643D01*
X11326786Y-16875929D01*
X11298214Y-16890214D01*
X11269643Y-16890214D01*
X11241071Y-16875929D01*
X11226786Y-16861643D01*
X11212500Y-16833072D01*
X11198214Y-16775929D01*
X11198214Y-16704500D01*
X11212500Y-16647357D01*
X11226786Y-16618786D01*
X11241071Y-16604500D01*
X11269643Y-16590214D01*
X11555357Y-16590214D02*
X11583928Y-16590214D01*
X11612500Y-16604500D01*
X11626786Y-16618786D01*
X11641071Y-16647357D01*
X11655357Y-16704500D01*
X11655357Y-16775929D01*
X11641071Y-16833072D01*
X11626786Y-16861643D01*
X11612500Y-16875929D01*
X11583928Y-16890214D01*
X11555357Y-16890214D01*
X11526786Y-16875929D01*
X11512500Y-16861643D01*
X11498214Y-16833072D01*
X11483928Y-16775929D01*
X11483928Y-16704500D01*
X11498214Y-16647357D01*
X11512500Y-16618786D01*
X11526786Y-16604500D01*
X11555357Y-16590214D01*
X11841071Y-16590214D02*
X11869643Y-16590214D01*
X11898214Y-16604500D01*
X11912500Y-16618786D01*
X11926786Y-16647357D01*
X11941071Y-16704500D01*
X11941071Y-16775929D01*
X11926786Y-16833072D01*
X11912500Y-16861643D01*
X11898214Y-16875929D01*
X11869643Y-16890214D01*
X11841071Y-16890214D01*
X11812500Y-16875929D01*
X11798214Y-16861643D01*
X11783928Y-16833072D01*
X11769643Y-16775929D01*
X11769643Y-16704500D01*
X11783928Y-16647357D01*
X11798214Y-16618786D01*
X11812500Y-16604500D01*
X11841071Y-16590214D01*
X12069643Y-16890214D02*
X12069643Y-16690214D01*
X12069643Y-16718786D02*
X12083928Y-16704500D01*
X12112500Y-16690214D01*
X12155357Y-16690214D01*
X12183928Y-16704500D01*
X12198214Y-16733071D01*
X12198214Y-16890214D01*
X12198214Y-16733071D02*
X12212500Y-16704500D01*
X12241071Y-16690214D01*
X12283928Y-16690214D01*
X12312500Y-16704500D01*
X12326786Y-16733071D01*
X12326786Y-16890214D01*
X12469643Y-16890214D02*
X12469643Y-16690214D01*
X12469643Y-16718786D02*
X12483928Y-16704500D01*
X12512500Y-16690214D01*
X12555357Y-16690214D01*
X12583928Y-16704500D01*
X12598214Y-16733071D01*
X12598214Y-16890214D01*
X12598214Y-16733071D02*
X12612500Y-16704500D01*
X12641071Y-16690214D01*
X12683928Y-16690214D01*
X12712500Y-16704500D01*
X12726786Y-16733071D01*
X12726786Y-16890214D01*
X13312500Y-16575929D02*
X13055357Y-16961643D01*
X13698214Y-16590214D02*
X13726786Y-16590214D01*
X13755357Y-16604500D01*
X13769643Y-16618786D01*
X13783928Y-16647357D01*
X13798214Y-16704500D01*
X13798214Y-16775929D01*
X13783928Y-16833072D01*
X13769643Y-16861643D01*
X13755357Y-16875929D01*
X13726786Y-16890214D01*
X13698214Y-16890214D01*
X13669643Y-16875929D01*
X13655357Y-16861643D01*
X13641071Y-16833072D01*
X13626786Y-16775929D01*
X13626786Y-16704500D01*
X13641071Y-16647357D01*
X13655357Y-16618786D01*
X13669643Y-16604500D01*
X13698214Y-16590214D01*
X13926786Y-16861643D02*
X13941071Y-16875929D01*
X13926786Y-16890214D01*
X13912500Y-16875929D01*
X13926786Y-16861643D01*
X13926786Y-16890214D01*
X14126786Y-16590214D02*
X14155357Y-16590214D01*
X14183928Y-16604500D01*
X14198214Y-16618786D01*
X14212500Y-16647357D01*
X14226786Y-16704500D01*
X14226786Y-16775929D01*
X14212500Y-16833072D01*
X14198214Y-16861643D01*
X14183928Y-16875929D01*
X14155357Y-16890214D01*
X14126786Y-16890214D01*
X14098214Y-16875929D01*
X14083928Y-16861643D01*
X14069643Y-16833072D01*
X14055357Y-16775929D01*
X14055357Y-16704500D01*
X14069643Y-16647357D01*
X14083928Y-16618786D01*
X14098214Y-16604500D01*
X14126786Y-16590214D01*
X14326786Y-16590214D02*
X14512500Y-16590214D01*
X14412500Y-16704500D01*
X14455357Y-16704500D01*
X14483928Y-16718786D01*
X14498214Y-16733071D01*
X14512500Y-16761643D01*
X14512500Y-16833072D01*
X14498214Y-16861643D01*
X14483928Y-16875929D01*
X14455357Y-16890214D01*
X14369643Y-16890214D01*
X14341071Y-16875929D01*
X14326786Y-16861643D01*
X14655357Y-16890214D02*
X14712500Y-16890214D01*
X14741071Y-16875929D01*
X14755357Y-16861643D01*
X14783928Y-16818786D01*
X14798214Y-16761643D01*
X14798214Y-16647357D01*
X14783928Y-16618786D01*
X14769643Y-16604500D01*
X14741071Y-16590214D01*
X14683928Y-16590214D01*
X14655357Y-16604500D01*
X14641071Y-16618786D01*
X14626786Y-16647357D01*
X14626786Y-16718786D01*
X14641071Y-16747357D01*
X14655357Y-16761643D01*
X14683928Y-16775929D01*
X14741071Y-16775929D01*
X14769643Y-16761643D01*
X14783928Y-16747357D01*
X14798214Y-16718786D01*
X15055357Y-16690214D02*
X15055357Y-16890214D01*
X14983928Y-16575929D02*
X14912500Y-16790214D01*
X15098214Y-16790214D01*
X15198214Y-16590214D02*
X15198214Y-16647357D01*
X15312500Y-16590214D02*
X15312500Y-16647357D01*
X15755357Y-17004500D02*
X15741071Y-16990214D01*
X15712500Y-16947357D01*
X15698214Y-16918786D01*
X15683928Y-16875929D01*
X15669643Y-16804500D01*
X15669643Y-16747357D01*
X15683928Y-16675929D01*
X15698214Y-16633071D01*
X15712500Y-16604500D01*
X15741071Y-16561643D01*
X15755357Y-16547357D01*
X15841071Y-16590214D02*
X16026786Y-16590214D01*
X15926786Y-16704500D01*
X15969643Y-16704500D01*
X15998214Y-16718786D01*
X16012500Y-16733071D01*
X16026786Y-16761643D01*
X16026786Y-16833072D01*
X16012500Y-16861643D01*
X15998214Y-16875929D01*
X15969643Y-16890214D01*
X15883928Y-16890214D01*
X15855357Y-16875929D01*
X15841071Y-16861643D01*
X16141071Y-16618786D02*
X16155357Y-16604500D01*
X16183928Y-16590214D01*
X16255357Y-16590214D01*
X16283928Y-16604500D01*
X16298214Y-16618786D01*
X16312500Y-16647357D01*
X16312500Y-16675929D01*
X16298214Y-16718786D01*
X16126786Y-16890214D01*
X16312500Y-16890214D01*
X16669643Y-16890214D02*
X16669643Y-16590214D01*
X16798214Y-16890214D02*
X16798214Y-16733071D01*
X16783928Y-16704500D01*
X16755357Y-16690214D01*
X16712500Y-16690214D01*
X16683928Y-16704500D01*
X16669643Y-16718786D01*
X16983928Y-16890214D02*
X16955357Y-16875929D01*
X16941071Y-16861643D01*
X16926786Y-16833072D01*
X16926786Y-16747357D01*
X16941071Y-16718786D01*
X16955357Y-16704500D01*
X16983928Y-16690214D01*
X17026786Y-16690214D01*
X17055357Y-16704500D01*
X17069643Y-16718786D01*
X17083928Y-16747357D01*
X17083928Y-16833072D01*
X17069643Y-16861643D01*
X17055357Y-16875929D01*
X17026786Y-16890214D01*
X16983928Y-16890214D01*
X17255357Y-16890214D02*
X17226786Y-16875929D01*
X17212500Y-16847357D01*
X17212500Y-16590214D01*
X17483928Y-16875929D02*
X17455357Y-16890214D01*
X17398214Y-16890214D01*
X17369643Y-16875929D01*
X17355357Y-16847357D01*
X17355357Y-16733071D01*
X17369643Y-16704500D01*
X17398214Y-16690214D01*
X17455357Y-16690214D01*
X17483928Y-16704500D01*
X17498214Y-16733071D01*
X17498214Y-16761643D01*
X17355357Y-16790214D01*
X17612500Y-16875929D02*
X17641071Y-16890214D01*
X17698214Y-16890214D01*
X17726786Y-16875929D01*
X17741071Y-16847357D01*
X17741071Y-16833072D01*
X17726786Y-16804500D01*
X17698214Y-16790214D01*
X17655357Y-16790214D01*
X17626786Y-16775929D01*
X17612500Y-16747357D01*
X17612500Y-16733071D01*
X17626786Y-16704500D01*
X17655357Y-16690214D01*
X17698214Y-16690214D01*
X17726786Y-16704500D01*
X17841071Y-17004500D02*
X17855357Y-16990214D01*
X17883928Y-16947357D01*
X17898214Y-16918786D01*
X17912500Y-16875929D01*
X17926786Y-16804500D01*
X17926786Y-16747357D01*
X17912500Y-16675929D01*
X17898214Y-16633071D01*
X17883928Y-16604500D01*
X17855357Y-16561643D01*
X17841071Y-16547357D01*
X10481391Y-17189391D02*
X10481391Y-17111609D01*
X10403609Y-17111609D01*
X10403609Y-17189391D01*
X10481391Y-17189391D01*
X10941071Y-17286214D02*
X10769643Y-17286214D01*
X10855357Y-17286214D02*
X10855357Y-16986214D01*
X10826786Y-17029072D01*
X10798214Y-17057643D01*
X10769643Y-17071929D01*
X11069643Y-17257643D02*
X11083928Y-17271929D01*
X11069643Y-17286214D01*
X11055357Y-17271929D01*
X11069643Y-17257643D01*
X11069643Y-17286214D01*
X11369643Y-17286214D02*
X11198214Y-17286214D01*
X11283928Y-17286214D02*
X11283928Y-16986214D01*
X11255357Y-17029072D01*
X11226786Y-17057643D01*
X11198214Y-17071929D01*
X11555357Y-16986214D02*
X11583928Y-16986214D01*
X11612500Y-17000500D01*
X11626786Y-17014786D01*
X11641071Y-17043357D01*
X11655357Y-17100500D01*
X11655357Y-17171929D01*
X11641071Y-17229072D01*
X11626786Y-17257643D01*
X11612500Y-17271929D01*
X11583928Y-17286214D01*
X11555357Y-17286214D01*
X11526786Y-17271929D01*
X11512500Y-17257643D01*
X11498214Y-17229072D01*
X11483928Y-17171929D01*
X11483928Y-17100500D01*
X11498214Y-17043357D01*
X11512500Y-17014786D01*
X11526786Y-17000500D01*
X11555357Y-16986214D01*
X11841071Y-16986214D02*
X11869643Y-16986214D01*
X11898214Y-17000500D01*
X11912500Y-17014786D01*
X11926786Y-17043357D01*
X11941071Y-17100500D01*
X11941071Y-17171929D01*
X11926786Y-17229072D01*
X11912500Y-17257643D01*
X11898214Y-17271929D01*
X11869643Y-17286214D01*
X11841071Y-17286214D01*
X11812500Y-17271929D01*
X11798214Y-17257643D01*
X11783928Y-17229072D01*
X11769643Y-17171929D01*
X11769643Y-17100500D01*
X11783928Y-17043357D01*
X11798214Y-17014786D01*
X11812500Y-17000500D01*
X11841071Y-16986214D01*
X12069643Y-17286214D02*
X12069643Y-17086214D01*
X12069643Y-17114786D02*
X12083928Y-17100500D01*
X12112500Y-17086214D01*
X12155357Y-17086214D01*
X12183928Y-17100500D01*
X12198214Y-17129072D01*
X12198214Y-17286214D01*
X12198214Y-17129072D02*
X12212500Y-17100500D01*
X12241071Y-17086214D01*
X12283928Y-17086214D01*
X12312500Y-17100500D01*
X12326786Y-17129072D01*
X12326786Y-17286214D01*
X12469643Y-17286214D02*
X12469643Y-17086214D01*
X12469643Y-17114786D02*
X12483928Y-17100500D01*
X12512500Y-17086214D01*
X12555357Y-17086214D01*
X12583928Y-17100500D01*
X12598214Y-17129072D01*
X12598214Y-17286214D01*
X12598214Y-17129072D02*
X12612500Y-17100500D01*
X12641071Y-17086214D01*
X12683928Y-17086214D01*
X12712500Y-17100500D01*
X12726786Y-17129072D01*
X12726786Y-17286214D01*
X13312500Y-16971929D02*
X13055357Y-17357643D01*
X13698214Y-16986214D02*
X13726786Y-16986214D01*
X13755357Y-17000500D01*
X13769643Y-17014786D01*
X13783928Y-17043357D01*
X13798214Y-17100500D01*
X13798214Y-17171929D01*
X13783928Y-17229072D01*
X13769643Y-17257643D01*
X13755357Y-17271929D01*
X13726786Y-17286214D01*
X13698214Y-17286214D01*
X13669643Y-17271929D01*
X13655357Y-17257643D01*
X13641071Y-17229072D01*
X13626786Y-17171929D01*
X13626786Y-17100500D01*
X13641071Y-17043357D01*
X13655357Y-17014786D01*
X13669643Y-17000500D01*
X13698214Y-16986214D01*
X13926786Y-17257643D02*
X13941071Y-17271929D01*
X13926786Y-17286214D01*
X13912500Y-17271929D01*
X13926786Y-17257643D01*
X13926786Y-17286214D01*
X14126786Y-16986214D02*
X14155357Y-16986214D01*
X14183928Y-17000500D01*
X14198214Y-17014786D01*
X14212500Y-17043357D01*
X14226786Y-17100500D01*
X14226786Y-17171929D01*
X14212500Y-17229072D01*
X14198214Y-17257643D01*
X14183928Y-17271929D01*
X14155357Y-17286214D01*
X14126786Y-17286214D01*
X14098214Y-17271929D01*
X14083928Y-17257643D01*
X14069643Y-17229072D01*
X14055357Y-17171929D01*
X14055357Y-17100500D01*
X14069643Y-17043357D01*
X14083928Y-17014786D01*
X14098214Y-17000500D01*
X14126786Y-16986214D01*
X14483928Y-17086214D02*
X14483928Y-17286214D01*
X14412500Y-16971929D02*
X14341071Y-17186214D01*
X14526786Y-17186214D01*
X14612500Y-16986214D02*
X14798214Y-16986214D01*
X14698214Y-17100500D01*
X14741071Y-17100500D01*
X14769643Y-17114786D01*
X14783928Y-17129072D01*
X14798214Y-17157643D01*
X14798214Y-17229072D01*
X14783928Y-17257643D01*
X14769643Y-17271929D01*
X14741071Y-17286214D01*
X14655357Y-17286214D01*
X14626786Y-17271929D01*
X14612500Y-17257643D01*
X14898214Y-16986214D02*
X15083928Y-16986214D01*
X14983928Y-17100500D01*
X15026786Y-17100500D01*
X15055357Y-17114786D01*
X15069643Y-17129072D01*
X15083928Y-17157643D01*
X15083928Y-17229072D01*
X15069643Y-17257643D01*
X15055357Y-17271929D01*
X15026786Y-17286214D01*
X14941071Y-17286214D01*
X14912500Y-17271929D01*
X14898214Y-17257643D01*
X15198214Y-16986214D02*
X15198214Y-17043357D01*
X15312500Y-16986214D02*
X15312500Y-17043357D01*
X15755357Y-17400500D02*
X15741071Y-17386214D01*
X15712500Y-17343357D01*
X15698214Y-17314786D01*
X15683928Y-17271929D01*
X15669643Y-17200500D01*
X15669643Y-17143357D01*
X15683928Y-17071929D01*
X15698214Y-17029072D01*
X15712500Y-17000500D01*
X15741071Y-16957643D01*
X15755357Y-16943357D01*
X15855357Y-17014786D02*
X15869643Y-17000500D01*
X15898214Y-16986214D01*
X15969643Y-16986214D01*
X15998214Y-17000500D01*
X16012500Y-17014786D01*
X16026786Y-17043357D01*
X16026786Y-17071929D01*
X16012500Y-17114786D01*
X15841071Y-17286214D01*
X16026786Y-17286214D01*
X16212500Y-16986214D02*
X16241071Y-16986214D01*
X16269643Y-17000500D01*
X16283928Y-17014786D01*
X16298214Y-17043357D01*
X16312500Y-17100500D01*
X16312500Y-17171929D01*
X16298214Y-17229072D01*
X16283928Y-17257643D01*
X16269643Y-17271929D01*
X16241071Y-17286214D01*
X16212500Y-17286214D01*
X16183928Y-17271929D01*
X16169643Y-17257643D01*
X16155357Y-17229072D01*
X16141071Y-17171929D01*
X16141071Y-17100500D01*
X16155357Y-17043357D01*
X16169643Y-17014786D01*
X16183928Y-17000500D01*
X16212500Y-16986214D01*
X16669643Y-17286214D02*
X16669643Y-16986214D01*
X16798214Y-17286214D02*
X16798214Y-17129072D01*
X16783928Y-17100500D01*
X16755357Y-17086214D01*
X16712500Y-17086214D01*
X16683928Y-17100500D01*
X16669643Y-17114786D01*
X16983928Y-17286214D02*
X16955357Y-17271929D01*
X16941071Y-17257643D01*
X16926786Y-17229072D01*
X16926786Y-17143357D01*
X16941071Y-17114786D01*
X16955357Y-17100500D01*
X16983928Y-17086214D01*
X17026786Y-17086214D01*
X17055357Y-17100500D01*
X17069643Y-17114786D01*
X17083928Y-17143357D01*
X17083928Y-17229072D01*
X17069643Y-17257643D01*
X17055357Y-17271929D01*
X17026786Y-17286214D01*
X16983928Y-17286214D01*
X17255357Y-17286214D02*
X17226786Y-17271929D01*
X17212500Y-17243357D01*
X17212500Y-16986214D01*
X17483928Y-17271929D02*
X17455357Y-17286214D01*
X17398214Y-17286214D01*
X17369643Y-17271929D01*
X17355357Y-17243357D01*
X17355357Y-17129072D01*
X17369643Y-17100500D01*
X17398214Y-17086214D01*
X17455357Y-17086214D01*
X17483928Y-17100500D01*
X17498214Y-17129072D01*
X17498214Y-17157643D01*
X17355357Y-17186214D01*
X17612500Y-17271929D02*
X17641071Y-17286214D01*
X17698214Y-17286214D01*
X17726786Y-17271929D01*
X17741071Y-17243357D01*
X17741071Y-17229072D01*
X17726786Y-17200500D01*
X17698214Y-17186214D01*
X17655357Y-17186214D01*
X17626786Y-17171929D01*
X17612500Y-17143357D01*
X17612500Y-17129072D01*
X17626786Y-17100500D01*
X17655357Y-17086214D01*
X17698214Y-17086214D01*
X17726786Y-17100500D01*
X17841071Y-17400500D02*
X17855357Y-17386214D01*
X17883928Y-17343357D01*
X17898214Y-17314786D01*
X17912500Y-17271929D01*
X17926786Y-17200500D01*
X17926786Y-17143357D01*
X17912500Y-17071929D01*
X17898214Y-17029072D01*
X17883928Y-17000500D01*
X17855357Y-16957643D01*
X17841071Y-16943357D01*
M02*
